<?xml version="1.0" encoding="UTF-8"?>
<svg version="1.1" xmlns="http://www.w3.org/2000/svg" width="500" height="240">
<path d="M0 0 C165 0 330 0 500 0 C500 79.2 500 158.4 500 240 C335 240 170 240 0 240 C0 160.8 0 81.6 0 0 Z " fill="#FEFEFE" transform="translate(0,0)"/>
<path d="M0 0 C0 0.33 0 0.66 0 1 C-1.98 1.33 -3.96 1.66 -6 2 C-6 2.66 -6 3.32 -6 4 C-6.73863281 4.20753906 -7.47726563 4.41507812 -8.23828125 4.62890625 C-22.77699626 9.04409416 -34.19351443 17.08363686 -41.75 30.41015625 C-43.70979196 34.47060023 -44.97633916 38.61814244 -46 43 C-46.18820313 43.72960937 -46.37640625 44.45921875 -46.5703125 45.2109375 C-47.19237137 49.24866509 -47.10434308 53.23440871 -47.0625 57.3125 C-47.05798828 58.14845703 -47.05347656 58.98441406 -47.04882812 59.84570312 C-47.03710548 61.89716649 -47.01917203 63.94859273 -47 66 C-46.99613281 64.23849609 -46.99613281 64.23849609 -46.9921875 62.44140625 C-46.75352291 49.32034045 -44.78436156 36.01721117 -37 25 C-36.34 25 -35.68 25 -35 25 C-34.75894531 24.42507812 -34.51789063 23.85015625 -34.26953125 23.2578125 C-32.75476107 20.56385199 -31.00033578 18.91962457 -28.6875 16.875 C-27.92824219 16.19179687 -27.16898438 15.50859375 -26.38671875 14.8046875 C-23.98820697 12.99108285 -21.83148432 11.97222647 -19 11 C-19.37644248 13.60700463 -19.7343842 14.75687341 -21.70703125 16.5625 C-22.40183594 17.036875 -23.09664062 17.51125 -23.8125 18 C-29.62741178 22.00869967 -29.62741178 22.00869967 -33 28 C-31.9171875 27.319375 -31.9171875 27.319375 -30.8125 26.625 C-28.25105919 25.14505642 -25.76722011 24.02782461 -23 23 C-23.91447846 24.08518111 -24.83170407 25.16804738 -25.75 26.25 C-26.26046875 26.85328125 -26.7709375 27.4565625 -27.296875 28.078125 C-29 30 -29 30 -31.03515625 31.859375 C-33.37607911 34.40972436 -34.4151542 36.78903267 -35.6875 40 C-36.10386719 41.03125 -36.52023438 42.0625 -36.94921875 43.125 C-40.88218397 53.88582678 -39.47536869 65.26777336 -36 76 C-34.37633534 79.24732932 -31.24612161 79.70155136 -28 81 C-28.66 79.35 -29.32 77.7 -30 76 C-27.69332391 77.14776636 -25.40041195 78.31360568 -23.1171875 79.5078125 C-16.16503773 82.9755113 -10.79172755 84.94978169 -3 84 C-2.67 83.34 -2.34 82.68 -2 82 C-3.11375 81.938125 -4.2275 81.87625 -5.375 81.8125 C-10.82392948 81.16800296 -15.26109941 78.63164357 -20 76 C-18 75 -18 75 -15.5390625 75.7421875 C-14.09660156 76.30292969 -14.09660156 76.30292969 -12.625 76.875 C1.23111479 82.21576662 10.90540534 78.77257968 24.23828125 73.37890625 C27.18254011 71.90885904 29.45227974 70.06536358 32 68 C32.66 68 33.32 68 34 68 C34.495 66.515 34.495 66.515 35 65 C35.66 65 36.32 65 37 65 C37.28875 64.42121094 37.5775 63.84242188 37.875 63.24609375 C38.57910758 61.84032341 39.28685952 60.43636587 40 59.03515625 C40.33 58.38417969 40.66 57.73320313 41 57.0625 C41.33 56.41410156 41.66 55.76570313 42 55.09765625 C45.39107733 47.9843417 47.26210775 40.09195197 45.3203125 32.2578125 C44.48111931 29.90508981 44.48111931 29.90508981 43.49609375 27.8046875 C43.25052734 26.91136719 43.25052734 26.91136719 43 26 C43.99 24.515 43.99 24.515 45 23 C49.96027989 27.96027989 52.10991523 30.25219576 52.19042969 37.54663086 C52.17489422 48.8991713 50.40616527 58.3907521 44 68 C43.83333333 71 43.83333333 71 44 74 C44 74.99 44 75.98 44 77 C43.34 76.67 42.68 76.34 42 76 C42 76.33 42 76.66 42 77 C42.66 77.33 43.32 77.66 44 78 C44 78.66 44 79.32 44 80 C45.65 79.67 47.3 79.34 49 79 C49.75 80.6953125 49.75 80.6953125 50 83 C47.44680402 86.71931915 44.18238172 89.81255885 41 93 C40.42636719 93.58523437 39.85273438 94.17046875 39.26171875 94.7734375 C28.3642518 104.99488292 13.6711034 108.5164584 -0.85327148 108.34936523 C-6.7249399 108.15450167 -11.64019842 107.38023137 -17 105 C-18.01320312 104.55914062 -19.02640625 104.11828125 -20.0703125 103.6640625 C-33.17775127 97.31175766 -42.27877302 87.63948914 -48.1875 74.375 C-48.51105469 73.66085938 -48.83460938 72.94671875 -49.16796875 72.2109375 C-53.02027076 61.974304 -52.93309388 45.8444182 -49.3125 35.625 C-48.58843695 34.06082199 -47.81989927 32.51614159 -47 31 C-46.63777344 30.23171875 -46.27554688 29.4634375 -45.90234375 28.671875 C-39.21637621 15.34526852 -27.46107445 6.46571665 -13.6875 1.3125 C-9.00159683 -0.21759083 -4.90278759 -0.23346608 0 0 Z " fill="#E5F8FA" transform="translate(243,68)"/>
<path d="M0 0 C0 0.33 0 0.66 0 1 C-1.98 1.33 -3.96 1.66 -6 2 C-6 2.66 -6 3.32 -6 4 C-6.73863281 4.20753906 -7.47726563 4.41507812 -8.23828125 4.62890625 C-22.77699626 9.04409416 -34.19351443 17.08363686 -41.75 30.41015625 C-43.70979196 34.47060023 -44.97633916 38.61814244 -46 43 C-46.18820313 43.72960937 -46.37640625 44.45921875 -46.5703125 45.2109375 C-47.19237137 49.24866509 -47.10434308 53.23440871 -47.0625 57.3125 C-47.05798828 58.14845703 -47.05347656 58.98441406 -47.04882812 59.84570312 C-47.03710548 61.89716649 -47.01917203 63.94859273 -47 66 C-46.99613281 64.23849609 -46.99613281 64.23849609 -46.9921875 62.44140625 C-46.75352291 49.32034045 -44.78436156 36.01721117 -37 25 C-36.34 25 -35.68 25 -35 25 C-34.75894531 24.42507812 -34.51789063 23.85015625 -34.26953125 23.2578125 C-32.75476107 20.56385199 -31.00033578 18.91962457 -28.6875 16.875 C-27.92824219 16.19179687 -27.16898438 15.50859375 -26.38671875 14.8046875 C-23.98820697 12.99108285 -21.83148432 11.97222647 -19 11 C-19.37644248 13.60700463 -19.7343842 14.75687341 -21.70703125 16.5625 C-22.40183594 17.036875 -23.09664062 17.51125 -23.8125 18 C-29.62741178 22.00869967 -29.62741178 22.00869967 -33 28 C-31.9171875 27.319375 -31.9171875 27.319375 -30.8125 26.625 C-28.25105919 25.14505642 -25.76722011 24.02782461 -23 23 C-23.91447846 24.08518111 -24.83170407 25.16804738 -25.75 26.25 C-26.26046875 26.85328125 -26.7709375 27.4565625 -27.296875 28.078125 C-29 30 -29 30 -31.03515625 31.859375 C-33.37607911 34.40972436 -34.4151542 36.78903267 -35.6875 40 C-36.10386719 41.03125 -36.52023438 42.0625 -36.94921875 43.125 C-40.80950345 53.68696854 -39.81577699 65.52561616 -36 76 C-31.07303648 86.17561883 -22.33447316 92.88853897 -12.125 97.375 C-1.62250754 100.91533244 12.92290134 100.79230444 23 96 C27.17221243 93.77721786 30.73490157 91.43484361 34 88 C34.66 88.33 35.32 88.66 36 89 C35.01 90.32 34.02 91.64 33 93 C33.53109375 92.46890625 34.0621875 91.9378125 34.609375 91.390625 C38.07291667 87.92708333 41.53645833 84.46354167 45 81 C43.54718935 86.32697239 39.91888622 89.36402802 36 93 C38.73806872 91.72620281 40.96597375 90.34756812 43.25 88.375 C44.61125 87.199375 44.61125 87.199375 46 86 C41.41749692 96.13092593 31.81829621 100.9350318 22 105 C10.03396198 109.43419543 -5.1902361 110.24459164 -17 105 C-18.01320312 104.55914062 -19.02640625 104.11828125 -20.0703125 103.6640625 C-33.17775127 97.31175766 -42.27877302 87.63948914 -48.1875 74.375 C-48.51105469 73.66085938 -48.83460938 72.94671875 -49.16796875 72.2109375 C-53.02027076 61.974304 -52.93309388 45.8444182 -49.3125 35.625 C-48.58843695 34.06082199 -47.81989927 32.51614159 -47 31 C-46.63777344 30.23171875 -46.27554688 29.4634375 -45.90234375 28.671875 C-39.21637621 15.34526852 -27.46107445 6.46571665 -13.6875 1.3125 C-9.00159683 -0.21759083 -4.90278759 -0.23346608 0 0 Z " fill="#1EA4B7" transform="translate(243,68)"/>
<path d="M0 0 C3.856875 -0.061875 7.71375 -0.12375 11.6875 -0.1875 C13.4986731 -0.22846802 13.4986731 -0.22846802 15.34643555 -0.27026367 C16.308479 -0.27775635 17.27052246 -0.28524902 18.26171875 -0.29296875 C19.24100342 -0.3086792 20.22028809 -0.32438965 21.22924805 -0.34057617 C25.83137485 0.22510952 28.33957835 2.23248295 31.3125 5.6875 C33.37242357 9.73105368 33.72553788 12.55829248 33 17 C31.8125 20.375 31.8125 20.375 30 23 C27.38671875 24.1640625 27.38671875 24.1640625 25 25 C25.5775 25.91523438 26.155 26.83046875 26.75 27.7734375 C27.5002341 28.97381205 28.25022133 30.17434092 29 31.375 C29.3815625 31.97828125 29.763125 32.5815625 30.15625 33.203125 C33 37.7734375 33 37.7734375 33 40 C27.95239653 41.06265336 27.95239653 41.06265336 25 40 C23.296875 37.36328125 23.296875 37.36328125 21.6875 34.0625 C19.45764731 29.3681686 19.45764731 29.3681686 15.1171875 26.98046875 C11.73005613 26.66126194 11.73005613 26.66126194 7 27 C7 31.29 7 35.58 7 40 C4.69 40 2.38 40 0 40 C0 26.8 0 13.6 0 0 Z " fill="#23396C" transform="translate(330,189)"/>
<path d="M0 0 C6.78571429 5.35714286 6.78571429 5.35714286 8 9 C8.76394534 24.9717874 6.2873212 37.40992077 -4 50 C-4.47824219 50.65871094 -4.95648438 51.31742188 -5.44921875 51.99609375 C-12.14374102 60.64669809 -23.38337831 66.58352234 -34 69 C-37.886253 69.39660557 -41.72147864 69.42074439 -45.625 69.375 C-46.62273437 69.38660156 -47.62046875 69.39820313 -48.6484375 69.41015625 C-54.54345117 69.38676334 -58.77444491 68.76647034 -64 66 C-60.70939577 63.66915533 -58.29933888 64.11447417 -54.453125 64.69140625 C-44.19800035 65.98146174 -35.66157294 64.54204966 -26 61 C-26.78761719 61.2165625 -27.57523437 61.433125 -28.38671875 61.65625 C-36.41379602 63.70814194 -43.73139734 64.36538833 -52 64 C-51.01 63.34 -50.02 62.68 -49 62 C-47.98131338 61.01904252 -46.97648017 60.02297922 -46 59 C-47.11375 58.938125 -48.2275 58.87625 -49.375 58.8125 C-54.82392948 58.16800296 -59.26109941 55.63164357 -64 53 C-62 52 -62 52 -59.5390625 52.7421875 C-58.57742187 53.11601562 -57.61578125 53.48984375 -56.625 53.875 C-42.76888521 59.21576662 -33.09459466 55.77257968 -19.76171875 50.37890625 C-16.81745989 48.90885904 -14.54772026 47.06536358 -12 45 C-11.34 45 -10.68 45 -10 45 C-9.67 44.01 -9.34 43.02 -9 42 C-8.34 42 -7.68 42 -7 42 C-6.71125 41.42121094 -6.4225 40.84242188 -6.125 40.24609375 C-5.42089242 38.84032341 -4.71314048 37.43636587 -4 36.03515625 C-3.67 35.38417969 -3.34 34.73320313 -3 34.0625 C-2.67 33.41410156 -2.34 32.76570313 -2 32.09765625 C1.40227641 24.96084988 3.20519835 17.12757116 1.35546875 9.2578125 C0.81607446 7.75539003 0.23387232 6.26703591 -0.40625 4.8046875 C-1 3 -1 3 0 0 Z " fill="#2AA6BA" transform="translate(287,91)"/>
<path d="M0 0 C12.87 0 25.74 0 39 0 C37.49146217 3.01707565 36.35988997 4.9664576 34.27734375 7.46875 C33.74262451 8.11714844 33.20790527 8.76554688 32.65698242 9.43359375 C32.08955322 10.11550781 31.52212402 10.79742187 30.9375 11.5 C25.4219191 18.19952158 20.15050672 25.01626208 15 32 C23.25 32.33 31.5 32.66 40 33 C40 35.31 40 37.62 40 40 C27.13 40 14.26 40 1 40 C2.84454158 35.38864605 4.32642082 33.15564184 7.5 29.5 C11.29237582 25.0697264 14.95400033 20.56772704 18.5 15.9375 C18.92087891 15.38964844 19.34175781 14.84179688 19.77539062 14.27734375 C21.59643303 11.89300018 23.33493212 9.49760182 25 7 C16.75 7 8.5 7 0 7 C0 4.69 0 2.38 0 0 Z " fill="#1D3465" transform="translate(127,189)"/>
<path d="M0 0 C0.66 0.33 1.32 0.66 2 1 C2 3.31 2 5.62 2 8 C3.32 8.33 4.64 8.66 6 9 C6 9.66 6 10.32 6 11 C6.99 10.67 7.98 10.34 9 10 C9.79857422 11.10988281 9.79857422 11.10988281 10.61328125 12.2421875 C13.23797703 15.27497837 15.76857494 17.04178401 19.1875 19.125 C20.25355469 19.78757813 21.31960937 20.45015625 22.41796875 21.1328125 C29.54548512 25.07199566 36.34047391 26.51763166 44.4375 26.375 C45.26934814 26.36557373 46.10119629 26.35614746 46.95825195 26.34643555 C57.14226401 26.09629492 66.20736329 23.56933779 73.72265625 16.34375 C74.14417969 15.9003125 74.56570313 15.456875 75 15 C75.99 15.495 75.99 15.495 77 16 C76.01 17.32 75.02 18.64 74 20 C74.53109375 19.46890625 75.0621875 18.9378125 75.609375 18.390625 C79.07291667 14.92708333 82.53645833 11.46354167 86 8 C84.54718935 13.32697239 80.91888622 16.36402802 77 20 C79.73806872 18.72620281 81.96597375 17.34756812 84.25 15.375 C85.61125 14.199375 85.61125 14.199375 87 13 C82.41749692 23.13092593 72.81829621 27.9350318 63 32 C51.03396198 36.43419543 35.8097639 37.24459164 24 32 C22.98679688 31.55914062 21.97359375 31.11828125 20.9296875 30.6640625 C11.9068035 26.29127002 5.68905091 20.33987748 -1 13 C-0.67 12.34 -0.34 11.68 0 11 C-0.11231685 9.49495425 -0.28656253 7.99406232 -0.5 6.5 C-1.11111111 2.22222222 -1.11111111 2.22222222 0 0 Z " fill="#17A7BB" transform="translate(202,141)"/>
<path d="M0 0 C0 12.87 0 25.74 0 39 C-1.98 39 -3.96 39 -6 39 C-6 31.41 -6 23.82 -6 16 C-9.96 19.465 -9.96 19.465 -14 23 C-15.99415006 24.67366165 -17.99179403 26.34323008 -20 28 C-21.27200971 26.89718873 -22.54255853 25.79269231 -23.8125 24.6875 C-24.52019531 24.07261719 -25.22789062 23.45773438 -25.95703125 22.82421875 C-29.6228796 19.55088953 -29.6228796 19.55088953 -31 18 C-31 17.34 -31 16.68 -31 16 C-31.66 16 -32.32 16 -33 16 C-33 23.59 -33 31.18 -33 39 C-34.98 39 -36.96 39 -39 39 C-39 26.46 -39 13.92 -39 1 C-35.54740307 2.72629846 -33.92761399 3.83225473 -31.328125 6.4765625 C-30.66425781 7.146875 -30.00039062 7.8171875 -29.31640625 8.5078125 C-28.63449219 9.20648438 -27.95257813 9.90515625 -27.25 10.625 C-26.55261719 11.33140625 -25.85523438 12.0378125 -25.13671875 12.765625 C-23.41987512 14.50598703 -21.70788168 16.25084981 -20 18 C-15.30113351 14.08749593 -10.89305601 10.00110806 -6.625 5.625 C-1.13297872 0 -1.13297872 0 0 0 Z " fill="#0F285D" transform="translate(268,190)"/>
<path d="M0 0 C0.66 0 1.32 0 2 0 C2.72703125 1.4540625 2.72703125 1.4540625 3.46875 2.9375 C3.94900635 3.89765015 3.94900635 3.89765015 4.43896484 4.87719727 C5.15361143 6.30698375 5.86746308 7.7371678 6.58056641 9.16772461 C8.44958606 12.91435993 10.33047949 16.65384988 12.2421875 20.37890625 C12.59990234 21.08080078 12.95761719 21.78269531 13.32617188 22.50585938 C14.00742562 23.84172565 14.69336598 25.17521596 15.38476562 26.50585938 C17.4763618 30.62462884 18.86591228 34.54956486 20 39 C17.69 39 15.38 39 13 39 C12.01 37.02 11.02 35.04 10 33 C4.06 33 -1.88 33 -8 33 C-8.99 34.98 -9.98 36.96 -11 39 C-13.31 39 -15.62 39 -18 39 C-17.37126109 34.17966832 -15.36525474 30.34541864 -13.18359375 26.07421875 C-12.80767593 25.32662796 -12.43175812 24.57903717 -12.04444885 23.80879211 C-10.84775707 21.43214127 -9.64276934 19.0598105 -8.4375 16.6875 C-7.62249512 15.07254396 -6.80803578 13.45731248 -5.99414062 11.84179688 C-4.00239958 7.89131248 -2.00320991 3.94468031 0 0 Z " fill="#122E6A" transform="translate(95,190)"/>
<path d="M0 0 C3.29350619 3.0656602 5.04235262 6.6705293 7.01171875 10.66015625 C7.57135063 11.77867226 7.57135063 11.77867226 8.14228821 12.91978455 C8.92757523 14.49269467 9.70991664 16.06707841 10.48950195 17.64282227 C11.68659019 20.0606624 12.8943022 22.47297066 14.10351562 24.88476562 C14.86521865 26.41374616 15.62630773 27.94303275 16.38671875 29.47265625 C16.74916183 30.19663101 17.11160492 30.92060577 17.48503113 31.66651917 C20 36.76895437 20 36.76895437 20 39 C16.6875 39.3125 16.6875 39.3125 13 39 C11.04421883 36.60259082 10 35.12413392 10 32 C3.73 32 -2.54 32 -9 32 C-9.66 34.31 -10.32 36.62 -11 39 C-13.64 39 -16.28 39 -19 39 C-17.61496499 34.39720688 -15.69322334 30.31371633 -13.375 26.125 C-9.05305165 18.17883944 -5.00881698 10.1076074 -1 2 C-0.67 1.34 -0.34 0.68 0 0 Z " fill="#173166" transform="translate(197,190)"/>
<path d="M0 0 C0.66 0 1.32 0 2 0 C4.54772377 5.07074188 7.09282532 10.14278789 9.63549805 15.21606445 C10.50098749 16.94201238 11.36719438 18.66760072 12.23413086 20.39282227 C13.47958824 22.87161752 14.72246601 25.35169133 15.96484375 27.83203125 C16.35341049 28.60400345 16.74197723 29.37597565 17.14231873 30.17134094 C17.50261673 30.89186142 17.86291473 31.6123819 18.23413086 32.35473633 C18.55167831 32.98761063 18.86922577 33.62048492 19.19639587 34.27253723 C20 36 20 36 21 39 C18.36 39 15.72 39 13 39 C12.01 35.535 12.01 35.535 11 32 C4.73 32 -1.54 32 -8 32 C-8.99 34.475 -8.99 34.475 -10 37 C-10.33 37.66 -10.66 38.32 -11 39 C-13.31 39 -15.62 39 -18 39 C-16.50570761 34.15487014 -14.55487956 29.68661934 -12.375 25.125 C-12.02888672 24.39482666 -11.68277344 23.66465332 -11.32617188 22.91235352 C-7.66179197 15.21963165 -3.8473013 7.60251294 0 0 Z " fill="#112C64" transform="translate(393,190)"/>
<path d="M0 0 C0.66 0 1.32 0 2 0 C4.54772377 5.07074188 7.09282532 10.14278789 9.63549805 15.21606445 C10.50098749 16.94201238 11.36719438 18.66760072 12.23413086 20.39282227 C13.47958824 22.87161752 14.72246601 25.35169133 15.96484375 27.83203125 C16.35341049 28.60400345 16.74197723 29.37597565 17.14231873 30.17134094 C17.50261673 30.89186142 17.86291473 31.6123819 18.23413086 32.35473633 C18.55167831 32.98761063 18.86922577 33.62048492 19.19639587 34.27253723 C20 36 20 36 21 39 C18.36 39 15.72 39 13 39 C11.5393715 36.35261084 11 35.10551666 11 32 C4.73 32 -1.54 32 -8 32 C-8.99 34.475 -8.99 34.475 -10 37 C-10.33 37.66 -10.66 38.32 -11 39 C-13.31 39 -15.62 39 -18 39 C-16.53413143 34.16861685 -14.54262367 29.8481611 -12.25 25.375 C-11.89728027 24.67785889 -11.54456055 23.98071777 -11.18115234 23.26245117 C-10.12402456 21.17329701 -9.06220255 19.08657738 -8 17 C-6.87250688 14.77209329 -5.74719909 12.543078 -4.625 10.3125 C-4.16351563 9.40113281 -3.70203125 8.48976562 -3.2265625 7.55078125 C-2.03360929 5.06989447 -0.99008906 2.56775434 0 0 Z " fill="#122B63" transform="translate(298,190)"/>
<path d="M0 0 C2.77298887 4.15948331 2.72803636 8.16009164 3.2421875 13.06640625 C3.6964418 16.02522802 3.6964418 16.02522802 5.65234375 17.33984375 C9.77077262 18.49793773 13.96307064 18.90974851 18.19921875 19.4375 C19.12347656 19.623125 20.04773438 19.80875 21 20 C21.495 20.99 21.495 20.99 22 22 C20.86820312 22.19335938 19.73640625 22.38671875 18.5703125 22.5859375 C17.08846798 22.84854286 15.60670108 23.11158648 14.125 23.375 C13.37863281 23.50132813 12.63226563 23.62765625 11.86328125 23.7578125 C7.49009468 24.45268694 7.49009468 24.45268694 4 27 C3.1233433 30.61620887 2.4644441 34.25284001 1.78125 37.91015625 C1.5234375 38.92980469 1.265625 39.94945312 1 41 C0.01 41.495 0.01 41.495 -1 42 C-2.485 33.585 -2.485 33.585 -4 25 C-5.8975 24.690625 -7.795 24.38125 -9.75 24.0625 C-13.21003249 23.49836427 -16.61371526 22.91232429 -20 22 C-20 21.34 -20 20.68 -20 20 C-15.05 19.01 -10.1 18.02 -5 17 C-4.72285156 15.85660156 -4.44570313 14.71320313 -4.16015625 13.53515625 C-3.79445622 12.04422535 -3.42856071 10.55334239 -3.0625 9.0625 C-2.88009766 8.30775391 -2.69769531 7.55300781 -2.50976562 6.77539062 C-1.11328125 1.11328125 -1.11328125 1.11328125 0 0 Z " fill="#122D64" transform="translate(266,58)"/>
<path d="M0 0 C0.66 0 1.32 0 2 0 C4.64 5.61 7.28 11.22 10 17 C9.01 17.33 8.02 17.66 7 18 C6.20046862 21.28696233 5.90341064 22.71023192 7 26 C5.04174127 26.02694851 3.08337774 26.04637218 1.125 26.0625 C0.03445313 26.07410156 -1.05609375 26.08570313 -2.1796875 26.09765625 C-5 26 -5 26 -7 25 C-8.175625 26.2375 -8.175625 26.2375 -9.375 27.5 C-12 30 -12 30 -14 30 C-12.34044641 25.58592961 -10.26045024 21.44590316 -8.125 17.25 C-5.25290712 11.56294447 -2.51064786 5.85817834 0 0 Z " fill="#173268" transform="translate(393,190)"/>
<path d="M0 0 C0.33 0 0.66 0 1 0 C0.391409 4.34707859 -0.27816 8.66896002 -1 13 C4.28 13 9.56 13 15 13 C15.9765625 14.79036458 16.953125 16.58072917 17.9296875 18.37109375 C18.91410024 20.16618315 18.91410024 20.16618315 21 21 C21 22.32 21 23.64 21 25 C19.35 25 17.7 25 16 25 C15.34 23.02 14.68 21.04 14 19 C7.73 19 1.46 19 -5 19 C-5.66 21.31 -6.32 23.62 -7 26 C-9.64 26 -12.28 26 -15 26 C-13.36538263 19.95191575 -10.47991227 14.19773156 -7 9 C-6.01 8.67 -5.02 8.34 -4 8 C-3.67 7.34 -3.34 6.68 -3 6 C-2 4 -1 2 0 0 Z " fill="#0E285F" transform="translate(193,203)"/>
<path d="M0 0 C1.4606285 2.64738916 2 3.89448334 2 7 C1.34 6.67 0.68 6.34 0 6 C0 6.33 0 6.66 0 7 C0.66 7.33 1.32 7.66 2 8 C2 8.66 2 9.32 2 10 C3.65 9.67 5.3 9.34 7 9 C7.75 10.75 7.75 10.75 8 13 C6.5 14.875 6.5 14.875 4 17 C3.443125 17.51175781 2.88625 18.02351563 2.3125 18.55078125 C-2.89440978 23.25271055 -2.89440978 23.25271055 -7 24 C-6.57847656 23.51789063 -6.15695312 23.03578125 -5.72265625 22.5390625 C-4.90087891 21.59160156 -4.90087891 21.59160156 -4.0625 20.625 C-3.24458984 19.68527344 -3.24458984 19.68527344 -2.41015625 18.7265625 C-0.93041376 17.04367666 -0.93041376 17.04367666 0 15 C-2.97 17.97 -5.94 20.94 -9 24 C-9.66 23.67 -10.32 23.34 -11 23 C-10.01 21.68 -9.02 20.36 -8 19 C-9.65 20.32 -11.3 21.64 -13 23 C-12.42415568 20.61435923 -11.77772405 18.33317216 -11 16 C-12.32 15.67 -13.64 15.34 -15 15 C-15 15.99 -15 16.98 -15 18 C-16.98 18 -18.96 18 -21 18 C-18.692707 15.44629707 -16.33309434 13.99673197 -13.3125 12.375 C-7.75634186 9.14410628 -3.97249224 4.99335617 0 0 Z " fill="#DFF8F9" transform="translate(285,138)"/>
<path d="M0 0 C2.60478883 -0.0809313 5.20706653 -0.14045434 7.8125 -0.1875 C8.55048828 -0.21263672 9.28847656 -0.23777344 10.04882812 -0.26367188 C15.48113735 -0.33741363 15.48113735 -0.33741363 17.98828125 1.29296875 C19.70968899 4.19742891 19.35060123 6.72772183 19 10 C17.98828125 11.70703125 17.98828125 11.70703125 16 13 C13.18872957 13.21714241 10.6116655 13.28284276 7.8125 13.1875 C6.68811523 13.16719727 6.68811523 13.16719727 5.54101562 13.14648438 C3.69370233 13.11118539 1.84675934 13.05737917 0 13 C0 8.71 0 4.42 0 0 Z " fill="#FCFDFC" transform="translate(337,196)"/>
<path d="M0 0 C2.64 0 5.28 0 8 0 C8 0.66 8 1.32 8 2 C9.98 2.33 11.96 2.66 14 3 C12.09630113 5.54749522 11.03865722 5.99231658 7.85546875 6.625 C6.64503906 6.74875 5.43460938 6.8725 4.1875 7 C-0.89718252 7.52318277 -4.53318995 8.49311681 -9 11 C-11.09697695 12.08026085 -13.05632828 13.01909596 -15.29296875 13.77734375 C-18.52006194 15.23489089 -20.65095609 17.10327687 -23.25 19.5 C-24.12140625 20.2940625 -24.9928125 21.088125 -25.890625 21.90625 C-28.04297528 23.81949035 -28.04297528 23.81949035 -29 26 C-29.66 26 -30.32 26 -31 26 C-31.26683594 26.66902344 -31.53367188 27.33804688 -31.80859375 28.02734375 C-32.6770255 30.19415214 -33.56818637 32.35189172 -34.47265625 34.50390625 C-38.95302952 45.70762054 -39.97515508 55.98748285 -40 68 C-40.66 67.67 -41.32 67.34 -42 67 C-42.34035507 49.64189144 -41.68668327 35.51173387 -29.6875 21.6875 C-21.6074885 13.29827009 -14.08641025 8.71831688 -3 5 C-3 4.34 -3 3.68 -3 3 C-2.01 2.34 -1.02 1.68 0 1 C0 0.67 0 0.34 0 0 Z " fill="#83E9F3" transform="translate(237,67)"/>
<path d="M0 0 C0.66 0 1.32 0 2 0 C3.32 2.97 4.64 5.94 6 9 C5.34 9 4.68 9 4 9 C4 8.34 4 7.68 4 7 C3.01 7.33 2.02 7.66 1 8 C2.0607507 14.1551455 3.74325249 18.68064574 7 24 C7 24.66 7 25.32 7 26 C5.73542969 25.98259766 5.73542969 25.98259766 4.4453125 25.96484375 C3.34960938 25.95582031 2.25390625 25.94679687 1.125 25.9375 C0.03445313 25.92589844 -1.05609375 25.91429687 -2.1796875 25.90234375 C-4.95177546 25.80255697 -4.95177546 25.80255697 -7 27 C-7 26.01 -7 25.02 -7 24 C-8.32 23.67 -9.64 23.34 -11 23 C-10.45730469 21.92621094 -9.91460937 20.85242188 -9.35546875 19.74609375 C-8.63270385 18.30995051 -7.91005372 16.8737495 -7.1875 15.4375 C-6.83107422 14.73302734 -6.47464844 14.02855469 -6.10742188 13.30273438 C-3.90907591 8.92621075 -1.88336074 4.52125402 0 0 Z " fill="#153064" transform="translate(298,190)"/>
<path d="M0 0 C0.66 0 1.32 0 2 0 C3.17154293 2.28929053 4.33738074 4.58118362 5.5 6.875 C5.83386719 7.52597656 6.16773437 8.17695313 6.51171875 8.84765625 C9 13.7734375 9 13.7734375 9 16 C8.01 16.33 7.02 16.66 6 17 C5.67 17.66 5.34 18.32 5 19 C5.66 19.33 6.32 19.66 7 20 C6.34 20.33 5.68 20.66 5 21 C5.33 22.65 5.66 24.3 6 26 C2.7 26 -0.6 26 -4 26 C-4.25 17.375 -4.25 17.375 -2 14 C-2 13.01 -2 12.02 -2 11 C-2.66 10.67 -3.32 10.34 -4 10 C-2.8905928 6.51329166 -1.73662334 3.22515763 0 0 Z " fill="#163068" transform="translate(95,190)"/>
<path d="M0 0 C0.53109375 0.26683594 1.0621875 0.53367188 1.609375 0.80859375 C2.39828125 1.20175781 3.1871875 1.59492188 4 2 C4.97453125 2.48597656 5.9490625 2.97195312 6.953125 3.47265625 C13.05733361 6.41627344 18.19327655 8.73306967 25 9 C25 9.33 25 9.66 25 10 C32.11136328 10.43342395 38.24801334 9.42071928 45.1171875 7.55859375 C47.91202758 7.01704615 49.36535303 7.03905388 52 8 C40.82115982 11.74859312 30.72180743 14.60918956 18.82421875 12.4140625 C15.92985034 11.77310571 15.92985034 11.77310571 13 13 C7.37500344 11.98565636 3.46922319 10.57537855 -1 7 C-1 6.34 -1 5.68 -1 5 C-0.01 5 0.98 5 2 5 C1.34 3.35 0.68 1.7 0 0 Z " fill="#B3D9D9" transform="translate(213,144)"/>
<path d="M0 0 C0 0.33 0 0.66 0 1 C-1.98 1.33 -3.96 1.66 -6 2 C-6 2.66 -6 3.32 -6 4 C-6.73863281 4.20753906 -7.47726563 4.41507812 -8.23828125 4.62890625 C-23.43685393 9.24448296 -33.04206508 18.05047809 -43 30 C-44 28 -44 28 -43.5625 25.4375 C-38.45198637 14.19437002 -27.05843778 6.71672542 -15.953125 2.16015625 C-10.43616346 0.09605167 -5.87583181 -0.27980151 0 0 Z " fill="#36A7B0" transform="translate(243,68)"/>
<path d="M0 0 C12.87 0 25.74 0 39 0 C39 0.66 39 1.32 39 2 C34.72566956 3.07491629 30.66141129 3.04858488 26.29296875 2.87890625 C25.20487663 2.84348976 25.20487663 2.84348976 24.09480286 2.80735779 C21.79214705 2.7311668 19.48986611 2.64695297 17.1875 2.5625 C15.62046067 2.50923459 14.05340339 2.45649454 12.48632812 2.40429688 C8.65731752 2.27561258 4.82862259 2.13973538 1 2 C1.33 2.33 1.66 2.66 2 3 C5.34177386 2.99244797 8.67103746 2.92167314 12.00976562 2.78515625 C15.38474361 2.7172244 17.57939664 2.74750716 20.51171875 4.5078125 C21.00285156 5.00023437 21.49398437 5.49265625 22 6 C21 7 21 7 18.95874023 7.11352539 C18.08419189 7.10828857 17.20964355 7.10305176 16.30859375 7.09765625 C15.36435547 7.09443359 14.42011719 7.09121094 13.44726562 7.08789062 C12.45404297 7.07951172 11.46082031 7.07113281 10.4375 7.0625 C9.44041016 7.05798828 8.44332031 7.05347656 7.41601562 7.04882812 C4.94395151 7.03700007 2.47200482 7.02051849 0 7 C0 4.69 0 2.38 0 0 Z " fill="#29406C" transform="translate(127,189)"/>
<path d="M0 0 C3.62349393 2.89879515 4.90459714 4.24870249 5.5 8.9375 C5.2268174 12.84327285 4.24968078 15.74184163 2 19 C-0.6875 20.375 -0.6875 20.375 -3 21 C-2.67 21.99 -2.34 22.98 -2 24 C-2.99 24.66 -3.98 25.32 -5 26 C-5 24.68 -5 23.36 -5 22 C-7.97 21.67 -10.94 21.34 -14 21 C-13.505 19.515 -13.505 19.515 -13 18 C-10.33333333 18 -7.66666667 18 -5 18 C-4.896875 17.443125 -4.79375 16.88625 -4.6875 16.3125 C-3.85821592 13.5230899 -2.65700944 11.3860936 -1 9 C-0.34 9 0.32 9 1 9 C1 7.68 1 6.36 1 5 C0.01 5 -0.98 5 -2 5 C-2 4.01 -2 3.02 -2 2 C-1.34 2 -0.68 2 0 2 C0 1.34 0 0.68 0 0 Z " fill="#153064" transform="translate(358,193)"/>
<path d="M0 0 C1.41964971 3.77680394 0.48659885 5.88477669 -0.9375 9.5625 C-3.20255124 16.35765371 -3.304423 22.5177217 -3.02709961 29.63891602 C-2.81695991 35.72543987 -2.81695991 35.72543987 -5 39 C-7.35582065 34.37183267 -7.23521469 30.24465865 -7.125 25.1875 C-7.11597656 24.39923828 -7.10695312 23.61097656 -7.09765625 22.79882812 C-7.07422504 20.86575334 -7.03835838 18.9328362 -7 17 C-7.33 17 -7.66 17 -8 17 C-7.47706548 11.1431334 -6.36818784 6.39946827 -4 1 C-2 0 -2 0 0 0 Z " fill="#1CA8C3" transform="translate(205,103)"/>
<path d="M0 0 C0.65355469 0.56267578 0.65355469 0.56267578 1.3203125 1.13671875 C1.91585937 1.64847656 2.51140625 2.16023437 3.125 2.6875 C3.75921875 3.23277344 4.3934375 3.77804688 5.046875 4.33984375 C6.80475271 5.8340398 8.58505941 7.29458715 10.375 8.75 C13 11 13 11 14 13 C14.66 13.33 15.32 13.66 16 14 C15.3125 15.9375 15.3125 15.9375 14 18 C11.375 18.75 11.375 18.75 9 19 C8.38511719 18.25943359 8.38511719 18.25943359 7.7578125 17.50390625 C6.94957031 16.54291016 6.94957031 16.54291016 6.125 15.5625 C5.59132812 14.92441406 5.05765625 14.28632813 4.5078125 13.62890625 C3.0777243 11.89194996 3.0777243 11.89194996 1 11 C1 10.34 1 9.68 1 9 C0.34 8.67 -0.32 8.34 -1 8 C-1.625 5.9375 -1.625 5.9375 -2 4 C-1.34 4 -0.68 4 0 4 C0 2.68 0 1.36 0 0 Z " fill="#1D356A" transform="translate(236,197)"/>
<path d="M0 0 C0.33 0.66 0.66 1.32 1 2 C-0.1241176 3.29243468 -1.24932592 4.58392075 -2.375 5.875 C-3.00148438 6.59429687 -3.62796875 7.31359375 -4.2734375 8.0546875 C-5.47426834 9.4076598 -6.7208345 10.7208345 -8 12 C-4.05860922 10.33248852 -1.2107188 7.77289351 2 5 C-2.5633949 15.08868187 -12.2069778 20.018085 -22 24 C-22.99 24 -23.98 24 -25 24 C-25 23.34 -25 22.68 -25 22 C-23.865625 21.62875 -22.73125 21.2575 -21.5625 20.875 C-19.60262414 20.11337093 -19.60262414 20.11337093 -18 19 C-17.6451046 17.00371336 -17.31421071 15.00309329 -17 13 C-14.8788062 10.71284483 -12.50811335 8.84670487 -10 7 C-9.34 7.33 -8.68 7.66 -8 8 C-8.99 9.32 -9.98 10.64 -11 12 C-9.72599623 10.75323147 -8.45593346 9.5024352 -7.1875 8.25 C-6.47980469 7.55390625 -5.77210938 6.8578125 -5.04296875 6.140625 C-3.17724121 4.18571355 -1.56830358 2.19661447 0 0 Z " fill="#21A0B4" transform="translate(287,149)"/>
<path d="M0 0 C-5.09559336 5.09559336 -12.7783277 5.3830586 -19.625 5.41015625 C-20.615 5.39855469 -21.605 5.38695312 -22.625 5.375 C-23.62273437 5.38660156 -24.62046875 5.39820313 -25.6484375 5.41015625 C-31.54345117 5.38676334 -35.77444491 4.76647034 -41 2 C-37.7159636 -0.32619245 -35.31169839 0.10362903 -31.47265625 0.69921875 C-24.96229912 1.49115793 -18.02645734 1.78792542 -11.6875 -0.0625 C-7.27071627 -1.18541112 -4.44501616 -0.79375288 0 0 Z " fill="#4FACB8" transform="translate(264,155)"/>
<path d="M0 0 C1.10149236 3.72922591 0.72276797 5.36180548 -0.875 8.9375 C-2.36093168 12.29903075 -3.38953827 15.36970101 -4 19 C-3.34 19.33 -2.68 19.66 -2 20 C-2.66 20 -3.32 20 -4 20 C-3.67 20.99 -3.34 21.98 -3 23 C-4.4375 26.1875 -4.4375 26.1875 -6 29 C-8.31 29 -10.62 29 -13 29 C-12.38353163 24.99774683 -11.10770326 21.86463695 -9.27734375 18.26171875 C-8.47006836 16.66166992 -8.47006836 16.66166992 -7.64648438 15.02929688 C-7.08251953 13.92650391 -6.51855469 12.82371094 -5.9375 11.6875 C-5.08575195 10.00430664 -5.08575195 10.00430664 -4.21679688 8.28710938 C-2.81657023 5.52195592 -1.41081335 2.75976284 0 0 Z " fill="#1F3664" transform="translate(90,200)"/>
<path d="M0 0 C1.65 0.33 3.3 0.66 5 1 C5 1.66 5 2.32 5 3 C10.60236281 5.67149708 15.93139507 7.67594074 22 9 C21.67 9.99 21.34 10.98 21 12 C11.53968532 13.37327149 4.96564708 9.49932803 -3 5 C-2.01 3.35 -1.02 1.7 0 0 Z " fill="#EBFAFA" transform="translate(219,141)"/>
<path d="M0 0 C0.66 0.33 1.32 0.66 2 1 C2 3.31 2 5.62 2 8 C3.32 8.33 4.64 8.66 6 9 C6 9.66 6 10.32 6 11 C6.99 10.67 7.98 10.34 9 10 C13 14.625 13 14.625 13 18 C13.66 18.33 14.32 18.66 15 19 C14.34 19 13.68 19 13 19 C13 19.99 13 20.98 13 22 C13.66 22.33 14.32 22.66 15 23 C14.34 23.33 13.68 23.66 13 24 C12.34 23.67 11.68 23.34 11 23 C11 21.68 11 20.36 11 19 C10.2575 18.95875 9.515 18.9175 8.75 18.875 C4.90481027 17.65153054 4.03541948 15.36897018 2 12 C1.34 11.67 0.68 11.34 0 11 C-0.44921875 9.00390625 -0.44921875 9.00390625 -0.6875 6.5625 C-0.77386719 5.75941406 -0.86023438 4.95632812 -0.94921875 4.12890625 C-1 2 -1 2 0 0 Z " fill="#04A8C2" transform="translate(202,141)"/>
<path d="M0 0 C0.99 0.33 1.98 0.66 3 1 C2 5 2 5 1.5 6.8125 C0.80581156 9.8495744 0.41540653 12.91412295 0 16 C3.63 16 7.26 16 11 16 C11 16.99 11 17.98 11 19 C5.72 19 0.44 19 -5 19 C-4.5464821 11.97047248 -2.87940913 6.4150557 0 0 Z " fill="#0C2B66" transform="translate(91,200)"/>
<path d="M0 0 C0 7.59 0 15.18 0 23 C-0.33 23 -0.66 23 -1 23 C-1 18.38 -1 13.76 -1 9 C-1.99 9.495 -1.99 9.495 -3 10 C-3.46523063 11.89533342 -3.46523063 11.89533342 -3.625 14.0625 C-3.810625 16.0115625 -3.810625 16.0115625 -4 18 C-5.98 18 -7.96 18 -10 18 C-9.67 17.34 -9.34 16.68 -9 16 C-8.34 16 -7.68 16 -7 16 C-7.66 14.35 -8.32 12.7 -9 11 C-8.67 10.67 -8.34 10.34 -8 10 C-8.66 9.34 -9.32 8.68 -10 8 C-8.71451591 6.66070495 -7.42141845 5.32871357 -6.125 4 C-5.04605469 2.88625 -5.04605469 2.88625 -3.9453125 1.75 C-2 0 -2 0 0 0 Z " fill="#D6DDE7" transform="translate(262,206)"/>
<path d="M0 0 C0.66 0.33 1.32 0.66 2 1 C1.67 13.54 1.34 26.08 1 39 C0.34 39 -0.32 39 -1 39 C-1 38.01 -1 37.02 -1 36 C-1.66 36 -2.32 36 -3 36 C-2.90596031 31.83702362 -2.79975901 27.67458245 -2.68261719 23.51220703 C-2.64449762 22.09822937 -2.60961596 20.68416035 -2.578125 19.27001953 C-2.53210142 17.2291616 -2.47417333 15.1889234 -2.4140625 13.1484375 C-2.3826416 11.92302246 -2.3512207 10.69760742 -2.31884766 9.43505859 C-2.00051231 6.00551927 -1.22383184 3.20772767 0 0 Z " fill="#D3DCE6" transform="translate(228,190)"/>
<path d="M0 0 C1 1 2 2 3 3 C3.53625 3.45375 4.0725 3.9075 4.625 4.375 C6.4066588 6.48059676 6.63580052 8.30492384 7 11 C4.69 11 2.38 11 0 11 C-0.99 9.02 -1.98 7.04 -3 5 C-9.27 4.67 -15.54 4.34 -22 4 C-22 3.34 -22 2.68 -22 2 C-21.36908447 1.97494385 -20.73816895 1.9498877 -20.08813477 1.92407227 C-17.24603175 1.80845863 -14.40428917 1.68557684 -11.5625 1.5625 C-10.56927734 1.52318359 -9.57605469 1.48386719 -8.55273438 1.44335938 C-7.60849609 1.40146484 -6.66425781 1.35957031 -5.69140625 1.31640625 C-4.81685791 1.27974854 -3.94230957 1.24309082 -3.04125977 1.20532227 C-1.0072598 1.21818934 -1.0072598 1.21818934 0 0 Z " fill="#122A5B" transform="translate(108,218)"/>
<path d="M0 0 C0.33 0.66 0.66 1.32 1 2 C2.65 1.67 4.3 1.34 6 1 C6.75 2.75 6.75 2.75 7 5 C5.5 6.875 5.5 6.875 3 9 C2.443125 9.51175781 1.88625 10.02351562 1.3125 10.55078125 C-3.89440978 15.25271055 -3.89440978 15.25271055 -8 16 C-7.36771484 15.27683594 -7.36771484 15.27683594 -6.72265625 14.5390625 C-6.17480469 13.90742188 -5.62695312 13.27578125 -5.0625 12.625 C-4.51722656 11.99851563 -3.97195313 11.37203125 -3.41015625 10.7265625 C-1.93041376 9.04367666 -1.93041376 9.04367666 -1 7 C-3.97 9.97 -6.94 12.94 -10 16 C-10.66 15.67 -11.32 15.34 -12 15 C-11.401875 14.443125 -10.80375 13.88625 -10.1875 13.3125 C-7.99164311 10.99116557 -6.62893856 8.73661679 -5 6 C-3.38842441 3.94669737 -1.70329003 1.97949923 0 0 Z " fill="#C1F5F8" transform="translate(286,146)"/>
<path d="M0 0 C1.9375 0.3125 1.9375 0.3125 4 1 C4.33 1.99 4.66 2.98 5 4 C7.28176799 5.31011999 9.4971383 6.45900131 11.875 7.5625 C15.37783207 9.2289989 18.76200554 10.84133702 22 13 C22 13.66 22 14.32 22 15 C22.66 15.33 23.32 15.66 24 16 C24 16.66 24 17.32 24 18 C24.66 18.33 25.32 18.66 26 19 C18.22266464 18.59066656 10.54515897 13.22829275 5 8 C0 1.72222222 0 1.72222222 0 0 Z " fill="#D4F6F7" transform="translate(208,147)"/>
<path d="M0 0 C-0.37644248 2.60700463 -0.7343842 3.75687341 -2.70703125 5.5625 C-3.40183594 6.036875 -4.09664062 6.51125 -4.8125 7 C-10.62741178 11.00869967 -10.62741178 11.00869967 -14 17 C-12.9171875 16.319375 -12.9171875 16.319375 -11.8125 15.625 C-9.25105919 14.14505642 -6.76722011 13.02782461 -4 12 C-4.90172468 13.17825358 -5.82201502 14.34231577 -6.75 15.5 C-7.26046875 16.1496875 -7.7709375 16.799375 -8.296875 17.46875 C-10 19 -10 19 -14 19 C-14.70125 18.814375 -15.4025 18.62875 -16.125 18.4375 C-18.07591269 17.77180827 -18.07591269 17.77180827 -20 19 C-19.34 17.35 -18.68 15.7 -18 14 C-17.34 14 -16.68 14 -16 14 C-15.64228516 13.13761719 -15.64228516 13.13761719 -15.27734375 12.2578125 C-13.7365366 9.53430628 -11.92692475 7.91717967 -9.5625 5.875 C-8.78003906 5.19179687 -7.99757812 4.50859375 -7.19140625 3.8046875 C-2.57142857 0 -2.57142857 0 0 0 Z " fill="#3FA8B4" transform="translate(224,79)"/>
<path d="M0 0 C2.15178156 2.76387192 3.98370421 5.56533069 5.6875 8.625 C6.34298828 9.78902344 6.34298828 9.78902344 7.01171875 10.9765625 C8 13 8 13 8 15 C5.36 15 2.72 15 0 15 C-1.76462683 11.91190305 -2 10.76687864 -2 7 C-2.99 6.67 -3.98 6.34 -5 6 C-4.67 4.35 -4.34 2.7 -4 1 C-3.01 1 -2.02 1 -1 1 C-0.67 0.67 -0.34 0.34 0 0 Z " fill="#18316E" transform="translate(311,214)"/>
<path d="M0 0 C0.99 0.66 1.98 1.32 3 2 C2.67 2.66 2.34 3.32 2 4 C1.34 4 0.68 4 0 4 C0 4.99 0 5.98 0 7 C0.99 7 1.98 7 3 7 C3 8.32 3 9.64 3 11 C2.34 11 1.68 11 1 11 C0.67 11.99 0.34 12.98 0 14 C-0.4640625 12.2984375 -0.4640625 12.2984375 -0.9375 10.5625 C-1.62924531 7.21224901 -1.62924531 7.21224901 -3 6 C-5.69235776 5.76321284 -8.36498156 5.57801975 -11.0625 5.4375 C-11.82111328 5.39431641 -12.57972656 5.35113281 -13.36132812 5.30664062 C-15.24065438 5.20026367 -17.12030244 5.09960066 -19 5 C-19 9.29 -19 13.58 -19 18 C-14.05 18 -9.1 18 -4 18 C-4 18.33 -4 18.66 -4 19 C-9.61 19 -15.22 19 -21 19 C-21 13.72 -21 8.44 -21 3 C-14.4 3 -7.8 3 -1 3 C-0.67 2.01 -0.34 1.02 0 0 Z " fill="#253E68" transform="translate(356,191)"/>
<path d="M0 0 C0.556875 0.19335938 1.11375 0.38671875 1.6875 0.5859375 C14.70273005 5.02694505 23.57037844 5.76029404 37 2 C37 2.66 37 3.32 37 4 C31.89665983 5.905247 27.53657294 7.42589023 22 7 C22 7.66 22 8.32 22 9 C24.97 9.495 24.97 9.495 28 10 C24.36804504 12.42130331 22.61650652 12.21022785 18.3125 12.125 C17.13300781 12.10695312 15.95351562 12.08890625 14.73828125 12.0703125 C13.83464844 12.04710937 12.93101562 12.02390625 12 12 C12.99 11.34 13.98 10.68 15 10 C16.01868662 9.01904252 17.02351983 8.02297922 18 7 C16.88625 6.938125 15.7725 6.87625 14.625 6.8125 C9.17607052 6.16800296 4.73890059 3.63164357 0 1 C0 0.67 0 0.34 0 0 Z " fill="#4DABB5" transform="translate(223,143)"/>
<path d="M0 0 C0.66 0 1.32 0 2 0 C3.40053506 2.80107012 3.2075504 5.18891681 3.25 8.3125 C3.28867187 10.00826172 3.28867187 10.00826172 3.328125 11.73828125 C2.968858 15.30956628 2.00548243 17.07640669 0 20 C-0.69579454 22.19130534 -0.69579454 22.19130534 -1 24 C-1.99 24 -2.98 24 -4 24 C-4.33 24.99 -4.66 25.98 -5 27 C-5.33 26.34 -5.66 25.68 -6 25 C-5.46141582 23.39317428 -4.8419287 21.81322899 -4.1875 20.25 C-1.64953659 13.63724413 -0.77764255 7.00901506 0 0 Z " fill="#08A7C2" transform="translate(291,104)"/>
<path d="M0 0 C2.97 0.495 2.97 0.495 6 1 C6 1.99 6 2.98 6 4 C1.41025234 7.82478971 -5.31088934 9.17006538 -11.203125 8.8984375 C-12.81366818 8.66929518 -14.41036635 8.34557253 -16 8 C-15.67 7.01 -15.34 6.02 -15 5 C-12.3828125 4.05078125 -12.3828125 4.05078125 -9.125 3.3125 C-8.05507812 3.06113281 -6.98515625 2.80976563 -5.8828125 2.55078125 C-3 2 -3 2 0 2 C0 1.34 0 0.68 0 0 Z " fill="#13A5C1" transform="translate(260,145)"/>
<path d="M0 0 C0 4 0 4 -1.609375 5.74609375 C-2.31578125 6.30425781 -3.0221875 6.86242187 -3.75 7.4375 C-6.95454869 10.07322721 -9.43579877 12.72843291 -12 16 C-13.63356951 17.37368345 -15.2925002 18.71937515 -17 20 C-17.14745421 13.21710635 -13.83858659 10.03975167 -9.32421875 5.234375 C-3.87937063 0 -3.87937063 0 0 0 Z " fill="#49B1BA" transform="translate(216,78)"/>
<path d="M0 0 C1 2 1 2 1 3 C1.66 2.67 2.32 2.34 3 2 C2.04188952 5.09543384 1.05489057 7.89936728 -0.5 10.75 C-2.48179064 15.04387973 -3.22019207 19.35784924 -4 24 C-4.33 22.68 -4.66 21.36 -5 20 C-5.66 20 -6.32 20 -7 20 C-7 21.98 -7 23.96 -7 26 C-7.33 26 -7.66 26 -8 26 C-8.7326269 16.29269362 -5.05716826 8.12759185 0 0 Z " fill="#2FA8B8" transform="translate(200,92)"/>
<path d="M0 0 C0.66 0 1.32 0 2 0 C1.34 2.31 0.68 4.62 0 7 C-0.99 7 -1.98 7 -3 7 C-3 7.66 -3 8.32 -3 9 C-4.75 10.5078125 -4.75 10.5078125 -7 12.125 C-7.7425 12.66382813 -8.485 13.20265625 -9.25 13.7578125 C-9.8275 14.16773438 -10.405 14.57765625 -11 15 C-13 13.625 -13 13.625 -15 12 C-15 11.34 -15 10.68 -15 10 C-13.4609375 8.81640625 -13.4609375 8.81640625 -11.375 7.5625 C-10.64925781 7.12421875 -9.92351562 6.6859375 -9.17578125 6.234375 C-7.34107096 5.19349806 -5.45604395 4.24205794 -3.5625 3.3125 C-0.88289387 2.25929199 -0.88289387 2.25929199 0 0 Z " fill="#0BA5BF" transform="translate(281,132)"/>
<path d="M0 0 C6.78571429 5.35714286 6.78571429 5.35714286 8 9 C8.07051114 11.73865287 8.09357765 14.45027588 8.0625 17.1875 C8.05798828 17.93708984 8.05347656 18.68667969 8.04882812 19.45898438 C8.03706354 21.30602383 8.01912865 23.15302213 8 25 C7.67 25 7.34 25 7 25 C6.67 21.04 6.34 17.08 6 13 C5.34 13 4.68 13 4 13 C4 15.64 4 18.28 4 21 C3.67 21 3.34 21 3 21 C2.87882812 20.20335938 2.75765625 19.40671875 2.6328125 18.5859375 C1.5889645 11.92664836 1.5889645 11.92664836 -0.1875 5.4375 C-1 3 -1 3 0 0 Z " fill="#20A3B1" transform="translate(287,91)"/>
<path d="M0 0 C2.64 0 5.28 0 8 0 C8 0.66 8 1.32 8 2 C10.97 2.495 10.97 2.495 14 3 C12.09630113 5.54749522 11.03865722 5.99231658 7.85546875 6.625 C6.64503906 6.74875 5.43460938 6.8725 4.1875 7 C-0.89975778 7.52344775 -4.52988536 8.49647704 -9 11 C-10.33333333 11.66666667 -11.66666667 12.33333333 -13 13 C-13 12.34 -13 11.68 -13 11 C-12.34 10.67 -11.68 10.34 -11 10 C-11.33 9.34 -11.66 8.68 -12 8 C-9.03 7.01 -6.06 6.02 -3 5 C-3 4.34 -3 3.68 -3 3 C-2.01 2.34 -1.02 1.68 0 1 C0 0.67 0 0.34 0 0 Z " fill="#9CD2D8" transform="translate(237,67)"/>
<path d="M0 0 C2.97 0.33 5.94 0.66 9 1 C9 1.66 9 2.32 9 3 C9.90492188 3.09087891 9.90492188 3.09087891 10.828125 3.18359375 C12.02695313 3.30927734 12.02695313 3.30927734 13.25 3.4375 C14.43335938 3.55931641 14.43335938 3.55931641 15.640625 3.68359375 C17.82364639 3.97634993 19.8773182 4.42064419 22 5 C22 5.99 22 6.98 22 8 C19.36 8.33 16.72 8.66 14 9 C14 8.34 14 7.68 14 7 C9.38 6.01 4.76 5.02 0 4 C0 2.68 0 1.36 0 0 Z " fill="#04AAC9" transform="translate(218,164)"/>
<path d="M0 0 C-14.45610576 4.84755642 -27.10980564 7.36539235 -42 2 C-42.66 1.34 -43.32 0.68 -44 0 C-37.36288385 0.89345794 -37.36288385 0.89345794 -35.23046875 1.51953125 C-32.01954211 2.21120196 -28.83256708 2.23407687 -25.5625 2.25 C-24.50820801 2.25592163 -24.50820801 2.25592163 -23.43261719 2.26196289 C-17.59832014 2.19808853 -12.29119195 1.16309415 -6.671875 -0.44140625 C-3.97661368 -1.00488924 -2.55786855 -0.91961465 0 0 Z " fill="#C3F7FD" transform="translate(265,152)"/>
<path d="M0 0 C0 4.26950376 -1.93700284 5.85176173 -4.73828125 8.92578125 C-9.49150072 13.28495143 -15.54119383 17.3480373 -22.1875 17.375 C-23.115625 17.25125 -24.04375 17.1275 -25 17 C-24 15 -24 15 -21.71484375 14.1484375 C-20.79832031 13.89320313 -19.88179688 13.63796875 -18.9375 13.375 C-18.01839844 13.11460937 -17.09929687 12.85421875 -16.15234375 12.5859375 C-15.44207031 12.39257812 -14.73179687 12.19921875 -14 12 C-14.33 11.34 -14.66 10.68 -15 10 C-13.824375 9.46375 -12.64875 8.9275 -11.4375 8.375 C-7.03092116 6.19134774 -3.5716341 3.34840697 0 0 Z " fill="#25A2B4" transform="translate(283,138)"/>
<path d="M0 0 C0.33 0 0.66 0 1 0 C0.99476318 0.62044189 0.98952637 1.24088379 0.98413086 1.88012695 C0.96334534 4.69090767 0.95033483 7.50167221 0.9375 10.3125 C0.92912109 11.28896484 0.92074219 12.26542969 0.91210938 13.27148438 C0.90888672 14.20927734 0.90566406 15.14707031 0.90234375 16.11328125 C0.89710693 16.97735596 0.89187012 17.84143066 0.88647461 18.73168945 C0.90664477 21.16728714 0.90664477 21.16728714 2 24 C2.99 22.68 3.98 21.36 5 20 C5.33 21.98 5.66 23.96 6 26 C5.34 26.33 4.68 26.66 4 27 C4 29.97 4 32.94 4 36 C4.66 36.33 5.32 36.66 6 37 C3.01377363 36.69108003 2.13881649 36.16753715 0.1875 33.8125 C-1.26255822 30.3781516 -0.77901616 28.58347432 0 25 C-0.33 24.01 -0.66 23.02 -1 22 C-1.09126911 20.63905708 -1.13065452 19.27415442 -1.1328125 17.91015625 C-1.13410156 17.12576172 -1.13539063 16.34136719 -1.13671875 15.53320312 C-1.13285156 14.71787109 -1.12898437 13.90253906 -1.125 13.0625 C-1.12886719 12.25103516 -1.13273438 11.43957031 -1.13671875 10.60351562 C-1.13542969 9.81783203 -1.13414062 9.03214844 -1.1328125 8.22265625 C-1.13168457 7.50859619 -1.13055664 6.79453613 -1.12939453 6.05883789 C-0.99573643 3.93216104 -0.57960342 2.04645477 0 0 Z " fill="#11A3BA" transform="translate(198,116)"/>
<path d="M0 0 C0.66 0 1.32 0 2 0 C1.62875 0.928125 1.2575 1.85625 0.875 2.8125 C0.58625 3.864375 0.2975 4.91625 0 6 C0.99 7.485 0.99 7.485 2 9 C1.625 12.6875 1.625 12.6875 1 16 C-1.64 16 -4.28 16 -7 16 C-5.35433477 10.31497465 -2.70967216 5.23318364 0 0 Z " fill="#243B65" transform="translate(185,213)"/>
<path d="M0 0 C0.66 0 1.32 0 2 0 C2.83848804 1.45537568 3.67063934 2.91440373 4.5 4.375 C4.9640625 5.18710938 5.428125 5.99921875 5.90625 6.8359375 C7 9 7 9 7 11 C3.37 11 -0.26 11 -4 11 C-3.1302743 6.65137149 -2.0525056 3.83729307 0 0 Z " fill="#D9E2EE" transform="translate(298,205)"/>
<path d="M0 0 C2.62002725 2.37050084 4.35819909 4.87276017 6 8 C6 8.99 6 9.98 6 11 C2.37 11 -1.26 11 -5 11 C-3.77472971 6.94718288 -2.30119506 3.55639236 0 0 Z " fill="#DBE3EE" transform="translate(197,205)"/>
<path d="M0 0 C2.26954631 3.40431947 2.36549949 5.16524202 2.625 9.1875 C2.69976562 10.27417969 2.77453125 11.36085938 2.8515625 12.48046875 C2.90054687 13.31191406 2.94953125 14.14335938 3 15 C2.34 15 1.68 15 1 15 C1 15.66 1 16.32 1 17 C-0.32 17.33 -1.64 17.66 -3 18 C-4.29418729 14.11743813 -3.5145056 11.84921311 -2.625 7.875 C-2.34914063 6.61429687 -2.07328125 5.35359375 -1.7890625 4.0546875 C-1 1 -1 1 0 0 Z " fill="#1B3369" transform="translate(266,58)"/>
<path d="M0 0 C0.66 0 1.32 0 2 0 C2.67408308 1.26691507 3.33900497 2.53870749 4 3.8125 C4.556875 4.87404297 4.556875 4.87404297 5.125 5.95703125 C6 8 6 8 6 11 C2.7 11 -0.6 11 -4 11 C-3.39301257 6.87248551 -1.96189209 3.6678852 0 0 Z " fill="#D0DCED" transform="translate(95,205)"/>
<path d="M0 0 C0.66 0 1.32 0 2 0 C2.83848804 1.45537568 3.67063934 2.91440373 4.5 4.375 C4.9640625 5.18710938 5.428125 5.99921875 5.90625 6.8359375 C7 9 7 9 7 11 C3.37 11 -0.26 11 -4 11 C-2.7874262 7.27566618 -1.49140021 3.62197194 0 0 Z " fill="#DCE4EF" transform="translate(393,205)"/>
<path d="M0 0 C-2.29414289 2.29414289 -3.40281553 2.45730936 -6.5 3.1875 C-11.71388796 4.65343372 -15.48314887 7.1297463 -19.7734375 10.37890625 C-21.79223839 11.84873497 -23.73628345 12.96117117 -26 14 C-25.49019669 10.22745547 -24.79299818 8.55012877 -22 6 C-22 5.34 -22 4.68 -22 4 C-21.01 4 -20.02 4 -19 4 C-19 4.66 -19 5.32 -19 6 C-17.35 5.67 -15.7 5.34 -14 5 C-14 4.34 -14 3.68 -14 3 C-9.07015675 0.96006486 -5.42039575 -0.40652968 0 0 Z " fill="#DFF8FA" transform="translate(234,68)"/>
<path d="M0 0 C0.66 0.33 1.32 0.66 2 1 C-1.14281052 5.71421578 -5.20662472 8.37948426 -9.85546875 11.44921875 C-12.10473361 12.82386395 -12.10473361 12.82386395 -13 15 C-14.875 15.75 -14.875 15.75 -17 16 C-17.99 15.34 -18.98 14.68 -20 14 C-18.68 13.67 -17.36 13.34 -16 13 C-16 12.01 -16 11.02 -16 10 C-18.97 9.505 -18.97 9.505 -22 9 C-20.25 7.875 -20.25 7.875 -18 7 C-15.875 7.8125 -15.875 7.8125 -14 9 C-11.95965274 10.30369492 -11.95965274 10.30369492 -9.4375 9.25 C-6.67540017 8.19262546 -6.67540017 8.19262546 -6 5 C-5.34 5 -4.68 5 -4 5 C-4 4.34 -4 3.68 -4 3 C-3.01 3 -2.02 3 -1 3 C-0.67 2.01 -0.34 1.02 0 0 Z " fill="#29B6C9" transform="translate(282,136)"/>
<path d="M0 0 C1.65 1.65 3.3 3.3 5 5 C3.125 9.75 3.125 9.75 2 12 C-0.31 12 -2.62 12 -5 12 C-3.68938409 7.76570244 -2.05643741 3.92592596 0 0 Z " fill="#182E5E" transform="translate(285,217)"/>
<path d="M0 0 C0.99 0 1.98 0 3 0 C4.53266582 3.06533164 4.10276471 6.26754272 4.0625 9.625 C4.05798828 10.33140625 4.05347656 11.0378125 4.04882812 11.765625 C4.03703875 13.51045275 4.01910324 15.255237 4 17 C2.68 17.33 1.36 17.66 0 18 C0 12.06 0 6.12 0 0 Z " fill="#132A6C" transform="translate(230,208)"/>
<path d="M0 0 C1.65 0.33 3.3 0.66 5 1 C3.50259067 5.75647668 3.50259067 5.75647668 2 8 C-1.6875 9.4375 -1.6875 9.4375 -5 10 C-7 7 -7 7 -6.625 4.8125 C-6.41875 4.214375 -6.2125 3.61625 -6 3 C-4.02 3 -2.04 3 0 3 C0 2.01 0 1.02 0 0 Z " fill="#F9FBFC" transform="translate(270,153)"/>
<path d="M0 0 C0.33 0 0.66 0 1 0 C1.03738281 1.09957031 1.07476562 2.19914062 1.11328125 3.33203125 C1.55325764 13.91544149 2.95659556 23.12779176 7 33 C4 32 4 32 2.8671875 29.77734375 C0.88665828 24.10866365 -0.48454368 18.97929332 -1 13 C-1.226875 12.175 -1.45375 11.35 -1.6875 10.5 C-2.16138198 6.70894418 -1.05369461 3.65694011 0 0 Z " fill="#C9F2F6" transform="translate(191,116)"/>
<path d="M0 0 C-1.17755859 0.72703125 -1.17755859 0.72703125 -2.37890625 1.46875 C-8.36821093 5.29014685 -13.33405572 8.88982332 -17.6953125 14.53125 C-18.34113281 15.25828125 -18.34113281 15.25828125 -19 16 C-19.66 16 -20.32 16 -21 16 C-21.33 16.99 -21.66 17.98 -22 19 C-22.33 18.01 -22.66 17.02 -23 16 C-19.03544427 9.54507353 -8.0113348 -2.67044493 0 0 Z " fill="#B7F3F9" transform="translate(227,77)"/>
<path d="M0 0 C0.66 0 1.32 0 2 0 C2.22155127 2.93705131 2.42774197 5.87380363 2.625 8.8125 C2.68945312 9.64587891 2.75390625 10.47925781 2.8203125 11.33789062 C2.871875 12.14033203 2.9234375 12.94277344 2.9765625 13.76953125 C3.02893066 14.50792236 3.08129883 15.24631348 3.13525391 16.00708008 C3 18 3 18 1 21 C-1.01124232 16.82647345 -1.24089715 13.41921805 -1.1875 8.8125 C-1.18105469 7.58144531 -1.17460937 6.35039063 -1.16796875 5.08203125 C-1 2 -1 2 0 0 Z " fill="#08A7CC" transform="translate(199,121)"/>
<path d="M0 0 C2.79643618 3.42455876 4.74004289 7.18129771 6.6875 11.125 C7.16799805 12.07439453 7.16799805 12.07439453 7.65820312 13.04296875 C10 17.74653518 10 17.74653518 10 20 C7.69 20 5.38 20 3 20 C4.32 19.67 5.64 19.34 7 19 C7 17.68 7 16.36 7 15 C6.01 14.67 5.02 14.34 4 14 C2.8671875 12.29296875 2.8671875 12.29296875 1.875 10.1875 C1.54242188 9.50042969 1.20984375 8.81335938 0.8671875 8.10546875 C0.02437944 6.05919153 -0.62499784 4.18141501 -1 2 C-0.67 1.34 -0.34 0.68 0 0 Z " fill="#283862" transform="translate(207,209)"/>
<path d="M0 0 C0.33 0.66 0.66 1.32 1 2 C1.66 2 2.32 2 3 2 C3 7.94 3 13.88 3 20 C2.01 20 1.02 20 0 20 C0.01160156 19.03578125 0.02320313 18.0715625 0.03515625 17.078125 C0.04417969 15.81484375 0.05320312 14.5515625 0.0625 13.25 C0.07990234 11.37054688 0.07990234 11.37054688 0.09765625 9.453125 C0.01932897 6.68347238 -0.31764979 4.63104405 -1 2 C-0.67 1.34 -0.34 0.68 0 0 Z " fill="#102A6F" transform="translate(263,206)"/>
<path d="M0 0 C2.31309705 0.11341637 4.62550185 0.24103807 6.9375 0.375 C8.86916016 0.47941406 8.86916016 0.47941406 10.83984375 0.5859375 C12.40412109 0.79089844 12.40412109 0.79089844 14 1 C14.33 1.66 14.66 2.32 15 3 C3.47835991 5.29612756 3.47835991 5.29612756 -2 5 C-2 4.01 -2 3.02 -2 2 C-1.34 2 -0.68 2 0 2 C0 1.34 0 0.68 0 0 Z " fill="#102757" transform="translate(273,77)"/>
<path d="M0 0 C0.33 0.66 0.66 1.32 1 2 C-0.1241176 3.29243468 -1.24932592 4.58392075 -2.375 5.875 C-3.00148438 6.59429687 -3.62796875 7.31359375 -4.2734375 8.0546875 C-5.47426834 9.4076598 -6.7208345 10.7208345 -8 12 C-4.05860922 10.33248852 -1.2107188 7.77289351 2 5 C0.52278578 8.45201639 -1.43794001 10.64961936 -4.125 13.25 C-4.84945313 13.95640625 -5.57390625 14.6628125 -6.3203125 15.390625 C-6.87460937 15.92171875 -7.42890625 16.4528125 -8 17 C-9.32 16.01 -10.64 15.02 -12 14 C-11.55269531 13.49210938 -11.10539062 12.98421875 -10.64453125 12.4609375 C-7.03713058 8.35357725 -3.47885075 4.21678879 0 0 Z " fill="#4DA1AA" transform="translate(287,149)"/>
<path d="M0 0 C0.66 1.32 1.32 2.64 2 4 C1.34 3.67 0.68 3.34 0 3 C-2.3329866 2.95977609 -4.66706666 2.95679753 -7 3 C-7.33 3.66 -7.66 4.32 -8 5 C-6.35 5 -4.7 5 -3 5 C-3 5.33 -3 5.66 -3 6 C-7.29 6 -11.58 6 -16 6 C-15.34 4.35 -14.68 2.7 -14 1 C-9.38 0.67 -4.76 0.34 0 0 Z " fill="#0B265B" transform="translate(352,209)"/>
<path d="M0 0 C2.64 0.33 5.28 0.66 8 1 C7.505 1.45375 7.01 1.9075 6.5 2.375 C4.77390663 3.87635519 4.77390663 3.87635519 5 6 C5.99 6.66 6.98 7.32 8 8 C4.7 8.33 1.4 8.66 -2 9 C-1.34 8.67 -0.68 8.34 0 8 C0 6.35 0 4.7 0 3 C-2.64 3 -5.28 3 -8 3 C-8 2.67 -8 2.34 -8 2 C-5.36 1.67 -2.72 1.34 0 1 C0 0.67 0 0.34 0 0 Z " fill="#E5F3F6" transform="translate(248,69)"/>
<path d="M0 0 C1.93166016 0.01740234 1.93166016 0.01740234 3.90234375 0.03515625 C5.19269531 0.04417969 6.48304688 0.05320313 7.8125 0.0625 C8.81152344 0.07410156 9.81054688 0.08570313 10.83984375 0.09765625 C10.50984375 1.41765625 10.17984375 2.73765625 9.83984375 4.09765625 C5.54984375 4.09765625 1.25984375 4.09765625 -3.16015625 4.09765625 C-3.49015625 3.10765625 -3.82015625 2.11765625 -4.16015625 1.09765625 C-3.16015625 0.09765625 -3.16015625 0.09765625 0 0 Z " fill="#102D6F" transform="translate(195.16015625,216.90234375)"/>
<path d="M0 0 C0.33 0 0.66 0 1 0 C1 12.54 1 25.08 1 38 C0.34 37.67 -0.32 37.34 -1 37 C-1 26.44 -1 15.88 -1 5 C-1.66 5 -2.32 5 -3 5 C-1.125 1.125 -1.125 1.125 0 0 Z " fill="#182E50" transform="translate(267,190)"/>
<path d="M0 0 C5.28 0 10.56 0 16 0 C16 0.33 16 0.66 16 1 C12.04 1 8.08 1 4 1 C4 1.66 4 2.32 4 3 C3.01 3.495 3.01 3.495 2 4 C1.53476937 5.89533342 1.53476937 5.89533342 1.375 8.0625 C1.25125 9.361875 1.1275 10.66125 1 12 C5.95 12 10.9 12 16 12 C16 12.33 16 12.66 16 13 C10.72 13 5.44 13 0 13 C0 8.71 0 4.42 0 0 Z " fill="#DFE8F9" transform="translate(337,196)"/>
<path d="M0 0 C0.69140625 1.76953125 0.69140625 1.76953125 1 4 C-1.61597271 8.03678856 -4.82009422 10.67820752 -9.4375 11.9375 C-10.283125 11.958125 -11.12875 11.97875 -12 12 C-12 12.66 -12 13.32 -12 14 C-13.32 13.67 -14.64 13.34 -16 13 C-15.43152344 12.64808594 -14.86304688 12.29617187 -14.27734375 11.93359375 C-8.85759655 8.46821282 -4.35401166 4.73201267 0 0 Z " fill="#D2F6F8" transform="translate(288,156)"/>
<path d="M0 0 C6.27 0 12.54 0 19 0 C19 0.33 19 0.66 19 1 C14.05 1.33 9.1 1.66 4 2 C3.67 4.64 3.34 7.28 3 10 C1.68 9.67 0.36 9.34 -1 9 C-2.16552619 4.80410573 -2.08954032 4.17908064 0 0 Z M-1 5 C-0.34 5.66 0.32 6.32 1 7 C1 6.34 1 5.68 1 5 C0.34 5 -0.32 5 -1 5 Z " fill="#D2DAE7" transform="translate(188,222)"/>
<path d="M0 0 C0.33 1.32 0.66 2.64 1 4 C0.34 4 -0.32 4 -1 4 C-1 4.99 -1 5.98 -1 7 C-1.66 7 -2.32 7 -3 7 C-3.33 8.65 -3.66 10.3 -4 12 C-2.35 12.33 -0.7 12.66 1 13 C1 13.33 1 13.66 1 14 C-2.63 14 -6.26 14 -10 14 C-3.71428571 4.42857143 -3.71428571 4.42857143 0 0 Z " fill="#ECF9FD" transform="translate(151,208)"/>
<path d="M0 0 C0.66 0 1.32 0 2 0 C3.32 2.97 4.64 5.94 6 9 C5.34 9 4.68 9 4 9 C4 8.34 4 7.68 4 7 C3.01 7.33 2.02 7.66 1 8 C1.33 9.65 1.66 11.3 2 13 C0.02 12.01 -1.96 11.02 -4 10 C-2.66666667 6.66666667 -1.33333333 3.33333333 0 0 Z " fill="#203664" transform="translate(298,190)"/>
<path d="M0 0 C5.65394631 -0.34615998 9.03006806 0.56574762 14 3 C14 3.66 14 4.32 14 5 C15.32 5 16.64 5 18 5 C18 5.66 18 6.32 18 7 C11.03949747 6.61330541 6.0605925 4.36561591 0 1 C0 0.67 0 0.34 0 0 Z " fill="#1FA5B6" transform="translate(218,168)"/>
<path d="M0 0 C0.86625 0.4640625 0.86625 0.4640625 1.75 0.9375 C3.91340309 2.09252028 3.91340309 2.09252028 6.125 2.3125 C8 3 8 3 9.25 5.5625 C9.4975 6.366875 9.745 7.17125 10 8 C7.36 8 4.72 8 2 8 C0.23537317 4.91190305 0 3.76687864 0 0 Z " fill="#22355F" transform="translate(353,221)"/>
<path d="M0 0 C0.33 0 0.66 0 1 0 C0.67 8.58 0.34 17.16 0 26 C-0.33 26 -0.66 26 -1 26 C-1.83378517 21.62429541 -2.16308604 17.45310587 -2.1875 13 C-2.20167969 11.824375 -2.21585938 10.64875 -2.23046875 9.4375 C-1.9975771 5.96386185 -1.24783002 3.23548021 0 0 Z " fill="#CDF8FA" transform="translate(205,112)"/>
<path d="M0 0 C1.0625 1.8125 1.0625 1.8125 2 4 C0.75651745 7.73044765 -0.80713575 8.79540326 -4 11 C-4.99 11 -5.98 11 -7 11 C-5.72278474 6.00724943 -3.82669043 3.42388092 0 0 Z " fill="#D1F6F8" transform="translate(214,97)"/>
<path d="M0 0 C1.32 0.33 2.64 0.66 4 1 C-10.96907216 12 -10.96907216 12 -19 12 C-19 11.34 -19 10.68 -19 10 C-18.38511719 9.81824219 -17.77023438 9.63648438 -17.13671875 9.44921875 C-16.32847656 9.19785156 -15.52023437 8.94648438 -14.6875 8.6875 C-13.48673828 8.32205078 -13.48673828 8.32205078 -12.26171875 7.94921875 C-9.87963633 6.94948468 -8.77827261 5.81868789 -7 4 C-4.3125 3.8125 -4.3125 3.8125 -2 4 C-1.34 2.68 -0.68 1.36 0 0 Z " fill="#D0F8FB" transform="translate(273,135)"/>
<path d="M0 0 C2 3 2 3 2.5 5.625 C2.665 6.40875 2.83 7.1925 3 8 C3.66 8.33 4.32 8.66 5 9 C5.33 7.68 5.66 6.36 6 5 C6.99 5.33 7.98 5.66 9 6 C8.67 6.66 8.34 7.32 8 8 C8.24756445 10.07361988 8.24756445 10.07361988 9 12 C9.66 12.33 10.32 12.66 11 13 C7.04167177 12.43452454 4.20439321 11.42494621 1 9 C-0.54268029 6.26524858 -1.12967623 4.79967011 -0.625 1.6875 C-0.41875 1.130625 -0.2125 0.57375 0 0 Z " fill="#EAF9FA" transform="translate(206,137)"/>
<path d="M0 0 C4.29 0 8.58 0 13 0 C13.33 0.66 13.66 1.32 14 2 C10.69005287 3.65497356 7.00877 3.10084335 3.375 3.0625 C2.57320313 3.05798828 1.77140625 3.05347656 0.9453125 3.04882812 C-1.03649006 3.03703168 -3.01825433 3.01909605 -5 3 C-5 2.67 -5 2.34 -5 2 C-3.35 1.67 -1.7 1.34 0 1 C0 0.67 0 0.34 0 0 Z " fill="#0B2A64" transform="translate(343,192)"/>
<path d="M0 0 C0.28875 0.639375 0.5775 1.27875 0.875 1.9375 C1.82823451 4.15206079 1.82823451 4.15206079 4 5 C4 6.32 4 7.64 4 9 C2.35 9 0.7 9 -1 9 C-4 3.25 -4 3.25 -4 1 C-2 0 -2 0 0 0 Z " fill="#122E67" transform="translate(210,219)"/>
<path d="M0 0 C0.33 0 0.66 0 1 0 C1.18175781 0.79664063 1.36351562 1.59328125 1.55078125 2.4140625 C2.8736021 7.99026116 4.20883578 12.94932189 7 18 C7 18.66 7 19.32 7 20 C6.34 20 5.68 20 5 20 C4.67 19.34 4.34 18.68 4 18 C3.01 17.67 2.02 17.34 1 17 C0.67 11.39 0.34 5.78 0 0 Z " fill="#30A7BF" transform="translate(203,132)"/>
<path d="M0 0 C0 0.66 0 1.32 0 2 C-5.38027025 3.19088986 -10.45291384 4.2919519 -16 4 C-15.67 3.01 -15.34 2.02 -15 1 C-13.44033408 0.63355422 -11.87707349 0.28239138 -10.3125 -0.0625 C-9.44238281 -0.25972656 -8.57226562 -0.45695313 -7.67578125 -0.66015625 C-4.83998724 -1.02032279 -2.75210018 -0.70909969 0 0 Z " fill="#04AEBD" transform="translate(260,149)"/>
<path d="M0 0 C2.43929746 1.92576115 4.80090595 3.80090595 7 6 C6.67 6.99 6.34 7.98 6 9 C5.34 8.67 4.68 8.34 4 8 C3.67 9.32 3.34 10.64 3 12 C0.98238256 8.97357383 -0.05339709 6.4951492 -1 3 C-0.67 2.01 -0.34 1.02 0 0 Z " fill="#5AB2BF" transform="translate(287,91)"/>
<path d="M0 0 C1.04474487 0.08640747 1.04474487 0.08640747 2.1105957 0.17456055 C2.86791992 0.2293457 3.62524414 0.28413086 4.40551758 0.34057617 C5.19120117 0.4134082 5.97688477 0.48624023 6.78637695 0.5612793 C7.58366211 0.62250977 8.38094727 0.68374023 9.20239258 0.74682617 C11.16904648 0.89991899 13.13416685 1.07248639 15.09887695 1.2487793 C15.09887695 1.9087793 15.09887695 2.5687793 15.09887695 3.2487793 C8.49887695 3.2487793 1.89887695 3.2487793 -4.90112305 3.2487793 C-1.90112305 0.2487793 -1.90112305 0.2487793 0 0 Z " fill="#0B2C6E" transform="translate(147.901123046875,222.751220703125)"/>
<path d="M0 0 C0.66 0 1.32 0 2 0 C2.83819158 1.62249941 3.6704116 3.24808497 4.5 4.875 C4.9640625 5.77992188 5.428125 6.68484375 5.90625 7.6171875 C7 10 7 10 7 12 C5.0625 11.25 5.0625 11.25 3 10 C2.25 7.875 2.25 7.875 2 6 C0.68 6 -0.64 6 -2 6 C-1.34 4.02 -0.68 2.04 0 0 Z " fill="#273E64" transform="translate(95,190)"/>
<path d="M0 0 C0.66 0.33 1.32 0.66 2 1 C2 3.31 2 5.62 2 8 C2.99 8 3.98 8 5 8 C4.67 9.65 4.34 11.3 4 13 C2.05078125 12.28125 2.05078125 12.28125 0 11 C-0.64453125 8.90625 -0.64453125 8.90625 -0.8125 6.5 C-0.88082031 5.7059375 -0.94914063 4.911875 -1.01953125 4.09375 C-1 2 -1 2 0 0 Z " fill="#01ADC7" transform="translate(202,141)"/>
<path d="M0 0 C2.31 0 4.62 0 7 0 C7.33 0.99 7.66 1.98 8 3 C8.66 3 9.32 3 10 3 C10.33 3.99 10.66 4.98 11 6 C10.01 6.66 9.02 7.32 8 8 C8 6.68 8 5.36 8 4 C5.03 3.67 2.06 3.34 -1 3 C-0.67 2.01 -0.34 1.02 0 0 Z " fill="#0F2D6B" transform="translate(345,211)"/>
<path d="M0 0 C0.99 0 1.98 0 3 0 C3 0.66 3 1.32 3 2 C3.66 2.33 4.32 2.66 5 3 C4.3125 4.9375 4.3125 4.9375 3 7 C0.375 7.75 0.375 7.75 -2 8 C-2.99 6.68 -3.98 5.36 -5 4 C-3.68 4.33 -2.36 4.66 -1 5 C-0.67 3.35 -0.34 1.7 0 0 Z " fill="#1B3771" transform="translate(247,208)"/>
<path d="M0 0 C3.16115776 1.36983503 3.9927092 1.9890638 6 5 C5.34 5.66 4.68 6.32 4 7 C3.34 6.67 2.68 6.34 2 6 C0.824375 7.2375 0.824375 7.2375 -0.375 8.5 C-3 11 -3 11 -5 11 C-3.55049545 7.2089881 -1.84827434 3.6125362 0 0 Z " fill="#243568" transform="translate(384,209)"/>
<path d="M0 0 C0.74886475 0.00523682 1.49772949 0.01047363 2.26928711 0.01586914 C3.07817383 0.0190918 3.88706055 0.02231445 4.72045898 0.02563477 C5.5705957 0.03401367 6.42073242 0.04239258 7.29663086 0.05102539 C8.15063477 0.05553711 9.00463867 0.06004883 9.88452148 0.06469727 C12.00108749 0.07652166 14.11761771 0.0944577 16.23413086 0.11352539 C16.23413086 0.44352539 16.23413086 0.77352539 16.23413086 1.11352539 C15.17452148 1.13930664 14.11491211 1.16508789 13.02319336 1.19165039 C11.63513085 1.2479232 10.24711161 1.30527072 8.85913086 1.36352539 C7.81112305 1.38479492 7.81112305 1.38479492 6.74194336 1.40649414 C4.4569544 1.47388321 4.4569544 1.47388321 1.23413086 2.11352539 C-0.18006574 4.02315606 -0.18006574 4.02315606 -0.76586914 6.11352539 C-2.89086914 6.86352539 -2.89086914 6.86352539 -4.76586914 7.11352539 C-2.54787145 0.16379928 -2.54787145 0.16379928 0 0 Z " fill="#C8D2E1" transform="translate(88.765869140625,221.886474609375)"/>
<path d="M0 0 C1.28317892 3.84953676 1.06643637 6.94738135 1 11 C0.01 11.495 0.01 11.495 -1 12 C-1.45375 11.360625 -1.9075 10.72125 -2.375 10.0625 C-3.83921726 7.90297594 -3.83921726 7.90297594 -6 7 C-4.02 4.69 -2.04 2.38 0 0 Z " fill="#21356A" transform="translate(143,208)"/>
<path d="M0 0 C2.625 0.375 2.625 0.375 5 1 C5.042721 2.66611905 5.04063832 4.33382885 5 6 C4 7 4 7 1.4375 7.0625 C0.2309375 7.0315625 0.2309375 7.0315625 -1 7 C-1 6.34 -1 5.68 -1 5 C-1.33 4.01 -1.66 3.02 -2 2 C-1.34 1.34 -0.68 0.68 0 0 Z " fill="#7A8292" transform="translate(409,189)"/>
<path d="M0 0 C0.66 0.33 1.32 0.66 2 1 C1.319375 1.5775 0.63875 2.155 -0.0625 2.75 C-1.0215625 3.86375 -1.0215625 3.86375 -2 5 C-1.6814823 7.10820797 -1.6814823 7.10820797 -1 9 C-1.66 9.66 -2.32 10.32 -3 11 C-6 10 -6 10 -8 8 C-5.33333333 5.33333333 -2.66666667 2.66666667 0 0 Z " fill="#2CACBF" transform="translate(277,156)"/>
<path d="M0 0 C6 7.71428571 6 7.71428571 6 11 C3.36 11 0.72 11 -2 11 C-1.34 10.34 -0.68 9.68 0 9 C0 8.01 0 7.02 0 6 C0 4 0 2 0 0 Z " fill="#2C3D66" transform="translate(313,218)"/>
<path d="M0 0 C0.66 0 1.32 0 2 0 C2.66 1.65 3.32 3.3 4 5 C3.38125 5.061875 2.7625 5.12375 2.125 5.1875 C1.42375 5.455625 0.7225 5.72375 0 6 C-0.70211894 7.65204456 -1.36971413 9.31923769 -2 11 C-2.99 11.33 -3.98 11.66 -5 12 C-3.41037341 7.96479403 -1.71767682 3.98188718 0 0 Z " fill="#263D62" transform="translate(393,190)"/>
<path d="M0 0 C1.64767247 0.28109113 3.29313145 0.57518526 4.9375 0.875 C5.85402344 1.03742188 6.77054688 1.19984375 7.71484375 1.3671875 C8.46894531 1.57601562 9.22304687 1.78484375 10 2 C10.33 2.66 10.66 3.32 11 4 C10.34 4.66 9.68 5.32 9 6 C5.875 5.625 5.875 5.625 3 5 C3 4.34 3 3.68 3 3 C2.01 2.67 1.02 2.34 0 2 C0 1.34 0 0.68 0 0 Z " fill="#F8FCFE" transform="translate(229,160)"/>
<path d="M0 0 C0.66 0.33 1.32 0.66 2 1 C0.65515286 5.04161955 -1.0505162 7.38678154 -4.125 10.3125 C-4.84945313 11.00988281 -5.57390625 11.70726562 -6.3203125 12.42578125 C-6.87460937 12.94527344 -7.42890625 13.46476563 -8 14 C-8.66 13.67 -9.32 13.34 -10 13 C-9.401875 12.443125 -8.80375 11.88625 -8.1875 11.3125 C-5.99770214 8.99757083 -4.58256493 6.75228684 -3 4 C-2.01755155 2.65368175 -1.02323436 1.31558703 0 0 Z " fill="#7FCDD8" transform="translate(284,148)"/>
<path d="M0 0 C0.66 0 1.32 0 2 0 C3.25127906 3.54667178 2.72285053 5.72253438 1.5625 9.25 C1.27503906 10.14203125 0.98757812 11.0340625 0.69140625 11.953125 C0.46324219 12.62859375 0.23507813 13.3040625 0 14 C-0.33 14 -0.66 14 -1 14 C-2.51708428 4.58997722 -2.51708428 4.58997722 0 0 Z " fill="#08A6CE" transform="translate(203,103)"/>
<path d="M0 0 C2.31 0.33 4.62 0.66 7 1 C8.125 5.75 8.125 5.75 7 8 C6.34 8 5.68 8 5 8 C4.67 6.35 4.34 4.7 4 3 C2.68 3.33 1.36 3.66 0 4 C0 2.68 0 1.36 0 0 Z " fill="#E6EFF7" transform="translate(255,82)"/>
<path d="M0 0 C0.66 0 1.32 0 2 0 C2.8125 1.625 2.8125 1.625 3 4 C1.53181864 6.24609835 -0.15852858 8.02378677 -2 10 C-3.4606285 7.35261084 -4 6.10551666 -4 3 C-2.68 3 -1.36 3 0 3 C0 2.01 0 1.02 0 0 Z " fill="#162D5E" transform="translate(147,207)"/>
<path d="M0 0 C0.99 0.66 1.98 1.32 3 2 C2.1028125 2.309375 2.1028125 2.309375 1.1875 2.625 C-1.81018767 4.50926082 -2.61361776 6.81132084 -4 10 C-5.65 10 -7.3 10 -9 10 C-8.06409496 8.8944811 -7.12620142 7.79064547 -6.1875 6.6875 C-5.66542969 6.07261719 -5.14335937 5.45773438 -4.60546875 4.82421875 C-3.12827531 3.14575321 -1.59960869 1.56117966 0 0 Z " fill="#1C325D" transform="translate(263,194)"/>
<path d="M0 0 C8.25 0 16.5 0 25 0 C24.34 1.32 23.68 2.64 23 4 C22.01 3.34 21.02 2.68 20 2 C17.77868577 1.6349209 17.77868577 1.6349209 15.33203125 1.5859375 C14.43935547 1.54726562 13.54667969 1.50859375 12.62695312 1.46875 C11.69818359 1.4378125 10.76941406 1.406875 9.8125 1.375 C8.87212891 1.33632812 7.93175781 1.29765625 6.96289062 1.2578125 C4.6421229 1.16356813 2.32136252 1.07795975 0 1 C0 0.67 0 0.34 0 0 Z " fill="#CFE0F3" transform="translate(127,196)"/>
<path d="M0 0 C1.9375 0.3125 1.9375 0.3125 4 1 C4.33 1.99 4.66 2.98 5 4 C6.62948064 5.22445284 6.62948064 5.22445284 8.5625 6.1875 C9.696875 6.785625 10.83125 7.38375 12 8 C11.01 8.495 11.01 8.495 10 9 C9.67 9.66 9.34 10.32 9 11 C5.74251349 7.83299923 2.72824638 4.63766184 0 1 C0 0.67 0 0.34 0 0 Z " fill="#BEF1F7" transform="translate(208,147)"/>
<path d="M0 0 C0.33 0 0.66 0 1 0 C1.92017937 7.82152466 1.92017937 7.82152466 -0.3359375 10.7109375 C-2 12.0625 -2 12.0625 -5 14 C-5 10.79778402 -4.389271 9.30351423 -3.0625 6.4375 C-2.70285156 5.65246094 -2.34320313 4.86742187 -1.97265625 4.05859375 C-1.33006035 2.69856146 -0.67269864 1.34539729 0 0 Z " fill="#CCF4F8" transform="translate(292,124)"/>
<path d="M0 0 C2.35953094 2.35953094 2.49141413 3.77895617 3 7 C0.69 7 -1.62 7 -4 7 C-4.33 6.01 -4.66 5.02 -5 4 C-3.35 2.68 -1.7 1.36 0 0 Z " fill="#243861" transform="translate(112,222)"/>
<path d="M0 0 C0.66 0.99 1.32 1.98 2 3 C1.125 5.6875 1.125 5.6875 0 8 C-0.66 8 -1.32 8 -2 8 C-2.66 9.65 -3.32 11.3 -4 13 C-5.5 11.625 -5.5 11.625 -7 10 C-7 9.34 -7 8.68 -7 8 C-6.21625 7.566875 -5.4325 7.13375 -4.625 6.6875 C-1.58313785 4.73201719 -1.01018099 3.39788151 0 0 Z " fill="#DBE8EF" transform="translate(362,206)"/>
<path d="M0 0 C0.66 0.33 1.32 0.66 2 1 C-1.29212709 5.86662266 -5.73642975 9.42152912 -11 12 C-11.99 11.67 -12.98 11.34 -14 11 C-9.25 8 -9.25 8 -7 8 C-6.67 7.01 -6.34 6.02 -6 5 C-5.34 5 -4.68 5 -4 5 C-4 4.34 -4 3.68 -4 3 C-3.01 3 -2.02 3 -1 3 C-0.67 2.01 -0.34 1.02 0 0 Z " fill="#27BED5" transform="translate(282,136)"/>
<path d="M0 0 C0 0.33 0 0.66 0 1 C-0.78246094 1.20496094 -1.56492188 1.40992187 -2.37109375 1.62109375 C-3.38300781 1.89050781 -4.39492187 2.15992187 -5.4375 2.4375 C-6.44683594 2.70433594 -7.45617187 2.97117187 -8.49609375 3.24609375 C-10.91752001 3.75978077 -10.91752001 3.75978077 -12 5 C-13.99958364 5.04080783 -16.00045254 5.04254356 -18 5 C-13.67694343 -0.5945438 -6.42067643 -0.22528689 0 0 Z " fill="#E8FCFE" transform="translate(246,73)"/>
<path d="M0 0 C-2.38179263 3.74281699 -4.74475735 6.97727468 -8 10 C-8.33 9.34 -8.66 8.68 -9 8 C-8.505 7.608125 -8.01 7.21625 -7.5 6.8125 C-5.54406857 4.44908285 -5.75792027 2.98564997 -6 0 C-3 -1 -3 -1 0 0 Z " fill="#E4F0F6" transform="translate(136,217)"/>
<path d="M0 0 C0.99 0 1.98 0 3 0 C1.40109514 5.19644079 -0.74138003 10.06612142 -3 15 C-3.66 14.01 -4.32 13.02 -5 12 C-4.1654738 9.49642139 -3.20628008 7.33214148 -2 5 C-1.34 5 -0.68 5 0 5 C0 3.35 0 1.7 0 0 Z " fill="#D7F5FB" transform="translate(197,91)"/>
<path d="M0 0 C0.33 1.65 0.66 3.3 1 5 C-0.65 5.66 -2.3 6.32 -4 7 C-4.33 5.02 -4.66 3.04 -5 1 C-3 0 -3 0 0 0 Z " fill="#ECF0F3" transform="translate(405,224)"/>
<path d="M0 0 C0.66 0.33 1.32 0.66 2 1 C2 1.66 2 2.32 2 3 C2.99 2.67 3.98 2.34 5 2 C4.45773019 5.79588866 2.79872437 7.47211993 0 10 C-2.21538462 4.58461538 -2.21538462 4.58461538 -1.125 1.625 C-0.75375 1.08875 -0.3825 0.5525 0 0 Z " fill="#132B5C" transform="translate(151,198)"/>
<path d="M0 0 C-2.34171739 2.34171739 -3.23060454 2.391923 -6.4375 2.75 C-7.21996094 2.84796875 -8.00242188 2.9459375 -8.80859375 3.046875 C-11 3 -11 3 -14 1 C-8.80451575 -1.20808081 -5.41735797 -0.93402724 0 0 Z " fill="#3EAFBB" transform="translate(264,155)"/>
<path d="M0 0 C0.66 0 1.32 0 2 0 C2.99 2.31 3.98 4.62 5 7 C4.34 7.66 3.68 8.32 3 9 C2.01 7.68 1.02 6.36 0 5 C-0.33 5.66 -0.66 6.32 -1 7 C-1.66 7 -2.32 7 -3 7 C-2.67 5.35 -2.34 3.7 -2 2 C-1.34 2 -0.68 2 0 2 C0 1.34 0 0.68 0 0 Z " fill="#C7EDF0" transform="translate(288,88)"/>
<path d="M0 0 C1.5625 1 1.5625 1 3 3 C3.06881101 5.85565675 2.59528685 8.16093962 2 11 C1.01 11.495 1.01 11.495 0 12 C-1.28571429 3.42857143 -1.28571429 3.42857143 0 0 Z " fill="#314166" transform="translate(265,88)"/>
<path d="M0 0 C1.65 0 3.3 0 5 0 C5.33 1.65 5.66 3.3 6 5 C5.01 5 4.02 5 3 5 C2.34 5.66 1.68 6.32 1 7 C0.67 4.69 0.34 2.38 0 0 Z " fill="#1D3264" transform="translate(263,85)"/>
<path d="M0 0 C2.50037734 2.17424117 3.43628586 3.73045798 4 7 C1.69 7 -0.62 7 -3 7 C-2.01 4.69 -1.02 2.38 0 0 Z " fill="#203760" transform="translate(197,190)"/>
<path d="M0 0 C-3.64418341 2.42945561 -4.92923364 2.0828781 -9.1875 1.625 C-10.27417969 1.51414063 -11.36085937 1.40328125 -12.48046875 1.2890625 C-13.31191406 1.19367188 -14.14335937 1.09828125 -15 1 C-15 0.67 -15 0.34 -15 0 C-9.14210361 -2.19671115 -5.9589999 -1.88178944 0 0 Z " fill="#56C0CF" transform="translate(256,158)"/>
<path d="M0 0 C2 2 2 2 3 5 C2.91382274 7.232269 2.76077759 9.46238486 2.5625 11.6875 C2.40974609 13.45673828 2.40974609 13.45673828 2.25390625 15.26171875 C2.12822266 16.61716797 2.12822266 16.61716797 2 18 C1.67 18 1.34 18 1 18 C0.67 12.06 0.34 6.12 0 0 Z " fill="#C5F2F7" transform="translate(287,98)"/>
<path d="M0 0 C-1.8903376 0.70246995 -3.78756828 1.38640849 -5.6875 2.0625 C-6.74324219 2.44535156 -7.79898437 2.82820312 -8.88671875 3.22265625 C-12.09333792 4.0233052 -13.8686307 3.9237249 -17 3 C-14.20261218 1.4932252 -11.59677568 0.51775885 -8.5 -0.1875 C-7.7471875 -0.36667969 -6.994375 -0.54585937 -6.21875 -0.73046875 C-3.85166621 -1.01801942 -2.25455985 -0.72248395 0 0 Z " fill="#91E8F7" transform="translate(265,152)"/>
<path d="M0 0 C0 1.32 0 2.64 0 4 C0.99 4.33 1.98 4.66 3 5 C-4.42857143 4 -4.42857143 4 -8 3 C-8 2.34 -8 1.68 -8 1 C-5.10765685 0.17361624 -3.11257569 0 0 0 Z " fill="#384B67" transform="translate(254,77)"/>
<path d="M0 0 C-1.4160599 0.79275148 -2.83287553 1.58415312 -4.25 2.375 C-5.43335938 3.03628906 -5.43335938 3.03628906 -6.640625 3.7109375 C-8.73914197 4.85747823 -10.8536077 5.94649552 -13 7 C-13 6.34 -13 5.68 -13 5 C-12.34 4.67 -11.68 4.34 -11 4 C-11.33 3.34 -11.66 2.68 -12 2 C-10.56656 1.46809459 -9.12804633 0.94984742 -7.6875 0.4375 C-6.48673828 0.00244141 -6.48673828 0.00244141 -5.26171875 -0.44140625 C-3 -1 -3 -1 0 0 Z " fill="#A4DBE6" transform="translate(237,73)"/>
<path d="M0 0 C1.4606285 2.64738916 2 3.89448334 2 7 C2.66 7.33 3.32 7.66 4 8 C1.69 8 -0.62 8 -3 8 C-1.125 2.25 -1.125 2.25 0 0 Z " fill="#273560" transform="translate(378,221)"/>
<path d="M0 0 C0.33 0 0.66 0 1 0 C0.33333333 4.66666667 -0.33333333 9.33333333 -1 14 C-2.32 13.67 -3.64 13.34 -5 13 C-4.67 11.68 -4.34 10.36 -4 9 C-3.34 9 -2.68 9 -2 9 C-1.34 6.03 -0.68 3.06 0 0 Z " fill="#0E3071" transform="translate(193,203)"/>
<path d="M0 0 C0.99 1.32 1.98 2.64 3 4 C-2.75 8 -2.75 8 -5 8 C-4.45773019 4.20411134 -2.79872437 2.52788007 0 0 Z " fill="#B3EDF2" transform="translate(215,88)"/>
<path d="M0 0 C0.66 0.99 1.32 1.98 2 3 C1.2575 3.680625 1.2575 3.680625 0.5 4.375 C-1.22609337 5.87635519 -1.22609337 5.87635519 -1 8 C-2.98 8.99 -2.98 8.99 -5 10 C-5 6.60406522 -4.47834052 5.93380119 -2.5 3.3125 C-2.0359375 2.68988281 -1.571875 2.06726563 -1.09375 1.42578125 C-0.7328125 0.95527344 -0.371875 0.48476562 0 0 Z M-1 5 C-0.34 5 0.32 5 1 5 C0.67 5.66 0.34 6.32 0 7 C-0.33 6.34 -0.66 5.68 -1 5 Z " fill="#EAF2F9" transform="translate(166,189)"/>
<path d="M0 0 C0.33 0.66 0.66 1.32 1 2 C1.99 1.67 2.98 1.34 4 1 C5.32 2.98 6.64 4.96 8 7 C5.03 6.01 2.06 5.02 -1 4 C-0.67 2.68 -0.34 1.36 0 0 Z " fill="#19A9C2" transform="translate(207,150)"/>
<path d="M0 0 C1.64666203 0.1135629 3.29236082 0.24117381 4.9375 0.375 C5.85402344 0.44460937 6.77054687 0.51421875 7.71484375 0.5859375 C8.84599609 0.79089844 8.84599609 0.79089844 10 1 C10.33 1.66 10.66 2.32 11 3 C3.375 4.25 3.375 4.25 0 2 C0 1.34 0 0.68 0 0 Z " fill="#334564" transform="translate(277,77)"/>
<path d="M0 0 C0.99 0 1.98 0 3 0 C4 5.75 4 5.75 4 8 C4.66 8.66 5.32 9.32 6 10 C4.35 10 2.7 10 1 10 C0.19032562 7.08517222 -0.21845993 5.53886783 0.9375 2.6875 C1.288125 2.130625 1.63875 1.57375 2 1 C1.34 0.67 0.68 0.34 0 0 Z " fill="#10285A" transform="translate(310,218)"/>
<path d="M0 0 C1.98 0.495 1.98 0.495 4 1 C4 2.98 4 4.96 4 7 C2.35 6.67 0.7 6.34 -1 6 C-0.67 4.02 -0.34 2.04 0 0 Z " fill="#0C2A62" transform="translate(399,206)"/>
<path d="M0 0 C1.32 0.33 2.64 0.66 4 1 C1.36 3.64 -1.28 6.28 -4 9 C-4.33 8.01 -4.66 7.02 -5 6 C-3.6875 3.8125 -3.6875 3.8125 -2 2 C-1.34 2 -0.68 2 0 2 C0 1.34 0 0.68 0 0 Z " fill="#E5F0FB" transform="translate(261,192)"/>
<path d="M0 0 C0 3 0 3 -1.625 5.625 C-4.43693229 8.43693229 -6.10240081 8.7342546 -10 9 C-6.83047153 5.73991357 -3.60062011 2.77762123 0 0 Z " fill="#189EAD" transform="translate(283,138)"/>
<path d="M0 0 C2 1 2 1 2.6328125 2.84765625 C2.79523438 3.57855469 2.95765625 4.30945313 3.125 5.0625 C3.29257813 5.79597656 3.46015625 6.52945313 3.6328125 7.28515625 C3.75398437 7.85105469 3.87515625 8.41695312 4 9 C3.01 9.66 2.02 10.32 1 11 C-0.28317892 7.15046324 -0.06643637 4.05261865 0 0 Z " fill="#26AFCB" transform="translate(195,134)"/>
<path d="M0 0 C1.18771723 3.42943519 0.80226223 5.37784675 -0.4375 8.75 C-0.86869141 9.94882813 -0.86869141 9.94882813 -1.30859375 11.171875 C-1.53675781 11.77515625 -1.76492187 12.3784375 -2 13 C-2.66 12.34 -3.32 11.68 -4 11 C-3.65561395 6.86736741 -1.93570031 3.61891796 0 0 Z " fill="#92E8EC" transform="translate(203,94)"/>
<path d="M0 0 C1 2 1 2 0.5 3.875 C-0.06796534 6.28885269 0.25055468 7.66839233 1 10 C0.01 10.33 -0.98 10.66 -2 11 C-2.33 8.36 -2.66 5.72 -3 3 C-2.34 3 -1.68 3 -1 3 C-0.67 2.01 -0.34 1.02 0 0 Z " fill="#0D2756" transform="translate(382,217)"/>
<path d="M0 0 C0.66 0.33 1.32 0.66 2 1 C4.0374763 1.22858114 6.08040303 1.41024278 8.125 1.5625 C9.76855469 1.68818359 9.76855469 1.68818359 11.4453125 1.81640625 C12.28835938 1.87699219 13.13140625 1.93757812 14 2 C14 2.33 14 2.66 14 3 C6.08 3.495 6.08 3.495 -2 4 C-2 3.01 -2 2.02 -2 1 C-1.34 0.67 -0.68 0.34 0 0 Z " fill="#0A2755" transform="translate(386,214)"/>
<path d="M0 0 C2.3125 -0.25 2.3125 -0.25 5 0 C6.8125 2 6.8125 2 8 4 C5.36 4 2.72 4 0 4 C0 2.68 0 1.36 0 0 Z " fill="#F6F8F5" transform="translate(92,211)"/>
<path d="M0 0 C0.33 0.66 0.66 1.32 1 2 C1.66 2 2.32 2 3 2 C4.25664978 4.90600261 5 6.79604584 5 10 C4.34 10 3.68 10 3 10 C-0.22265625 4.82421875 -0.22265625 4.82421875 -1 3 C-0.67 2.01 -0.34 1.02 0 0 Z " fill="#E7F3F9" transform="translate(107,208)"/>
<path d="M0 0 C-0.33 1.65 -0.66 3.3 -1 5 C-1.99 4.67 -2.98 4.34 -4 4 C-4.99 4.495 -4.99 4.495 -6 5 C-6 3.35 -6 1.7 -6 0 C-3 -1 -3 -1 0 0 Z " fill="#0B2A5F" transform="translate(391,208)"/>
<path d="M0 0 C1.32 0 2.64 0 4 0 C4.33 1.98 4.66 3.96 5 6 C3 6 1 6 -1 6 C-1.042721 4.33388095 -1.04063832 2.66617115 -1 1 C-0.67 0.67 -0.34 0.34 0 0 Z " fill="#092862" transform="translate(232,197)"/>
<path d="M0 0 C0.66 0 1.32 0 2 0 C2.66 0.99 3.32 1.98 4 3 C4.66 2.67 5.32 2.34 6 2 C6.33 3.32 6.66 4.64 7 6 C5.33333333 6 3.66666667 6 2 6 C2 6.66 2 7.32 2 8 C1.34 7.67 0.68 7.34 0 7 C0.2784375 6.1028125 0.2784375 6.1028125 0.5625 5.1875 C1.22093687 2.83591238 1.22093687 2.83591238 0 0 Z " fill="#1C3771" transform="translate(151,195)"/>
<path d="M0 0 C1.32 0 2.64 0 4 0 C4 0.66 4 1.32 4 2 C4.66 2 5.32 2 6 2 C5.67 3.32 5.34 4.64 5 6 C4.01 6 3.02 6 2 6 C0 3 0 3 0 0 Z " fill="#0B2968" transform="translate(298,197)"/>
<path d="M0 0 C1.30211046 3.90633137 0.47812346 6.19538173 -0.4375 10.1875 C-0.72496094 11.45980469 -1.01242188 12.73210937 -1.30859375 14.04296875 C-1.53675781 15.01878906 -1.76492187 15.99460937 -2 17 C-4.0812357 13.57208238 -4.0812357 13.57208238 -3.72265625 11.046875 C-3.48417969 10.37140625 -3.24570313 9.6959375 -3 9 C-2.75121094 8.22140625 -2.50242188 7.4428125 -2.24609375 6.640625 C-1.97925781 5.85171875 -1.71242187 5.0628125 -1.4375 4.25 C-1.16808594 3.45078125 -0.89867187 2.6515625 -0.62109375 1.828125 C-0.41613281 1.22484375 -0.21117187 0.6215625 0 0 Z " fill="#E3FDFE" transform="translate(192,107)"/>
<path d="M0 0 C2.64465038 3.1254959 3.84414715 6.08788267 5 10 C4.01 10 3.02 10 2 10 C0 8 0 8 -0.1953125 6.0546875 C-0.13020833 4.03645833 -0.06510417 2.01822917 0 0 Z " fill="#2D3E6B" transform="translate(107,212)"/>
<path d="M0 0 C1.32 0.33 2.64 0.66 4 1 C1.69 3.31 -0.62 5.62 -3 8 C-3.99 7.01 -4.98 6.02 -6 5 C-5.195625 4.731875 -4.39125 4.46375 -3.5625 4.1875 C-2.716875 3.795625 -1.87125 3.40375 -1 3 C-0.67 2.01 -0.34 1.02 0 0 Z " fill="#10264E" transform="translate(252,210)"/>
<path d="M0 0 C2.33333333 0 4.66666667 0 7 0 C6.34 1.98 5.68 3.96 5 6 C3.2925002 4.71937515 1.62626404 3.38232443 0 2 C0 1.34 0 0.68 0 0 Z " fill="#F3F8F9" transform="translate(233,192)"/>
<path d="M0 0 C-0.5625 1.9375 -0.5625 1.9375 -2 4 C-5.625 4.75 -5.625 4.75 -9 5 C-9.33 4.34 -9.66 3.68 -10 3 C-3.375 0 -3.375 0 0 0 Z " fill="#02ADCC" transform="translate(265,167)"/>
<path d="M0 0 C2 3 2 3 2 7 C1.34 7 0.68 7 0 7 C-0.33 7.99 -0.66 8.98 -1 10 C-2.46726798 6.18510326 -1.43336419 3.70988378 0 0 Z " fill="#39456B" transform="translate(266,58)"/>
<path d="M0 0 C0.66 0.66 1.32 1.32 2 2 C4.32275177 2.40047444 6.65739357 2.7397104 9 3 C8.67 3.66 8.34 4.32 8 5 C2.55072464 6.27536232 2.55072464 6.27536232 0 5 C0 3.35 0 1.7 0 0 Z " fill="#E8F1F8" transform="translate(208,226)"/>
<path d="M0 0 C0.99 0 1.98 0 3 0 C3.66 1.65 4.32 3.3 5 5 C2.36 5 -0.28 5 -3 5 C-2.01 4.34 -1.02 3.68 0 3 C0 2.01 0 1.02 0 0 Z " fill="#314766" transform="translate(409,224)"/>
<path d="M0 0 C0.66 0.33 1.32 0.66 2 1 C1.01 2.98 0.02 4.96 -1 7 C-1.66 7 -2.32 7 -3 7 C-4.125 3.25 -4.125 3.25 -3 1 C-2.01 0.67 -1.02 0.34 0 0 Z " fill="#EEF6FB" transform="translate(181,218)"/>
<path d="M0 0 C0.33 1.32 0.66 2.64 1 4 C0.34 4 -0.32 4 -1 4 C-1 4.99 -1 5.98 -1 7 C-1.66 7 -2.32 7 -3 7 C-3 7.66 -3 8.32 -3 9 C-4.32 9.33 -5.64 9.66 -7 10 C-6.02223933 8.51990357 -5.0427506 7.04094856 -4.0625 5.5625 C-3.51722656 4.73878906 -2.97195312 3.91507813 -2.41015625 3.06640625 C-1 1 -1 1 0 0 Z " fill="#D9E2ED" transform="translate(151,208)"/>
<path d="M0 0 C2.39047894 2.39047894 4 4.54145481 4 8 C2.68 8.33 1.36 8.66 0 9 C0 6.03 0 3.06 0 0 Z " fill="#EDF3FC" transform="translate(363,198)"/>
<path d="M0 0 C0 3 0 3 -1 6 C-3.64 6.33 -6.28 6.66 -9 7 C-8.1646875 6.38125 -8.1646875 6.38125 -7.3125 5.75 C-4.83804044 3.87743601 -2.4164771 1.94660656 0 0 Z " fill="#35AABE" transform="translate(275,136)"/>
<path d="M0 0 C0.33 1.32 0.66 2.64 1 4 C-1.97 6.475 -1.97 6.475 -5 9 C-4.75 5.625 -4.75 5.625 -4 2 C-1.9375 0.5625 -1.9375 0.5625 0 0 Z " fill="#4AC0CA" transform="translate(204,89)"/>
<path d="M0 0 C0.33 1.32 0.66 2.64 1 4 C1.66 3.67 2.32 3.34 3 3 C3 3.99 3 4.98 3 6 C1.02 6 -0.96 6 -3 6 C-2.42655063 3.13275314 -2.1385485 2.1385485 0 0 Z " fill="#172F66" transform="translate(253,204)"/>
<path d="M0 0 C1.98 0.495 1.98 0.495 4 1 C3.67 2.98 3.34 4.96 3 7 C1.68 6.34 0.36 5.68 -1 5 C-0.34 4.67 0.32 4.34 1 4 C0.67 2.68 0.34 1.36 0 0 Z " fill="#132C5E" transform="translate(243,206)"/>
<path d="M0 0 C0.66 0 1.32 0 2 0 C2.25 6.625 2.25 6.625 0 10 C-0.74926071 6.33694766 -1.2380014 3.57644848 0 0 Z " fill="#02AEC6" transform="translate(200,132)"/>
<path d="M0 0 C0.93423645 3.01031744 1.04449911 3.86650268 0 7 C-3.0625 8.1875 -3.0625 8.1875 -6 9 C-4.68 7.35 -3.36 5.7 -2 4 C-2.33 3.34 -2.66 2.68 -3 2 C-2.01 1.34 -1.02 0.68 0 0 Z " fill="#EBF9FB" transform="translate(221,88)"/>
<path d="M0 0 C1.32 0.33 2.64 0.66 4 1 C4 2.32 4 3.64 4 5 C2.02 5 0.04 5 -2 5 C-1.34 3.35 -0.68 1.7 0 0 Z " fill="#1E335F" transform="translate(231,224)"/>
<path d="M0 0 C1.65 1.65 3.3 3.3 5 5 C4.67 5.66 4.34 6.32 4 7 C3.01 7 2.02 7 1 7 C-0.0625 4.625 -0.0625 4.625 -1 2 C-0.67 1.34 -0.34 0.68 0 0 Z " fill="#1A3670" transform="translate(285,217)"/>
<path d="M0 0 C1.9375 0.375 1.9375 0.375 4 1 C5.35439668 3.70879335 5.06501451 6.00933268 5 9 C2.67527795 6.14693203 1.2491742 3.45925163 0 0 Z " fill="#DCE9F1" transform="translate(312,215)"/>
<path d="M0 0 C2 3 2 3 2.5 5.5625 C2.80148247 8.16854564 2.80148247 8.16854564 5 10 C3.125 9.8125 3.125 9.8125 1 9 C-0.5225431 6.31742407 -1.12235992 4.75455283 -0.625 1.6875 C-0.41875 1.130625 -0.2125 0.57375 0 0 Z " fill="#D9FBFE" transform="translate(206,137)"/>
<path d="M0 0 C0.33 0.99 0.66 1.98 1 3 C3.64 3 6.28 3 9 3 C9 3.33 9 3.66 9 4 C1.375 5 1.375 5 -2 5 C-1.34 3.35 -0.68 1.7 0 0 Z " fill="#E5EFF4" transform="translate(310,226)"/>
<path d="M0 0 C2.62386487 3.06117568 3 3.73173127 3 8 C1.68 8 0.36 8 -1 8 C-0.814375 7.38125 -0.62875 6.7625 -0.4375 6.125 C0.23686176 3.95839822 0.23686176 3.95839822 -1 2 C-0.67 1.34 -0.34 0.68 0 0 Z " fill="#E3EAF4" transform="translate(105,223)"/>
<path d="M0 0 C0.33 0.66 0.66 1.32 1 2 C0.67 2.66 0.34 3.32 0 4 C-2.31 4 -4.62 4 -7 4 C-6.67 3.01 -6.34 2.02 -6 1 C-4.02 0.67 -2.04 0.34 0 0 Z " fill="#223257" transform="translate(287,225)"/>
<path d="M0 0 C0.66 0.66 1.32 1.32 2 2 C1.01 4.31 0.02 6.62 -1 9 C-2.1875 7.3125 -2.1875 7.3125 -3 5 C-1.625 2.25 -1.625 2.25 0 0 Z " fill="#DCE7F4" transform="translate(188,203)"/>
<path d="M0 0 C1.98 0.495 1.98 0.495 4 1 C3.43628586 4.26954202 2.50037734 5.82575883 0 8 C0 5 0 5 2 2 C1.34 2 0.68 2 0 2 C0 1.34 0 0.68 0 0 Z " fill="#BAD0D5" transform="translate(289,147)"/>
<path d="M0 0 C0.66 0.33 1.32 0.66 2 1 C-0.31 3.31 -2.62 5.62 -5 8 C-5.33 7.34 -5.66 6.68 -6 6 C-5.0950754 3.36749208 -4.34351194 2.22542971 -2 0.6875 C-1.34 0.460625 -0.68 0.23375 0 0 Z " fill="#82BEC7" transform="translate(218,91)"/>
<path d="M0 0 C0.66 0.33 1.32 0.66 2 1 C0.02 3.31 -1.96 5.62 -4 8 C-4.33 6.68 -4.66 5.36 -5 4 C-4.01 3.67 -3.02 3.34 -2 3 C-2 2.34 -2 1.68 -2 1 C-1.34 0.67 -0.68 0.34 0 0 Z " fill="#D4F9F9" transform="translate(206,82)"/>
<path d="M0 0 C-2.95183101 2.95183101 -5.95511947 3.08663988 -10 4 C-9.67 3.01 -9.34 2.02 -9 1 C-5.8035914 -0.06546953 -3.34252724 -0.07427838 0 0 Z " fill="#B7EDF1" transform="translate(234,68)"/>
<path d="M0 0 C1.32 0.66 2.64 1.32 4 2 C3.01 3.485 3.01 3.485 2 5 C-0.625 5.1875 -0.625 5.1875 -3 5 C-3 4.34 -3 3.68 -3 3 C-2.01 2.67 -1.02 2.34 0 2 C0 1.34 0 0.68 0 0 Z " fill="#142F77" transform="translate(137,220)"/>
<path d="M0 0 C-0.66 1.98 -1.32 3.96 -2 6 C-3.5 4.625 -3.5 4.625 -5 3 C-5 2.34 -5 1.68 -5 1 C-3 0 -3 0 0 0 Z " fill="#18386B" transform="translate(386,220)"/>
<path d="M0 0 C0.66 0.33 1.32 0.66 2 1 C2.1875 4.375 2.1875 4.375 2 8 C1.01 8.66 0.02 9.32 -1 10 C-1.33 9.34 -1.66 8.68 -2 8 C-1.67 7.34 -1.34 6.68 -1 6 C-0.34 6 0.32 6 1 6 C0.67 4.02 0.34 2.04 0 0 Z " fill="#E6F2F8" transform="translate(354,198)"/>
<path d="M0 0 C1.98 1.65 3.96 3.3 6 5 C5.01 5.495 5.01 5.495 4 6 C3.67 6.66 3.34 7.32 3 8 C3 7.01 3 6.02 3 5 C2.01 4.67 1.02 4.34 0 4 C0 2.68 0 1.36 0 0 Z " fill="#243B62" transform="translate(230,191)"/>
<path d="M0 0 C0.66 0 1.32 0 2 0 C1.34 2.31 0.68 4.62 0 7 C-0.99 7 -1.98 7 -3 7 C-2.38722388 4.03824877 -1.74627478 2.61941217 0 0 Z " fill="#04A9C6" transform="translate(281,132)"/>
<path d="M0 0 C0.99 0.33 1.98 0.66 3 1 C1.35 2.65 -0.3 4.3 -2 6 C-2 2 -2 2 0 0 Z " fill="#269CB4" transform="translate(211,88)"/>
<path d="M0 0 C0.33 0.99 0.66 1.98 1 3 C-1.52956528 6.0916909 -4.22454612 6.90931332 -8 8 C-5.33333333 5.33333333 -2.66666667 2.66666667 0 0 Z " fill="#DAF7F9" transform="translate(224,80)"/>
<path d="M0 0 C0.33 0.99 0.66 1.98 1 3 C-2.465 4.485 -2.465 4.485 -6 6 C-6.66 5.01 -7.32 4.02 -8 3 C-5.69 3 -3.38 3 -1 3 C-0.67 2.01 -0.34 1.02 0 0 Z " fill="#E1EDF5" transform="translate(383,226)"/>
<path d="M0 0 C2.475 0.495 2.475 0.495 5 1 C4.67 2.98 4.34 4.96 4 7 C2.10786631 4.61426621 0.97608217 2.92824652 0 0 Z " fill="#EBF3F1" transform="translate(215,224)"/>
<path d="M0 0 C1.65 0 3.3 0 5 0 C4.67 1.32 4.34 2.64 4 4 C2.68 4.33 1.36 4.66 0 5 C0 3.35 0 1.7 0 0 Z " fill="#16337B" transform="translate(86,214)"/>
<path d="M0 0 C0.6875 1.75 0.6875 1.75 1 4 C-0.3125 6.25 -0.3125 6.25 -2 8 C-2.66 8 -3.32 8 -4 8 C-2.87548273 5.0280615 -1.77706209 2.66559313 0 0 Z " fill="#213869" transform="translate(392,194)"/>
<path d="M0 0 C1.65 0 3.3 0 5 0 C4.67 1.65 4.34 3.3 4 5 C2.68 4.67 1.36 4.34 0 4 C0 2.68 0 1.36 0 0 Z " fill="#102D6E" transform="translate(156,191)"/>
<path d="M0 0 C0.66 0.33 1.32 0.66 2 1 C1.34 2.65 0.68 4.3 0 6 C-0.99 6 -1.98 6 -3 6 C-1.125 1.125 -1.125 1.125 0 0 Z " fill="#40BAC6" transform="translate(288,129)"/>
</svg>
