<?xml version="1.0" encoding="UTF-8"?>
<svg version="1.1" xmlns="http://www.w3.org/2000/svg" width="860" height="230">
<path d="M0 0 C283.8 0 567.6 0 860 0 C860 75.9 860 151.8 860 230 C576.2 230 292.4 230 0 230 C0 154.1 0 78.2 0 0 Z " fill="#FEFEFE" transform="translate(0,0)"/>
<path d="M0 0 C3.72994701 2.70342798 6.79770638 6.22431901 8.859375 10.34765625 C9.36116065 16.79367193 9.82166774 22.93252284 5.859375 28.34765625 C2.10032127 32.10670998 -1.04409417 34.18942751 -6.453125 34.59765625 C-11.53854903 34.25288174 -14.62705796 32.6566872 -18.453125 29.34765625 C-21.5918484 25.62768778 -21.46446441 22.04332767 -21.140625 17.34765625 C-19.48923195 13.80895685 -18.42457271 12.53695472 -15.140625 10.34765625 C-11.10197841 10.02712874 -8.3573194 9.83056113 -4.640625 11.41015625 C-2.39635683 14.30900263 -2.8729914 16.80151101 -3.140625 20.34765625 C-4.79677157 20.72984392 -6.46519524 21.06160727 -8.140625 21.34765625 C-9.140625 20.34765625 -9.140625 20.34765625 -9.203125 17.78515625 C-9.1825 16.98078125 -9.161875 16.17640625 -9.140625 15.34765625 C-11.73203786 16.48521245 -11.73203786 16.48521245 -14.140625 18.34765625 C-14.61441619 21.50626418 -14.15486022 23.3049506 -13.140625 26.34765625 C-6.90801358 27.67809902 -6.90801358 27.67809902 -1.140625 25.53515625 C2.11274958 21.9767778 2.25262468 19.36061624 2.21484375 14.67578125 C1.61085082 10.71995944 -0.24520305 9.04107202 -3.140625 6.34765625 C-7.80288953 4.79356807 -12.28210863 4.62260569 -17.140625 5.34765625 C-21.41944444 7.6726077 -24.32626696 10.82441947 -26.140625 15.34765625 C-27.12819896 22.09990608 -26.12691186 27.77459501 -22.140625 33.34765625 C-16.72331849 38.49409743 -12.36888849 39.80519389 -5.02734375 39.66796875 C3.095258 38.76667871 9.35110514 34.14583505 14.859375 28.34765625 C14.70059981 34.69866379 11.22644742 38.15675023 6.859375 42.34765625 C0.42608902 46.98560661 -6.42402838 47.00935684 -14.140625 46.34765625 C-21.70911968 44.6001723 -26.86535833 39.68366297 -31.140625 33.34765625 C-34.01104835 26.48115333 -34.77422387 17.97132449 -32.265625 10.87109375 C-28.96204558 5.24196829 -24.13885905 0.78159427 -18.265625 -2.02734375 C-11.57348653 -3.36577144 -6.06792403 -3.38590161 0 0 Z " fill="#0B3AA3" transform="translate(95.140625,88.65234375)"/>
<path d="M0 0 C20 0 20 0 26 4 C29.47361388 7.66495702 29.55980653 10.62893253 29.4296875 15.515625 C28.73127216 19.55373551 27.00649513 21.27983774 24 24 C23.34 24 22.68 24 22 24 C22.6496875 25.05960938 23.299375 26.11921875 23.96875 27.2109375 C24.81273123 28.59881775 25.65646864 29.98684629 26.5 31.375 C27.14388672 32.42300781 27.14388672 32.42300781 27.80078125 33.4921875 C31 38.7734375 31 38.7734375 31 41 C26.08456914 42.14108216 26.08456914 42.14108216 23 41 C19.83713162 37.13724014 15 31.1491524 15 26 C12.36 26 9.72 26 7 26 C7 30.95 7 35.9 7 41 C4.69 41 2.38 41 0 41 C0 27.47 0 13.94 0 0 Z " fill="#5CC3E7" transform="translate(603,91)"/>
<path d="M0 0 C9.24 0 18.48 0 28 0 C28 2.64 28 5.28 28 8 C21.73 8 15.46 8 9 8 C9 10.64 9 13.28 9 16 C14.61 16 20.22 16 26 16 C26 18.64 26 21.28 26 24 C20.39 24 14.78 24 9 24 C9 26.97 9 29.94 9 33 C15.27 33 21.54 33 28 33 C28 35.64 28 38.28 28 41 C18.76 41 9.52 41 0 41 C0 27.47 0 13.94 0 0 Z " fill="#0233A0" transform="translate(302,91)"/>
<path d="M0 0 C8.91 0 17.82 0 27 0 C27 2.64 27 5.28 27 8 C21.06 8 15.12 8 9 8 C9 10.64 9 13.28 9 16 C14.61 16 20.22 16 26 16 C26 18.64 26 21.28 26 24 C20.39 24 14.78 24 9 24 C9 26.97 9 29.94 9 33 C15.27 33 21.54 33 28 33 C28 35.64 28 38.28 28 41 C18.76 41 9.52 41 0 41 C0 27.47 0 13.94 0 0 Z " fill="#0133A0" transform="translate(226,91)"/>
<path d="M0 0 C3 1 3 1 4.65625 3.82421875 C5.28084174 5.10715473 5.89459134 6.39540096 6.5 7.6875 C7.19712957 9.13189057 7.89509597 10.57587745 8.59375 12.01953125 C8.97273438 12.80924316 9.35171875 13.59895508 9.7421875 14.41259766 C11.12261693 17.25223102 12.54156035 20.07030635 13.96875 22.88671875 C14.72188477 24.37522339 14.72188477 24.37522339 15.49023438 25.89379883 C16.48964677 27.86725045 17.49092276 29.83975949 18.49414062 31.8112793 C18.94982422 32.716604 19.40550781 33.62192871 19.875 34.5546875 C20.28492188 35.36405762 20.69484375 36.17342773 21.1171875 37.00732422 C22 39 22 39 22 41 C18.7 41 15.4 41 12 41 C11.34 39.35 10.68 37.7 10 36 C4.06 35.67 -1.88 35.34 -8 35 C-8.66 36.98 -9.32 38.96 -10 41 C-13.3 41 -16.6 41 -20 41 C-18.61910597 36.4861466 -16.81474292 32.46177658 -14.62890625 28.28125 C-14.30591049 27.66028442 -13.98291473 27.03931885 -13.65013123 26.39953613 C-12.62503644 24.43084444 -11.5939642 22.46536073 -10.5625 20.5 C-9.53598533 18.53394295 -8.51070154 16.56724783 -7.48558044 14.60046387 C-6.55427634 12.81530149 -5.62011488 11.03163062 -4.68579102 9.24804688 C-3.09334139 6.1798427 -1.53724492 3.09617007 0 0 Z " fill="#0A3AA3" transform="translate(471,91)"/>
<path d="M0 0 C2.93394345 1.3537649 5.45866888 3.01236673 8 5 C7.66015625 6.890625 7.66015625 6.890625 7 9 C4.4375 10.75 4.4375 10.75 2 12 C1.34 11.34 0.68 10.68 0 10 C-2.68839385 9.73008094 -5.29141936 9.91262643 -8 10 C-8 11.32 -8 12.64 -8 14 C-7.20335937 14.30292969 -6.40671875 14.60585937 -5.5859375 14.91796875 C6.32191525 19.62606138 6.32191525 19.62606138 10 24 C11.41371978 28.37928139 11.30931206 31.90709739 10.0625 36.3125 C6.72088635 40.66672385 2.94450859 42.54269122 -2.46484375 43.3828125 C-8.42963246 43.65853463 -13.10908527 42.47172844 -18 39 C-20 36.75 -20 36.75 -21 35 C-19.9024777 32.00675737 -19.32317108 31.15389099 -16.375 29.75 C-15.59125 29.5025 -14.8075 29.255 -14 29 C-13.525625 29.66 -13.05125 30.32 -12.5625 31 C-8.85124437 33.89658976 -5.54602793 33.34969446 -1 33 C-0.67 31.35 -0.34 29.7 0 28 C-0.96421875 27.61328125 -1.9284375 27.2265625 -2.921875 26.828125 C-4.1981325 26.3026072 -5.47416231 25.77653619 -6.75 25.25 C-7.38421875 24.99734375 -8.0184375 24.7446875 -8.671875 24.484375 C-12.54511262 22.87052599 -15.34561987 21.27287648 -18 18 C-19.21762731 14.34711807 -19.39075851 11.84245864 -19 8 C-14.67310724 0.38466873 -8.21592323 -1.26304491 0 0 Z " fill="#0B3AA4" transform="translate(360,90)"/>
<path d="M0 0 C2.57191889 1.42218396 4.48892839 3.04767075 6.5 5.1875 C5.46604935 8.00736541 4.73469084 9.04545028 2.125 10.625 C1.25875 10.810625 0.3925 10.99625 -0.5 11.1875 C-1.11359375 10.71441406 -1.7271875 10.24132812 -2.359375 9.75390625 C-5.55020583 7.41900996 -8.17172283 7.6555074 -12.01953125 7.7578125 C-16.04378559 8.45492743 -17.75081366 10.22683779 -20.5 13.1875 C-22.09671189 16.38092379 -21.87418163 19.71295631 -21.5 23.1875 C-19.83717361 26.92885939 -17.94320422 29.02023493 -14.5 31.1875 C-12.05261739 31.65860255 -12.05261739 31.65860255 -9.5 31.5625 C-8.654375 31.57023437 -7.80875 31.57796875 -6.9375 31.5859375 C-4.0569152 31.11507268 -2.73885363 29.99784186 -0.5 28.1875 C2.18780658 28.35039737 3.24129004 28.95650897 5.25 30.75 C5.6625 31.224375 6.075 31.69875 6.5 32.1875 C4.99235345 36.40891034 2.28707131 37.99099864 -1.5 40.1875 C-7.10314789 42.42875915 -13.09621067 41.57339865 -18.625 39.625 C-24.79072235 36.9595108 -28.9969706 32.42823699 -31.5 26.1875 C-32.38120247 19.17498354 -32.45370634 12.73328398 -28.1328125 6.90625 C-20.5278853 -1.09893653 -10.59612039 -5.15061882 0 0 Z " fill="#0939A3" transform="translate(208.5,91.8125)"/>
<path d="M0 0 C8.58 0 17.16 0 26 0 C26 2.31 26 4.62 26 7 C20.06 7 14.12 7 8 7 C8 9.97 8 12.94 8 16 C13.61 16 19.22 16 25 16 C25 18.31 25 20.62 25 23 C19.06 23 13.12 23 7 23 C7 26.63 7 30.26 7 34 C13.6 34 20.2 34 27 34 C27 36.31 27 38.62 27 41 C18.09 41 9.18 41 0 41 C0 27.47 0 13.94 0 0 Z " fill="#5DC3E7" transform="translate(759,91)"/>
<path d="M0 0 C2.31 0 4.62 0 7 0 C7.00410889 0.85231201 7.00821777 1.70462402 7.01245117 2.58276367 C7.0395042 5.76095348 7.0886643 8.93783292 7.15258789 12.11547852 C7.17570978 13.48775431 7.19015003 14.86020609 7.19555664 16.23266602 C7.20488665 18.21134471 7.24857019 20.18976624 7.29296875 22.16796875 C7.3086792 23.35672607 7.32438965 24.5454834 7.34057617 25.77026367 C8.18600745 29.91103019 9.7063936 31.4258489 13 34 C16.82264001 34.39544552 19.36217368 34.21260877 23 33 C24.38122152 29.60426563 24.20526383 25.88569243 24.31640625 22.265625 C24.35830078 20.97011719 24.40019531 19.67460938 24.44335938 18.33984375 C24.48316671 16.97656524 24.52287906 15.61328394 24.5625 14.25 C24.60572274 12.87108125 24.64933821 11.49217474 24.69335938 10.11328125 C24.79943958 6.7422881 24.9014985 3.37122174 25 0 C27.64 0 30.28 0 33 0 C33.07468157 4.00178342 33.12885021 8.00329167 33.16479492 12.00561523 C33.17979409 13.36441117 33.20020038 14.72315941 33.22631836 16.08178711 C33.49107375 30.21764872 33.49107375 30.21764872 30 36 C25.94689241 39.94644686 22.2453688 41.79209548 16.625 42.3125 C9.82465852 41.72626367 5.39346486 39.16878219 1 34 C-0.17942085 30.46173745 -0.11289189 27.65851274 -0.09765625 23.92578125 C-0.0962413 23.2419487 -0.09482635 22.55811615 -0.09336853 21.8535614 C-0.08777876 19.67316278 -0.07522822 17.49286749 -0.0625 15.3125 C-0.05748367 13.83268378 -0.052921 12.35286594 -0.04882812 10.87304688 C-0.03781271 7.24866443 -0.02055512 3.6243423 0 0 Z " fill="#5EC3E7" transform="translate(646,91)"/>
<path d="M0 0 C3.8026029 2.0050088 5.61790841 3.42686262 8 7 C6.3125 8.625 6.3125 8.625 4 10 C1.625 9.1875 1.625 9.1875 -1 8 C-5.15405674 7.71161543 -5.15405674 7.71161543 -9 9 C-9.03283796 11.39956736 -9.03283796 11.39956736 -8 14 C-5.69649466 15.40653884 -3.64839513 16.46617672 -1.1875 17.5 C3.63440849 19.56300691 7.14405128 21.41917135 10 26 C10.91677796 29.81148631 10.34406493 33.15895241 8.875 36.75 C5.93219674 40.28136391 3.28333623 42.66585323 -1.40234375 43.3515625 C-8.39175739 43.58279122 -12.69183847 42.15762926 -17.875 37.3125 C-18.57625 36.549375 -19.2775 35.78625 -20 35 C-19.67 34.01 -19.34 33.02 -19 32 C-16.4375 30.8125 -16.4375 30.8125 -14 30 C-13.154375 30.825 -12.30875 31.65 -11.4375 32.5 C-8.78595723 34.7117134 -7.9449418 35.00746552 -4.3125 35.5 C-1.08478935 35.23724951 -1.08478935 35.23724951 1 33.75 C2.20437368 32.04451264 2.20437368 32.04451264 1.76708984 30.015625 C0.44026981 26.52923857 -3.17641429 25.52200361 -6.375 24 C-15.02711055 19.83657838 -15.02711055 19.83657838 -17 16 C-17.71767955 12.57850449 -17.70385033 9.42503546 -17 6 C-12.6702215 0.14751652 -6.80279339 -0.8460617 0 0 Z " fill="#60C4E7" transform="translate(817,90)"/>
<path d="M0 0 C3.08577893 1.7280362 4.0980655 2.44098884 5.125 5.75 C3.875 7.3125 3.875 7.3125 2.125 8.75 C-0.19988881 8.4681953 -1.78392835 7.79553582 -3.875 6.75 C-6.875 6.5 -6.875 6.5 -9.875 6.75 C-12.08717996 8.50349607 -12.08717996 8.50349607 -11.92578125 10.65625 C-10.28426293 13.92708204 -7.26708153 14.83933999 -4.0625 16.25 C4.33066557 20.01274976 4.33066557 20.01274976 7.125 23.75 C7.93108927 27.48024758 7.77645085 30.99719767 7.125 34.75 C4.57335732 38.22306921 2.03794492 40.07406456 -1.875 41.75 C-7.75945371 42.58752853 -12.69130365 41.74059405 -17.875 38.75 C-19.78297143 36.85168919 -21.27442141 34.93260717 -22.875 32.75 C-21.555 31.43 -20.235 30.11 -18.875 28.75 C-16.64806531 29.78393396 -14.90108314 30.72661512 -13.0625 32.375 C-9.91865429 34.35113159 -7.51166831 34.08060621 -3.875 33.75 C-2.885 33.09 -1.895 32.43 -0.875 31.75 C-0.62469023 29.16619823 -0.62469023 29.16619823 -0.875 26.75 C-2.009375 26.193125 -3.14375 25.63625 -4.3125 25.0625 C-5.83479957 24.29456635 -7.35552417 23.52350582 -8.875 22.75 C-9.68839844 22.34136719 -10.50179687 21.93273437 -11.33984375 21.51171875 C-12.13519531 21.09535156 -12.93054688 20.67898437 -13.75 20.25 C-14.48992188 19.8684375 -15.22984375 19.486875 -15.9921875 19.09375 C-18.2269999 17.49878016 -18.93614671 16.31268628 -19.875 13.75 C-20.53382353 6.83235294 -20.53382353 6.83235294 -18.125 2.875 C-12.82001558 -2.13526306 -6.73943989 -2.57477557 0 0 Z " fill="#60C4E7" transform="translate(737.875,91.25)"/>
<path d="M0 0 C2.87556602 1.64991493 4.82690092 3.32207661 6.5 6.25 C4.85 7.57 3.2 8.89 1.5 10.25 C0.77296875 9.816875 0.77296875 9.816875 0.03125 9.375 C-5.12258007 6.52057104 -8.61005223 5.49000674 -14.5 6.25 C-18.85944153 8.47084757 -21.66830464 10.67076159 -23.5 15.25 C-24.21062194 19.98747957 -23.97089401 23.30821199 -21.8125 27.625 C-18.90542645 30.92492133 -16.84201838 32.89869724 -12.390625 33.56640625 C-6.78573949 33.85793553 -3.81602251 32.7913518 0.5 29.25 C2.4375 30 2.4375 30 4.5 31.25 C5.12890625 33.328125 5.12890625 33.328125 5.5 35.25 C4.23168307 36.06642254 2.96024069 36.87799105 1.6875 37.6875 C0.62595703 38.36619141 0.62595703 38.36619141 -0.45703125 39.05859375 C-5.25612988 41.85730328 -10.10189192 41.81146741 -15.5 41.25 C-21.66615235 39.45108736 -26.02144921 35.57860806 -29.5 30.25 C-32.56505845 23.85835935 -32.30081159 17.25304347 -30.5 10.5 C-23.91505289 -0.20053906 -11.94182384 -5.60669733 0 0 Z " fill="#5FC4E7" transform="translate(583.5,91.75)"/>
<path d="M0 0 C3.3 0 6.6 0 10 0 C11.33858524 2.28874173 12.67101014 4.58069656 14 6.875 C14.3815625 7.52597656 14.763125 8.17695312 15.15625 8.84765625 C18 13.7734375 18 13.7734375 18 16 C18.66 16 19.32 16 20 16 C20.20625 15.21625 20.4125 14.4325 20.625 13.625 C24.3449711 3.81780347 24.3449711 3.81780347 28 0 C31.47816279 -0.85137119 34.4951809 -0.6233868 38 0 C36.8855404 3.3367054 35.34184374 6.11896484 33.43359375 9.046875 C26.4723077 19.87053712 23.28877473 28.08216433 24 41 C20.7 41 17.4 41 14 41 C14.07863281 40.02804688 14.15726562 39.05609375 14.23828125 38.0546875 C14.69492896 24.36031123 8.63173268 15.09736261 1.17749023 3.97680664 C0 2 0 2 0 0 Z " fill="#0939A3" transform="translate(415,91)"/>
<path d="M0 0 C3.3 0 6.6 0 10 0 C10 10.56 10 21.12 10 32 C15.28 32 20.56 32 26 32 C26 34.97 26 37.94 26 41 C17.42 41 8.84 41 0 41 C0 27.47 0 13.94 0 0 Z " fill="#0E3CA5" transform="translate(502,91)"/>
<path d="M0 0 C10.23 0 20.46 0 31 0 C31 2.64 31 5.28 31 8 C27.37 8 23.74 8 20 8 C20 18.89 20 29.78 20 41 C17.03 41 14.06 41 11 41 C11 30.11 11 19.22 11 8 C7.37 8 3.74 8 0 8 C0 5.36 0 2.72 0 0 Z " fill="#0032A0" transform="translate(377,91)"/>
<path d="M0 0 C2.97 0 5.94 0 9 0 C9 10.89 9 21.78 9 33 C14.28 33 19.56 33 25 33 C25 35.64 25 38.28 25 41 C16.75 41 8.5 41 0 41 C0 27.47 0 13.94 0 0 Z " fill="#0032A0" transform="translate(266,91)"/>
<path d="M0 0 C0 9.9 0 19.8 0 30 C-3 26 -3 26 -4.359375 24.0703125 C-10.59874755 15.34220146 -17.07804378 11.05490435 -27 7 C-27 6.34 -27 5.68 -27 5 C-22.87562418 4.16355701 -18.75040082 3.33137162 -14.625 2.5 C-13.449375 2.26152344 -12.27375 2.02304687 -11.0625 1.77734375 C-9.38027344 1.43896484 -9.38027344 1.43896484 -7.6640625 1.09375 C-6.62717285 0.88427734 -5.5902832 0.67480469 -4.52197266 0.45898438 C-2 0 -2 0 0 0 Z " fill="#5DC3E7" transform="translate(85,52)"/>
<path d="M0 0 C7.96994562 4.19581793 15.46601821 9.08094219 23 14 C21.51346494 17.46629835 19.54277649 19.69022036 16.8671875 22.328125 C16.06152344 23.12734375 15.25585938 23.9265625 14.42578125 24.75 C13.58402344 25.575 12.74226563 26.4 11.875 27.25 C11.02550781 28.09046875 10.17601563 28.9309375 9.30078125 29.796875 C7.20495077 31.86915683 5.10459287 33.93662393 3 36 C2 34 2 34 2.9375 31.125 C5.7322126 21.89862003 3.83807705 12.94067796 1 4 C0.65609968 2.66935299 0.31875033 1.33689458 0 0 Z " fill="#5FC4E7" transform="translate(103,55)"/>
<path d="M0 0 C6.6 8.8 6.6 8.8 8 13 C9.83084633 14.0565505 9.83084633 14.0565505 12 15 C13.46963312 15.98331816 14.92758064 16.98426711 16.375 18 C19.81783368 20.33316002 22.93213166 21.95695684 27 23 C27 23.66 27 24.32 27 25 C23.06352226 25.8382125 19.12566049 26.66973255 15.1875 27.5 C14.06794922 27.73847656 12.94839844 27.97695312 11.79492188 28.22265625 C10.72177734 28.44824219 9.64863281 28.67382812 8.54296875 28.90625 C7.0583313 29.22045898 7.0583313 29.22045898 5.54370117 29.54101562 C3 30 3 30 0 30 C0 20.1 0 10.2 0 0 Z " fill="#5FC4E7" transform="translate(83,140)"/>
<path d="M0 0 C9.9 0 19.8 0 30 0 C28.27263414 1.15157724 26.53369781 2.28695519 24.765625 3.375 C15.58594637 9.30473029 10.26988405 16.61330948 7 27 C6.34 27 5.68 27 5 27 C4.15984843 23.25149397 3.32906781 19.50097168 2.5 15.75 C2.26152344 14.68652344 2.02304687 13.62304688 1.77734375 12.52734375 C1.55175781 11.50253906 1.32617188 10.47773437 1.09375 9.421875 C0.88427734 8.47924805 0.67480469 7.53662109 0.45898438 6.56542969 C0 4 0 4 0 0 Z " fill="#5EC3E7" transform="translate(25,110)"/>
<path d="M0 0 C3.46629835 1.48653506 5.69022036 3.45722351 8.328125 6.1328125 C9.12734375 6.93847656 9.9265625 7.74414062 10.75 8.57421875 C11.575 9.41597656 12.4 10.25773437 13.25 11.125 C14.09046875 11.97449219 14.9309375 12.82398437 15.796875 13.69921875 C17.86915683 15.79504923 19.93662393 17.89540713 22 20 C21.01 20.495 21.01 20.495 20 21 C19.10796875 20.69707031 18.2159375 20.39414063 17.296875 20.08203125 C8.20963469 17.09960759 -1.22946864 18.8301263 -10 22 C-11.32920553 22.34943032 -12.66149398 22.6880857 -14 23 C-12.61314151 20.13957916 -11.09057471 17.41935664 -9.43359375 14.70703125 C-8.94826172 13.91232422 -8.46292969 13.11761719 -7.96289062 12.29882812 C-7.45951172 11.47833984 -6.95613281 10.65785156 -6.4375 9.8125 C-5.67663086 8.56436523 -5.67663086 8.56436523 -4.90039062 7.29101562 C-1.12862723 1.12862723 -1.12862723 1.12862723 0 0 Z " fill="#5FC3E7" transform="translate(42,69)"/>
<path d="M0 0 C0.33 0.66 0.66 1.32 1 2 C0.54560547 3.09441406 0.54560547 3.09441406 0.08203125 4.2109375 C-3.35513026 13.07062456 -0.84420125 23.3052915 2 32 C2.34499275 33.3303642 2.68264007 34.66277468 3 36 C-5.04668271 31.81825938 -12.53175737 27.13523141 -20 22 C-18.51346494 18.53370165 -16.54277649 16.30977964 -13.8671875 13.671875 C-12.65869141 12.47304687 -12.65869141 12.47304687 -11.42578125 11.25 C-10.58402344 10.425 -9.74226563 9.6 -8.875 8.75 C-8.02550781 7.90953125 -7.17601562 7.0690625 -6.30078125 6.203125 C-4.20495077 4.13084317 -2.10459287 2.06337607 0 0 Z " fill="#5EC3E7" transform="translate(62,131)"/>
<path d="M0 0 C0.66 0.33 1.32 0.66 2 1 C2.68603516 3.50024414 2.68603516 3.50024414 3.2890625 6.78515625 C3.48709473 7.83840088 3.68512695 8.89164551 3.88916016 9.97680664 C4.1319873 11.32508545 4.37481445 12.67336426 4.625 14.0625 C5.40875 18.331875 6.1925 22.60125 7 27 C-2.9 27 -12.8 27 -23 27 C-21 25 -21 25 -18.25 23.6875 C-8.43142546 18.58939399 -3.92464615 10.02965127 0 0 Z " fill="#5EC3E7" transform="translate(136,85)"/>
<path d="M0 0 C-0.31751221 0.48879639 -0.63502441 0.97759277 -0.9621582 1.48120117 C-2.41316132 3.71605824 -3.86284085 5.95177094 -5.3125 8.1875 C-5.81201172 8.95642578 -6.31152344 9.72535156 -6.82617188 10.51757812 C-9.28302478 14.30861605 -11.71204161 18.10344288 -14 22 C-17.36335594 20.54254576 -19.54534005 18.68882146 -22.109375 16.0859375 C-22.86347656 15.32539063 -23.61757812 14.56484375 -24.39453125 13.78125 C-25.17183594 12.9871875 -25.94914062 12.193125 -26.75 11.375 C-27.93916016 10.17230469 -27.93916016 10.17230469 -29.15234375 8.9453125 C-31.10614493 6.96797154 -33.05512103 4.98611091 -35 3 C-33 2 -33 2 -31.38671875 2.41796875 C-22.89171174 4.48958257 -12.25675959 4.26943745 -4.6640625 -0.22265625 C-3 -1 -3 -1 0 0 Z " fill="#60C4E7" transform="translate(140,131)"/>
<path d="M0 0 C2.31 0 4.62 0 7 0 C7 13.53 7 27.06 7 41 C4.69 41 2.38 41 0 41 C0 27.47 0 13.94 0 0 Z " fill="#5AC2E7" transform="translate(695,91)"/>
<path d="M0 0 C10.625 -0.25 10.625 -0.25 14 2 C14.61650485 7.54854369 14.61650485 7.54854369 14 10 C11.82689832 12.22805368 10.52628815 12.94019453 7.421875 13.29296875 C6.54015625 13.25816406 5.6584375 13.22335938 4.75 13.1875 C3.1825 13.125625 1.615 13.06375 0 13 C0 8.71 0 4.42 0 0 Z " fill="#F6FBFD" transform="translate(610,98)"/>
<path d="M0 0 C0.66 0 1.32 0 2 0 C5 5.625 5 5.625 5 9 C2.36 9 -0.28 9 -3 9 C-2.30058404 5.85262818 -1.23921302 2.97411124 0 0 Z " fill="#ECEFF8" transform="translate(471,108)"/>
</svg>
