<?xml version="1.0" encoding="UTF-8"?>
<svg version="1.1" xmlns="http://www.w3.org/2000/svg" width="1920" height="517">
<path d="M0 0 C633.6 0 1267.2 0 1920 0 C1920 170.61 1920 341.22 1920 517 C1286.4 517 652.8 517 0 517 C0 346.39 0 175.78 0 0 Z " fill="#0070A2" transform="translate(0,0)"/>
<path d="M0 0 C0 106.59 0 213.18 0 323 C-23.43 323 -46.86 323 -71 323 C-71.33 313.43 -71.66 303.86 -72 294 C-74.59875 296.0109375 -74.59875 296.0109375 -77.25 298.0625 C-106.10650803 319.70878477 -143.3978397 327.74951639 -179.01171875 323.50390625 C-183.06595797 322.89317591 -187.03201482 322.02593171 -191 321 C-191.71188477 320.81775879 -192.42376953 320.63551758 -193.15722656 320.44775391 C-202.40827968 318.01828691 -211.31004101 315.0243576 -220 311 C-220.59071289 310.73380859 -221.18142578 310.46761719 -221.79003906 310.19335938 C-236.30701848 303.60082029 -249.39045548 294.82559264 -261 283.8828125 C-262.67796568 282.30316513 -264.37838695 280.86029203 -266.1875 279.4375 C-291.57347525 257.43632145 -310.12314765 218.57491222 -312.75 185.22265625 C-314.50206377 153.89807499 -312.35103219 124.47059613 -298 96 C-297.70287109 95.38866211 -297.40574219 94.77732422 -297.09960938 94.14746094 C-279.40890137 57.87627559 -247.33119999 28.22161437 -209 15 C-202.3948412 12.76931041 -195.73898221 10.78506075 -189 9 C-187.97712891 8.72663818 -187.97712891 8.72663818 -186.93359375 8.44775391 C-154.69165465 0.26514057 -117.21896529 6.45407596 -88.5 22.8671875 C-82.79232394 26.27058218 -77.36875329 30.08886776 -72 34 C-71.89945313 33.18015625 -71.79890625 32.3603125 -71.6953125 31.515625 C-70.19786096 22.94117647 -70.19786096 22.94117647 -67.03125 20.453125 C-64.3807635 19.40325697 -61.76915501 18.67748044 -59 18 C-56.95628723 17.360671 -54.91470704 16.71449591 -52.875 16.0625 C-50.58369818 15.373785 -48.29201879 14.68632518 -46 14 C-43.64447789 13.27522397 -41.29040077 12.54574122 -38.9375 11.8125 C-38.3074707 11.61640137 -37.67744141 11.42030273 -37.02832031 11.21826172 C-32.28420149 9.73418683 -27.55311757 8.21155835 -22.82421875 6.6796875 C-21.54500488 6.26586411 -20.26578938 5.85204579 -18.98657227 5.43823242 C-16.42997136 4.61100542 -13.87471833 3.77976287 -11.32006836 2.9465332 C-9.55675171 2.3755188 -9.55675171 2.3755188 -7.7578125 1.79296875 C-6.16670654 1.27512817 -6.16670654 1.27512817 -4.54345703 0.74682617 C-2 0 -2 0 0 0 Z " fill="#FEFEFE" transform="translate(1706,181)"/>
<path d="M0 0 C5.93971188 5.05013162 11.48931064 10.48931064 17 16 C17.53882813 16.49242187 18.07765625 16.98484375 18.6328125 17.4921875 C45.16733121 42.08176766 59.35290917 82.10915713 61.1262207 117.52050781 C62.01510956 146.76636212 56.00570622 173.80924116 43 200 C42.22849609 201.58361328 42.22849609 201.58361328 41.44140625 203.19921875 C23.58696116 237.84594647 -9.88995812 265.76082315 -46.875 277.59375 C-87.48300687 290.05328297 -131.66314164 287.9988352 -169.64355469 268.19165039 C-208.8364502 246.94398563 -236.6895319 212.44735561 -249.64794922 169.87109375 C-257.32209158 143.45951481 -258.05326066 112.65363083 -251 86 C-250.7745752 85.14470703 -250.54915039 84.28941406 -250.31689453 83.40820312 C-244.79297183 63.3525761 -235.05246724 44.21135071 -222 28 C-221.54157715 27.42491699 -221.0831543 26.84983398 -220.61083984 26.25732422 C-206.1721353 8.32010446 -189.20903402 -5.10366704 -169 -16 C-168.07316406 -16.52207031 -167.14632812 -17.04414063 -166.19140625 -17.58203125 C-114.5346106 -45.35213841 -45.12841955 -36.60327031 0 0 Z " fill="#FEFEFE" transform="translate(874,220)"/>
<path d="M0 0 C0.9046701 -0.0061734 1.80934021 -0.0123468 2.74142456 -0.01870728 C15.4769752 -0.07458205 27.61935727 1.03755131 40.125 3.4375 C41.13191895 3.62546143 42.13883789 3.81342285 43.17626953 4.00708008 C96.89275321 14.68478002 143.46577561 46.43851481 175.69140625 90.22265625 C177.125 92.4375 177.125 92.4375 177.125 94.4375 C175.55883789 95.75927734 175.55883789 95.75927734 173.34765625 97.2734375 C172.53272705 97.83691895 171.71779785 98.40040039 170.87817383 98.98095703 C169.99025146 99.58536621 169.1023291 100.18977539 168.1875 100.8125 C166.33829644 102.08818626 164.489342 103.36423372 162.640625 104.640625 C161.24360352 105.6006543 161.24360352 105.6006543 159.81835938 106.58007812 C156.00342646 109.21097095 152.21880746 111.88360802 148.4375 114.5625 C147.04825782 115.54438508 145.65893504 116.52615612 144.26953125 117.5078125 C143.58713379 117.99024414 142.90473633 118.47267578 142.20166016 118.96972656 C140.0972143 120.4571388 137.99209683 121.94359514 135.88671875 123.4296875 C135.18264893 123.92670166 134.4785791 124.42371582 133.75317383 124.93579102 C132.34576691 125.92890332 130.93805694 126.92158631 129.5300293 127.91381836 C125.80601828 130.53919635 122.08965178 133.17463845 118.3828125 135.82421875 C117.60744141 136.37658203 116.83207031 136.92894531 116.03320312 137.49804688 C114.54274839 138.56010744 113.05436612 139.62508416 111.56835938 140.69335938 C110.89869141 141.16966797 110.22902344 141.64597656 109.5390625 142.13671875 C108.9507666 142.55783936 108.3624707 142.97895996 107.75634766 143.4128418 C106.125 144.4375 106.125 144.4375 103.125 145.4375 C102.53074219 144.62667969 101.93648437 143.81585938 101.32421875 142.98046875 C80.74633994 115.30488363 51.7672156 97.54507452 17.5859375 92.09375 C-15.94114852 87.58305344 -49.51360405 96.46984425 -76.46875 116.75390625 C-102.95410281 137.32087115 -121.20126412 167.12681341 -125.46484375 200.63671875 C-128.92010333 234.97589059 -121.94126791 270.89748615 -99.87890625 298.2421875 C-96.97182534 301.72795066 -93.94866537 305.09860613 -90.875 308.4375 C-90.26011719 309.12328125 -89.64523437 309.8090625 -89.01171875 310.515625 C-67.41844153 333.44843554 -35.35552698 345.30257106 -4.4375 346.65625 C29.0972014 347.61532204 62.08274591 335.12009248 86.58984375 312.2578125 C92.92079578 306.17395269 98.47195785 299.9331279 103.125 292.4375 C106.05074284 293.82132504 108.64910237 295.40947714 111.29296875 297.2734375 C112.09500732 297.83691895 112.8970459 298.40040039 113.72338867 298.98095703 C114.57779541 299.58536621 115.43220215 300.18977539 116.3125 300.8125 C117.20235596 301.43882324 118.09221191 302.06514648 119.0090332 302.71044922 C121.7162202 304.61683743 124.42079893 306.52687948 127.125 308.4375 C128.62487222 309.49497293 130.1248635 310.55227702 131.625 311.609375 C137.22081213 315.5546099 142.81167186 319.50680974 148.3984375 323.46484375 C157.91858259 330.20440592 167.49618224 336.85413604 177.125 343.4375 C173.05627449 355.33742836 161.70063803 365.50154104 153.125 374.4375 C151.949375 375.675 151.949375 375.675 150.75 376.9375 C117.39604647 411.24442363 63.86363267 436.94727296 15.665802 437.65281677 C14.75514984 437.66039505 13.84449768 437.66797333 12.90625 437.67578125 C11.93879852 437.6855751 10.97134705 437.69536896 9.97457886 437.70545959 C-29.87117634 438.02608514 -29.87117634 438.02608514 -47.875 433.4375 C-48.72916504 433.23382813 -49.58333008 433.03015625 -50.46337891 432.8203125 C-96.24621558 421.75662495 -138.47011327 395.25843401 -167.875 358.4375 C-168.53371094 357.64601563 -169.19242187 356.85453125 -169.87109375 356.0390625 C-201.9030818 317.23975303 -217.05366656 268.12267541 -217.1875 218.3125 C-217.19011841 217.38119263 -217.19273682 216.44988525 -217.19543457 215.49035645 C-217.19995494 200.46141356 -216.31618374 186.12705311 -212.875 171.4375 C-212.58625 170.19355469 -212.2975 168.94960937 -212 167.66796875 C-211.08018137 164.20632989 -210.0024471 160.83745767 -208.875 157.4375 C-208.29058274 155.56674452 -207.70736289 153.69561477 -207.125 151.82421875 C-203.54337428 140.50134254 -199.6535801 129.71031537 -193.90478516 119.30419922 C-192.84455883 117.38231907 -191.81804755 115.44472847 -190.79296875 113.50390625 C-182.57970983 98.19032147 -172.36505434 84.43302833 -160.875 71.4375 C-160.0809375 70.52097656 -159.286875 69.60445313 -158.46875 68.66015625 C-153.91027977 63.46943245 -149.16455137 58.86681291 -143.875 54.4375 C-142.96492188 53.62796875 -142.05484375 52.8184375 -141.1171875 51.984375 C-114.60570902 28.5615711 -81.25531903 12.38141146 -46.875 4.4375 C-46.0401709 4.23995117 -45.2053418 4.04240234 -44.34521484 3.83886719 C-29.61373599 0.51687657 -15.03496098 0.04349991 0 0 Z " fill="#FEFEFE" transform="translate(428.875,68.5625)"/>
<path d="M0 0 C1.19173828 0.00749268 2.38347656 0.01498535 3.61132812 0.02270508 C11.80381304 0.12303723 19.60454198 0.46354067 27.625 2.25 C28.33495117 2.40597656 29.04490234 2.56195313 29.77636719 2.72265625 C57.75342306 9.02537222 84.34098126 22.78953911 100.4375 47.375 C102.41056064 50.51304184 103.51919936 53.71744231 104.625 57.25 C96.19227523 64.49430479 87.73737651 71.7108017 79.24267578 78.88232422 C77.59591021 80.27459417 75.95189933 81.67005473 74.30859375 83.06640625 C67.4741739 88.87023898 60.58716111 94.5993482 53.625 100.25 C50.7404422 97.41441602 47.99944555 94.56583969 45.4375 91.4375 C34.95949928 79.43996237 23.17836643 74.28435978 7.49609375 72.9921875 C-3.119489 72.60895347 -13.54819879 74.70766481 -21.8515625 81.6796875 C-24.92295532 84.84558472 -26.10333085 87.86146881 -26.9375 92.125 C-26.06841456 96.95325245 -23.82190376 99.83316117 -20.375 103.25 C-13.22464189 107.84167337 -5.29093735 111.25744283 2.4375 114.75 C3.48993896 115.22920898 4.54237793 115.70841797 5.62670898 116.20214844 C11.12215785 118.69573216 16.63294165 121.14121495 22.1875 123.5 C53.31394587 136.72780533 93.31407526 154.41421534 107.4375 187.4375 C114.63921127 205.9494398 115.60346567 228.52376225 108.625 247.25 C108.38362305 247.9001709 108.14224609 248.5503418 107.89355469 249.22021484 C104.09128863 259.21850062 99.17311153 267.79011465 92.625 276.25 C92.01140625 277.04792969 91.3978125 277.84585937 90.765625 278.66796875 C72.36727012 300.87965787 40.92648649 315.00642573 12.65185547 318.01855469 C-26.11316457 320.98268108 -64.32681052 314.38801775 -94.98974609 288.90820312 C-104.95820286 280.31647187 -115.65951012 270.32826631 -120.3125 257.70703125 C-120.375 255.25 -120.375 255.25 -118.8203125 252.9609375 C-118.05460938 252.19007813 -117.28890625 251.41921875 -116.5 250.625 C-113.22034897 247.19902607 -110.09229465 243.76334519 -107.125 240.0625 C-102.9919666 234.95910224 -98.7269108 229.98590635 -94.40576172 225.04199219 C-91.56017414 221.78394023 -88.74386398 218.50790506 -85.98046875 215.1796875 C-85.16606323 214.2057605 -85.16606323 214.2057605 -84.33520508 213.2121582 C-83.29798914 211.96919236 -82.26756973 210.72051541 -81.24487305 209.46557617 C-80.01931952 208.00387371 -78.70362247 206.61869203 -77.375 205.25 C-76.385 205.25 -75.395 205.25 -74.375 205.25 C-72.82851007 207.24305388 -71.47500881 209.19299193 -70.125 211.3125 C-58.47472957 228.69451671 -40.6851608 238.72608568 -20.375 243.25 C-17.62124961 243.73856862 -15.13976223 244.0830339 -12.375 244.25 C-11.43269531 244.31445312 -10.49039062 244.37890625 -9.51953125 244.4453125 C3.93814873 244.93706694 18.04245073 241.41082128 28.625 232.8125 C31.92476233 228.58467951 32.85557014 225.04302432 32.5625 219.75 C31.8545424 215.14827559 30.25199787 212.18162573 26.625 209.25 C14.89085746 200.92058275 0.71379617 196.15766495 -12.50390625 190.734375 C-24.03302878 185.99377587 -35.39182039 181.16057887 -46.375 175.25 C-46.98520996 174.92290039 -47.59541992 174.59580078 -48.22412109 174.25878906 C-60.50020665 167.61693755 -71.2159331 159.81583671 -81.375 150.25 C-82.24125 149.445625 -83.1075 148.64125 -84 147.8125 C-99.00349375 131.6245199 -106.6305782 113.6278635 -106.8125 91.5 C-106.82796875 89.9377771 -106.82796875 89.9377771 -106.84375 88.34399414 C-106.76229552 81.21163626 -105.48224326 75.03835773 -103.375 68.25 C-102.95293343 66.60554316 -102.53549498 64.95988348 -102.125 63.3125 C-99.12465968 53.46763331 -92.85857154 45.0913077 -86.375 37.25 C-85.94058594 36.66992188 -85.50617187 36.08984375 -85.05859375 35.4921875 C-73.12844169 20.17885799 -52.04204855 10.0161613 -33.9375 4.5625 C-33.27000732 4.35987549 -32.60251465 4.15725098 -31.91479492 3.94848633 C-21.34662363 0.91072322 -10.97030756 -0.09131517 0 0 Z " fill="#FEFEFE" transform="translate(1067.375,186.75)"/>
<path d="M0 0 C0 27.06 0 54.12 0 82 C19.14 82 38.28 82 58 82 C58 104.44 58 126.88 58 150 C38.86 150 19.72 150 0 150 C0.08552101 170.8191512 0.1791529 191.63821457 0.28752708 212.45725822 C0.33759117 222.12448428 0.3840347 231.79170211 0.421875 241.45898438 C0.45487625 249.88763825 0.49475214 258.31622719 0.54279006 266.74480927 C0.56797434 271.2052551 0.58977923 275.6656583 0.60334396 280.12615585 C0.61623786 284.33027687 0.63837022 288.53425108 0.66738319 292.73829079 C0.67640198 294.27567895 0.68213577 295.81309071 0.68421364 297.35050392 C0.40231776 313.32301639 0.40231776 313.32301639 7.22265625 327.2421875 C15.23815129 335.16960017 23.51247737 335.1812645 34.25 335.1875 C35.34441406 335.19974609 36.43882812 335.21199219 37.56640625 335.22460938 C43.24433333 335.23480924 48.41440215 334.97980682 53.89355469 333.4309082 C56 333 56 333 62 333 C62 355.44 62 377.88 62 401 C58.05648598 402.97175701 54.59279093 403.78887725 50.3125 404.5 C49.55630371 404.62673096 48.80010742 404.75346191 48.02099609 404.8840332 C45.68229877 405.26718355 43.34160781 405.63510652 41 406 C40.33307129 406.10876465 39.66614258 406.2175293 38.97900391 406.32958984 C10.66083581 410.84013118 -18.72664911 409.66189453 -43 393 C-64.28368655 377.47753576 -74.19152376 354.69449316 -78.70330429 329.35909939 C-81.10529551 313.90159513 -80.50473155 298.13849496 -80.40557575 282.54192281 C-80.3802216 277.86687581 -80.37819376 273.19181352 -80.37347412 268.51670837 C-80.36114265 259.70234275 -80.32845718 250.88818042 -80.28807616 242.0739035 C-80.24304856 232.02280428 -80.22129426 221.9716943 -80.20129442 211.92051899 C-80.15971332 191.28020803 -80.08648722 170.64017502 -80 150 C-92.87 150 -105.74 150 -119 150 C-119 127.56 -119 105.12 -119 82 C-104.15 82 -89.3 82 -74 82 C-74 63.19 -74 44.38 -74 25 C-68.01844409 22.60737764 -62.16333074 20.29240662 -56.0625 18.30078125 C-55.34714081 18.06415268 -54.63178162 17.82752411 -53.89474487 17.58372498 C-52.37717344 17.08191772 -50.85917059 16.58141345 -49.34075928 16.08215332 C-45.35264478 14.77084139 -41.36755086 13.45043651 -37.3828125 12.12890625 C-36.58795441 11.86540375 -35.79309631 11.60190125 -34.97415161 11.33041382 C-26.48233484 8.50794038 -18.03149361 5.57127047 -9.59375 2.59106445 C-8.61148437 2.24648193 -7.62921875 1.90189941 -6.6171875 1.546875 C-5.76753418 1.24620117 -4.91788086 0.94552734 -4.04248047 0.63574219 C-2 0 -2 0 0 0 Z " fill="#FEFEFE" transform="translate(1319,98)"/>
<path d="M0 0 C159.39 0 318.78 0 483 0 C472.37865199 12.39157268 460.92107852 24.00549054 448 34 C446.87489057 34.92248149 445.75268332 35.84850971 444.6328125 36.77734375 C430.71843709 48.25460088 415.64229351 58.04563313 400 67 C398.32357422 67.96292969 398.32357422 67.96292969 396.61328125 68.9453125 C322.96250019 109.68829777 233.47923755 118.48040411 152.72265625 96.00390625 C108.91227789 83.23469774 69.1022976 62.08168913 34 33 C33.00355469 32.18917969 32.00710938 31.37835937 30.98046875 30.54296875 C23.29900342 24.19359554 16.17416299 17.3554259 9.125 10.3125 C8.22604004 9.4143457 7.32708008 8.51619141 6.40087891 7.59082031 C0 1.13408731 0 1.13408731 0 0 Z " fill="#F9B003" transform="translate(747,0)"/>
<path d="M0 0 C15.64061274 12.20673385 26.62789602 29.86299327 29.59375 49.5703125 C31.1672519 64.77848935 30.98195354 78.80472929 25 93 C24.33097656 94.59521484 24.33097656 94.59521484 23.6484375 96.22265625 C14.68588102 115.62483858 -1.06739431 130.33662849 -21 138 C-40.64689628 144.5001381 -62.20804112 143.97533268 -81.1640625 135.4375 C-90.21061544 130.85191944 -97.77710397 125.09879128 -105 118 C-105.93972656 117.07960938 -105.93972656 117.07960938 -106.8984375 116.140625 C-120.51822911 101.71966917 -126.36672783 83.16356279 -126.3125 63.75 C-126.32861328 62.61175781 -126.34472656 61.47351563 -126.36132812 60.30078125 C-126.36763335 49.19097339 -124.56804923 38.74086271 -119.3125 28.875 C-118.96509766 28.2046875 -118.61769531 27.534375 -118.25976562 26.84375 C-107.37553161 6.36962332 -90.16915485 -7.46162225 -68.0625 -14.4375 C-43.8799201 -20.262501 -19.98517786 -14.35800151 0 0 Z " fill="#0070A2" transform="translate(825,283)"/>
<path d="M0 0 C3.55160775 2.80170817 6.79489071 5.81075759 10 9 C10.76054688 9.72574219 11.52109375 10.45148438 12.3046875 11.19921875 C27.17343015 26.35093056 32.54169315 46.21473706 33.375 66.875 C32.9471873 87.80930169 23.82421749 108.3298804 9 123 C-0.47410442 131.96246749 -13.29991287 138.84278208 -26 142 C-26.74121094 142.20238281 -27.48242188 142.40476562 -28.24609375 142.61328125 C-42.60500815 145.90619922 -58.27468227 145.29300817 -72 140 C-73.2375 139.53207031 -73.2375 139.53207031 -74.5 139.0546875 C-84.79674588 134.80012931 -92.97644195 128.64213254 -101 121 C-101.60457031 120.49339844 -102.20914062 119.98679687 -102.83203125 119.46484375 C-112.80775129 110.7039655 -119.05267104 96.64609751 -122 84 C-122.33257813 82.85144531 -122.33257813 82.85144531 -122.671875 81.6796875 C-127.80373218 61.77640359 -123.03745945 41.19006515 -113.06005859 23.74658203 C-110.45286896 19.45090385 -107.38944428 15.69404061 -104 12 C-103.33613281 11.24460937 -102.67226562 10.48921875 -101.98828125 9.7109375 C-93.52892589 0.61048497 -82.77405716 -6.08194382 -71 -10 C-70.195625 -10.28488281 -69.39125 -10.56976563 -68.5625 -10.86328125 C-45.8357385 -18.7503646 -19.60321757 -13.2965524 0 0 Z " fill="#0070A2" transform="translate(1596,281)"/>
<path d="M0 0 C0.33 0 0.66 0 1 0 C1 9.9 1 19.8 1 30 C0.67 30 0.34 30 0 30 C-0.02505615 29.36497559 -0.0501123 28.72995117 -0.07592773 28.07568359 C-0.19256789 25.17528458 -0.31498393 22.27515651 -0.4375 19.375 C-0.49647461 17.87646484 -0.49647461 17.87646484 -0.55664062 16.34765625 C-0.73136751 12.28861632 -0.92344529 8.41584156 -1.66015625 4.4140625 C-1.77230469 3.61742187 -1.88445312 2.82078125 -2 2 C-1.34 1.34 -0.68 0.68 0 0 Z " fill="#01649D" transform="translate(1634,474)"/>
<path d="M0 0 C3.88907894 1.29635965 4.68672661 3.03652591 7 6.375 C9.65126368 10.23812436 9.65126368 10.23812436 12.75 13.7265625 C14 15 14 15 14 17 C15.32 17.66 16.64 18.32 18 19 C17.34 19.66 16.68 20.32 16 21 C15.67 20.01 15.34 19.02 15 18 C14.41476562 17.72929687 13.82953125 17.45859375 13.2265625 17.1796875 C10.02061821 15.48109947 8.50328754 13.03626958 6.375 10.125 C5.59898437 9.07570313 4.82296875 8.02640625 4.0234375 6.9453125 C2.45017721 4.65527726 1.1337428 2.52349204 0 0 Z " fill="#1871A4" transform="translate(970,319)"/>
<path d="M0 0 C0.66 0.33 1.32 0.66 2 1 C0.89718873 2.27200971 -0.20730769 3.54255853 -1.3125 4.8125 C-1.92738281 5.52019531 -2.54226563 6.22789062 -3.17578125 6.95703125 C-4.73334335 8.70136739 -6.32658875 10.36778041 -8 12 C-8.99 11.67 -9.98 11.34 -11 11 C-7.37 7.37 -3.74 3.74 0 0 Z " fill="#1674A4" transform="translate(344,191)"/>
<path d="M0 0 C3.21524305 1.40844718 5.32183868 3.10344786 7.75 5.625 C8.67039062 6.57246094 8.67039062 6.57246094 9.609375 7.5390625 C10.29773438 8.26222656 10.29773438 8.26222656 11 9 C10.01 9.33 9.02 9.66 8 10 C8 9.34 8 8.68 8 8 C6.68 7.34 5.36 6.68 4 6 C4 5.34 4 4.68 4 4 C3.34 4 2.68 4 2 4 C2 3.34 2 2.68 2 2 C1.34 2 0.68 2 0 2 C0 1.34 0 0.68 0 0 Z " fill="#1575A7" transform="translate(752,7)"/>
</svg>
