<?xml version="1.0" encoding="UTF-8"?>
<svg version="1.1" xmlns="http://www.w3.org/2000/svg" width="1100" height="231">
<path d="M0 0 C363 0 726 0 1100 0 C1100 76.23 1100 152.46 1100 231 C737 231 374 231 0 231 C0 154.77 0 78.54 0 0 Z " fill="#FEFEFE" transform="translate(0,0)"/>
<path d="M0 0 C7.1775 -0.103125 14.355 -0.20625 21.75 -0.3125 C23.99006836 -0.35802002 26.23013672 -0.40354004 28.53808594 -0.45043945 C50.77297795 -0.7161592 50.77297795 -0.7161592 59.26464844 7.07885742 C65.73767062 13.98086599 66.54008301 19.810031 66.3125 29 C65.99268673 34.7033367 64.49183184 39.30336007 60.57421875 43.54296875 C56.8937994 46.78592224 52.98946786 50 48 50 C52.04631307 56.28368618 56.4052117 62.27001735 60.94921875 68.203125 C63.94844612 72.29349985 66.23265194 76.24175524 68 81 C65.4149133 81.13526616 62.83691248 81.23417653 60.25 81.3125 C59.52039063 81.35439453 58.79078125 81.39628906 58.0390625 81.43945312 C54.56672293 81.51836993 52.54995911 81.50213658 49.93359375 79.11328125 C49.29550781 78.08589844 48.65742188 77.05851562 48 76 C46.86703634 74.40951334 45.72695669 72.82408516 44.58203125 71.2421875 C43.32371185 69.45439687 42.06724964 67.66529785 40.8125 65.875 C40.17119141 64.96878906 39.52988281 64.06257813 38.86914062 63.12890625 C38.25876953 62.25878906 37.64839844 61.38867188 37.01953125 60.4921875 C36.46370361 59.70183105 35.90787598 58.91147461 35.33520508 58.09716797 C34 56 34 56 33 53 C27.06 53 21.12 53 15 53 C15 62.57 15 72.14 15 82 C10.05 82 5.1 82 0 82 C0 54.94 0 27.88 0 0 Z " fill="#272324" transform="translate(279,26)"/>
<path d="M0 0 C4.62 0 9.24 0 14 0 C17.33407653 6.53991935 20.41156994 13.10743482 23.25 19.875 C26.32076658 27.12939352 29.48329863 34.33178661 32.75 41.5 C35.68989556 47.96388877 38.40025576 54.43827325 40.87890625 61.09375 C42.98639457 66.55706467 45.36236998 71.96507474 48.14453125 77.12109375 C49 79 49 79 49 82 C44.05 82 39.1 82 34 82 C31.27705922 75.62258607 28.91054772 69.68691702 27 63 C13.8 63 0.6 63 -13 63 C-13.33 64.65 -13.66 66.3 -14 68 C-14.98090855 70.46993316 -15.98600296 72.88660324 -17.0625 75.3125 C-18.5165625 78.6228125 -18.5165625 78.6228125 -20 82 C-24.95 82 -29.9 82 -35 82 C-32.0426773 74.05219525 -28.85041618 66.30376123 -25.36743164 58.57739258 C-22.28063649 51.70131973 -19.35372443 44.76236203 -16.4375 37.8125 C-12.93861957 29.48294592 -9.32358994 21.24502768 -5.4375 13.08984375 C-3.4380937 8.79220684 -1.7012183 4.42316758 0 0 Z " fill="#221E1F" transform="translate(757,25)"/>
<path d="M0 0 C1.05876343 0.01691895 1.05876343 0.01691895 2.13891602 0.03417969 C12.47082507 0.30660657 21.40351896 3.72606062 30.0625 9.3125 C29.45555845 12.46580554 28.4208335 14.50138867 26.5 17.0625 C26.04496094 17.67609375 25.58992187 18.2896875 25.12109375 18.921875 C24.77175781 19.38078125 24.42242188 19.8396875 24.0625 20.3125 C20.26663115 19.72383585 17.48934125 18.56954357 14.125 16.75 C7.64938321 13.72745974 1.10580697 13.0516611 -5.9375 14.3125 C-9.64952426 16.58046255 -9.64952426 16.58046255 -11.56640625 20.3125 C-11.54449219 20.9725 -11.52257812 21.6325 -11.5 22.3125 C-11.50128906 22.9725 -11.50257813 23.6325 -11.50390625 24.3125 C-10.68581139 27.20122115 -9.23382034 28.41793725 -6.9375 30.3125 C-4.56342626 31.53250244 -4.56342626 31.53250244 -1.9375 32.375 C-0.97070312 32.70757812 -0.00390625 33.04015625 0.9921875 33.3828125 C4.03879518 34.30532221 7.08437481 35.04366204 10.1875 35.75 C19.38343891 37.95654825 26.43442489 42.05804639 31.875 49.9375 C33.94801507 55.82922704 34.16837979 62.33988327 31.75 68.1875 C31.193125 69.21875 30.63625 70.25 30.0625 71.3125 C29.670625 72.17875 29.27875 73.045 28.875 73.9375 C24.68551678 79.42716766 18.64463681 81.79921117 12.0625 83.3125 C-4.71838242 85.0826584 -16.52731469 81.6074874 -29.9375 71.3125 C-28.11245091 67.38949728 -25.75479174 64.57462728 -22.9375 61.3125 C-19.81332957 61.93176764 -17.641181 62.98746931 -15 64.75 C-8.94558881 68.78226193 -4.09878644 69.67587454 3.0625 69.6875 C3.8565625 69.71199219 4.650625 69.73648438 5.46875 69.76171875 C9.42305723 69.78149029 11.5976674 69.57905993 15.09375 67.57421875 C17.30533973 65.0335234 17.69702988 64.06279824 17.5625 60.75 C17.5521875 59.98558594 17.541875 59.22117188 17.53125 58.43359375 C16.92476324 55.68924116 16.36198476 54.94768917 14.0625 53.3125 C11.57767061 52.39400571 9.16395036 51.60210612 6.625 50.875 C5.17820752 50.4393925 3.73159434 50.00318908 2.28515625 49.56640625 C0.87767783 49.14818953 -0.52987027 48.73020718 -1.9375 48.3125 C-18.81479183 43.23590257 -18.81479183 43.23590257 -24.375 36.25 C-27.64372389 30.10479908 -28.15906229 22.7941553 -26.32421875 16.0625 C-23.37062823 9.40065706 -18.05427002 4.91562334 -11.671875 1.6328125 C-7.65802657 0.21369036 -4.1978593 -0.11056256 0 0 Z " fill="#242223" transform="translate(539.9375,24.6875)"/>
<path d="M0 0 C10.61562998 5.84688995 10.61562998 5.84688995 12 10 C10.671875 12.0078125 10.671875 12.0078125 8.75 14.125 C8.12609375 14.82882813 7.5021875 15.53265625 6.859375 16.2578125 C5 18 5 18 2 19 C0.2734375 17.85546875 0.2734375 17.85546875 -1.625 16.1875 C-5.97483864 12.77880827 -9.5427923 11.56720584 -15 11 C-15.95261719 10.89429688 -16.90523437 10.78859375 -17.88671875 10.6796875 C-25.7818876 10.21467115 -30.82967079 12.09658249 -37 17 C-39.46416134 19.20488259 -39.46416134 19.20488259 -41 22 C-41.36867187 22.58910156 -41.73734375 23.17820312 -42.1171875 23.78515625 C-46.22501755 31.36339444 -46.41905346 40.45134154 -44.3046875 48.71875 C-41.58435799 55.39384426 -37.3876381 61.05885623 -30.9375 64.4375 C-23.41852747 67.38412437 -14.26928021 67.31111594 -6.84375 64.0703125 C-3.91957803 62.37280589 -1.33183911 60.29892987 1.23828125 58.109375 C1.81964844 57.74328125 2.40101563 57.3771875 3 57 C7.00754167 58.33584722 8.37476236 60.76893828 11 64 C11.66 64.33 12.32 64.66 13 65 C10.49002542 71.22037178 4.09009807 74.5297824 -1.7421875 77.3046875 C-13.22840915 81.9741604 -24.52518924 82.74356192 -36.3203125 78.25390625 C-47.43857489 73.05133741 -55.46786736 63.26225236 -60 52 C-62.95272319 41.69685238 -62.21806706 29.04558731 -57.484375 19.51171875 C-46.0070217 0.09082882 -21.58769403 -10.75636838 0 0 Z " fill="#232021" transform="translate(213,28)"/>
<path d="M0 0 C15.12787592 -1.36454115 15.12787592 -1.36454115 19.21875 1.6171875 C20.74758217 4.00386439 21.86568095 6.40350224 23 9 C24.11831941 10.80896798 25.26547083 12.60035888 26.4375 14.375 C28.26771164 17.25626444 30.08877049 20.14239885 31.89453125 23.0390625 C32.50683594 24.01617187 33.11914062 24.99328125 33.75 26 C34.57757813 27.3303125 34.57757813 27.3303125 35.421875 28.6875 C36.81110746 30.72320697 38.18914235 32.34186529 40 34 C40.56654297 33.10474609 40.56654297 33.10474609 41.14453125 32.19140625 C44.96389899 26.17165334 48.81587594 20.17375125 52.6875 14.1875 C53.15067627 13.47086182 53.61385254 12.75422363 54.09106445 12.01586914 C54.98048579 10.64200656 55.87776384 9.27319107 56.78369141 7.91015625 C57.89228647 6.1691591 58.86314628 4.34238789 59.81640625 2.51171875 C62 0 62 0 65.890625 -0.5859375 C67.34490937 -0.5462752 68.79861628 -0.47500701 70.25 -0.375 C70.99507813 -0.34792969 71.74015625 -0.32085938 72.5078125 -0.29296875 C74.33978993 -0.22250808 76.17027151 -0.11488993 78 0 C76.49956139 4.2926987 74.24550506 7.84226871 71.6875 11.5625 C70.79177509 12.88460875 69.89731281 14.20757353 69.00390625 15.53125 C68.52324707 16.2428125 68.04258789 16.954375 67.54736328 17.6875 C64.69522759 21.94995335 61.91310066 26.25800148 59.125 30.5625 C58.04449145 32.23061167 56.96377249 33.89858708 55.8828125 35.56640625 C55.38813477 36.33098145 54.89345703 37.09555664 54.38378906 37.88330078 C53.17064899 39.73896847 51.93114627 41.57246546 50.6796875 43.40234375 C47.89174079 47.71393575 47.80131149 51.53639761 47.68359375 56.51171875 C47.66281265 57.23994339 47.64203156 57.96816803 47.62062073 58.71846008 C47.55531254 61.04137875 47.49632763 63.36440906 47.4375 65.6875 C47.39429695 67.26368335 47.35068208 68.83985548 47.30664062 70.41601562 C47.19887632 74.27723104 47.09966444 78.138533 47 82 C42.05 82 37.1 82 32 82 C32.06703125 79.75445312 32.1340625 77.50890625 32.203125 75.1953125 C32.49735979 58.14339589 32.40505654 45.49205233 20.75097656 32.12646484 C17.48858287 28.16446692 14.8596077 23.77194081 12.125 19.4375 C11.08852648 17.83035861 10.04955712 16.22482345 9.0078125 14.62109375 C8.51700195 13.86296387 8.02619141 13.10483398 7.52050781 12.32373047 C5.41378884 9.10411724 3.2589018 5.91749964 1.09716797 2.73461914 C0 1 0 1 0 0 Z " fill="#252424" transform="translate(390,26)"/>
<path d="M0 0 C21.78 0 43.56 0 66 0 C66 4.29 66 8.58 66 13 C57.42 13 48.84 13 40 13 C40 35.44 40 57.88 40 81 C35.38 81 30.76 81 26 81 C26 58.56 26 36.12 26 13 C17.42 13 8.84 13 0 13 C0 8.71 0 4.42 0 0 Z " fill="#211E1F" transform="translate(620,26)"/>
<path d="M0 0 C4.62 0 9.24 0 14 0 C14 22.44 14 44.88 14 68 C28.19 68 42.38 68 57 68 C57 72.29 57 76.58 57 81 C38.19 81 19.38 81 0 81 C0 54.27 0 27.54 0 0 Z " fill="#232121" transform="translate(859,26)"/>
<path d="M0 0 C4.29 -0.0825 8.58 -0.165 13 -0.25 C14.33675781 -0.28641602 15.67351562 -0.32283203 17.05078125 -0.36035156 C23.78980855 -0.42289942 29.56296629 -0.35641433 35 4 C38.6396996 8.40519198 38.55797028 12.52430532 38.421875 18.04296875 C37.7655129 22.64358087 36.23529988 24.69117058 33 28 C30.828125 28.67578125 30.828125 28.67578125 29 29 C29.55429687 29.80824219 30.10859375 30.61648437 30.6796875 31.44921875 C31.40414063 32.51785156 32.12859375 33.58648437 32.875 34.6875 C33.59429687 35.74324219 34.31359375 36.79898438 35.0546875 37.88671875 C36.73118438 40.56978706 37.95249789 43.02840192 39 46 C35.16903922 46.62348367 31.80608407 46.85432263 28 46 C24.92509619 43.06043527 23.01020114 39.72150939 21 36 C19.39519216 32.87393036 19.39519216 32.87393036 17.0546875 32.48828125 C15.97574219 32.40126953 15.97574219 32.40126953 14.875 32.3125 C13.59625 32.209375 12.3175 32.10625 11 32 C11 36.62 11 41.24 11 46 C7.37 46 3.74 46 0 46 C0 30.82 0 15.64 0 0 Z " fill="#1E1B1C" transform="translate(413,162)"/>
<path d="M0 0 C11.55 0 23.1 0 35 0 C35 3.3 35 6.6 35 10 C27.08 10 19.16 10 11 10 C11 12.64 11 15.28 11 18 C17.93 18 24.86 18 32 18 C32 21.3 32 24.6 32 28 C24.74 28 17.48 28 10 28 C10 30.97 10 33.94 10 37 C18.25 37 26.5 37 35 37 C35 39.97 35 42.94 35 46 C23.45 46 11.9 46 0 46 C0 30.82 0 15.64 0 0 Z " fill="#2D2B2C" transform="translate(660,162)"/>
<path d="M0 0 C3.63 0 7.26 0 11 0 C11.01458252 0.91289795 11.02916504 1.8257959 11.04418945 2.76635742 C11.10540795 6.16798611 11.17958873 9.56882681 11.26245117 12.9699707 C11.29561259 14.43926422 11.32367178 15.90868244 11.34643555 17.37817383 C11.38014519 19.49614368 11.43246433 21.61297995 11.48828125 23.73046875 C11.51446533 25.00301514 11.54064941 26.27556152 11.56762695 27.58666992 C12.02363733 31.18660278 12.79892428 33.14189177 15 36 C17.13331014 36.63941048 17.13331014 36.63941048 19.4375 36.375 C20.19933594 36.34148437 20.96117187 36.30796875 21.74609375 36.2734375 C23.90134811 36.01196817 25.91024563 35.58075178 28 35 C29.1486567 31.28832638 29.20542433 27.69663773 29.31640625 23.828125 C29.33718735 23.1457074 29.35796844 22.46328979 29.37937927 21.76019287 C29.44452052 19.59022644 29.50359404 17.42014376 29.5625 15.25 C29.60571897 13.77472779 29.64933432 12.29946713 29.69335938 10.82421875 C29.80016518 7.21626834 29.90153153 3.60818867 30 0 C33.3 0 36.6 0 40 0 C40.07460234 4.42908378 40.12881371 8.8578269 40.16479492 13.28735352 C40.17980722 14.79165017 40.20022353 16.29590361 40.22631836 17.80004883 C40.26303816 19.97227696 40.27980161 22.14392251 40.29296875 24.31640625 C40.3086792 25.62037354 40.32438965 26.92434082 40.34057617 28.26782227 C39.84564186 33.69152183 38.23990218 37.48456401 34.75 41.75 C29.45436703 46.08279062 24.38427279 47.64736759 17.62890625 47.41015625 C12.2605902 46.57260323 7.0857479 44.4654751 3.51953125 40.25 C0.25137109 34.77553677 -0.12330444 30.08628422 -0.09765625 23.828125 C-0.0962413 23.1457074 -0.09482635 22.46328979 -0.09336853 21.76019287 C-0.08779084 19.59008316 -0.07524254 17.4200783 -0.0625 15.25 C-0.05748211 13.77474108 -0.05291971 12.29948053 -0.04882812 10.82421875 C-0.03782875 7.21611202 -0.02057953 3.60806625 0 0 Z " fill="#252223" transform="translate(481,162)"/>
<path d="M0 0 C2.10426758 0.93857014 4.10476864 1.92363026 6.0859375 3.09765625 C6.0859375 7.37475324 5.37973499 8.65696001 3.0859375 12.09765625 C0.92928541 11.63551652 -0.8239879 11.14803696 -2.7578125 10.06640625 C-5.24647338 8.94831223 -6.9525601 8.89290618 -9.6640625 8.97265625 C-10.86289062 8.99972656 -10.86289062 8.99972656 -12.0859375 9.02734375 C-12.99085938 9.06214844 -12.99085938 9.06214844 -13.9140625 9.09765625 C-14.4675389 11.17319273 -14.9140625 12.94131589 -14.9140625 15.09765625 C-13.6353125 15.34515625 -12.3565625 15.59265625 -11.0390625 15.84765625 C-4.59705947 17.31082413 2.44441881 18.92438437 7.2109375 23.78515625 C9.63573503 28.06896522 10.27954452 31.28984055 9.0859375 36.09765625 C6.66260436 40.21186815 3.62011665 43.4439231 -0.9140625 45.09765625 C-3.54966663 45.3429614 -6.02982463 45.47874135 -8.6640625 45.47265625 C-9.37836426 45.47104492 -10.09266602 45.46943359 -10.82861328 45.46777344 C-16.63650956 45.33261363 -20.22347021 44.4748827 -24.9140625 41.09765625 C-26.109375 38.95703125 -26.109375 38.95703125 -26.9140625 37.09765625 C-24.9340625 34.62265625 -24.9340625 34.62265625 -22.9140625 32.09765625 C-20.41294714 32.51450881 -18.3195197 32.86696509 -16.1015625 34.12890625 C-13.32773202 35.35731689 -11.18424509 35.29456536 -8.1640625 35.22265625 C-7.17921875 35.20460937 -6.194375 35.1865625 -5.1796875 35.16796875 C-4.43203125 35.14476562 -3.684375 35.1215625 -2.9140625 35.09765625 C-2.9140625 33.44765625 -2.9140625 31.79765625 -2.9140625 30.09765625 C-4.0278125 29.68515625 -5.1415625 29.27265625 -6.2890625 28.84765625 C-7.01351562 28.57179687 -7.73796875 28.2959375 -8.484375 28.01171875 C-10.15904438 27.38169844 -11.84205148 26.77355264 -13.53125 26.18359375 C-19.54381188 23.98909787 -22.9613807 22.00301985 -25.9140625 16.09765625 C-26.45096212 11.61762501 -26.54197908 8.16744005 -24.2265625 4.22265625 C-17.31961072 -2.12427241 -8.89914991 -2.75563489 0 0 Z " fill="#211F20" transform="translate(749.9140625,162.90234375)"/>
<path d="M0 0 C5.13715106 2.42610304 8.50860883 5.90632488 11 11 C11.87552082 16.76384539 12.24669289 23.02772138 8.9375 28.0625 C5.437108 31.99310778 1.83294606 34.55749474 -3.42578125 35.37890625 C-9.14595059 35.64798857 -13.67435495 34.90738929 -18 31 C-21.80217231 26.6250329 -23.85512283 22.03761048 -24.1953125 16.234375 C-23.7139295 10.72735343 -21.00380433 6.60292436 -16.875 3.0625 C-11.47618039 -0.81056624 -6.53610039 -0.8671172 0 0 Z " fill="#E6E6E6" transform="translate(939,25)"/>
<path d="M0 0 C2.1796875 1.1015625 2.1796875 1.1015625 5.3046875 3.1015625 C5.3046875 7.36983123 4.92855237 8.04038682 2.3046875 11.1015625 C-0.45807427 10.57887784 -3.0214001 9.99286663 -5.6953125 9.1015625 C-7.25649678 9.03415385 -8.8203377 9.01641794 -10.3828125 9.0390625 C-11.19105469 9.04808594 -11.99929688 9.05710938 -12.83203125 9.06640625 C-13.44691406 9.07800781 -14.06179688 9.08960938 -14.6953125 9.1015625 C-15.2487889 11.17709898 -15.6953125 12.94522214 -15.6953125 15.1015625 C-14.58671875 15.36710937 -13.478125 15.63265625 -12.3359375 15.90625 C-10.87233439 16.26276871 -9.40879609 16.61955353 -7.9453125 16.9765625 C-7.21570313 17.15058594 -6.48609375 17.32460937 -5.734375 17.50390625 C3.03596223 19.65662539 3.03596223 19.65662539 6.5546875 23.6640625 C8.77640075 28.02814211 9.00712413 31.3000969 8.3046875 36.1015625 C6.93997388 39.93981956 5.39596363 41.03661603 2.0546875 43.4140625 C-4.18983207 46.21372718 -11.03212698 46.06643092 -17.6953125 45.1015625 C-21.41069963 43.52809378 -24.53511102 41.59998061 -27.6953125 39.1015625 C-26.62130142 36.18638958 -25.91721074 34.32346074 -23.6953125 32.1015625 C-20.25365929 32.45455257 -18.62658712 33.14737942 -15.6953125 35.1015625 C-13.01907416 35.38117695 -13.01907416 35.38117695 -10.1328125 35.2890625 C-9.16214844 35.28261719 -8.19148437 35.27617187 -7.19140625 35.26953125 C-4.69641266 35.26300921 -4.69641266 35.26300921 -2.6953125 34.1015625 C-2.88545525 32.12944812 -2.88545525 32.12944812 -3.6953125 30.1015625 C-5.47212607 29.10077071 -5.47212607 29.10077071 -7.6953125 28.6015625 C-13.67603902 26.82737569 -19.29366841 24.97601642 -24.2578125 21.1015625 C-26.59254619 16.22907479 -26.55225988 11.38973354 -25.6953125 6.1015625 C-19.77256373 -2.12447746 -9.28313224 -3.09437741 0 0 Z " fill="#221F20" transform="translate(621.6953125,162.8984375)"/>
<path d="M0 0 C0.99 0.33 1.98 0.66 3 1 C2.01 4.63 1.02 8.26 0 12 C1.32 12.33 2.64 12.66 4 13 C4 13.66 4 14.32 4 15 C4.66 15.33 5.32 15.66 6 16 C6 16.99 6 17.98 6 19 C18.87 19 31.74 19 45 19 C45 18.34 45 17.68 45 17 C44.34 16.67 43.68 16.34 43 16 C42.67 16.66 42.34 17.32 42 18 C42 17.34 42 16.68 42 16 C41.34 16 40.68 16 40 16 C40 16.66 40 17.32 40 18 C39.34 17.67 38.68 17.34 38 17 C38.66 15.35 39.32 13.7 40 12 C39.01 12.33 38.02 12.66 37 13 C37.33 11.68 37.66 10.36 38 9 C39.98 8.67 41.96 8.34 44 8 C44.495 8.99 44.495 8.99 45 10 C48.41642759 10.25015873 48.41642759 10.25015873 52 10 C52.66 9.01 53.32 8.02 54 7 C54.37511719 7.95519531 54.75023437 8.91039063 55.13671875 9.89453125 C60.14270067 22.7274131 60.14270067 22.7274131 66.140625 35.11328125 C67 37 67 37 67 40 C62.05 40 57.1 40 52 40 C49.27705922 33.62258607 46.91054772 27.68691702 45 21 C31.8 21 18.6 21 5 21 C4.67 22.65 4.34 24.3 4 26 C3.01909145 28.46993316 2.01399704 30.88660324 0.9375 33.3125 C-0.5165625 36.6228125 -0.5165625 36.6228125 -2 40 C-6.95 40 -11.9 40 -17 40 C-13.36242913 30.22402828 -9.28907023 20.72412563 -4.99951172 11.22070312 C-3.3189038 7.48674865 -1.65980935 3.74323594 0 0 Z " fill="#232222" transform="translate(739,67)"/>
<path d="M0 0 C4.62 0 9.24 0 14 0 C18.00390625 7.6171875 18.00390625 7.6171875 19 10 C18.67 10.66 18.34 11.32 18 12 C17.34 12 16.68 12 16 12 C15.71125 10.865625 15.4225 9.73125 15.125 8.5625 C14.75375 7.386875 14.3825 6.21125 14 5 C13.34 4.67 12.68 4.34 12 4 C12 4.99 12 5.98 12 7 C12 7.99 12 8.98 12 10 C11.34 10 10.68 10 10 10 C10 10.66 10 11.32 10 12 C8.02 12.33 6.04 12.66 4 13 C3.67 13.99 3.34 14.98 3 16 C3.66 16 4.32 16 5 16 C5 16.66 5 17.32 5 18 C5.99 18 6.98 18 8 18 C9.79545569 22.20672669 11.5856928 26.41565482 13.375 30.625 C13.88289062 31.81480469 14.39078125 33.00460938 14.9140625 34.23046875 C15.64882813 35.96103516 15.64882813 35.96103516 16.3984375 37.7265625 C16.84880371 38.78439941 17.29916992 39.84223633 17.76318359 40.93212891 C18.96321364 43.90875298 19.98509296 46.95527889 21 50 C12.09 50 3.18 50 -6 50 C-5.23270317 46.16351585 -4.48128382 43.58883037 -2.9375 40.125 C-1.15014518 35.77035372 -0.41554443 32.67564458 -1 28 C-1.66 27.34 -2.32 26.68 -3 26 C-3.33 27.65 -3.66 29.3 -4 31 C-4.66 30.34 -5.32 29.68 -6 29 C-6.33 29.99 -6.66 30.98 -7 32 C-6.67 32.33 -6.34 32.66 -6 33 C-5.95907063 35.33297433 -5.95758277 37.66705225 -6 40 C-7.2065625 39.7215625 -7.2065625 39.7215625 -8.4375 39.4375 C-9.283125 39.293125 -10.12875 39.14875 -11 39 C-11.495 39.495 -11.495 39.495 -12 40 C-13.66014616 40.36442233 -15.32706064 40.69972883 -17 41 C-15.58648483 36.54971528 -13.90014589 32.3054174 -12.03125 28.02734375 C-11.75027466 27.38181046 -11.46929932 26.73627716 -11.17980957 26.07118225 C-10.28894753 24.02556148 -9.39464391 21.98146924 -8.5 19.9375 C-7.60599676 17.88968739 -6.71273028 15.84155692 -5.82019043 13.79310608 C-5.0110615 11.93690921 -4.19992197 10.08158916 -3.38867188 8.22631836 C-2.21619467 5.50228773 -1.10141261 2.75353153 0 0 Z " fill="#2C2A2B" transform="translate(757,25)"/>
<path d="M0 0 C1.203125 2.140625 1.203125 2.140625 2 4 C-0.3125 6.5 -0.3125 6.5 -3 9 C-6 9 -6 9 -8.625 7.5 C-12.89325681 5.60299697 -16.39535669 5.22689568 -21 6 C-24.61968216 8.1564064 -26.39674918 10.1606362 -28 14 C-28.79356609 19.66832924 -28.13589326 24.12194381 -25 29 C-23.37132739 30.99429299 -22.53937438 31.89337948 -19.984375 32.3984375 C-15.99786231 32.35662093 -12.83104235 32.14516456 -9.1875 30.4375 C-6 29 -6 29 -3.8125 29.0625 C-1.40136 30.30964138 0.19134514 31.99756069 2 34 C-1.17741794 38.76612691 -4.57686989 41.33949762 -10 43 C-17.24388618 44.0776029 -23.40029326 43.30546152 -29.8046875 39.69140625 C-34.9191813 35.75087989 -37.94826882 30.03504712 -40 24 C-40.90698691 16.94448556 -40.39059188 10.74513619 -36 5 C-26.53121718 -5.10474585 -12.09716203 -8.37495833 0 0 Z " fill="#232122" transform="translate(382,166)"/>
<path d="M0 0 C4.125 -0.0825 8.25 -0.165 12.5 -0.25 C13.78455078 -0.28641602 15.06910156 -0.32283203 16.39257812 -0.36035156 C23.42204866 -0.42815293 28.0770629 0.10778419 34 4 C36.77273646 7.81251264 37.60933949 11.40070201 37.4140625 16.04296875 C36.46293402 20.53839674 33.25089078 23.11603719 29.65625 25.65625 C24.03691345 27.72147625 18.55411968 27.31180251 12.625 27.1875 C8.45875 27.125625 4.2925 27.06375 0 27 C0 18.09 0 9.18 0 0 Z " fill="#FAFAFA" transform="translate(294,39)"/>
<path d="M0 0 C0.99 0.33 1.98 0.66 3 1 C3.66666667 3 4.33333333 5 5 7 C5.61520508 7.58450928 6.23041016 8.16901855 6.86425781 8.77124023 C9.47424573 11.49490046 10.79174655 14.42230892 12.234375 17.84765625 C12.51726379 18.50076279 12.80015259 19.15386932 13.09161377 19.82676697 C13.68428939 21.20066789 14.272329 22.57657705 14.85595703 23.9543457 C15.75058428 26.06387773 16.66115805 28.1659685 17.57421875 30.26757812 C18.14938879 31.60636254 18.72363981 32.94554224 19.296875 34.28515625 C19.56868591 34.91333755 19.84049683 35.54151886 20.12054443 36.18873596 C21.29578586 38.97997023 22 40.93509807 22 44 C21.34 43.67 20.68 43.34 20 43 C19.67 43.66 19.34 44.32 19 45 C17.515 45.495 17.515 45.495 16 46 C16.309375 44.88625 16.309375 44.88625 16.625 43.75 C17.04408751 40.67669159 16.61949011 39.57213134 15 37 C14.608125 37.639375 14.21625 38.27875 13.8125 38.9375 C11.59429351 41.461666 10.23569521 41.496905 7 42 C5.157695 37.89980233 3.32770545 33.79422392 1.5 29.6875 C0.97535156 28.52025391 0.45070313 27.35300781 -0.08984375 26.15039062 C-0.58613281 25.03212891 -1.08242188 23.91386719 -1.59375 22.76171875 C-2.05458984 21.73006592 -2.51542969 20.69841309 -2.99023438 19.63549805 C-4 17 -4 17 -4 14 C-4.99 14 -5.98 14 -7 14 C-7 13.34 -7 12.68 -7 12 C-7.66 12 -8.32 12 -9 12 C-8.67 10.68 -8.34 9.36 -8 8 C-6.02 8 -4.04 8 -2 8 C-2 7.34 -2 6.68 -2 6 C-1.67 5.67 -1.34 5.34 -1 5 C-1.40929986 2.94603274 -1.40929986 2.94603274 -2 1 C-1.34 0.67 -0.68 0.34 0 0 Z " fill="#222021" transform="translate(769,29)"/>
<path d="M0 0 C3.3 0 6.6 0 10 0 C10 15.18 10 30.36 10 46 C6.7 46 3.4 46 0 46 C0 30.82 0 15.64 0 0 Z " fill="#232121" transform="translate(554,162)"/>
<path d="M0 0 C0.66 0 1.32 0 2 0 C3.6948693 3.77010279 5.38541249 7.54211229 7.07202148 11.31591797 C7.6460387 12.59867237 8.22122225 13.88090552 8.79760742 15.16259766 C9.6272755 17.00805434 10.4523648 18.85556736 11.27734375 20.703125 C11.77484131 21.81333008 12.27233887 22.92353516 12.78491211 24.06738281 C14 27 14 27 15 31 C6.09 31 -2.82 31 -12 31 C-11.20196859 27.00984293 -10.32715343 24.10587901 -8.75 20.4375 C-8.3065625 19.39722656 -7.863125 18.35695313 -7.40625 17.28515625 C-6.71015625 15.65900391 -6.71015625 15.65900391 -6 14 C-5.08128004 11.7925201 -4.16452684 9.58422035 -3.25 7.375 C-1.12307692 2.24615385 -1.12307692 2.24615385 0 0 Z " fill="#F3F2F2" transform="translate(763,44)"/>
<path d="M0 0 C1.32 0 2.64 0 4 0 C4 0.66 4 1.32 4 2 C4.70125 1.649375 5.4025 1.29875 6.125 0.9375 C9.50268586 -0.1639193 11.58080593 0.20483859 15 1 C15 1.66 15 2.32 15 3 C14.01 3.33 13.02 3.66 12 4 C13.65 4.99 15.3 5.98 17 7 C16.67 5.02 16.34 3.04 16 1 C20 1 20 1 23 2 C26 6.33333333 26 6.33333333 26 9 C25.21625 9.103125 24.4325 9.20625 23.625 9.3125 C20.66954819 9.77595022 20.66954819 9.77595022 19 13 C18.34 13 17.68 13 17 13 C17.33 13.99 17.66 14.98 18 16 C15.63707344 18.52588702 14.33537489 19.88820837 11 21 C8.77181559 21.06937062 6.54165476 21.08457084 4.3125 21.0625 C2.54326172 21.04896484 2.54326172 21.04896484 0.73828125 21.03515625 C-0.61716797 21.01775391 -0.61716797 21.01775391 -2 21 C-2.03738281 20.22914063 -2.07476562 19.45828125 -2.11328125 18.6640625 C-2.17902344 17.66117188 -2.24476563 16.65828125 -2.3125 15.625 C-2.37050781 14.62726563 -2.42851562 13.62953125 -2.48828125 12.6015625 C-2.65714844 11.74304688 -2.82601563 10.88453125 -3 10 C-3.99 9.34 -4.98 8.68 -6 8 C-5.34 8 -4.68 8 -4 8 C-4 7.34 -4 6.68 -4 6 C-3.01 6 -2.02 6 -1 6 C-0.67 4.02 -0.34 2.04 0 0 Z M21 10 C21.66 10.33 22.32 10.66 23 11 C22.42655063 13.86724686 22.1385485 14.8614515 20 17 C20 16.34 20 15.68 20 15 C19.34 14.67 18.68 14.34 18 14 C18.66 14 19.32 14 20 14 C20.33 12.68 20.66 11.36 21 10 Z " fill="#363334" transform="translate(425,164)"/>
<path d="M0 0 C2.97 0 5.94 0 9 0 C8.99476318 0.89307861 8.98952637 1.78615723 8.98413086 2.70629883 C8.96708214 6.02173508 8.95454653 9.3371247 8.94506836 12.65258789 C8.94004158 14.08716568 8.93321921 15.52173836 8.92456055 16.95629883 C8.91242248 19.01905582 8.90675514 21.08174504 8.90234375 23.14453125 C8.89710693 24.38565674 8.89187012 25.62678223 8.88647461 26.90551758 C8.85611917 30.03708218 8.85611917 30.03708218 10 33 C9.67 33.66 9.34 34.32 9 35 C9.99 35.33 10.98 35.66 12 36 C11.67 36.99 11.34 37.98 11 39 C8.4375 40.1875 8.4375 40.1875 6 41 C0.04046011 35.19326883 0.04046011 35.19326883 -0.11352539 30.65185547 C-0.11336688 29.22362303 -0.10770735 27.79538458 -0.09765625 26.3671875 C-0.0962413 25.61535187 -0.09482635 24.86351624 -0.09336853 24.08889771 C-0.08776465 21.6842249 -0.07521157 19.27964473 -0.0625 16.875 C-0.0574855 15.24609509 -0.0529225 13.61718873 -0.04882812 11.98828125 C-0.03779397 7.99215173 -0.02052679 3.99609158 0 0 Z " fill="#201C1D" transform="translate(482,163)"/>
<path d="M0 0 C0.33404784 6.84179472 0.2818681 11.92246649 -3 18 C-3.391875 18.86625 -3.78375 19.7325 -4.1875 20.625 C-7.59295762 25.08732378 -12.52311199 27.87276578 -18 29 C-18.33 28.34 -18.66 27.68 -19 27 C-19.99 27 -20.98 27 -22 27 C-21.01 24.69 -20.02 22.38 -19 20 C-22.16245541 18.9458482 -24.86948218 18.68724328 -28.1875 18.4375 C-29.27417969 18.35371094 -30.36085938 18.26992187 -31.48046875 18.18359375 C-32.72763672 18.09271484 -32.72763672 18.09271484 -34 18 C-34 17.67 -34 17.34 -34 17 C-33.11957031 16.97421875 -32.23914063 16.9484375 -31.33203125 16.921875 C-29.58986328 16.83679688 -29.58986328 16.83679688 -27.8125 16.75 C-26.66394531 16.70359375 -25.51539063 16.6571875 -24.33203125 16.609375 C-20.43761736 15.89714925 -18.72399199 14.84416811 -16 12 C-15.20133431 9.90039215 -15.20133431 9.90039215 -15.1875 7.75 C-15.0946875 5.89375 -15.0946875 5.89375 -15 4 C-14.34 5.32 -13.68 6.64 -13 8 C-11.04783565 6.04783565 -10.15173355 4.46800047 -9 2 C-9 4.31 -9 6.62 -9 9 C-8.34 9 -7.68 9 -7 9 C-6.83564453 8.15115234 -6.83564453 8.15115234 -6.66796875 7.28515625 C-6.50941406 6.55167969 -6.35085938 5.81820312 -6.1875 5.0625 C-6.03667969 4.33160156 -5.88585937 3.60070312 -5.73046875 2.84765625 C-5.48941406 2.23792969 -5.24835937 1.62820312 -5 1 C-2 0 -2 0 0 0 Z " fill="#242223" transform="translate(573,78)"/>
<path d="M0 0 C5.94 0 11.88 0 18 0 C17.34 2.64 16.68 5.28 16 8 C16.99 8.66 17.98 9.32 19 10 C18.01 10.495 18.01 10.495 17 11 C17.99 11.33 18.98 11.66 20 12 C20 12.66 20 13.32 20 14 C9.8205357 17.06880909 -0.43076381 14.92584049 -10 11 C-10 10.01 -10 9.02 -10 8 C-9.34 7.67 -8.68 7.34 -8 7 C-7.34444881 4.47266765 -7.34444881 4.47266765 -7 2 C-5.68 2 -4.36 2 -3 2 C-2.01 1.67 -1.02 1.34 0 1 C0 0.67 0 0.34 0 0 Z " fill="#2C292A" transform="translate(184,94)"/>
<path d="M0 0 C2.69906239 2.15924991 3.56227845 4.30412636 4.875 7.5 C5.13317268 10.30381081 5.25216901 12.83647239 5.1875 15.625 C5.19233398 16.67880859 5.19233398 16.67880859 5.19726562 17.75390625 C5.15849727 21.48271722 4.932847 24.33534287 2.875 27.5 C-1.125 27.5 -1.125 27.5 -2.875 26 C-3.2875 25.505 -3.7 25.01 -4.125 24.5 C-4.455 25.16 -4.785 25.82 -5.125 26.5 C-8.125 14.5 -8.125 14.5 -8.66015625 12.234375 C-9.08764405 10.40769735 -9.08764405 10.40769735 -10.125 8.5 C-10.785 8.5 -11.445 8.5 -12.125 8.5 C-10.29542358 4.84084717 -8.19366963 2.11448504 -4.625 0.0625 C-2.125 -0.5 -2.125 -0.5 0 0 Z M-7.125 12.5 C-6.125 14.5 -6.125 14.5 -6.125 14.5 Z " fill="#1F1E1E" transform="translate(340.125,35.5)"/>
<path d="M0 0 C8.91 0 17.82 0 27 0 C27 0.33 27 0.66 27 1 C18.42 1 9.84 1 1 1 C1 14.53 1 28.06 1 42 C2.32 42.33 3.64 42.66 5 43 C5.495 40.03 5.495 40.03 6 37 C7.485 36.505 7.485 36.505 9 36 C8.95117188 39.07617188 8.95117188 39.07617188 8.90234375 42.15234375 C8.79438816 44.01732141 8.79438816 44.01732141 10 45 C10 40.38 10 35.76 10 31 C10.99 30.67 11.98 30.34 13 30 C13.33 28.35 13.66 26.7 14 25 C13.34 24.67 12.68 24.34 12 24 C14.64 24 17.28 24 20 24 C20 24.99 20 25.98 20 27 C20.66 27 21.32 27 22 27 C22 26.34 22 25.68 22 25 C22.66 25 23.32 25 24 25 C24 25.66 24 26.32 24 27 C24.66 27 25.32 27 26 27 C25.773125 27.598125 25.54625 28.19625 25.3125 28.8125 C25.209375 29.534375 25.10625 30.25625 25 31 C26.35444301 32.77190909 26.35444301 32.77190909 28 34 C27.01 36.475 27.01 36.475 26 39 C25.67 38.34 25.34 37.68 25 37 C24.360625 36.855625 23.72125 36.71125 23.0625 36.5625 C21 36 21 36 19 33 C17.03638136 32.42251197 17.03638136 32.42251197 14.875 32.3125 C13.59625 32.209375 12.3175 32.10625 11 32 C11 36.62 11 41.24 11 46 C7.37 46 3.74 46 0 46 C0 30.82 0 15.64 0 0 Z M25 33 C26 35 26 35 26 35 Z " fill="#434242" transform="translate(413,162)"/>
<path d="M0 0 C3.78597201 4.69449534 5.82001111 10.0608746 8.1875 15.5625 C8.65091797 16.61630859 9.11433594 17.67011719 9.59179688 18.75585938 C10.02943359 19.76583984 10.46707031 20.77582031 10.91796875 21.81640625 C11.31781982 22.73881104 11.7176709 23.66121582 12.12963867 24.61157227 C13 27 13 27 13 30 C12.34 29.67 11.68 29.34 11 29 C10.67 29.66 10.34 30.32 10 31 C9.01 31.33 8.02 31.66 7 32 C7.20625 31.2575 7.4125 30.515 7.625 29.75 C8.04408751 26.67669159 7.61949011 25.57213134 6 23 C5.608125 23.639375 5.21625 24.27875 4.8125 24.9375 C2.59429351 27.461666 1.23569521 27.496905 -2 28 C-2.84026396 26.23244474 -3.67198722 24.46082737 -4.5 22.6875 C-4.9640625 21.70136719 -5.428125 20.71523438 -5.90625 19.69921875 C-7 17 -7 17 -7 14 C-6.01 14 -5.02 14 -4 14 C-3.34 13.34 -2.68 12.68 -2 12 C-1.34 12.33 -0.68 12.66 0 13 C0.66 10.69 1.32 8.38 2 6 C1.01 6 0.02 6 -1 6 C-0.67 4.02 -0.34 2.04 0 0 Z " fill="#262425" transform="translate(778,43)"/>
<path d="M0 0 C0.33 1.98 0.66 3.96 1 6 C1.66 6 2.32 6 3 6 C2.33501617 10.38889325 0.81242323 13.9811485 -1 18 C-1.66 17.67 -2.32 17.34 -3 17 C-3.625 14.4375 -3.625 14.4375 -4 12 C-5.2941742 13.22880216 -5.2941742 13.22880216 -7 16 C-7.33 15.34 -7.66 14.68 -8 14 C-8.33 14.99 -8.66 15.98 -9 17 C-8.67 17.33 -8.34 17.66 -8 18 C-7.95907063 20.33297433 -7.95758277 22.66705225 -8 25 C-8.804375 24.814375 -9.60875 24.62875 -10.4375 24.4375 C-11.283125 24.293125 -12.12875 24.14875 -13 24 C-13.33 24.33 -13.66 24.66 -14 25 C-15.66014616 25.36442233 -17.32706064 25.69972883 -19 26 C-17.45725228 21.1184699 -15.58760935 16.44515798 -13.5625 11.75 C-13.26279297 11.03070313 -12.96308594 10.31140625 -12.65429688 9.5703125 C-10.15064567 3.7700967 -6.57397186 0 0 0 Z " fill="#272526" transform="translate(759,40)"/>
<path d="M0 0 C5.13715106 2.42610304 8.50860883 5.90632488 11 11 C11.87552082 16.76384539 12.24669289 23.02772138 8.9375 28.0625 C5.437108 31.99310778 1.83294606 34.55749474 -3.42578125 35.37890625 C-9.14595059 35.64798857 -13.67435495 34.90738929 -18 31 C-21.80217231 26.6250329 -23.85512283 22.03761048 -24.1953125 16.234375 C-23.7139295 10.72735343 -21.00380433 6.60292436 -16.875 3.0625 C-11.47618039 -0.81056624 -6.53610039 -0.8671172 0 0 Z M-18.375 7.5625 C-21.5552349 12.33285234 -21.60134026 16.3507894 -21 22 C-19.67446795 26.02204295 -17.41965033 28.62803721 -14.25 31.4375 C-9.52202477 33.71056501 -5.69039989 33.94332447 -0.81640625 32.234375 C3.01218385 30.46409114 5.91462317 28.80274599 8 25 C9.75326103 19.74021691 9.69732734 14.79312746 7.6875 9.625 C4.97672905 5.40824519 2.88209609 3.44243748 -2 2 C-8.60666092 1.38827214 -13.77375518 2.59799901 -18.375 7.5625 Z " fill="#393939" transform="translate(939,25)"/>
<path d="M0 0 C11.625 -0.25 11.625 -0.25 15 2 C15.32076658 5.46427904 15.52723896 8.0041042 13.875 11.125 C12.69204203 13.10723196 12.69204203 13.10723196 13.875 15.75 C14.24625 16.4925 14.6175 17.235 15 18 C10.40925926 17.5037037 10.40925926 17.5037037 8.375 15 C7.92125 14.34 7.4675 13.68 7 13 C6.01 12.67 5.02 12.34 4 12 C4 13.98 4 15.96 4 18 C2.68 18 1.36 18 0 18 C0 12.06 0 6.12 0 0 Z " fill="#252525" transform="translate(926,33)"/>
<path d="M0 0 C17.49 0 34.98 0 53 0 C46.14040149 6.85959851 36.15920348 5.18221888 26.875 5.1875 C25.73417969 5.19974609 24.59335937 5.21199219 23.41796875 5.22460938 C17.51064476 5.23490088 12.57765496 4.94810525 7 3 C4.67212073 2.63049535 2.33954855 2.28647533 0 2 C0 1.34 0 0.68 0 0 Z " fill="#C9F1F2" transform="translate(448,0)"/>
<path d="M0 0 C2.5654594 2.5654594 2.54046087 4.47686668 3 8 C3.63808594 8.13277344 4.27617188 8.26554688 4.93359375 8.40234375 C5.75988281 8.57894531 6.58617187 8.75554687 7.4375 8.9375 C8.26121094 9.11152344 9.08492187 9.28554687 9.93359375 9.46484375 C12 10 12 10 13 11 C13.04080783 12.99958364 13.04254356 15.00045254 13 17 C12.01 17 11.02 17 10 17 C10 17.66 10 18.32 10 19 C4.7481833 19.315109 1.45185123 18.8689708 -3 16 C-5.94675381 13.13079234 -6.93789433 11.82290012 -7.25 7.6875 C-7.1675 6.800625 -7.085 5.91375 -7 5 C-5.68 5.33 -4.36 5.66 -3 6 C-3.33 5.01 -3.66 4.02 -4 3 C-2.68 2.67 -1.36 2.34 0 2 C0 1.34 0 0.68 0 0 Z " fill="#1F1D1E" transform="translate(732,170)"/>
<path d="M0 0 C0.99 0.33 1.98 0.66 3 1 C2.01 4.63 1.02 8.26 0 12 C1.32 12.33 2.64 12.66 4 13 C4 13.66 4 14.32 4 15 C4.66 15.33 5.32 15.66 6 16 C6 16.99 6 17.98 6 19 C18.54 19.33 31.08 19.66 44 20 C44 20.33 44 20.66 44 21 C31.13 21 18.26 21 5 21 C4.67 22.65 4.34 24.3 4 26 C3.36562656 27.6792238 2.70710678 29.35008418 2 31 C1.34 30.01 0.68 29.02 0 28 C0.875 25.3125 0.875 25.3125 2 23 C1.34 23 0.68 23 0 23 C-0.33 23.66 -0.66 24.32 -1 25 C-3.30639995 21.54040008 -5.53571673 18.18558406 -6 14 C-5.11264513 11.47774372 -4.18270997 9.16200571 -3.0625 6.75 C-2.77181641 6.1003125 -2.48113281 5.450625 -2.18164062 4.78125 C-1.46471025 3.18284785 -0.73371051 1.59076946 0 0 Z " fill="#343132" transform="translate(739,67)"/>
<path d="M0 0 C2.27024968 -0.08097324 4.54132075 -0.13917704 6.8125 -0.1875 C8.07707031 -0.22230469 9.34164063 -0.25710937 10.64453125 -0.29296875 C14 0 14 0 15.96484375 1.2890625 C17.72328948 4.19547469 16.69369823 6.82054977 16 10 C15.67 10.66 15.34 11.32 15 12 C10.05 12 5.1 12 0 12 C0 8.04 0 4.08 0 0 Z " fill="#F8F7F8" transform="translate(424,172)"/>
<path d="M0 0 C0.33 0 0.66 0 1 0 C1 5.94 1 11.88 1 18 C2.32 18 3.64 18 5 18 C5 16.02 5 14.04 5 12 C6.8125 12.25 6.8125 12.25 9 13 C10.5 15 10.5 15 12 17 C14.09415804 17.79623822 14.09415804 17.79623822 16 18 C15.484375 17.236875 14.96875 16.47375 14.4375 15.6875 C13.963125 14.800625 13.48875 13.91375 13 13 C13.33 12.01 13.66 11.02 14 10 C16 11.375 16 11.375 18 13 C18 13.66 18 14.32 18 15 C19.32 15.66 20.64 16.32 22 17 C18.93879025 21.53059042 16.20867299 23.35058689 11 25 C8.1879595 25.32544411 5.85723866 25.24213887 3 25 C2.34 24.34 1.68 23.68 1 23 C1.66 22.01 2.32 21.02 3 20 C2.01 19.67 1.02 19.34 0 19 C0 12.73 0 6.46 0 0 Z " fill="#E0E0E0" transform="translate(925,33)"/>
<path d="M0 0 C3.76095954 0.02376594 6.26872572 0.77617259 9.75 2.1875 C12.97828237 1.88662284 12.97828237 1.88662284 15.75 1.1875 C15.75 2.1775 15.75 3.1675 15.75 4.1875 C15.275625 4.64125 14.80125 5.095 14.3125 5.5625 C12.30067702 7.65479589 12.22190081 9.37442139 11.75 12.1875 C9.30879324 11.59596527 6.87280633 10.98997635 4.4375 10.375 C3.74720703 10.20935547 3.05691406 10.04371094 2.34570312 9.87304688 C-4.23683619 8.18766241 -4.23683619 8.18766241 -6.25 5.1875 C-5.7011804 0.52253336 -4.44411676 0.03678905 0 0 Z " fill="#F3F1F2" transform="translate(611.25,170.8125)"/>
<path d="M0 0 C-0.64453125 0.45890625 -1.2890625 0.9178125 -1.953125 1.390625 C-4.99919291 5.27378028 -4.67187504 8.94176379 -4.75 13.75 C-4.77964844 14.63816406 -4.80929687 15.52632812 -4.83984375 16.44140625 C-4.91036918 18.62769449 -4.96314637 20.81292768 -5 23 C-3.68 23.33 -2.36 23.66 -1 24 C-1 24.66 -1 25.32 -1 26 C-2.6875 26.8125 -2.6875 26.8125 -5 27 C-8.87841559 23.76798701 -11.61675729 20.70052425 -12.3359375 15.6328125 C-12.4257747 9.86526428 -11.88183094 6.56685993 -8 2 C-5.44123378 -0.55876622 -3.37797483 -1.68898741 0 0 Z " fill="#F7F7F7" transform="translate(930,29)"/>
<path d="M0 0 C1.89825285 0.42687983 3.79353183 0.86699482 5.6875 1.3125 C6.74324219 1.55613281 7.79898438 1.79976562 8.88671875 2.05078125 C12.01389979 3.00423795 14.36485222 4.07078172 17 6 C17.375 8.625 17.375 8.625 17 11 C15.31002987 12.68997013 13.25136714 12.25202754 10.9375 12.3125 C5.23739774 12.29017584 1.83912419 10.92173536 -3 8 C-3 6.35 -3 4.7 -3 3 C-1.68 3 -0.36 3 1 3 C0.67 2.01 0.34 1.02 0 0 Z " fill="#F4F3F4" transform="translate(731,187)"/>
<path d="M0 0 C21.78 0 43.56 0 66 0 C66 0.66 66 1.32 66 2 C62.60968893 3.03881761 59.57318012 3.08856853 56.03808594 3.02172852 C54.83714294 3.00163223 53.63619995 2.98153595 52.39886475 2.96083069 C50.46119232 2.92027809 50.46119232 2.92027809 48.484375 2.87890625 C47.14488549 2.85459095 45.80538733 2.8307481 44.46588135 2.80735779 C40.947694 2.74465704 37.42966069 2.67555114 33.91162109 2.60510254 C30.31875599 2.53429218 26.72578205 2.46955135 23.1328125 2.40429688 C16.08842348 2.27546529 9.04417928 2.13986551 2 2 C2 5.3 2 8.6 2 12 C2.66 12.33 3.32 12.66 4 13 C2.68 13 1.36 13 0 13 C0 8.71 0 4.42 0 0 Z " fill="#282626" transform="translate(620,26)"/>
<path d="M0 0 C1.89825285 0.42687983 3.79353183 0.86699482 5.6875 1.3125 C6.74324219 1.55613281 7.79898438 1.79976562 8.88671875 2.05078125 C12.00587162 3.00179022 14.34663039 4.11572303 17 6 C17.8125 8.1875 17.8125 8.1875 18 10 C13.55851839 12.96098774 9.21153564 12.65429499 4 12 C0.8125 10 0.8125 10 -1 8 C-0.67 7.34 -0.34 6.68 0 6 C0.039992 4.00039988 0.04346799 1.99952758 0 0 Z " fill="#F3F1F2" transform="translate(602,187)"/>
<path d="M0 0 C0.99 0 1.98 0 3 0 C3 0.66 3 1.32 3 2 C5.64 2.33 8.28 2.66 11 3 C11 2.01 11 1.02 11 0 C13.31 0 15.62 0 18 0 C17.67 0.99 17.34 1.98 17 3 C15.35 3.33 13.7 3.66 12 4 C12 4.99 12 5.98 12 7 C13.32 7.33 14.64 7.66 16 8 C14 11 14 11 10.375 11.80078125 C8.91839278 11.9855152 7.45986116 12.1555394 6 12.3125 C5.26265625 12.41111328 4.5253125 12.50972656 3.765625 12.61132812 C1.85259357 12.83649332 -0.07513163 12.92740259 -2 13 C-2.66 12.34 -3.32 11.68 -4 11 C-2.02 10.34 -0.04 9.68 2 9 C0.68 8.67 -0.64 8.34 -2 8 C-1.67 7.236875 -1.34 6.47375 -1 5.6875 C0.17436686 3.00930865 0.17436686 3.00930865 0 0 Z " fill="#211C1E" transform="translate(533,26)"/>
<path d="M0 0 C3.63 0 7.26 0 11 0 C11.01401855 1.34578125 11.01401855 1.34578125 11.02832031 2.71875 C11.07261251 6.08148339 11.13434662 9.44299347 11.20751953 12.80517578 C11.23556036 14.25395216 11.25685811 15.70287672 11.27099609 17.15185547 C11.35580408 25.35561455 11.63864523 31.80030323 16 39 C16.31996393 41.44594651 16.20621808 43.52538308 16 46 C18.97 46 21.94 46 25 46 C25 46.33 25 46.66 25 47 C17.03524914 47.76258253 11.83285184 46.07063514 5 42 C7.33214148 40.79371992 9.49642139 39.8345262 12 39 C12 38.34 12 37.68 12 37 C11.34 36.67 10.68 36.34 10 36 C10.33 34.68 10.66 33.36 11 32 C10.34 31.67 9.68 31.34 9 31 C9.33 21.1 9.66 11.2 10 1 C7.03 1 4.06 1 1 1 C1 10.9 1 20.8 1 31 C0.67 31 0.34 31 0 31 C0 20.77 0 10.54 0 0 Z " fill="#595858" transform="translate(481,162)"/>
<path d="M0 0 C2.73949307 3.28739169 5.26584559 6.70565274 7.75 10.1875 C8.67039062 11.47720703 8.67039062 11.47720703 9.609375 12.79296875 C11 15 11 15 11 17 C7.19799339 17.54797604 3.77672004 17.79264495 0 17 C-2.73315938 14.34950707 -4.38763727 11.42882201 -6 8 C-4.68 8.33 -3.36 8.66 -2 9 C-1.22757731 7.16299211 -1.22757731 7.16299211 -1 5 C-2.35444301 3.22809091 -2.35444301 3.22809091 -4 2 C-2.68 1.34 -1.36 0.68 0 0 Z " fill="#222021" transform="translate(441,191)"/>
<path d="M0 0 C0.495 0.99 0.495 0.99 1 2 C0.34 2 -0.32 2 -1 2 C-1 2.66 -1 3.32 -1 4 C0.98 4.66 2.96 5.32 5 6 C5 6.66 5 7.32 5 8 C4.34 8 3.68 8 3 8 C3 8.66 3 9.32 3 10 C4.32 10.33 5.64 10.66 7 11 C5.6875 12.5 5.6875 12.5 4 14 C3.01 14 2.02 14 1 14 C0.67 14.66 0.34 15.32 0 16 C-0.99 15.67 -1.98 15.34 -3 15 C-3.73080266 13.02253397 -4.39421747 11.01927511 -5 9 C-5.66 8.01 -6.32 7.02 -7 6 C-9.61196291 5.48987435 -9.61196291 5.48987435 -12.6640625 5.48828125 C-13.78554688 5.45283203 -14.90703125 5.41738281 -16.0625 5.38085938 C-17.238125 5.35830078 -18.41375 5.33574219 -19.625 5.3125 C-20.80835938 5.27833984 -21.99171875 5.24417969 -23.2109375 5.20898438 C-26.1405306 5.12629425 -29.0698164 5.05721286 -32 5 C-32 4.67 -32 4.34 -32 4 C-31.24380371 3.98541748 -30.48760742 3.97083496 -29.70849609 3.95581055 C-26.26349723 3.88108 -22.81944079 3.78450072 -19.375 3.6875 C-18.18519531 3.66494141 -16.99539063 3.64238281 -15.76953125 3.61914062 C-7.41572764 3.41443568 -7.41572764 3.41443568 0 0 Z " fill="#333031" transform="translate(326,62)"/>
<path d="M0 0 C3.44165321 0.35299007 5.06872538 1.04581692 8 3 C11.20379124 3.24246783 11.20379124 3.24246783 14.6875 3.125 C15.86699219 3.10695312 17.04648437 3.08890625 18.26171875 3.0703125 C19.16535156 3.04710937 20.06898438 3.02390625 21 3 C20.67 3.66 20.34 4.32 20 5 C16.7 5 13.4 5 10 5 C10 5.66 10 6.32 10 7 C11.32 7.33 12.64 7.66 14 8 C11.69 8 9.38 8 7 8 C7.33 8.99 7.66 9.98 8 11 C6.265625 11.65234375 6.265625 11.65234375 4 12 C1.859375 11.00390625 1.859375 11.00390625 -0.25 9.5625 C-0.95640625 9.08941406 -1.6628125 8.61632812 -2.390625 8.12890625 C-2.92171875 7.75636719 -3.4528125 7.38382813 -4 7 C-2.92598892 4.08482708 -2.22189824 2.22189824 0 0 Z " fill="#272626" transform="translate(598,195)"/>
<path d="M0 0 C2 2 2 2 3 5 C5.39719432 5.67958603 5.39719432 5.67958603 8 6 C8.66 5.34 9.32 4.68 10 4 C12.3828125 4.0234375 12.3828125 4.0234375 15.125 4.375 C16.03507812 4.48585937 16.94515625 4.59671875 17.8828125 4.7109375 C18.58148438 4.80632812 19.28015625 4.90171875 20 5 C19.34 5.66 18.68 6.32 18 7 C18.32041397 9.60280568 18.32041397 9.60280568 19 12 C20.65 12 22.3 12 24 12 C24 12.33 24 12.66 24 13 C15.53292487 13.65467076 9.04880058 13.03289847 2 8 C-0.1875 5.375 -0.1875 5.375 -1 3 C-0.67 2.01 -0.34 1.02 0 0 Z " fill="#2F2D2E" transform="translate(348,196)"/>
<path d="M0 0 C3.96 0 7.92 0 12 0 C13 3 13 3 12 6 C12.99 6.66 13.98 7.32 15 8 C14.01 8.495 14.01 8.495 13 9 C13.99 9.33 14.98 9.66 16 10 C16 10.66 16 11.32 16 12 C12.24600202 13.2039337 8.66782588 13.09877617 4.75 13.0625 C3.48671875 13.05347656 2.2234375 13.04445313 0.921875 13.03515625 C-0.04234375 13.02355469 -1.0065625 13.01195313 -2 13 C-2 12.67 -2 12.34 -2 12 C-0.02 11.67 1.96 11.34 4 11 C3.67 10.34 3.34 9.68 3 9 C3.60578253 6.98072489 4.26919734 4.97746603 5 3 C3.68377223 1.57836298 3.68377223 1.57836298 0 0 Z " fill="#302D2E" transform="translate(188,96)"/>
<path d="M0 0 C1.77049689 -0.05410687 3.54146849 -0.09284119 5.3125 -0.125 C6.29863281 -0.14820313 7.28476562 -0.17140625 8.30078125 -0.1953125 C11 0 11 0 14 2 C14.32076658 5.46427904 14.52723896 8.0041042 12.875 11.125 C11.69204203 13.10723196 11.69204203 13.10723196 12.875 15.75 C13.24625 16.4925 13.6175 17.235 14 18 C11.625 17.6875 11.625 17.6875 9 17 C7 14 7 14 7 11 C5.35 10.67 3.7 10.34 2 10 C2 9.67 2 9.34 2 9 C5.465 8.505 5.465 8.505 9 8 C9 6.68 9 5.36 9 4 C6.03 3.505 6.03 3.505 3 3 C3 2.34 3 1.68 3 1 C2.01 0.67 1.02 0.34 0 0 Z " fill="#232323" transform="translate(927,33)"/>
<path d="M0 0 C4.62 0 9.24 0 14 0 C14 0.99 14 1.98 14 3 C13.34 3 12.68 3 12 3 C12.33 4.65 12.66 6.3 13 8 C10.87561661 8.08078641 8.7503677 8.13909141 6.625 8.1875 C4.84996094 8.23970703 4.84996094 8.23970703 3.0390625 8.29296875 C1.53472656 8.14794922 1.53472656 8.14794922 0 8 C-0.66 7.01 -1.32 6.02 -2 5 C-1.34 5 -0.68 5 0 5 C-0.33 4.01 -0.66 3.02 -1 2 C-0.67 1.34 -0.34 0.68 0 0 Z " fill="#1F1D1E" transform="translate(733,200)"/>
<path d="M0 0 C13.86 0 27.72 0 42 0 C35.74850636 4.16766243 27.8854912 3.18326894 20.625 3.1875 C18.97757813 3.20586914 18.97757813 3.20586914 17.296875 3.22460938 C11.1653 3.23563739 5.86746008 2.80592141 0 1 C0 0.67 0 0.34 0 0 Z " fill="#2B8086" transform="translate(644,0)"/>
<path d="M0 0 C14.52 0 29.04 0 44 0 C44 0.33 44 0.66 44 1 C36.60133662 2.79646749 29.59844741 3.3078562 22 3.25 C20.98421875 3.25773438 19.9684375 3.26546875 18.921875 3.2734375 C12.38864016 3.25668562 6.34882592 2.54155674 0 1 C0 0.67 0 0.34 0 0 Z " fill="#218386" transform="translate(451,0)"/>
<path d="M0 0 C4.50273743 1.11832694 8.76942321 2.19867733 12.0625 5.625 C14.54064021 9.94176036 14.48545147 13.14548525 14 18 C13.67 18 13.34 18 13 18 C13 15.36 13 12.72 13 10 C11.68 9.67 10.36 9.34 9 9 C9 8.34 9 7.68 9 7 C8.01 7.33 7.02 7.66 6 8 C5.67 7.34 5.34 6.68 5 6 C4.34 6 3.68 6 3 6 C3 6.99 3 7.98 3 9 C3.66 9 4.32 9 5 9 C5 9.66 5 10.32 5 11 C1.59068103 12.13643966 0.99664544 11.86747764 -2.1875 10.5625 C-2.90292969 10.27503906 -3.61835937 9.98757812 -4.35546875 9.69140625 C-4.89816406 9.46324219 -5.44085937 9.23507813 -6 9 C-5.01 8.67 -4.02 8.34 -3 8 C-3 7.34 -3 6.68 -3 6 C-2.01 6 -1.02 6 0 6 C0 4.02 0 2.04 0 0 Z " fill="#272526" transform="translate(745,181)"/>
<path d="M0 0 C0.73154297 0.01353516 1.46308594 0.02707031 2.21679688 0.04101562 C3.99902422 0.07596126 5.78086573 0.12975195 7.5625 0.1875 C6.2425 0.5175 4.9225 0.8475 3.5625 1.1875 C3.5625 2.1775 3.5625 3.1675 3.5625 4.1875 C0.9225 3.8575 -1.7175 3.5275 -4.4375 3.1875 C-4.4375 2.5275 -4.4375 1.8675 -4.4375 1.1875 C-5.4275 1.1875 -6.4175 1.1875 -7.4375 1.1875 C-7.19 1.765 -6.9425 2.3425 -6.6875 2.9375 C-6.56375 4.05125 -6.56375 4.05125 -6.4375 5.1875 C-8.375 7.4375 -8.375 7.4375 -10.4375 9.1875 C-10.4375 8.1975 -10.4375 7.2075 -10.4375 6.1875 C-11.4275 6.1875 -12.4175 6.1875 -13.4375 6.1875 C-13.7675 6.8475 -14.0975 7.5075 -14.4375 8.1875 C-15.0975 7.8575 -15.7575 7.5275 -16.4375 7.1875 C-16.7675 8.1775 -17.0975 9.1675 -17.4375 10.1875 C-19.5 10.875 -19.5 10.875 -21.4375 11.1875 C-21.4375 10.1975 -21.4375 9.2075 -21.4375 8.1875 C-14.97816094 1.88570579 -8.88700831 -0.31710277 0 0 Z " fill="#292627" transform="translate(540.4375,24.8125)"/>
<path d="M0 0 C2.58956797 0.2725861 4.5719518 0.76896143 6.8671875 2.0078125 C9.23837414 3.110892 11.1537632 3.39592028 13.75 3.625 C14.54921875 3.69976562 15.3484375 3.77453125 16.171875 3.8515625 C16.77515625 3.90054688 17.3784375 3.94953125 18 4 C18 4.33 18 4.66 18 5 C14.37 5.33 10.74 5.66 7 6 C6.34 7.98 5.68 9.96 5 12 C1.54074837 10.7508258 -1.14693203 9.32472205 -4 7 C-2.92598892 4.08482708 -2.22189824 2.22189824 0 0 Z " fill="#312F30" transform="translate(727,195)"/>
<path d="M0 0 C2.83339941 0.18279996 3.82835545 0.82243667 5.8125 2.875 C6.204375 3.57625 6.59625 4.2775 7 5 C6.67 5.99 6.34 6.98 6 8 C6.99 8.33 7.98 8.66 9 9 C8 12 8 12 6 13 C2.04437178 13.25797575 -0.59659693 13.09440189 -4 11 C-3.34 10.34 -2.68 9.68 -2 9 C-2.99 8.34 -3.98 7.68 -5 7 C-4.01 7 -3.02 7 -2 7 C-2.061875 5.824375 -2.061875 5.824375 -2.125 4.625 C-2 2 -2 2 0 0 Z " fill="#201D1E" transform="translate(202,94)"/>
<path d="M0 0 C0.33 0.66 0.66 1.32 1 2 C0.34 2 -0.32 2 -1 2 C-0.67 2.66 -0.34 3.32 0 4 C0.99 4 1.98 4 3 4 C3.12375 4.804375 3.2475 5.60875 3.375 6.4375 C3.58125 7.283125 3.7875 8.12875 4 9 C4.66 9.33 5.32 9.66 6 10 C5.67 9.01 5.34 8.02 5 7 C7.475 7.495 7.475 7.495 10 8 C9.5 9.8125 9.5 9.8125 8 12 C5.4136076 13.26152609 2.74799171 14.15643045 0 15 C-0.33 14.34 -0.66 13.68 -1 13 C-1.99 13 -2.98 13 -4 13 C-3.01 10.69 -2.02 8.38 -1 6 C-4.16245541 4.9458482 -6.86948218 4.68724328 -10.1875 4.4375 C-11.27417969 4.35371094 -12.36085938 4.26992187 -13.48046875 4.18359375 C-14.31191406 4.12300781 -15.14335938 4.06242187 -16 4 C-16 3.67 -16 3.34 -16 3 C-15.09636719 2.95101562 -14.19273437 2.90203125 -13.26171875 2.8515625 C-12.08222656 2.77679688 -10.90273438 2.70203125 -9.6875 2.625 C-7.92986328 2.52058594 -7.92986328 2.52058594 -6.13671875 2.4140625 C-2.84300113 2.21386253 -2.84300113 2.21386253 0 0 Z " fill="#262525" transform="translate(555,92)"/>
<path d="M0 0 C0.33 0.33 0.66 0.66 1 1 C1.66 0.34 2.32 -0.32 3 -1 C3 -0.01 3 0.98 3 2 C3.66 2 4.32 2 5 2 C5 1.34 5 0.68 5 0 C5.66 0 6.32 0 7 0 C5.96008872 3.01574271 5.03085171 3.97991051 2.3125 5.75 C-1.35033925 7.13220349 -4.11747717 7.23295137 -8 7 C-8 5.68 -8 4.36 -8 3 C-8.66 2.67 -9.32 2.34 -10 2 C-9.67 1.67 -9.34 1.34 -9 1 C-10.32 0.34 -11.64 -0.32 -13 -1 C-4.48060345 -2.44396552 -4.48060345 -2.44396552 0 0 Z " fill="#1F1E1F" transform="translate(375,201)"/>
<path d="M0 0 C0 1.98 0 3.96 0 6 C-0.99 6 -1.98 6 -3 6 C-3 6.66 -3 7.32 -3 8 C-8.26053037 8.31563182 -11.44573816 7.66590937 -16 5 C-15 3 -15 3 -12.1875 2 C-11.135625 1.67 -10.08375 1.34 -9 1 C-8.319375 0.608125 -7.63875 0.21625 -6.9375 -0.1875 C-4.33319183 -1.27962923 -2.66677045 -0.74076957 0 0 Z " fill="#292728" transform="translate(745,181)"/>
<path d="M0 0 C3.79794988 0.86317043 5.69924252 1.67549851 8.375 4.5625 C10.42340877 8.8956724 10.37624274 12.2969658 10 17 C9.67 17 9.34 17 9 17 C8.34 15.02 7.68 13.04 7 11 C6.38125 11.495 5.7625 11.99 5.125 12.5 C3 14 3 14 1 14 C-3 9.64705882 -3 9.64705882 -3 6 C-0.03 6.495 -0.03 6.495 3 7 C3 6.34 3 5.68 3 5 C2.34 4.34 1.68 3.68 1 3 C0.67 2.01 0.34 1.02 0 0 Z " fill="#262525" transform="translate(620,182)"/>
<path d="M0 0 C2.96175123 0.61277612 4.38058783 1.25372522 7 3 C5.92598892 5.91517292 5.22189824 7.77810176 3 10 C0.70703125 9.69140625 0.70703125 9.69140625 -2 9 C-2.88300781 8.82339844 -3.76601563 8.64679688 -4.67578125 8.46484375 C-7.1171875 7.9765625 -9.55859375 7.48828125 -12 7 C-12 6.67 -12 6.34 -12 6 C-11.236875 5.87625 -10.47375 5.7525 -9.6875 5.625 C-6.79732864 5.11897208 -6.79732864 5.11897208 -4 3 C-3.01 3 -2.02 3 -1 3 C-0.67 2.01 -0.34 1.02 0 0 Z " fill="#232021" transform="translate(621,164)"/>
<path d="M0 0 C0.969375 0.7425 1.93875 1.485 2.9375 2.25 C3.48277344 2.66765625 4.02804687 3.0853125 4.58984375 3.515625 C6 5 6 5 7 9 C1.72 9 -3.56 9 -9 9 C-9.66 7.35 -10.32 5.7 -11 4 C-10.34 4 -9.68 4 -9 4 C-9 4.66 -9 5.32 -9 6 C-7.35 6 -5.7 6 -4 6 C-4 5.34 -4 4.68 -4 4 C-3.34 4 -2.68 4 -2 4 C-2 3.34 -2 2.68 -2 2 C-1.34 2 -0.68 2 0 2 C0 1.34 0 0.68 0 0 Z " fill="#1E1E1E" transform="translate(340,98)"/>
<path d="M0 0 C0.33 0 0.66 0 1 0 C1.2475 1.010625 1.495 2.02125 1.75 3.0625 C3.21363723 8.1084661 5.1863773 12.43826934 9.25 15.9375 C13.73189389 17.66914082 17.66383612 17.82677306 22.15234375 16.23828125 C26.08666429 14.38468144 29.13753397 12.3395437 32 9 C31.52591957 13.26672384 29.11692878 15.2455048 26 18 C21.49100663 20.71671567 17.12467519 20.61685905 12 20 C6.66137137 18.37787822 3.59776527 14.919154 0.8671875 10.171875 C-0.54027424 6.64688074 -0.33511303 3.75326592 0 0 Z " fill="#343434" transform="translate(916,40)"/>
<path d="M0 0 C3.3 0 6.6 0 10 0 C10.33 0.99 10.66 1.98 11 3 C10.34 3 9.68 3 9 3 C9 3.99 9 4.98 9 6 C8.01 6 7.02 6 6 6 C6.33 8.64 6.66 11.28 7 14 C6.01 14 5.02 14 4 14 C3.01 15.485 3.01 15.485 2 17 C1.957279 15.33388095 1.95936168 13.66617115 2 12 C2.33 11.67 2.66 11.34 3 11 C3.04063832 9.33382885 3.042721 7.66611905 3 6 C2.01 5.67 1.02 5.34 0 5 C0 3.35 0 1.7 0 0 Z " fill="#242021" transform="translate(415,164)"/>
<path d="M0 0 C3.09233349 0.26889856 5.34360029 0.55534213 7.9375 2.3125 C9 4 9 4 8.6875 6.1875 C8.3471875 7.0846875 8.3471875 7.0846875 8 8 C8.66 8 9.32 8 10 8 C10 8.99 10 9.98 10 11 C8.35 10.67 6.7 10.34 5 10 C5 9.34 5 8.68 5 8 C4.05125 8.350625 3.1025 8.70125 2.125 9.0625 C-1 10 -1 10 -3 9 C-2.6875 7.125 -2.6875 7.125 -2 5 C-1.01 4.34 -0.02 3.68 1 3 C0.34 2.34 -0.32 1.68 -1 1 C-0.67 0.67 -0.34 0.34 0 0 Z " fill="#211D1E" transform="translate(553,27)"/>
<path d="M0 0 C0.86419556 0.21221191 0.86419556 0.21221191 1.74584961 0.42871094 C8.73993135 2.002777 15.41078589 2.30179274 22.5625 2.25 C23.63435547 2.25773438 24.70621094 2.26546875 25.81054688 2.2734375 C31.48696129 2.25955025 36.60997162 1.90652086 42.07788086 0.33105469 C44.32844908 -0.05657017 45.84242602 0.31318481 48 1 C44.49223216 2.60355101 41.85645121 3.22036864 38 3 C38 3.66 38 4.32 38 5 C6.88781868 5.28161702 6.88781868 5.28161702 0 1 C0 0.67 0 0.34 0 0 Z " fill="#C2EBEE" transform="translate(642,0)"/>
<path d="M0 0 C0.556875 0.226875 1.11375 0.45375 1.6875 0.6875 C1.3575 1.0175 1.0275 1.3475 0.6875 1.6875 C1.6775 2.3475 2.6675 3.0075 3.6875 3.6875 C0.78149739 4.94414978 -1.10854584 5.6875 -4.3125 5.6875 C-6.00048827 7.12500191 -6.00048827 7.12500191 -7.3125 8.6875 C-5.9925 8.3575 -4.6725 8.0275 -3.3125 7.6875 C-3.3125 8.3475 -3.3125 9.0075 -3.3125 9.6875 C-4.3025 10.3475 -5.2925 11.0075 -6.3125 11.6875 C-6.3125 12.3475 -6.3125 13.0075 -6.3125 13.6875 C-7.3025 14.0175 -8.2925 14.3475 -9.3125 14.6875 C-9.9725 15.3475 -10.6325 16.0075 -11.3125 16.6875 C-11.93517777 8.74835842 -11.93517777 8.74835842 -9.625 4.8125 C-3.82532051 -0.5169352 -3.82532051 -0.5169352 0 0 Z " fill="#353334" transform="translate(735.3125,162.3125)"/>
<path d="M0 0 C0.33 0.99 0.66 1.98 1 3 C0.01 3.495 0.01 3.495 -1 4 C-1.65772428 7.02934491 -1.65772428 7.02934491 -2 10 C-2.598125 9.649375 -3.19625 9.29875 -3.8125 8.9375 C-6.10813214 7.66695302 -6.10813214 7.66695302 -9 9 C-11.4520391 8.43194903 -13.79040967 7.8054297 -16.1875 7.0625 C-16.84169922 6.86720703 -17.49589844 6.67191406 -18.16992188 6.47070312 C-19.78227407 5.98817437 -21.39146289 5.49509795 -23 5 C-20.07579516 4.13993975 -17.65917673 3.96530649 -14.625 4.125 C-10.34662899 4.18822716 -7.7320782 3.16981291 -4 1 C-1.625 0.3125 -1.625 0.3125 0 0 Z " fill="#2B292A" transform="translate(561,68)"/>
<path d="M0 0 C2.31 0.66 4.62 1.32 7 2 C7.0270043 3.45823212 7.04639787 4.91660675 7.0625 6.375 C7.07410156 7.18710937 7.08570313 7.99921875 7.09765625 8.8359375 C7 11 7 11 6 13 C4.02 12.34 2.04 11.68 0 11 C-1.05404945 7.01803543 -0.84098656 4.01804691 0 0 Z " fill="#F2F2F2" transform="translate(941,36)"/>
<path d="M0 0 C2.0625 2.5625 2.0625 2.5625 3 5 C-0.62326739 6.2077558 -1.64146369 5.54311128 -5 4 C-5 4.66 -5 5.32 -5 6 C-4.34 6.33 -3.68 6.66 -3 7 C-7.75207471 7.43200679 -10.78210698 5.98489083 -15 4 C-14.67 3.34 -14.34 2.68 -14 2 C-13.01 2 -12.02 2 -11 2 C-11 1.34 -11 0.68 -11 0 C-7.51903008 -1.74048496 -3.67261433 -1.01568638 0 0 Z " fill="#201D1E" transform="translate(622,184)"/>
<path d="M0 0 C2.97 0 5.94 0 9 0 C9 0.33 9 0.66 9 1 C6.36 1 3.72 1 1 1 C1 5.62 1 10.24 1 15 C-2.3 15 -5.6 15 -9 15 C-9 13.68 -9 12.36 -9 11 C-7.68 11.33 -6.36 11.66 -5 12 C-4.67 10.02 -4.34 8.04 -4 6 C-3.01 5.67 -2.02 5.34 -1 5 C-1.03255208 7.05078125 -1.06510417 9.1015625 -1.09765625 11.15234375 C-1.20561184 13.01732141 -1.20561184 13.01732141 0 14 C0 9.38 0 4.76 0 0 Z " fill="#4A4848" transform="translate(423,193)"/>
<path d="M0 0 C0.66 0 1.32 0 2 0 C2 0.99 2 1.98 2 3 C1.525625 3.45375 1.05125 3.9075 0.5625 4.375 C-1.51534386 6.24416391 -1.51534386 6.24416391 -2 11 C-7.94 9.515 -7.94 9.515 -14 8 C-12.68 7.67 -11.36 7.34 -10 7 C-7.5821057 5.0298639 -7.01497436 4.04492309 -6 1 C-4.7934375 1.0309375 -4.7934375 1.0309375 -3.5625 1.0625 C-1.06645115 1.29633621 -1.06645115 1.29633621 0 0 Z " fill="#E7E6E6" transform="translate(625,172)"/>
<path d="M0 0 C0.66 1.32 1.32 2.64 2 4 C2 3.34 2 2.68 2 2 C3.65 2 5.3 2 7 2 C7 3.32 7 4.64 7 6 C-4.55 6 -16.1 6 -28 6 C-27.67 5.34 -27.34 4.68 -27 4 C-18.42 4 -9.84 4 -1 4 C-0.67 2.68 -0.34 1.36 0 0 Z " fill="#191617" transform="translate(777,81)"/>
<path d="M0 0 C3.79450934 0.39253545 5.51015791 2.24338912 8 5 C7.34 5.66 6.68 6.32 6 7 C5.34 6.67 4.68 6.34 4 6 C4 6.66 4 7.32 4 8 C0 8 0 8 -1.75 6.5 C-5.15612073 4.22925285 -7.96017543 4.79800877 -12 5 C-12 4.67 -12 4.34 -12 4 C-11.21753906 3.79503906 -10.43507813 3.59007812 -9.62890625 3.37890625 C-8.61699219 3.10949219 -7.60507812 2.84007812 -6.5625 2.5625 C-5.55316406 2.29566406 -4.54382813 2.02882812 -3.50390625 1.75390625 C-1.08247999 1.24021923 -1.08247999 1.24021923 0 0 Z " fill="#313131" transform="translate(376,195)"/>
<path d="M0 0 C2.375 0.625 2.375 0.625 5 2 C6.3125 5.125 6.3125 5.125 7 8 C4 7 4 7 2 6 C1.67 6.66 1.34 7.32 1 8 C1.33 8.99 1.66 9.98 2 11 C1.01 11.495 1.01 11.495 0 12 C0 11.34 0 10.68 0 10 C-0.99 9.67 -1.98 9.34 -3 9 C-2.25 2.25 -2.25 2.25 0 0 Z " fill="#1F1E1E" transform="translate(349,168)"/>
<path d="M0 0 C0.33 0.66 0.66 1.32 1 2 C1.66 2 2.32 2 3 2 C2.9278125 3.21558594 2.855625 4.43117188 2.78125 5.68359375 C2.68748464 7.26822826 2.59373548 8.85286372 2.5 10.4375 C2.45230469 11.23994141 2.40460938 12.04238281 2.35546875 12.86914062 C2.10759125 16.43224113 2.10759125 16.43224113 2 20 C1.67449498 21.66821323 1.34153937 23.33499557 1 25 C-0.69605909 22.03977401 -1.24880481 19.92531611 -1.23046875 16.5234375 C-1.22853516 15.688125 -1.22660156 14.8528125 -1.22460938 13.9921875 C-1.21236328 13.12851563 -1.20011719 12.26484375 -1.1875 11.375 C-1.18685547 10.50359375 -1.18621094 9.6321875 -1.18554688 8.734375 C-1.14059434 2.28118868 -1.14059434 2.28118868 0 0 Z " fill="#393738" transform="translate(153,55)"/>
<path d="M0 0 C0.66 0.33 1.32 0.66 2 1 C3.99960012 1.039992 6.00047242 1.04346799 8 1 C8 1.66 8 2.32 8 3 C8.66 3 9.32 3 10 3 C10 3.66 10 4.32 10 5 C8.02 5.99 8.02 5.99 6 7 C8.97 7.495 8.97 7.495 12 8 C8.52214506 9.23074775 6.70509742 8.81048697 3.375 7.3125 C2.59898437 6.97863281 1.82296875 6.64476562 1.0234375 6.30078125 C-1.31576301 4.79700949 -1.9992378 3.55570992 -3 1 C-2.01 0.67 -1.02 0.34 0 0 Z " fill="#302D2E" transform="translate(601,181)"/>
<path d="M0 0 C-1.75221595 2.02888162 -2.85744606 2.95248202 -5.4375 3.8125 C-9.10713973 5.51306475 -10.17448965 7.41417609 -12 11 C-12.58651405 13.99610929 -12.8645422 16.95219942 -13 20 C-13.99 19.67 -14.98 19.34 -16 19 C-15.96630571 11.72203425 -14.07372325 7.23304306 -9 2 C-5.71891685 -0.5779939 -3.96969281 -1.61728226 0 0 Z " fill="#535353" transform="translate(931,26)"/>
<path d="M0 0 C4.00754167 1.33584722 5.37476236 3.76893828 8 7 C8.66 7.33 9.32 7.66 10 8 C8.25 11.875 8.25 11.875 6 13 C3.47411298 10.63707344 2.11179163 9.33537489 1 6 C0.67 5.34 0.34 4.68 0 4 C-0.99 3.67 -1.98 3.34 -3 3 C-2.01 2.01 -1.02 1.02 0 0 Z " fill="#2E2B2C" transform="translate(216,85)"/>
<path d="M0 0 C2.59482129 2.59482129 2.69990302 4.39883625 3 8 C1 10 1 10 -1.625 10.125 C-2.40875 10.08375 -3.1925 10.0425 -4 10 C-4 9.34 -4 8.68 -4 8 C-5.32 7.34 -6.64 6.68 -8 6 C-7.34 6 -6.68 6 -6 6 C-5.67 4.68 -5.34 3.36 -5 2 C-4.360625 1.855625 -3.72125 1.71125 -3.0625 1.5625 C-1.02454854 1.18992819 -1.02454854 1.18992819 0 0 Z " fill="#1E1B1C" transform="translate(512,196)"/>
<path d="M0 0 C4.21814817 3.9700218 7.61227103 8.30840284 11 13 C10.67 13.66 10.34 14.32 10 15 C9.01 15.33 8.02 15.66 7 16 C6.67 16.66 6.34 17.32 6 18 C6 15.69 6 13.38 6 11 C5.4225 10.7525 4.845 10.505 4.25 10.25 C1.6997003 8.83316683 -0.01785701 7.12372463 -2 5 C-1.67 4.34 -1.34 3.68 -1 3 C-0.67 2.01 -0.34 1.02 0 0 Z " fill="#2F2D2E" transform="translate(331,84)"/>
<path d="M0 0 C1.875 0.25 1.875 0.25 4 1 C5.25 3.0625 5.25 3.0625 6 5 C3.6875 7.5 3.6875 7.5 1 10 C-2.51716303 10 -3.37121748 9.17554415 -6 7 C-5.01 6.34 -4.02 5.68 -3 5 C-1.94895617 3.36504293 -0.94011682 1.70116376 0 0 Z " fill="#272727" transform="translate(378,165)"/>
<path d="M0 0 C1.32 0.33 2.64 0.66 4 1 C2.87548273 3.9719385 1.77706209 6.33440687 0 9 C-3.48539917 8.35455571 -6.02819057 6.89865603 -9 5 C-5.91190305 3.23537317 -4.76687864 3 -1 3 C-0.67 2.01 -0.34 1.02 0 0 Z " fill="#323031" transform="translate(753,166)"/>
<path d="M0 0 C0.66 0.99 1.32 1.98 2 3 C1.34 3 0.68 3 0 3 C0.309375 4.051875 0.309375 4.051875 0.625 5.125 C1.07850357 8.60186072 0.27540277 10.77398123 -1 14 C-2.98 12.68 -4.96 11.36 -7 10 C-5.33248852 6.05860922 -2.77289351 3.2107188 0 0 Z " fill="#2F2E2E" transform="translate(517,86)"/>
<path d="M0 0 C0.66 0.33 1.32 0.66 2 1 C1.67 1.99 1.34 2.98 1 4 C1.66 4.33 2.32 4.66 3 5 C3 5.99 3 6.98 3 8 C0.69 8.66 -1.62 9.32 -4 10 C-4 9.34 -4 8.68 -4 8 C-5.32 7.34 -6.64 6.68 -8 6 C-5.38485683 3.87961365 -2.80362384 1.86908256 0 0 Z " fill="#2C282A" transform="translate(173,29)"/>
<path d="M0 0 C2.475 0.99 2.475 0.99 5 2 C5 5.3 5 8.6 5 12 C5.66 12.33 6.32 12.66 7 13 C5.29374499 15.78388975 4.52373261 16.85384206 1.3125 17.75 C0.549375 17.8325 -0.21375 17.915 -1 18 C-0.505 17.34 -0.01 16.68 0.5 16 C2.4140815 12.171837 2.51704812 9.20419459 2 5 C1.11785113 2.11785113 1.11785113 2.11785113 0 0 Z " fill="#313031" transform="translate(328,44)"/>
<path d="M0 0 C2 2 2 2 4 5 C6.05003955 6.19232613 6.05003955 6.19232613 8 7 C7.67 9.64 7.34 12.28 7 15 C6.34 14.34 5.68 13.68 5 13 C4.01 13.495 4.01 13.495 3 14 C2.34 13.34 1.68 12.68 1 12 C0.67 12 0.34 12 0 12 C0 8.04 0 4.08 0 0 Z " fill="#1C1B1C" transform="translate(733,83)"/>
<path d="M0 0 C1.5 1.1875 1.5 1.1875 3 3 C3.1875 5.6875 3.1875 5.6875 3 8 C2.34 8 1.68 8 1 8 C0.01 9.485 0.01 9.485 -1 11 C-1.99 11 -2.98 11 -4 11 C-4.66666667 9.66666667 -5.33333333 8.33333333 -6 7 C-5.34 7 -4.68 7 -4 7 C-4 5.35 -4 3.7 -4 2 C-3.01 2.66 -2.02 3.32 -1 4 C-0.67 2.68 -0.34 1.36 0 0 Z M2 1 C4 2 4 2 4 2 Z " fill="#1E1A1B" transform="translate(754,50)"/>
<path d="M0 0 C0.99 0.66 1.98 1.32 3 2 C3.45892595 5.51843231 3.41140736 7.34860502 1.5 10.375 C1.005 10.91125 0.51 11.4475 0 12 C-3.07692308 6.58461538 -3.07692308 6.58461538 -2.6875 3.625 C-2.460625 3.08875 -2.23375 2.5525 -2 2 C-1.34 2 -0.68 2 0 2 C0 1.34 0 0.68 0 0 Z " fill="#232323" transform="translate(626,192)"/>
<path d="M0 0 C0 0.66 0 1.32 0 2 C1.32 2 2.64 2 4 2 C3.34 3.98 2.68 5.96 2 8 C0.68 7.67 -0.64 7.34 -2 7 C-1.67 6.67 -1.34 6.34 -1 6 C-2.98 6 -4.96 6 -7 6 C-5.52079701 3.04159403 -3.49712979 0 0 0 Z " fill="#2C2B2B" transform="translate(435,56)"/>
<path d="M0 0 C0 0.66 0 1.32 0 2 C-0.66 2 -1.32 2 -2 2 C-2 2.66 -2 3.32 -2 4 C-2.99 4 -3.98 4 -5 4 C-7.68767578 6.43750025 -7.68767578 6.43750025 -10 9 C-10 8.34 -10 7.68 -10 7 C-11.32 6.67 -12.64 6.34 -14 6 C-13.67 5.34 -13.34 4.68 -13 4 C-11.02 4.495 -11.02 4.495 -9 5 C-9 4.34 -9 3.68 -9 3 C-6.04341306 0.15291628 -4.05047276 -0.3375394 0 0 Z M-11 9 C-10.34 9.66 -9.68 10.32 -9 11 C-9.66 11 -10.32 11 -11 11 C-11 10.34 -11 9.68 -11 9 Z " fill="#1F1B1C" transform="translate(542,59)"/>
<path d="M0 0 C3.79794988 0.86317043 5.69924252 1.67549851 8.375 4.5625 C10.42340877 8.8956724 10.37624274 12.2969658 10 17 C9.67 17 9.34 17 9 17 C8.84144531 16.32453125 8.68289063 15.6490625 8.51953125 14.953125 C7.05060859 9.33713339 6.0262971 6.30677441 1 3 C0.67 2.01 0.34 1.02 0 0 Z " fill="#333232" transform="translate(620,182)"/>
<path d="M0 0 C0.33 0.66 0.66 1.32 1 2 C0.67 2.99 0.34 3.98 0 5 C0.66 5.33 1.32 5.66 2 6 C-1.11016455 9.28788824 -4.01618925 11.83735988 -8 14 C-6.6744419 10.37723685 -5.05653045 7.36494652 -2.875 4.1875 C-2.33617187 3.39730469 -1.79734375 2.60710938 -1.2421875 1.79296875 C-0.83226562 1.20128906 -0.42234375 0.60960937 0 0 Z " fill="#E2E0E1" transform="translate(461,37)"/>
<path d="M0 0 C1.65 0.33 3.3 0.66 5 1 C4 4 4 4 2 7 C2 7.66 2 8.32 2 9 C1.34 9 0.68 9 0 9 C-0.33 11.31 -0.66 13.62 -1 16 C-1.33 16 -1.66 16 -2 16 C-2.05449838 14.27119018 -2.09301688 12.54187288 -2.125 10.8125 C-2.14820313 9.84957031 -2.17140625 8.88664062 -2.1953125 7.89453125 C-1.9913544 4.87187222 -1.26874632 2.73230015 0 0 Z " fill="#3A3A3A" transform="translate(515,38)"/>
<path d="M0 0 C1.98 0 3.96 0 6 0 C6.38218767 1.65614657 6.71395102 3.32457024 7 5 C6 6 6 6 2.9375 6.0625 C1.4834375 6.0315625 1.4834375 6.0315625 0 6 C0 4.02 0 2.04 0 0 Z " fill="#D5D5D5" transform="translate(930,36)"/>
<path d="M0 0 C1.98 0.495 1.98 0.495 4 1 C4 1.66 4 2.32 4 3 C3.34 3 2.68 3 2 3 C3.13304992 6.39914975 4.12518475 7.05254451 7 9 C6.67 9.33 6.34 9.66 6 10 C6.66 10.66 7.32 11.32 8 12 C2.46153846 11.38461538 2.46153846 11.38461538 0.125 9.4375 C-0.24625 8.963125 -0.6175 8.48875 -1 8 C-0.67 7.34 -0.34 6.68 0 6 C0.039992 4.00039988 0.04346799 1.99952758 0 0 Z " fill="#EDEAEB" transform="translate(602,187)"/>
<path d="M0 0 C1 2 1 2 1 6 C1.66 6.33 2.32 6.66 3 7 C3 7.66 3 8.32 3 9 C2.34 9 1.68 9 1 9 C0.67 9.66 0.34 10.32 0 11 C-0.33 10.34 -0.66 9.68 -1 9 C-2.58272601 10.58272601 -2.34735747 12.38034003 -2.5625 14.5625 C-2.64628906 15.38878906 -2.73007812 16.21507812 -2.81640625 17.06640625 C-2.87699219 17.70449219 -2.93757813 18.34257812 -3 19 C-3.33 19 -3.66 19 -4 19 C-4.50146657 11.42228293 -3.94998798 6.54216759 0 0 Z " fill="#474646" transform="translate(346,171)"/>
<path d="M0 0 C0.99 1.485 0.99 1.485 2 3 C2.99 3 3.98 3 5 3 C5.66 4.32 6.32 5.64 7 7 C6.34 7 5.68 7 5 7 C5 7.99 5 8.98 5 10 C3.35 9.67 1.7 9.34 0 9 C0 6.03 0 3.06 0 0 Z " fill="#1C1B1B" transform="translate(596,172)"/>
<path d="M0 0 C0.99 0 1.98 0 3 0 C3 0.66 3 1.32 3 2 C4.32 1.67 5.64 1.34 7 1 C7 1.66 7 2.32 7 3 C6.01 3.66 5.02 4.32 4 5 C4 5.66 4 6.32 4 7 C3.01 7.33 2.02 7.66 1 8 C0.34 8.66 -0.32 9.32 -1 10 C-1.02689216 8.52093108 -1.04634621 7.04172517 -1.0625 5.5625 C-1.07410156 4.73878906 -1.08570313 3.91507813 -1.09765625 3.06640625 C-1 1 -1 1 0 0 Z " fill="#3D3B3C" transform="translate(725,169)"/>
<path d="M0 0 C0.99 0 1.98 0 3 0 C3.33 0.66 3.66 1.32 4 2 C4.99 2.33 5.98 2.66 7 3 C6.67 4.32 6.34 5.64 6 7 C2.17902761 6.46930939 -0.06171403 5.50298434 -3 3 C-2.34 3 -1.68 3 -1 3 C-0.67 2.01 -0.34 1.02 0 0 Z " fill="#2E2C2C" transform="translate(525,63)"/>
<path d="M0 0 C2.69082872 0.17635452 5.32851446 0.61835921 8 1 C7.67 2.65 7.34 4.3 7 6 C6.05125 5.690625 5.1025 5.38125 4.125 5.0625 C-0.50938425 3.72071729 -5.20552041 3.36657993 -10 3 C-10 2.67 -10 2.34 -10 2 C-9.04287109 1.90912109 -9.04287109 1.90912109 -8.06640625 1.81640625 C-6.82697266 1.69072266 -6.82697266 1.69072266 -5.5625 1.5625 C-4.73878906 1.48128906 -3.91507813 1.40007813 -3.06640625 1.31640625 C-1.01337975 1.21069185 -1.01337975 1.21069185 0 0 Z " fill="#353132" transform="translate(548,35)"/>
<path d="M0 0 C3.41099168 0 6.63088314 0.49145406 10 1 C10 1.33 10 1.66 10 2 C11.65 2.33 13.3 2.66 15 3 C15 3.33 15 3.66 15 4 C8.375 5 8.375 5 5 5 C5 4.34 5 3.68 5 3 C3.35 3.33 1.7 3.66 0 4 C0 2.68 0 1.36 0 0 Z " fill="#2B2829" transform="translate(728,167)"/>
<path d="M0 0 C2.64 0.33 5.28 0.66 8 1 C7.67 2.32 7.34 3.64 7 5 C0.9453125 5.9765625 0.9453125 5.9765625 -1 6 C-1.66 5.34 -2.32 4.68 -3 4 C-2.67 3.34 -2.34 2.68 -2 2 C-1.34 2 -0.68 2 0 2 C0 1.34 0 0.68 0 0 Z " fill="#1C1A1B" transform="translate(361,165)"/>
<path d="M0 0 C0.66 0 1.32 0 2 0 C2 0.99 2 1.98 2 3 C4.97 3.495 4.97 3.495 8 4 C8 4.33 8 4.66 8 5 C5.70858714 5.05384521 3.41681812 5.09272087 1.125 5.125 C-0.78925781 5.15980469 -0.78925781 5.15980469 -2.7421875 5.1953125 C-6 5 -6 5 -8 3 C-6 1 -6 1 -3.4375 0.9375 C-2.2309375 0.9684375 -2.2309375 0.9684375 -1 1 C-0.67 0.67 -0.34 0.34 0 0 Z " fill="#1C1A1B" transform="translate(190,103)"/>
<path d="M0 0 C2.64465038 3.1254959 3.84414715 6.08788267 5 10 C4.01 9.67 3.02 9.34 2 9 C1.67 9.66 1.34 10.32 1 11 C0.01 11.33 -0.98 11.66 -2 12 C-1.855625 11.319375 -1.71125 10.63875 -1.5625 9.9375 C-0.93054091 6.63726918 -0.45686059 3.32855574 0 0 Z " fill="#393536" transform="translate(787,63)"/>
<path d="M0 0 C3.63 0.33 7.26 0.66 11 1 C10.34 1.66 9.68 2.32 9 3 C8.83312552 5.58354218 8.83312552 5.58354218 9 8 C7.02 7.34 5.04 6.68 3 6 C3 4.68 3 3.36 3 2 C2.01 2 1.02 2 0 2 C0 1.34 0 0.68 0 0 Z " fill="#1C1B1B" transform="translate(392,26)"/>
<path d="M0 0 C0.87011719 -0.00128906 1.74023438 -0.00257812 2.63671875 -0.00390625 C3.54292969 -0.00003906 4.44914063 0.00382812 5.3828125 0.0078125 C6.28128906 0.00394531 7.17976562 0.00007813 8.10546875 -0.00390625 C12.36145701 0.00238029 16.36170286 0.03990494 20.5078125 1.1328125 C19.5178125 1.6278125 19.5178125 1.6278125 18.5078125 2.1328125 C18.5078125 2.7928125 18.5078125 3.4528125 18.5078125 4.1328125 C15.5078125 3.1328125 15.5078125 3.1328125 14.5078125 2.1328125 C11.68524759 2.03274242 8.8925806 1.99405652 6.0703125 2.0078125 C5.28076172 2.00394531 4.49121094 2.00007813 3.67773438 1.99609375 C-0.54089495 1.89148781 -0.54089495 1.89148781 -4.4921875 3.1328125 C-5.4821875 2.4728125 -6.4721875 1.8128125 -7.4921875 1.1328125 C-4.67087419 0.19237473 -2.92142816 0.00416921 0 0 Z " fill="#3F3C3D" transform="translate(187.4921875,24.8671875)"/>
<path d="M0 0 C3 1.5 3 1.5 6 3 C6 3.66 6 4.32 6 5 C5.01 5 4.02 5 3 5 C2.67 5.99 2.34 6.98 2 8 C1.01 8.33 0.02 8.66 -1 9 C-1.33 8.01 -1.66 7.02 -2 6 C-1.34 6 -0.68 6 0 6 C0 5.34 0 4.68 0 4 C-0.66 4 -1.32 4 -2 4 C-2 3.01 -2 2.02 -2 1 C-1.34 0.67 -0.68 0.34 0 0 Z " fill="#1B191A" transform="translate(750,186)"/>
<path d="M0 0 C5.28 0 10.56 0 16 0 C14.68 0.33 13.36 0.66 12 1 C12 1.99 12 2.98 12 4 C9.36 3.67 6.72 3.34 4 3 C4 2.34 4 1.68 4 1 C2.68 0.67 1.36 0.34 0 0 Z " fill="#363334" transform="translate(532,25)"/>
<path d="M0 0 C0.66 0 1.32 0 2 0 C2 0.66 2 1.32 2 2 C2.99 2.33 3.98 2.66 5 3 C4.34 4.32 3.68 5.64 3 7 C3.99 7.33 4.98 7.66 6 8 C5.67 8.66 5.34 9.32 5 10 C-0.71621622 7.56756757 -0.71621622 7.56756757 -2 5 C-2 3 -2 3 0 0 Z " fill="#2A2829" transform="translate(556,35)"/>
<path d="M0 0 C0.33 0 0.66 0 1 0 C1.2475 1.010625 1.495 2.02125 1.75 3.0625 C3.26193793 8.34892126 5.74298196 13.38153467 10 17 C7 17 7 17 4.4375 14.75 C-0.07205295 9.66229924 -0.22178571 6.65357144 0 0 Z " fill="#292929" transform="translate(916,40)"/>
<path d="M0 0 C2.33333823 2.12121657 3.9148886 4.01594365 5 7 C4.625 9.25 4.625 9.25 4 11 C3.67 10.34 3.34 9.68 3 9 C2.01 9.495 2.01 9.495 1 10 C-0.625 6.6875 -0.625 6.6875 -2 3 C-1.34 2.01 -0.68 1.02 0 0 Z " fill="#322F30" transform="translate(340,36)"/>
<path d="M0 0 C2.62697064 -0.22137393 5.00893964 -0.28162025 7.625 -0.1875 C8.33140625 -0.17396484 9.0378125 -0.16042969 9.765625 -0.14648438 C11.51074128 -0.1111104 13.25546608 -0.05730221 15 0 C14.67 0.66 14.34 1.32 14 2 C10.7 2 7.4 2 4 2 C4 2.66 4 3.32 4 4 C5.32 4.33 6.64 4.66 8 5 C1.375 5.25 1.375 5.25 -2 3 C-1.34 2.01 -0.68 1.02 0 0 Z " fill="#403D3E" transform="translate(604,198)"/>
<path d="M0 0 C0.99 0 1.98 0 3 0 C4.33333333 2.66666667 5.66666667 5.33333333 7 8 C6.34 8.66 5.68 9.32 5 10 C2 9 2 9 0.8125 7.25 C-0.10819096 4.70039426 -0.14948718 2.69076919 0 0 Z " fill="#2F2D2E" transform="translate(351,189)"/>
<path d="M0 0 C0.33 0.99 0.66 1.98 1 3 C0.03114628 4.68496298 -0.96986723 6.35178756 -2 8 C-2 8.99 -2 9.98 -2 11 C-2.99 11 -3.98 11 -5 11 C-5.66 9.35 -6.32 7.7 -7 6 C-6.21625 5.566875 -5.4325 5.13375 -4.625 4.6875 C-1.78301625 3.10779753 -1.78301625 3.10779753 0 0 Z " fill="#DCDADB" transform="translate(449,185)"/>
<path d="M0 0 C0.99 0.33 1.98 0.66 3 1 C3 1.99 3 2.98 3 4 C2.34 4 1.68 4 1 4 C0.67 4.99 0.34 5.98 0 7 C-1.65 7 -3.3 7 -5 7 C-5 5.35 -5 3.7 -5 2 C-4.67 2.66 -4.34 3.32 -4 4 C-3.34 4 -2.68 4 -2 4 C-1.34 2.68 -0.68 1.36 0 0 Z " fill="#2E2D2E" transform="translate(753,191)"/>
<path d="M0 0 C0.66 0.66 1.32 1.32 2 2 C1.34 4.31 0.68 6.62 0 9 C0.66 9 1.32 9 2 9 C1.67 10.65 1.34 12.3 1 14 C-1 13 -1 13 -2 12 C-2.07226502 10.14712498 -2.0838122 8.29166122 -2.0625 6.4375 C-2.05347656 5.42558594 -2.04445313 4.41367187 -2.03515625 3.37109375 C-2.02355469 2.58863281 -2.01195312 1.80617188 -2 1 C-1.34 0.67 -0.68 0.34 0 0 Z " fill="#1A191A" transform="translate(453,27)"/>
<path d="M0 0 C2.49710982 0.34442894 3.82154665 0.84703999 5.75 2.5 C7.62778619 6.25557239 7.23789619 9.87646606 7 14 C6.67 14 6.34 14 6 14 C6 11.36 6 8.72 6 6 C4.68 5.67 3.36 5.34 2 5 C2 4.34 2 3.68 2 3 C1.01 3.33 0.02 3.66 -1 4 C-0.67 2.68 -0.34 1.36 0 0 Z " fill="#474747" transform="translate(752,185)"/>
<path d="M0 0 C0.33 0.66 0.66 1.32 1 2 C1.66 2 2.32 2 3 2 C3.33 1.34 3.66 0.68 4 0 C4.66 0.66 5.32 1.32 6 2 C5.34 2.66 4.68 3.32 4 4 C3.53837573 6.43252661 3.53837573 6.43252661 3.375 9.125 C3.30023437 10.03507813 3.22546875 10.94515625 3.1484375 11.8828125 C3.09945312 12.58148438 3.05046875 13.28015625 3 14 C2.67 14 2.34 14 2 14 C1.67 11.36 1.34 8.72 1 6 C0.01 6.495 0.01 6.495 -1 7 C-0.67 4.69 -0.34 2.38 0 0 Z " fill="#D8D6D7" transform="translate(593,165)"/>
<path d="M0 0 C1.32 0.66 2.64 1.32 4 2 C4 3.32 4 4.64 4 6 C4.33 6.99 4.66 7.98 5 9 C3.68 9.33 2.36 9.66 1 10 C-1.125 3.375 -1.125 3.375 0 0 Z " fill="#1C1C1C" transform="translate(518,86)"/>
<path d="M0 0 C0 3.63 0 7.26 0 11 C-0.99 11.495 -0.99 11.495 -2 12 C-2 10.35 -2 8.7 -2 7 C-2.66 7 -3.32 7 -4 7 C-4 5.02 -4 3.04 -4 1 C-2 0 -2 0 0 0 Z " fill="#353334" transform="translate(573,78)"/>
<path d="M0 0 C0.99 0.33 1.98 0.66 3 1 C2.01 4.3 1.02 7.6 0 11 C-0.66 11 -1.32 11 -2 11 C-3.14947895 7.44706507 -3.0868937 6.20023331 -1.5625 2.6875 C-1.046875 1.800625 -0.53125 0.91375 0 0 Z " fill="#343031" transform="translate(739,67)"/>
<path d="M0 0 C0.66 0.33 1.32 0.66 2 1 C1.4140625 7.15234375 1.4140625 7.15234375 1 9 C0.01 9.495 0.01 9.495 -1 10 C-1 8.68 -1 7.36 -1 6 C-2.32 7.98 -3.64 9.96 -5 12 C-5.66 11.67 -6.32 11.34 -7 11 C-4.69 7.37 -2.38 3.74 0 0 Z " fill="#302F2F" transform="translate(450,29)"/>
<path d="M0 0 C0.99 0.33 1.98 0.66 3 1 C3.33 1.99 3.66 2.98 4 4 C5.62332967 5.38576923 7.28724465 6.72641268 9 8 C5.34566236 9.21811255 4.39369816 8.56632223 1 7 C0.34 6.67 -0.32 6.34 -1 6 C-0.67 4.02 -0.34 2.04 0 0 Z " fill="#E9E7E8" transform="translate(721,199)"/>
<path d="M0 0 C0.99 0.33 1.98 0.66 3 1 C1.02 1.99 1.02 1.99 -1 3 C-0.67 2.01 -0.34 1.02 0 0 Z M-4 3 C-3.01 3.33 -2.02 3.66 -1 4 C-1.33 5.32 -1.66 6.64 -2 8 C-5.3 7.67 -8.6 7.34 -12 7 C-12 6.67 -12 6.34 -12 6 C-11.236875 5.87625 -10.47375 5.7525 -9.6875 5.625 C-6.79732864 5.11897208 -6.79732864 5.11897208 -4 3 Z " fill="#3A3536" transform="translate(621,164)"/>
<path d="M0 0 C4.29 0 8.58 0 13 0 C13 0.66 13 1.32 13 2 C8.34462607 2.83796731 4.62921525 3.0161692 0 2 C0 1.34 0 0.68 0 0 Z " fill="#201E1F" transform="translate(361,162)"/>
<path d="M0 0 C5.75 2.625 5.75 2.625 8 6 C7.34 6.66 6.68 7.32 6 8 C6 7.34 6 6.68 6 6 C5.401875 5.855625 4.80375 5.71125 4.1875 5.5625 C2.43849596 5.1127561 0.71322977 4.57107659 -1 4 C-0.67 2.68 -0.34 1.36 0 0 Z " fill="#2C2829" transform="translate(331,29)"/>
<path d="M0 0 C2.4375 0.75 2.4375 0.75 5 2 C5.33 3.32 5.66 4.64 6 6 C2.37 6 -1.26 6 -5 6 C-3.68 5.67 -2.36 5.34 -1 5 C0.2236068 2.9254644 0.2236068 2.9254644 0 0 Z " fill="#323132" transform="translate(446,202)"/>
<path d="M0 0 C1.32 0.33 2.64 0.66 4 1 C4.66 0.67 5.32 0.34 6 0 C6.66 2.31 7.32 4.62 8 7 C7.01 7.33 6.02 7.66 5 8 C2.525 4.04 2.525 4.04 0 0 Z " fill="#2A2829" transform="translate(435,199)"/>
<path d="M0 0 C2.475 0.495 2.475 0.495 5 1 C5 2.32 5 3.64 5 5 C5.99 5.33 6.98 5.66 8 6 C7.34 6.66 6.68 7.32 6 8 C4.02 7.01 2.04 6.02 0 5 C0 3.35 0 1.7 0 0 Z " fill="#EBE9EA" transform="translate(728,190)"/>
<path d="M0 0 C0.7734375 0.61875 0.7734375 0.61875 1.5625 1.25 C-0.4175 1.91 -2.3975 2.57 -4.4375 3.25 C-3.4475 4.735 -3.4475 4.735 -2.4375 6.25 C-4.25 6.875 -4.25 6.875 -6.4375 7.25 C-7.4275 6.59 -8.4175 5.93 -9.4375 5.25 C-9.4375 4.59 -9.4375 3.93 -9.4375 3.25 C-3.0375 -0.93461538 -3.0375 -0.93461538 0 0 Z M-8.4375 7.25 C-6.4375 8.25 -6.4375 8.25 -6.4375 8.25 Z " fill="#302D2E" transform="translate(213.4375,89.75)"/>
<path d="M0 0 C0.99 0.66 1.98 1.32 3 2 C2.67 2.66 2.34 3.32 2 4 C3.65 4 5.3 4 7 4 C7.33 4.66 7.66 5.32 8 6 C6.54257537 6.08096803 5.08387193 6.13917774 3.625 6.1875 C2.81289063 6.22230469 2.00078125 6.25710937 1.1640625 6.29296875 C0.44992187 6.19628906 -0.26421875 6.09960938 -1 6 C-1.66 5.01 -2.32 4.02 -3 3 C-2.01 2.01 -1.02 1.02 0 0 Z " fill="#E7E5E6" transform="translate(497,193)"/>
<path d="M0 0 C2.97 0.33 5.94 0.66 9 1 C6.15314251 3.31966166 3.5236125 4.91581154 0 6 C-0.99 5.67 -1.98 5.34 -3 5 C-2.505 4.54625 -2.01 4.0925 -1.5 3.625 C0.22609337 2.12364481 0.22609337 2.12364481 0 0 Z " fill="#1C1B1C" transform="translate(608,162)"/>
<path d="M0 0 C0.33 0.66 0.66 1.32 1 2 C1.66 2.33 2.32 2.66 3 3 C2.34 3 1.68 3 1 3 C1 3.66 1 4.32 1 5 C2.32 5.66 3.64 6.32 5 7 C4.67 7.99 4.34 8.98 4 10 C3.67 9.34 3.34 8.68 3 8 C1.35 8.33 -0.3 8.66 -2 9 C-1.34 6.03 -0.68 3.06 0 0 Z " fill="#1C1719" transform="translate(217,89)"/>
<path d="M0 0 C1.093125 0.226875 2.18625 0.45375 3.3125 0.6875 C2.3225 1.1825 2.3225 1.1825 1.3125 1.6875 C1.3125 2.3475 1.3125 3.0075 1.3125 3.6875 C-1.5625 4.3125 -1.5625 4.3125 -4.6875 4.6875 C-5.3475 4.0275 -6.0075 3.3675 -6.6875 2.6875 C-4.58035839 -0.41123767 -3.86755884 -0.32775922 0 0 Z " fill="#2D2B2C" transform="translate(552.6875,61.3125)"/>
<path d="M0 0 C0.99 0 1.98 0 3 0 C3 0.66 3 1.32 3 2 C4.65 2.33 6.3 2.66 8 3 C8 3.33 8 3.66 8 4 C2.375 6 2.375 6 -1 6 C-0.67 4.02 -0.34 2.04 0 0 Z " fill="#292728" transform="translate(732,176)"/>
<path d="M0 0 C0.99 1.32 1.98 2.64 3 4 C3.66 4 4.32 4 5 4 C5.33 5.65 5.66 7.3 6 9 C5.67 8.34 5.34 7.68 5 7 C4.34 7 3.68 7 3 7 C2.34 8.32 1.68 9.64 1 11 C0.67 11 0.34 11 0 11 C0 7.37 0 3.74 0 0 Z " fill="#1A191A" transform="translate(514,44)"/>
<path d="M0 0 C0.33 0.66 0.66 1.32 1 2 C0.34 2 -0.32 2 -1 2 C-0.67 3.32 -0.34 4.64 0 6 C-5.28 5.34 -10.56 4.68 -16 4 C-16 3.67 -16 3.34 -16 3 C-15.09636719 2.95101562 -14.19273437 2.90203125 -13.26171875 2.8515625 C-12.08222656 2.77679688 -10.90273438 2.70203125 -9.6875 2.625 C-7.92986328 2.52058594 -7.92986328 2.52058594 -6.13671875 2.4140625 C-2.84300113 2.21386253 -2.84300113 2.21386253 0 0 Z " fill="#555354" transform="translate(555,92)"/>
<path d="M0 0 C0.99 0 1.98 0 3 0 C3.33 1.98 3.66 3.96 4 6 C3.01 6.66 2.02 7.32 1 8 C-2 4.25 -2 4.25 -2 2 C-1.34 2 -0.68 2 0 2 C0 1.34 0 0.68 0 0 Z " fill="#292728" transform="translate(420,66)"/>
<path d="M0 0 C1.65 0.99 3.3 1.98 5 3 C3.02 3.99 3.02 3.99 1 5 C1.33 5.66 1.66 6.32 2 7 C0.35 6.67 -1.3 6.34 -3 6 C-2.42655063 3.13275314 -2.1385485 2.1385485 0 0 Z " fill="#2D2D2D" transform="translate(220,33)"/>
<path d="M0 0 C1.93742341 -0.02703381 3.87495479 -0.04641125 5.8125 -0.0625 C6.89144531 -0.07410156 7.97039062 -0.08570313 9.08203125 -0.09765625 C12 -0 12 -0 15 1 C15 1.66 15 2.32 15 3 C4.44191344 2.03644647 4.44191344 2.03644647 0 1 C0 0.67 0 0.34 0 0 Z " fill="#328589" transform="translate(451,0)"/>
<path d="M0 0 C3.39914975 1.13304992 4.05254451 2.12518475 6 5 C5.67 5.66 5.34 6.32 5 7 C4.01 7.33 3.02 7.66 2 8 C1.67 8.66 1.34 9.32 1 10 C1.04125 8.88625 1.0825 7.7725 1.125 6.625 C1.41121859 2.95633975 1.41121859 2.95633975 -1 1 C-0.67 0.67 -0.34 0.34 0 0 Z " fill="#353535" transform="translate(336,92)"/>
<path d="M0 0 C2.64465038 3.1254959 3.84414715 6.08788267 5 10 C3.68 9.67 2.36 9.34 1 9 C1.33 8.01 1.66 7.02 2 6 C1.01 6 0.02 6 -1 6 C-0.67 4.02 -0.34 2.04 0 0 Z " fill="#333132" transform="translate(778,43)"/>
<path d="M0 0 C3.63 0 7.26 0 11 0 C10.67 0.99 10.34 1.98 10 3 C7.69 3 5.38 3 3 3 C3 2.34 3 1.68 3 1 C2.01 0.67 1.02 0.34 0 0 Z " fill="#1A1A1A" transform="translate(927,33)"/>
<path d="M0 0 C0.144375 0.61875 0.28875 1.2375 0.4375 1.875 C0.93152225 4.03258322 0.93152225 4.03258322 2 6 C1.34 6 0.68 6 0 6 C0 6.99 0 7.98 0 9 C-2.375 10.75 -2.375 10.75 -5 12 C-5.66 11.67 -6.32 11.34 -7 11 C-6.01 10.67 -5.02 10.34 -4 10 C-2.06031732 6.91932751 -1.09860734 3.45276592 0 0 Z " fill="#D1CFD0" transform="translate(520,194)"/>
<path d="M0 0 C0.99 0.33 1.98 0.66 3 1 C3.33 1.99 3.66 2.98 4 4 C3.01 4.99 2.02 5.98 1 7 C-0.5 5.625 -0.5 5.625 -2 4 C-2 3.34 -2 2.68 -2 2 C-1.34 2 -0.68 2 0 2 C0 1.34 0 0.68 0 0 Z " fill="#F4F2F3" transform="translate(724,162)"/>
<path d="M0 0 C0.33 0.66 0.66 1.32 1 2 C2.98 2 4.96 2 7 2 C7 2.99 7 3.98 7 5 C5.25 5.6875 5.25 5.6875 3 6 C0.75 4.5625 0.75 4.5625 -1 3 C-0.67 2.01 -0.34 1.02 0 0 Z " fill="#EDEDED" transform="translate(922,50)"/>
<path d="M0 0 C-2.36768996 3.94614993 -4.64092474 4.79429833 -9 6 C-9.99 6.495 -9.99 6.495 -11 7 C-8.76456876 1.59770784 -5.88000164 -0.49000014 0 0 Z " fill="#E1DFE0" transform="translate(539,38)"/>
<path d="M0 0 C1.32 0.66 2.64 1.32 4 2 C3.67 2.66 3.34 3.32 3 4 C2.34 3.67 1.68 3.34 1 3 C0.67 3.99 0.34 4.98 0 6 C-2.0625 6.6875 -2.0625 6.6875 -4 7 C-4 4 -4 4 -2 1.8125 C-1.34 1.214375 -0.68 0.61625 0 0 Z " fill="#2F2D2D" transform="translate(523,29)"/>
<path d="M0 0 C0.9590625 0.4640625 0.9590625 0.4640625 1.9375 0.9375 C5.92049104 2.31935403 9.81650849 2.6536543 14 3 C14 3.33 14 3.66 14 4 C12.23086176 4.22226864 10.45955629 4.42733873 8.6875 4.625 C7.70136719 4.74101562 6.71523438 4.85703125 5.69921875 4.9765625 C3 5 3 5 0 3 C0 2.01 0 1.02 0 0 Z " fill="#494748" transform="translate(731,196)"/>
<path d="M0 0 C2 1.3125 2 1.3125 4 3 C4 3.99 4 4.98 4 6 C4.66 6.33 5.32 6.66 6 7 C4.02 7.33 2.04 7.66 0 8 C-0.38063221 5.6739143 -0.71269945 3.33944736 -1 1 C-0.67 0.67 -0.34 0.34 0 0 Z " fill="#2D2B2C" transform="translate(597,168)"/>
<path d="M0 0 C1.99097846 2.98646769 2.94124926 5.59687262 4 9 C2.35 9.33 0.7 9.66 -1 10 C-1.33 9.01 -1.66 8.02 -2 7 C-1.34 6.01 -0.68 5.02 0 4 C0 2.68 0 1.36 0 0 Z " fill="#DDDDDD" transform="translate(154,81)"/>
<path d="M0 0 C3.53372712 1.96318174 6.24479785 4.04070881 9 7 C8.34 7.66 7.68 8.32 7 9 C7 8.01 7 7.02 7 6 C5.35 6.33 3.7 6.66 2 7 C1.34 4.69 0.68 2.38 0 0 Z " fill="#302E2F" transform="translate(561,65)"/>
<path d="M0 0 C2.52588702 2.36292656 3.88820837 3.66462511 5 7 C2 7 2 7 -0.1875 5 C-0.785625 4.34 -1.38375 3.68 -2 3 C-1.34 2.01 -0.68 1.02 0 0 Z " fill="#2E2A2B" transform="translate(161,39)"/>
<path d="M0 0 C0.99 0.33 1.98 0.66 3 1 C3.33 1.99 3.66 2.98 4 4 C3.01 4.495 3.01 4.495 2 5 C1.67 5.99 1.34 6.98 1 8 C0.34 8 -0.32 8 -1 8 C-1.33 5.69 -1.66 3.38 -2 1 C-1.34 0.67 -0.68 0.34 0 0 Z " fill="#1C1A1A" transform="translate(769,29)"/>
<path d="M0 0 C1.32 0 2.64 0 4 0 C4 1.98 4 3.96 4 6 C3.01 6 2.02 6 1 6 C1 6.66 1 7.32 1 8 C0.01 7.67 -0.98 7.34 -2 7 C-1.484375 6.21625 -0.96875 5.4325 -0.4375 4.625 C0.036875 3.75875 0.51125 2.8925 1 2 C0.67 1.34 0.34 0.68 0 0 Z " fill="#1B191A" transform="translate(741,181)"/>
<path d="M0 0 C1.65 0 3.3 0 5 0 C5.66 1.65 6.32 3.3 7 5 C4.625 4.75 4.625 4.75 2 4 C0.6875 1.9375 0.6875 1.9375 0 0 Z " fill="#262626" transform="translate(934,46)"/>
<path d="M0 0 C-0.99 0.33 -1.98 0.66 -3 1 C-3.33 1.66 -3.66 2.32 -4 3 C-7.3 3 -10.6 3 -14 3 C-14 2.67 -14 2.34 -14 2 C-12.42085985 1.46658816 -10.83645613 0.94874237 -9.25 0.4375 C-8.36828125 0.14746094 -7.4865625 -0.14257812 -6.578125 -0.44140625 C-3.92165684 -1.01697435 -2.52968894 -0.89248371 0 0 Z " fill="#E6FDFD" transform="translate(694,1)"/>
<path d="M0 0 C1.98 0.99 3.96 1.98 6 3 C6 3.66 6 4.32 6 5 C5.401875 4.835 4.80375 4.67 4.1875 4.5 C1.01557539 3.77498866 -0.90083506 3.96694502 -4 5 C-3 2 -3 2 0 0 Z " fill="#252324" transform="translate(488,196)"/>
<path d="M0 0 C2.31 0.33 4.62 0.66 7 1 C7 2.98 7 4.96 7 7 C5 7 5 7 3.375 5.625 C2 4 2 4 2 2 C1.34 1.34 0.68 0.68 0 0 Z " fill="#1B1A1B" transform="translate(557,38)"/>
<path d="M0 0 C0.66 0 1.32 0 2 0 C2 0.66 2 1.32 2 2 C2.99 2 3.98 2 5 2 C5.33 3.32 5.66 4.64 6 6 C6.66 5.67 7.32 5.34 8 5 C8 5.99 8 6.98 8 8 C7.01 8.33 6.02 8.66 5 9 C3.35 6.03 1.7 3.06 0 0 Z " fill="#323232" transform="translate(390,26)"/>
<path d="M0 0 C1.875 0.125 1.875 0.125 4 1 C5.75 3.5625 5.75 3.5625 7 6 C6.01 6.33 5.02 6.66 4 7 C2.35 5.02 0.7 3.04 -1 1 C-0.67 0.67 -0.34 0.34 0 0 Z " fill="#E5E5E5" transform="translate(943,26)"/>
<path d="M0 0 C0.99 0.33 1.98 0.66 3 1 C3.33 1.99 3.66 2.98 4 4 C3.01 4.33 2.02 4.66 1 5 C0.26676204 7.01508358 0.26676204 7.01508358 0 9 C-0.66 8.67 -1.32 8.34 -2 8 C-1.34 5.36 -0.68 2.72 0 0 Z " fill="#1E1C1D" transform="translate(728,195)"/>
<path d="M0 0 C0.33 0 0.66 0 1 0 C1.08131463 1.43655854 1.13933559 2.8744483 1.1875 4.3125 C1.22230469 5.11300781 1.25710938 5.91351563 1.29296875 6.73828125 C0.93801608 9.47851584 0.10633718 10.29171079 -2 12 C-2 11.34 -2 10.68 -2 10 C-2.66 9.67 -3.32 9.34 -4 9 C-3.34 9 -2.68 9 -2 9 C-1.34 6.03 -0.68 3.06 0 0 Z " fill="#2E2C2D" transform="translate(511,188)"/>
<path d="M0 0 C2.475 0.495 2.475 0.495 5 1 C4.67 2.32 4.34 3.64 4 5 C3.01 5 2.02 5 1 5 C0.67 5.66 0.34 6.32 0 7 C0 4.69 0 2.38 0 0 Z " fill="#1F1D1E" transform="translate(440,186)"/>
<path d="M0 0 C0.99 0 1.98 0 3 0 C3.33 0.99 3.66 1.98 4 3 C3.01 3.99 2.02 4.98 1 6 C0.01 5.34 -0.98 4.68 -2 4 C-1.34 2.68 -0.68 1.36 0 0 Z " fill="#F9F8F9" transform="translate(615,173)"/>
<path d="M0 0 C0 0.66 0 1.32 0 2 C0.66 2.33 1.32 2.66 2 3 C0.35 3.66 -1.3 4.32 -3 5 C-3.66 4.34 -4.32 3.68 -5 3 C-5 2.34 -5 1.68 -5 1 C-3 0 -3 0 0 0 Z " fill="#2A2829" transform="translate(608,162)"/>
<path d="M0 0 C1.98 0.495 1.98 0.495 4 1 C2.125 5.75 2.125 5.75 1 8 C0.34 8 -0.32 8 -1 8 C-0.67 5.36 -0.34 2.72 0 0 Z " fill="#1D1C1C" transform="translate(523,58)"/>
<path d="M0 0 C1.98 0.66 3.96 1.32 6 2 C4.35 3.32 2.7 4.64 1 6 C0.01 5.34 -0.98 4.68 -2 4 C-2 2 -2 2 0 0 Z " fill="#332F30" transform="translate(534,56)"/>
<path d="M0 0 C0.33 0.66 0.66 1.32 1 2 C1.99 1.67 2.98 1.34 4 1 C3.34 3.97 2.68 6.94 2 10 C1.67 10 1.34 10 1 10 C1 8.35 1 6.7 1 5 C0.34 5 -0.32 5 -1 5 C-0.67 3.35 -0.34 1.7 0 0 Z " fill="#191718" transform="translate(155,52)"/>
<path d="M0 0 C1.32 0.66 2.64 1.32 4 2 C4.33 1.34 4.66 0.68 5 0 C5.33 1.32 5.66 2.64 6 4 C3.6875 4.6875 3.6875 4.6875 1 5 C-0.8125 3.5625 -0.8125 3.5625 -2 2 C-1.34 2 -0.68 2 0 2 C0 1.34 0 0.68 0 0 Z " fill="#1D1A1B" transform="translate(175,37)"/>
<path d="M0 0 C1.98 0 3.96 0 6 0 C5.01 0.495 5.01 0.495 4 1 C4 1.66 4 2.32 4 3 C5.32 3.33 6.64 3.66 8 4 C6.02 4.33 4.04 4.66 2 5 C2 4.01 2 3.02 2 2 C1.34 1.34 0.68 0.68 0 0 Z " fill="#363435" transform="translate(504,203)"/>
<path d="M0 0 C2.10633718 1.70828921 2.93801608 2.52148416 3.29296875 5.26171875 C3.25816406 6.06222656 3.22335937 6.86273438 3.1875 7.6875 C3.16042969 8.49574219 3.13335938 9.30398437 3.10546875 10.13671875 C3.07066406 10.75160156 3.03585937 11.36648437 3 12 C2.67 12 2.34 12 2 12 C0.86235649 7.73383684 0 4.43513689 0 0 Z " fill="#555555" transform="translate(627,187)"/>
<path d="M0 0 C0.66 0.33 1.32 0.66 2 1 C1.01 1.33 0.02 1.66 -1 2 C-1.33 2.99 -1.66 3.98 -2 5 C-4.31 4.67 -6.62 4.34 -9 4 C-6.06195683 2.47657021 -3.13439441 1.07229283 0 0 Z " fill="#DCDCDC" transform="translate(561,104)"/>
<path d="M0 0 C0.66 0 1.32 0 2 0 C1.01 2.97 0.02 5.94 -1 9 C-1.66 8.01 -2.32 7.02 -3 6 C-1.65517241 1.65517241 -1.65517241 1.65517241 0 0 Z " fill="#2A2A2A" transform="translate(742,89)"/>
<path d="M0 0 C0.66 0 1.32 0 2 0 C2 0.99 2 1.98 2 3 C2.66 2.34 3.32 1.68 4 1 C3.67 2.32 3.34 3.64 3 5 C1.02 5.33 -0.96 5.66 -3 6 C-2.01 4.02 -1.02 2.04 0 0 Z " fill="#1E1B1C" transform="translate(747,69)"/>
<path d="M0 0 C1.875 0.25 1.875 0.25 4 1 C5.25 3.0625 5.25 3.0625 6 5 C5.01 5.33 4.02 5.66 3 6 C2.01 4.02 1.02 2.04 0 0 Z " fill="#323433" transform="translate(378,165)"/>
<path d="M0 0 C2 3 2 3 1.625 5.6875 C1.41875 6.450625 1.2125 7.21375 1 8 C-0.32 7.67 -1.64 7.34 -3 7 C-2.01 4.69 -1.02 2.38 0 0 Z " fill="#2D2D2D" transform="translate(725,99)"/>
<path d="M0 0 C0.99 1.32 1.98 2.64 3 4 C1.74458443 6.51083114 0.49936512 6.87125446 -2 8 C-2.125 5.125 -2.125 5.125 -2 2 C-1.34 1.34 -0.68 0.68 0 0 Z " fill="#2E2C2D" transform="translate(797,86)"/>
<path d="M0 0 C2 3 2 3 1.625 5.1875 C1.41875 5.785625 1.2125 6.38375 1 7 C-0.32 7.33 -1.64 7.66 -3 8 C-2.690625 7.236875 -2.38125 6.47375 -2.0625 5.6875 C-1.32106407 3.81210323 -0.63771783 1.91315348 0 0 Z " fill="#333132" transform="translate(732,83)"/>
<path d="M0 0 C1.65 0 3.3 0 5 0 C5 1.32 5 2.64 5 4 C4.01 3.67 3.02 3.34 2 3 C1.67 3.99 1.34 4.98 1 6 C0 3 0 3 0 0 Z " fill="#272526" transform="translate(433,69)"/>
<path d="M0 0 C0.66 0.66 1.32 1.32 2 2 C0.02 4.97 0.02 4.97 -2 8 C-2.5534764 5.92446352 -3 4.15634036 -3 2 C-2.01 1.34 -1.02 0.68 0 0 Z " fill="#2A2829" transform="translate(442,62)"/>
<path d="M0 0 C2 3 2 3 1.75 5.5625 C1 8 1 8 -1 10 C-1.33 8.02 -1.66 6.04 -2 4 C-1.34 4 -0.68 4 0 4 C0 2.68 0 1.36 0 0 Z " fill="#2B2A2B" transform="translate(170,44)"/>
<path d="M0 0 C1.32 0.66 2.64 1.32 4 2 C3.67 2.33 3.34 2.66 3 3 C3.66 3.66 4.32 4.32 5 5 C2.03 4.505 2.03 4.505 -1 4 C-0.67 2.68 -0.34 1.36 0 0 Z " fill="#E2DFE0" transform="translate(605,194)"/>
<path d="M0 0 C0 0.66 0 1.32 0 2 C0.66 2 1.32 2 2 2 C2 2.66 2 3.32 2 4 C1.01 4.33 0.02 4.66 -1 5 C-3.1875 3.5625 -3.1875 3.5625 -5 2 C-2 0 -2 0 0 0 Z " fill="#323031" transform="translate(748,188)"/>
<path d="M0 0 C2 2 2 2 2 6 C1.34 6 0.68 6 0 6 C0 5.34 0 4.68 0 4 C-0.66 4 -1.32 4 -2 4 C-2.33 4.66 -2.66 5.32 -3 6 C-3.33 5.01 -3.66 4.02 -4 3 C-2.68 2.67 -1.36 2.34 0 2 C0 1.34 0 0.68 0 0 Z " fill="#191718" transform="translate(732,170)"/>
<path d="M0 0 C0.99 0.99 1.98 1.98 3 3 C2.01 3.33 1.02 3.66 0 4 C0.33 4.99 0.66 5.98 1 7 C0.34 7 -0.32 7 -1 7 C-1.625 4.625 -1.625 4.625 -2 2 C-1.34 1.34 -0.68 0.68 0 0 Z " fill="#D2D0D1" transform="translate(607,171)"/>
<path d="M0 0 C1.65 0.33 3.3 0.66 5 1 C3.35 2.32 1.7 3.64 0 5 C-0.66 4.67 -1.32 4.34 -2 4 C-1.34 2.68 -0.68 1.36 0 0 Z " fill="#282526" transform="translate(748,163)"/>
<path d="M0 0 C0.99 0.33 1.98 0.66 3 1 C3.6875 3.0625 3.6875 3.0625 4 5 C2.35 5 0.7 5 -1 5 C-0.67 3.35 -0.34 1.7 0 0 Z " fill="#282828" transform="translate(343,102)"/>
<path d="M0 0 C0.33 0 0.66 0 1 0 C1.33 2.64 1.66 5.28 2 8 C1.01 8.495 1.01 8.495 0 9 C0 8.34 0 7.68 0 7 C-0.66 7 -1.32 7 -2 7 C-2 6.01 -2 5.02 -2 4 C-1.34 4 -0.68 4 0 4 C0 2.68 0 1.36 0 0 Z " fill="#2A2829" transform="translate(570,85)"/>
<path d="M0 0 C0.99 0.33 1.98 0.66 3 1 C3 1.66 3 2.32 3 3 C3.99 2.67 4.98 2.34 6 2 C6 3.32 6 4.64 6 6 C5.01 6 4.02 6 3 6 C2.67 4.68 2.34 3.36 2 2 C1.34 2 0.68 2 0 2 C0 1.34 0 0.68 0 0 Z " fill="#292929" transform="translate(336,60)"/>
<path d="M0 0 C1.4606285 2.64738916 2 3.89448334 2 7 C1.01 7 0.02 7 -1 7 C-1.33 5.68 -1.66 4.36 -2 3 C-1.34 3 -0.68 3 0 3 C0 2.01 0 1.02 0 0 Z " fill="#1F1F1F" transform="translate(408,46)"/>
<path d="M0 0 C1.99097846 2.98646769 2.94124926 5.59687262 4 9 C3.01 9 2.02 9 1 9 C-1.125 2.25 -1.125 2.25 0 0 Z " fill="#424041" transform="translate(772,28)"/>
<path d="M0 0 C3.96 1.98 3.96 1.98 8 4 C5 5 5 5 1 5 C0.34 3.68 -0.32 2.36 -1 1 C-0.67 0.67 -0.34 0.34 0 0 Z " fill="#EBE9EA" transform="translate(485,203)"/>
<path d="M0 0 C1.32 0.66 2.64 1.32 4 2 C3.67 2.99 3.34 3.98 3 5 C0.525 4.01 0.525 4.01 -2 3 C-1.34 2.01 -0.68 1.02 0 0 Z " fill="#2E2C2D" transform="translate(352,165)"/>
<path d="M0 0 C3.37503669 1.1858237 5.64722731 2.27573689 8 5 C5.69 4.67 3.38 4.34 1 4 C0.67 2.68 0.34 1.36 0 0 Z " fill="#E5E4E5" transform="translate(509,96)"/>
<path d="M0 0 C2.64 0 5.28 0 8 0 C7.67 0.99 7.34 1.98 7 3 C4.69 2.34 2.38 1.68 0 1 C0 0.67 0 0.34 0 0 Z " fill="#1E191B" transform="translate(537,96)"/>
<path d="M0 0 C1.32 0.99 2.64 1.98 4 3 C3.01 3.99 2.02 4.98 1 6 C-1 5 -1 5 -2 2 C-1.34 2 -0.68 2 0 2 C0 1.34 0 0.68 0 0 Z " fill="#2B2B2B" transform="translate(522,88)"/>
<path d="M0 0 C0.99 0.99 1.98 1.98 3 3 C2.34 3 1.68 3 1 3 C0.67 3.66 0.34 4.32 0 5 C-0.99 5 -1.98 5 -3 5 C-3 4.01 -3 3.02 -3 2 C-2.01 1.34 -1.02 0.68 0 0 Z " fill="#2A2829" transform="translate(172,85)"/>
<path d="M0 0 C0.33 0.99 0.66 1.98 1 3 C1.66 3 2.32 3 3 3 C3.33 4.32 3.66 5.64 4 7 C3.01 7.495 3.01 7.495 2 8 C0.02 4.535 0.02 4.535 -2 1 C-1.34 0.67 -0.68 0.34 0 0 Z " fill="#333233" transform="translate(414,59)"/>
<path d="M0 0 C-0.66 2.31 -1.32 4.62 -2 7 C-2.66 6.67 -3.32 6.34 -4 6 C-4 4.35 -4 2.7 -4 1 C-2 0 -2 0 0 0 Z " fill="#353233" transform="translate(760,51)"/>
<path d="M0 0 C1.32 0.33 2.64 0.66 4 1 C4.625 2.875 4.625 2.875 5 5 C4.34 5.66 3.68 6.32 3 7 C0 2.25 0 2.25 0 0 Z " fill="#2C2A2B" transform="translate(400,40)"/>
<path d="M0 0 C0.66 0.33 1.32 0.66 2 1 C0.54744301 4.82946843 -1.42895561 6.12050295 -5 8 C-3.8141763 4.62496331 -2.72426311 2.35277269 0 0 Z " fill="#D5D5D5" transform="translate(924,29)"/>
</svg>
