<?xml version="1.0" encoding="UTF-8"?>
<svg version="1.1" xmlns="http://www.w3.org/2000/svg" width="900" height="214">
<path d="M0 0 C297 0 594 0 900 0 C900 70.62 900 141.24 900 214 C603 214 306 214 0 214 C0 143.38 0 72.76 0 0 Z " fill="#FEFEFE" transform="translate(0,0)"/>
<path d="M0 0 C16.5825 -0.1546875 16.5825 -0.1546875 33.5 -0.3125 C36.97724609 -0.35802002 40.45449219 -0.40354004 44.03710938 -0.45043945 C48.31738281 -0.47302246 48.31738281 -0.47302246 50.32775879 -0.47721863 C51.7174889 -0.48484468 53.10718806 -0.5023222 54.4967041 -0.52787781 C63.88481717 -0.69175432 70.52233115 -0.25343192 77.50476074 6.44316101 C83.54551317 13.03101187 83.30790522 20.21656441 83.30078125 28.64453125 C83.30506638 29.76889084 83.3093515 30.89325043 83.31376648 32.05168152 C83.31949871 34.42613045 83.32001822 36.80059695 83.31567383 39.17504883 C83.31252004 42.78953367 83.33596662 46.40319473 83.36132812 50.01757812 C83.36360198 52.33072814 83.36430421 54.64388034 83.36328125 56.95703125 C83.372491 58.02919388 83.38170074 59.10135651 83.39118958 60.20600891 C83.34691058 67.46429265 82.80256462 74.48799957 78.1328125 80.33984375 C77.47023438 80.86707031 76.80765625 81.39429687 76.125 81.9375 C75.46757813 82.48277344 74.81015625 83.02804688 74.1328125 83.58984375 C69.54958944 86.62014324 65.74258907 87.24761804 60.28198242 87.22705078 C59.61726331 87.22729185 58.95254419 87.22753292 58.26768208 87.2277813 C56.13013831 87.2262964 53.99294958 87.21110208 51.85546875 87.1953125 C49.88737244 87.19229126 49.88737244 87.19229126 47.8795166 87.18920898 C42.98214213 87.17875145 38.08481752 87.15082889 33.1875 87.125 C16.7596875 87.063125 16.7596875 87.063125 0 87 C0 58.29 0 29.58 0 0 Z " fill="#EA3125" transform="translate(698,45)"/>
<path d="M0 0 C8.58 0 17.16 0 26 0 C26 29.37 26 58.74 26 89 C13.79 89 1.58 89 -11 89 C-13.75723939 83.62915416 -16.51415212 78.2581431 -19.27026367 72.88671875 C-20.20594941 71.06338076 -21.14181813 69.24013666 -22.07788086 67.41699219 C-23.43132078 64.78085214 -24.78407961 62.14436351 -26.13671875 59.5078125 C-26.54838791 58.70634796 -26.96005707 57.90488342 -27.38420105 57.07913208 C-30.29454793 51.40409303 -33.1473855 45.70522901 -36 40 C-36.33 56.17 -36.66 72.34 -37 89 C-45.58 89 -54.16 89 -63 89 C-63 59.96 -63 30.92 -63 1 C-50.79 1 -38.58 1 -26 1 C-23.36 6.28 -20.72 11.56 -18 17 C-15.57208837 21.71375111 -13.13798409 26.42308322 -10.6875 31.125 C-9.48267736 33.43989834 -8.27823659 35.75499547 -7.07421875 38.0703125 C-6.55432373 39.06820801 -6.03442871 40.06610352 -5.4987793 41.09423828 C-3.9741791 44.05006032 -2.48736611 47.02526779 -1 50 C-0.67 33.5 -0.34 17 0 0 Z " fill="#EB3327" transform="translate(412,44)"/>
<path d="M0 0 C11.240625 -0.0825 22.48125 -0.165 34.0625 -0.25 C37.60105713 -0.28641602 41.13961426 -0.32283203 44.78540039 -0.36035156 C49.13366699 -0.37841797 49.13366699 -0.37841797 51.17454529 -0.3817749 C52.58845567 -0.38788455 54.00234627 -0.401885 55.41612244 -0.42230225 C70.98806502 -0.6357857 70.98806502 -0.6357857 77.92578125 5.78125 C78.38339844 6.3484375 78.84101562 6.915625 79.3125 7.5 C79.78300781 8.0671875 80.25351562 8.634375 80.73828125 9.21875 C85.24427199 15.58014869 84.73150333 22.50209087 84 30 C81.93964464 37.13765964 78.44480083 41.4195551 72 45 C71.01 45 70.02 45 69 45 C69 45.66 69 46.32 69 47 C69.680625 47.04125 70.36125 47.0825 71.0625 47.125 C76.22892861 48.66393618 79.78534944 52.29948922 82.875 56.625 C84.83870491 60.77059926 85.12099738 64.28451318 85.09765625 68.859375 C85.09515869 69.86452148 85.09266113 70.86966797 85.09008789 71.90527344 C85.08098389 73.1740332 85.07187988 74.44279297 85.0625 75.75 C85.041875 79.7925 85.02125 83.835 85 88 C74.77 88 64.54 88 54 88 C54 78.43 54 68.86 54 59 C45.75 59 37.5 59 29 59 C29 68.24 29 77.48 29 87 C19.43 87 9.86 87 0 87 C0 58.29 0 29.58 0 0 Z " fill="#EA3125" transform="translate(583,45)"/>
<path d="M0 0 C14.52 0 29.04 0 44 0 C47.29524372 8.78731658 50.53907345 17.50949507 53.63720703 26.35449219 C57.94833979 38.61302408 62.60763451 50.7498042 67.24827576 62.88659668 C68.27055701 65.56041322 69.29078102 68.23501353 70.31118774 70.9095459 C71.05339884 72.85119112 71.79944554 74.79133363 72.5456543 76.73144531 C73.22108276 78.5002002 73.22108276 78.5002002 73.91015625 80.3046875 C74.31371338 81.35640137 74.71727051 82.40811523 75.13305664 83.49169922 C76 86 76 86 76 88 C66.1 88 56.2 88 46 88 C44.02 82.39 42.04 76.78 40 71 C28.12 71 16.24 71 4 71 C2.02 76.61 0.04 82.22 -2 88 C-11.9 88 -21.8 88 -32 88 C-30.09994682 82.29984047 -28.17598839 76.64996585 -26.07421875 71.02734375 C-25.80414505 70.30116348 -25.53407135 69.57498322 -25.2558136 68.82679749 C-24.40113457 66.52983124 -23.54434147 64.23366033 -22.6875 61.9375 C-22.12551532 60.42778489 -21.56366556 58.91801955 -21.00195312 57.40820312 C-16.48491036 45.27456616 -16.48491036 45.27456616 -14.37426758 39.7019043 C-11.52235106 32.16421634 -8.79044785 24.60790183 -6.3125 16.9375 C-5.7490734 15.19564796 -5.18272508 13.45473794 -4.61328125 11.71484375 C-4.37391846 10.97355225 -4.13455566 10.23226074 -3.88793945 9.46850586 C-2.73309942 6.25800612 -1.34400762 3.13601779 0 0 Z " fill="#EC3125" transform="translate(488,45)"/>
<path d="M0 0 C9.57 0 19.14 0 29 0 C29 21.78 29 43.56 29 66 C37.25 66 45.5 66 54 66 C54 44.22 54 22.44 54 0 C63.57 0 73.14 0 83 0 C83.09057755 9.11906884 83.16387477 18.23783608 83.20724869 27.35725403 C83.22807209 31.59234407 83.25629279 35.82710884 83.30175781 40.06201172 C83.34540424 44.15339326 83.36917653 48.24446307 83.37950897 52.33605957 C83.3868668 53.89250593 83.40123476 55.44893635 83.42292023 57.00524902 C83.64646027 73.72178417 83.64646027 73.72178417 77.21875 81.0234375 C76.36796875 81.69246094 76.36796875 81.69246094 75.5 82.375 C74.64921875 83.06722656 74.64921875 83.06722656 73.78125 83.7734375 C70.06723566 86.33089474 67.34535888 87.2532548 62.80761719 87.30639648 C61.25515289 87.33037758 61.25515289 87.33037758 59.67132568 87.35484314 C58.55775696 87.36020584 57.44418823 87.36556854 56.296875 87.37109375 C55.1451178 87.38012222 53.9933606 87.3891507 52.80670166 87.39845276 C50.369045 87.41295992 47.93134937 87.42184314 45.49365234 87.42553711 C41.77764578 87.43741166 38.06331134 87.48657804 34.34765625 87.53710938 C31.97657058 87.54657633 29.60547474 87.55381006 27.234375 87.55859375 C25.5761673 87.58789223 25.5761673 87.58789223 23.88446045 87.61778259 C16.09871749 87.57261238 11.09576399 85.98827756 5.48187256 80.52171326 C0.80021849 75.27130487 -0.25159644 70.82439703 -0.22705078 63.91479492 C-0.22734283 63.22156128 -0.22763489 62.52832764 -0.22793579 61.81408691 C-0.22654897 59.53608426 -0.21101867 57.25841385 -0.1953125 54.98046875 C-0.19158006 53.3957792 -0.18873418 51.81108734 -0.18673706 50.22639465 C-0.17911877 46.06545587 -0.15948588 41.90465779 -0.1373291 37.74377441 C-0.11683172 33.49391584 -0.10772703 29.24403443 -0.09765625 24.99414062 C-0.07623818 16.6626888 -0.04107084 8.33137814 0 0 Z " fill="#EB3125" transform="translate(235,45)"/>
<path d="M0 0 C1.71771103 -0.01142029 1.71771103 -0.01142029 3.47012329 -0.02307129 C5.88565904 -0.03384731 8.30124129 -0.0367356 10.71679688 -0.03222656 C14.39532882 -0.03125495 18.07176913 -0.07289518 21.75 -0.1171875 C24.10416235 -0.1223956 26.45833189 -0.12508268 28.8125 -0.125 C30.44884903 -0.1495929 30.44884903 -0.1495929 32.11825562 -0.17468262 C39.17266201 -0.11143097 44.39573093 1.07306787 50.0390625 5.46875 C53.95485871 9.74573085 56.17812173 13.86139871 56.13671875 19.69921875 C56.13422119 20.42262451 56.13172363 21.14603027 56.12915039 21.89135742 C56.12004639 22.80377197 56.11094238 23.71618652 56.1015625 24.65625 C56.0809375 27.564375 56.0603125 30.4725 56.0390625 33.46875 C46.4690625 33.46875 36.8990625 33.46875 27.0390625 33.46875 C27.0390625 29.50875 27.0390625 25.54875 27.0390625 21.46875 C18.7890625 21.46875 10.5390625 21.46875 2.0390625 21.46875 C2.0390625 36.31875 2.0390625 51.16875 2.0390625 66.46875 C10.2890625 66.46875 18.5390625 66.46875 27.0390625 66.46875 C27.0390625 61.84875 27.0390625 57.22875 27.0390625 52.46875 C36.6090625 52.46875 46.1790625 52.46875 56.0390625 52.46875 C56.1215625 55.60375 56.2040625 58.73875 56.2890625 61.96875 C56.32547852 62.94005859 56.36189453 63.91136719 56.39941406 64.91210938 C56.4754596 70.94178486 55.60343048 75.50982304 52.0390625 80.46875 C49.75 82.52734375 49.75 82.52734375 47.4140625 83.90625 C46.63804687 84.37933594 45.86203125 84.85242188 45.0625 85.33984375 C41.76292809 87.1807246 39.86588586 87.60486252 36.07373047 87.64575195 C35.03860321 87.65858719 34.00347595 87.67142242 32.9369812 87.68464661 C31.8130899 87.69203354 30.68919861 87.69942047 29.53125 87.70703125 C27.79936935 87.71913887 27.79936935 87.71913887 26.03250122 87.73149109 C23.58288072 87.74534353 21.13324082 87.75606047 18.68359375 87.76391602 C14.95014363 87.78108408 11.21758913 87.82495619 7.484375 87.86914062 C5.10417318 87.87927132 2.72396382 87.88778624 0.34375 87.89453125 C-0.76799591 87.91203934 -1.87974182 87.92954742 -3.025177 87.94758606 C-10.68554846 87.92632412 -15.93957419 86.79918409 -21.984375 81.79296875 C-22.65339844 80.98279297 -22.65339844 80.98279297 -23.3359375 80.15625 C-24.02816406 79.35767578 -24.02816406 79.35767578 -24.734375 78.54296875 C-28.54138806 72.10499443 -28.26798923 65.16399702 -28.26171875 57.91015625 C-28.26600388 56.80703598 -28.270289 55.70391571 -28.27470398 54.56736755 C-28.28042958 52.24177739 -28.28096064 49.91616932 -28.27661133 47.59057617 C-28.27345101 44.04639956 -28.296935 40.50305799 -28.32226562 36.95898438 C-28.32453886 34.69270938 -28.325242 32.42643215 -28.32421875 30.16015625 C-28.3334285 29.10784317 -28.34263824 28.05553009 -28.35212708 26.97132874 C-28.30490979 19.40705886 -27.36141156 12.60244337 -22.2109375 6.65625 C-21.76234375 6.11355469 -21.31375 5.57085937 -20.8515625 5.01171875 C-14.53039689 -0.14708377 -7.80824476 0.00143633 0 0 Z " fill="#EB3125" transform="translate(146.9609375,44.53125)"/>
<path d="M0 0 C8.91 0 17.82 0 27 0 C27 14.85 27 29.7 27 45 C18.09 45 9.18 45 0 45 C0 30.15 0 15.3 0 0 Z " fill="#FEF3EF" transform="translate(726,66)"/>
<path d="M0 0 C1.71771103 -0.01142029 1.71771103 -0.01142029 3.47012329 -0.02307129 C5.88565904 -0.03384731 8.30124129 -0.0367356 10.71679688 -0.03222656 C14.39532882 -0.03125495 18.07176913 -0.07289518 21.75 -0.1171875 C24.10416235 -0.1223956 26.45833189 -0.12508268 28.8125 -0.125 C30.44884903 -0.1495929 30.44884903 -0.1495929 32.11825562 -0.17468262 C39.17266201 -0.11143097 44.39573093 1.07306787 50.0390625 5.46875 C53.95485871 9.74573085 56.17812173 13.86139871 56.13671875 19.69921875 C56.13422119 20.42262451 56.13172363 21.14603027 56.12915039 21.89135742 C56.12004639 22.80377197 56.11094238 23.71618652 56.1015625 24.65625 C56.0809375 27.564375 56.0603125 30.4725 56.0390625 33.46875 C46.4690625 33.46875 36.8990625 33.46875 27.0390625 33.46875 C27.0390625 29.83875 27.0390625 26.20875 27.0390625 22.46875 C27.3690625 22.46875 27.6990625 22.46875 28.0390625 22.46875 C28.0390625 25.43875 28.0390625 28.40875 28.0390625 31.46875 C30.22595703 31.34306641 30.22595703 31.34306641 32.45703125 31.21484375 C34.38019069 31.11164983 36.3033688 31.00880345 38.2265625 30.90625 C39.18626953 30.85017578 40.14597656 30.79410156 41.13476562 30.73632812 C42.53178711 30.66381836 42.53178711 30.66381836 43.95703125 30.58984375 C44.81063232 30.5427124 45.6642334 30.49558105 46.54370117 30.44702148 C49.16260008 30.46982571 51.49309402 30.87661794 54.0390625 31.46875 C53.56448092 28.03060066 53.08360988 24.5933599 52.6015625 21.15625 C52.46685547 20.17978516 52.33214844 19.20332031 52.19335938 18.19726562 C52.06123047 17.25947266 51.92910156 16.32167969 51.79296875 15.35546875 C51.67252197 14.49139404 51.5520752 13.62731934 51.42797852 12.73706055 C51.07129175 10.31316874 51.07129175 10.31316874 50.0390625 7.46875 C48.7190625 7.46875 47.3990625 7.46875 46.0390625 7.46875 C45.0490625 5.98375 45.0490625 5.98375 44.0390625 4.46875 C38.67183935 2.41380918 33.76235502 2.18696004 28.0625 2.23828125 C27.21539459 2.23873947 26.36828918 2.23919769 25.49551392 2.2396698 C23.70874628 2.24267783 21.92198092 2.25052043 20.13525391 2.26293945 C17.44293585 2.28105571 14.75096612 2.28344963 12.05859375 2.28320312 C2.67041848 2.30305334 -6.61224601 2.53645566 -15.9609375 3.46875 C-16.07695312 4.11199219 -16.19296875 4.75523438 -16.3125 5.41796875 C-16.52648437 6.09472656 -16.74046875 6.77148438 -16.9609375 7.46875 C-17.7446875 7.736875 -18.5284375 8.005 -19.3359375 8.28125 C-22.46625674 9.6973468 -23.12504465 11.07209271 -24.36315918 14.20278931 C-25.60683556 18.91711517 -25.34289585 23.76299169 -25.2890625 28.60546875 C-25.28718933 29.7624678 -25.28531616 30.91946686 -25.28338623 32.11152649 C-25.27668431 34.54809467 -25.26280705 36.98465243 -25.2421875 39.42114258 C-25.21095708 43.15391014 -25.20120537 46.88625517 -25.1953125 50.61914062 C-25.18614477 52.98958849 -25.17576974 55.36003206 -25.1640625 57.73046875 C-25.15981262 58.84717453 -25.15556274 59.96388031 -25.15118408 61.11442566 C-25.14157654 62.15262955 -25.13196899 63.19083344 -25.12207031 64.26049805 C-25.11524231 65.17204147 -25.10841431 66.0835849 -25.10137939 67.02275085 C-24.96853427 69.33644122 -24.73418141 71.2845758 -23.9609375 73.46875 C-23.3009375 73.79875 -22.6409375 74.12875 -21.9609375 74.46875 C-21.5484375 75.603125 -21.1359375 76.7375 -20.7109375 77.90625 C-19.30702246 81.71986631 -19.30702246 81.71986631 -15.7734375 82.90625 C-14.38125 83.1846875 -14.38125 83.1846875 -12.9609375 83.46875 C-12.9609375 84.12875 -12.9609375 84.78875 -12.9609375 85.46875 C-5.66526996 85.54491325 1.63029474 85.5973976 8.92626953 85.63354492 C11.4074283 85.64861662 13.88856049 85.66907746 16.36962891 85.69506836 C19.93919439 85.73152167 23.50840711 85.74849292 27.078125 85.76171875 C28.73782822 85.78494453 28.73782822 85.78494453 30.43106079 85.80863953 C37.71546565 85.81022568 42.28082635 85.09869609 47.7265625 79.90625 C48.4896875 79.101875 49.2528125 78.2975 50.0390625 77.46875 C51.0290625 76.80875 52.0190625 76.14875 53.0390625 75.46875 C53.0390625 78.46875 53.0390625 78.46875 50.9765625 80.90625 C43.67323803 87.27723517 38.5500597 88.07010222 29.04296875 88 C27.89545639 88.0038269 26.74794403 88.00765381 25.56565857 88.01159668 C23.14589559 88.01431109 20.72610303 88.00698309 18.30639648 87.99023438 C14.61700499 87.96883955 10.92956524 87.99004393 7.24023438 88.015625 C4.88280823 88.01298126 2.52538329 88.00785533 0.16796875 88 C-0.92809189 88.00809692 -2.02415253 88.01619385 -3.15342712 88.02453613 C-10.72787013 87.93252025 -16.00818143 86.74236458 -21.984375 81.79296875 C-22.65339844 80.98279297 -22.65339844 80.98279297 -23.3359375 80.15625 C-24.02816406 79.35767578 -24.02816406 79.35767578 -24.734375 78.54296875 C-28.54138806 72.10499443 -28.26798923 65.16399702 -28.26171875 57.91015625 C-28.26600388 56.80703598 -28.270289 55.70391571 -28.27470398 54.56736755 C-28.28042958 52.24177739 -28.28096064 49.91616932 -28.27661133 47.59057617 C-28.27345101 44.04639956 -28.296935 40.50305799 -28.32226562 36.95898438 C-28.32453886 34.69270938 -28.325242 32.42643215 -28.32421875 30.16015625 C-28.3334285 29.10784317 -28.34263824 28.05553009 -28.35212708 26.97132874 C-28.30490979 19.40705886 -27.36141156 12.60244337 -22.2109375 6.65625 C-21.76234375 6.11355469 -21.31375 5.57085937 -20.8515625 5.01171875 C-14.53039689 -0.14708377 -7.80824476 0.00143633 0 0 Z " fill="#C5362A" transform="translate(146.9609375,44.53125)"/>
<path d="M0 0 C8.25 0 16.5 0 25 0 C25 5.94 25 11.88 25 18 C16.75 18 8.5 18 0 18 C0 12.06 0 6.12 0 0 Z " fill="#FCFCFB" transform="translate(612,66)"/>
<path d="M0 0 C22.77 0 45.54 0 69 0 C69 0.33 69 0.66 69 1 C46.89 1 24.78 1 2 1 C2 29.71 2 58.42 2 88 C11.57 88 21.14 88 31 88 C31 78.76 31 69.52 31 60 C39.25 60 47.5 60 56 60 C56 69.24 56 78.48 56 88 C54 86 54 86 53.77294922 83.47802734 C53.78342285 82.4411377 53.79389648 81.40424805 53.8046875 80.3359375 C53.81113281 79.21445313 53.81757812 78.09296875 53.82421875 76.9375 C53.84097656 75.761875 53.85773437 74.58625 53.875 73.375 C53.88402344 72.19164063 53.89304687 71.00828125 53.90234375 69.7890625 C53.92597095 66.85928943 53.96184287 63.92961986 54 61 C46.74 61 39.48 61 32 61 C32 70.57 32 80.14 32 90 C27.62167956 90.02293649 23.24356699 90.04285548 18.86523438 90.05493164 C17.37531834 90.05996514 15.88540726 90.06679242 14.39550781 90.07543945 C12.25584696 90.08754805 10.11625132 90.09323807 7.9765625 90.09765625 C6.68830566 90.10289307 5.40004883 90.10812988 4.07275391 90.11352539 C1 90 1 90 -1 89 C-0.67 59.63 -0.34 30.26 0 0 Z " fill="#FAC3B9" transform="translate(581,44)"/>
<path d="M0 0 C0.33 0 0.66 0 1 0 C1 28.71 1 57.42 1 87 C11.89 86.9175 22.78 86.835 34 86.75 C39.13755859 86.72631348 39.13755859 86.72631348 44.37890625 86.70214844 C47.10678795 86.67277222 49.83465457 86.64194529 52.5625 86.609375 C53.26221924 86.60907288 53.96193848 86.60877075 54.68286133 86.60845947 C67.0068749 86.64364491 67.0068749 86.64364491 77.50561523 80.65936279 C83.74289598 73.9553146 83.30805357 65.80997958 83.30078125 57.22265625 C83.30720894 55.53468178 83.30720894 55.53468178 83.31376648 53.81260681 C83.31949277 51.43993806 83.32002263 49.06725176 83.31567383 46.69458008 C83.31251353 43.07798135 83.33599665 39.46220091 83.36132812 35.84570312 C83.36360135 33.53385519 83.36430451 31.22200507 83.36328125 28.91015625 C83.372491 27.83596939 83.38170074 26.76178253 83.39118958 25.65504456 C83.34563734 18.2111028 82.61472672 11.23213699 77.3125 5.5 C76.549375 4.675 75.78625 3.85 75 3 C77.6875 3.375 77.6875 3.375 81 5 C86.40213614 12.24537262 86.70125442 19.68911432 86.55859375 28.41796875 C86.55509666 30.30289787 86.55509666 30.30289787 86.55152893 32.22590637 C86.53936594 35.53952996 86.50455908 38.85191257 86.4598999 42.16522217 C86.43002531 44.8623202 86.42628589 47.5591775 86.42332363 50.25641918 C86.4178088 53.49785579 86.39443529 56.73911842 86.37109375 59.98046875 C86.3630497 61.78223824 86.3630497 61.78223824 86.35484314 63.6204071 C86.16234566 77.20697019 86.16234566 77.20697019 82.5 81.9375 C81 83 81 83 79 83 C78.71125 83.639375 78.4225 84.27875 78.125 84.9375 C77 87 77 87 75 88 C72.61948255 88.09270939 70.26867541 88.12584188 67.88818359 88.11352539 C67.1445286 88.11364593 66.4008736 88.11376646 65.63468361 88.11389065 C63.22257136 88.11314304 60.81053596 88.10552169 58.3984375 88.09765625 C56.91121457 88.09618636 55.42399113 88.09516594 53.93676758 88.09460449 C48.41617051 88.08935705 42.8955845 88.0753959 37.375 88.0625 C25.04125 88.041875 12.7075 88.02125 0 88 C0 58.96 0 29.92 0 0 Z " fill="#F1C2B8" transform="translate(697,45)"/>
<path d="M0 0 C9.57 0 19.14 0 29 0 C29 21.45 29 42.9 29 65 C28.34 65 27.68 65 27 65 C27 44.21 27 23.42 27 2 C18.75 2 10.5 2 2 2 C2.10847316 10.18920021 2.22069035 18.37832363 2.33933926 26.56738186 C2.39429751 30.3706591 2.44767119 34.1739443 2.49731445 37.97729492 C2.54536145 41.65374355 2.59771332 45.33010885 2.65294075 49.00645638 C2.67318327 50.40291303 2.69192383 51.79939237 2.70907402 53.19589043 C2.80016976 60.53255318 3.02136069 67.72463517 4 75 C4.66 75 5.32 75 6 75 C6 76.32 6 77.64 6 79 C7.65 79.33 9.3 79.66 11 80 C11.33 80.99 11.66 81.98 12 83 C12.99 83.66 13.98 84.32 15 85 C14.01 85.495 14.01 85.495 13 86 C6.81768239 82.26185447 2.25757204 78.11054353 0 71 C-0.24050903 67.70329285 -0.24050903 67.70329285 -0.22705078 63.91479492 C-0.22734283 63.22156128 -0.22763489 62.52832764 -0.22793579 61.81408691 C-0.22654897 59.53608426 -0.21101867 57.25841385 -0.1953125 54.98046875 C-0.19158006 53.3957792 -0.18873418 51.81108734 -0.18673706 50.22639465 C-0.17911877 46.06545587 -0.15948588 41.90465779 -0.1373291 37.74377441 C-0.11683172 33.49391584 -0.10772703 29.24403443 -0.09765625 24.99414062 C-0.07623818 16.6626888 -0.04107084 8.33137814 0 0 Z " fill="#C13025" transform="translate(235,45)"/>
<path d="M0 0 C0.66 0 1.32 0 2 0 C2.39832031 1.134375 2.79664063 2.26875 3.20703125 3.4375 C3.74214459 4.95834843 4.27730327 6.47918091 4.8125 8 C5.07353516 8.74378906 5.33457031 9.48757812 5.60351562 10.25390625 C6.91707487 13.98376583 8.26420312 17.69002159 9.69921875 21.375 C11 25 11 25 11 28 C4.4 28 -2.2 28 -9 28 C-8.28784357 23.72706144 -7.61459336 20.54731541 -6.15234375 16.6015625 C-5.61577148 15.14169922 -5.61577148 15.14169922 -5.06835938 13.65234375 C-4.69517578 12.65332031 -4.32199219 11.65429688 -3.9375 10.625 C-3.37192383 9.09166016 -3.37192383 9.09166016 -2.79492188 7.52734375 C-1.86799899 5.01643873 -0.93623553 2.50744426 0 0 Z " fill="#FCFCFA" transform="translate(509,67)"/>
<path d="M0 0 C10.56 0 21.12 0 32 0 C32 22.11 32 44.22 32 67 C39.59 67 47.18 67 55 67 C55 45.55 55 24.1 55 2 C55.33 2 55.66 2 56 2 C56 23.78 56 45.56 56 68 C47.75 68 39.5 68 31 68 C31 46.22 31 24.44 31 2 C21.43 2 11.86 2 2 2 C2 25.43 2 48.86 2 73 C1.67 73 1.34 73 1 73 C0.67 48.91 0.34 24.82 0 0 Z " fill="#FBB0A4" transform="translate(233,43)"/>
<path d="M0 0 C2.1875 2.5 2.1875 2.5 3 5 C2.67 5.66 2.34 6.32 2 7 C1.23762779 6.46953819 1.23762779 6.46953819 0.45985413 5.92835999 C-6.1261309 1.76605915 -11.51496224 1.27752928 -19.19140625 1.37109375 C-20.33608871 1.36868179 -21.48077118 1.36626984 -22.66014099 1.36378479 C-25.06797772 1.36475973 -27.47583786 1.37806816 -29.88354492 1.40307617 C-33.55530359 1.43743266 -37.22465865 1.42370113 -40.89648438 1.40429688 C-43.24480184 1.41119489 -45.59311314 1.42086685 -47.94140625 1.43359375 C-49.03119278 1.42863388 -50.12097931 1.42367401 -51.24378967 1.41856384 C-58.36879347 1.52795774 -64.05316041 2.51574047 -69.51881409 7.34080505 C-75.67635003 14.0227905 -75.30815965 22.02308997 -75.30078125 30.55859375 C-75.30506638 31.66171402 -75.3093515 32.76483429 -75.31376648 33.90138245 C-75.31949208 36.22697261 -75.32002314 38.55258068 -75.31567383 40.87817383 C-75.31251351 44.42235044 -75.3359975 47.96569201 -75.36132812 51.50976562 C-75.36360136 53.77604062 -75.3643045 56.04231785 -75.36328125 58.30859375 C-75.372491 59.36090683 -75.38170074 60.41321991 -75.39118958 61.49742126 C-75.33911172 69.84036045 -73.63847212 75.931852 -69 83 C-69.99 82.67 -70.98 82.34 -72 82 C-72 81.34 -72 80.68 -72 80 C-73.32 79.67 -74.64 79.34 -76 79 C-77.01689339 72.24499523 -77.17688479 65.6180031 -77.203125 58.79296875 C-77.20882507 57.63179031 -77.21452515 56.47061188 -77.22039795 55.27424622 C-77.22981034 52.82598776 -77.2363669 50.37771685 -77.24023438 47.92944336 C-77.24994155 44.20989637 -77.28100245 40.49090203 -77.3125 36.77148438 C-77.31903115 34.38281575 -77.32428118 31.99414321 -77.328125 29.60546875 C-77.3404718 28.50615524 -77.3528186 27.40684174 -77.36553955 26.2742157 C-77.34474315 18.96717629 -77.21045949 10.28214407 -72.64581299 4.19377136 C-71 3 -71 3 -67 3 C-67 2.34 -67 1.68 -67 1 C-60.88448629 -1.12128377 -55.17214785 -1.37248048 -48.73046875 -1.484375 C-47.65428787 -1.5084845 -46.57810699 -1.53259399 -45.46931458 -1.55743408 C-43.19928171 -1.60558196 -40.92914429 -1.64900506 -38.65893555 -1.68798828 C-35.20897488 -1.74961639 -31.75999742 -1.83280929 -28.31054688 -1.91796875 C-26.09637993 -1.96224508 -23.88218722 -2.00525501 -21.66796875 -2.046875 C-20.64785202 -2.07279724 -19.62773529 -2.09871948 -18.57670593 -2.12542725 C-12.29730978 -2.21352372 -6.00017933 -2.04934196 0 0 Z " fill="#FDCFC9" transform="translate(195,44)"/>
<path d="M0 0 C1.10176129 3.35216734 0.89303058 5.75121078 0.1875 9.1875 C0.01605469 10.06792969 -0.15539062 10.94835937 -0.33203125 11.85546875 C-0.66267578 12.91701172 -0.66267578 12.91701172 -1 14 C-1.99 14.495 -1.99 14.495 -3 15 C-3.66 16.98 -4.32 18.96 -5 21 C7.375 20.505 7.375 20.505 20 20 C19.67 17.69 19.34 15.38 19 13 C19.99 12.67 20.98 12.34 22 12 C23.10636395 9.60931266 23.10636395 9.60931266 24 7 C26 4 26 4 27.89007568 3.32533264 C31.3322346 2.79458059 34.79009978 2.75934214 38.265625 2.68359375 C39.05902283 2.66281265 39.85242065 2.64203156 40.66986084 2.62062073 C43.19648844 2.55540027 45.72321721 2.49636856 48.25 2.4375 C49.96615616 2.3942886 51.68230222 2.35067347 53.3984375 2.30664062 C57.59885546 2.19974717 61.79937489 2.09840271 66 2 C67.23886292 6.14092371 68.26311551 9.65859407 68 14 C66 11 66 11 64 6 C52.12 6 40.24 6 28 6 C26.02 11.61 24.04 17.22 22 23 C12.1 23 2.2 23 -8 23 C-6.15070469 17.45211407 -4.28829443 11.93768451 -2.3125 6.4375 C-1.87550781 5.21933594 -1.43851562 4.00117187 -0.98828125 2.74609375 C-0.66214844 1.83988281 -0.33601563 0.93367188 0 0 Z " fill="#CF4337" transform="translate(464,110)"/>
<path d="M0 0 C3.95121228 0.11817917 7.90218229 0.24242233 11.85302734 0.37231445 C13.85894807 0.43698251 15.86502228 0.49683106 17.87109375 0.55664062 C19.12792969 0.59853516 20.38476562 0.64042969 21.6796875 0.68359375 C22.84226074 0.72025146 24.00483398 0.75690918 25.20263672 0.79467773 C28 1 28 1 30 2 C30.06963883 11.2667011 30.12288156 20.53331154 30.15543652 29.80021763 C30.17106457 34.10364109 30.19225028 38.40688496 30.22631836 42.71020508 C30.25901427 46.86640618 30.27687452 51.02243498 30.28463173 55.17875481 C30.29015693 56.76112516 30.30094627 58.34348653 30.31719017 59.92578316 C30.33910112 62.14937536 30.34196133 64.37226376 30.34057617 66.59594727 C30.34723801 67.85947525 30.35389984 69.12300323 30.36076355 70.42481995 C29.94215865 74.57320992 28.81391724 77.27425303 27 81 C26.34 81 25.68 81 25 81 C25.32342377 79.99581528 25.64684753 78.99163055 25.98007202 77.95701599 C27.0582013 74.16551783 27.27657527 70.64021228 27.31884766 66.68774414 C27.32889328 65.99421844 27.3389389 65.30069275 27.34928894 64.58615112 C27.3799055 62.31916042 27.39709529 60.05228659 27.4140625 57.78515625 C27.43279154 56.20331329 27.45236623 54.62148013 27.4727478 53.03965759 C27.52389177 48.89531255 27.56361189 44.75093517 27.60089111 40.60644531 C27.6410425 36.3697115 27.69208383 32.13311011 27.7421875 27.89648438 C27.83873663 19.5977404 27.92220039 11.29894094 28 3 C18.43 3 8.86 3 -1 3 C-0.67 2.01 -0.34 1.02 0 0 Z " fill="#FEDBD4" transform="translate(290,42)"/>
<path d="M0 0 C5.35415788 2.16715914 8.89512643 5.18370515 12 10 C13.62061647 14.16555439 14.24128341 17.59550898 14.1953125 22.0546875 C14.19031738 23.05483887 14.18532227 24.05499023 14.18017578 25.08544922 C14.16196777 26.33600098 14.14375977 27.58655273 14.125 28.875 C14.08375 32.87625 14.0425 36.8775 14 41 C3.77 41 -6.46 41 -17 41 C-17 31.43 -17 21.86 -17 12 C-25.25 12 -33.5 12 -42 12 C-42 11.67 -42 11.34 -42 11 C-33.42 11 -24.84 11 -16 11 C-16 20.24 -16 29.48 -16 39 C-6.76 39 2.48 39 12 39 C12 30.75 12 22.5 12 14 C11.34 14 10.68 14 10 14 C9.505 11.525 9.505 11.525 9 9 C8.01 9 7.02 9 6 9 C5.7525 8.21625 5.505 7.4325 5.25 6.625 C3.84610901 3.67682892 2.99324263 3.0975223 0 2 C0 1.34 0 0.68 0 0 Z " fill="#CF6054" transform="translate(654,92)"/>
<path d="M0 0 C0.33 0 0.66 0 1 0 C1.00808685 0.60055206 1.01617371 1.20110413 1.02450562 1.81985474 C1.11069906 8.08193802 1.21020905 14.34371014 1.31738281 20.60546875 C1.35561754 22.94102748 1.39047995 25.276644 1.421875 27.61230469 C1.4676447 30.97351705 1.52562036 34.33433355 1.5859375 37.6953125 C1.59748871 38.73615997 1.60903992 39.77700745 1.62094116 40.84939575 C1.72299059 45.88550669 1.82959856 50.34776235 4 55 C4.66 55.33 5.32 55.66 6 56 C6.4125 57.134375 6.825 58.26875 7.25 59.4375 C8.65391504 63.25111631 8.65391504 63.25111631 12.1875 64.4375 C13.5796875 64.7159375 13.5796875 64.7159375 15 65 C15 65.66 15 66.32 15 67 C22.29566754 67.07616325 29.59123224 67.1286476 36.88720703 67.16479492 C39.3683658 67.17986662 41.84949799 67.20032746 44.33056641 67.22631836 C47.90013189 67.26277167 51.46934461 67.27974292 55.0390625 67.29296875 C56.69876572 67.31619453 56.69876572 67.31619453 58.39199829 67.33988953 C65.67640315 67.34147568 70.24176385 66.62994609 75.6875 61.4375 C76.8321875 60.2309375 76.8321875 60.2309375 78 59 C78.99 58.34 79.98 57.68 81 57 C81 60 81 60 78.9375 62.4375 C71.63417553 68.80848517 66.5109972 69.60135222 57.00390625 69.53125 C55.85639389 69.5350769 54.70888153 69.53890381 53.52659607 69.54284668 C51.10683309 69.54556109 48.68704053 69.53823309 46.26733398 69.52148438 C42.57794249 69.50008955 38.89050274 69.52129393 35.20117188 69.546875 C32.84374573 69.54423126 30.48632079 69.53910533 28.12890625 69.53125 C27.03284561 69.53934692 25.93678497 69.54744385 24.80751038 69.55578613 C17.23306737 69.46377025 11.95275607 68.27361458 5.9765625 63.32421875 C5.30753906 62.51404297 5.30753906 62.51404297 4.625 61.6875 C4.16351563 61.15511719 3.70203125 60.62273437 3.2265625 60.07421875 C-0.64564752 53.52599098 -0.26579644 46.53067891 -0.1953125 39.16015625 C-0.19106766 37.47701576 -0.19106766 37.47701576 -0.18673706 35.75987244 C-0.17558775 32.19397082 -0.15049251 28.62832506 -0.125 25.0625 C-0.11496343 22.63737343 -0.10583876 20.21224291 -0.09765625 17.78710938 C-0.07566559 11.85798637 -0.04224027 5.92901147 0 0 Z " fill="#C14B40" transform="translate(119,63)"/>
<path d="M0 0 C2 2 2 2 3.25 4.8125 C5.923693 9.68244082 9.82484174 12.86861043 15 15 C17.48620586 15.32061614 17.48620586 15.32061614 20.19238281 15.30639648 C21.22735901 15.32238388 22.26233521 15.33837128 23.32867432 15.35484314 C24.44224304 15.36020584 25.55581177 15.36556854 26.703125 15.37109375 C27.8548822 15.38012222 29.0066394 15.3891507 30.19329834 15.39845276 C32.630955 15.41295992 35.06865063 15.42184314 37.50634766 15.42553711 C41.22235422 15.43741166 44.93668866 15.48657804 48.65234375 15.53710938 C51.02342942 15.54657633 53.39452526 15.55381006 55.765625 15.55859375 C57.4238327 15.58789223 57.4238327 15.58789223 59.11553955 15.61778259 C66.15198951 15.57695952 70.49042652 14.40728252 76 10 C77.2375 9.1028125 77.2375 9.1028125 78.5 8.1875 C78.995 7.795625 79.49 7.40375 80 7 C79.68416856 9.94776015 79.06918843 10.93488148 76.875 13 C75.92625 13.66 74.9775 14.32 74 15 C73.0195874 15.69029297 72.0391748 16.38058594 71.02905273 17.09179688 C66.12495952 19.84958465 61.16082605 19.57438809 55.66015625 19.53125 C54.57923203 19.5350769 53.4983078 19.53890381 52.3846283 19.54284668 C50.10610011 19.54556011 47.82754047 19.538239 45.54907227 19.52148438 C42.0769239 19.50008888 38.60684961 19.52129614 35.13476562 19.546875 C32.91405797 19.54423122 30.69335159 19.5391052 28.47265625 19.53125 C26.9269973 19.54339539 26.9269973 19.54339539 25.35011292 19.55578613 C18.82172634 19.47160658 14.56685445 18.48075669 9 15 C8.67 14.34 8.34 13.68 8 13 C6.67592331 12.31513275 5.34090759 11.65129797 4 11 C1.75 9.875 1.75 9.875 0 8 C-0.34895308 5.24654208 -0.1831712 2.79336084 0 0 Z " fill="#FEECE7" transform="translate(235,116)"/>
<path d="M0 0 C0 0.66 0 1.32 0 2 C0.66 2 1.32 2 2 2 C2.12375 2.969375 2.2475 3.93875 2.375 4.9375 C2.58125 5.948125 2.7875 6.95875 3 8 C3.66 8.33 4.32 8.66 5 9 C5.70905938 10.98536627 6.36694179 12.98910922 7 15 C7.55287081 16.23352779 8.11543303 17.46275663 8.6875 18.6875 C10 22 10 22 9 25 C5.37 17.74 1.74 10.48 -2 3 C-2.33 19.17 -2.66 35.34 -3 52 C-11.58 52 -20.16 52 -29 52 C-29 51.67 -29 51.34 -29 51 C-21.08 50.67 -13.16 50.34 -5 50 C-5.12000797 44.25238416 -5.24271033 38.50495736 -5.37231445 32.75756836 C-5.41557258 30.80317585 -5.45725398 28.84874778 -5.49731445 26.89428711 C-5.55523836 24.08175955 -5.61886873 21.26940952 -5.68359375 18.45703125 C-5.70030624 17.58601273 -5.71701874 16.7149942 -5.73423767 15.81758118 C-5.81613242 12.44873162 -5.92367699 9.3574476 -6.62915039 6.0534668 C-6.75153076 5.37582275 -6.87391113 4.69817871 -7 4 C-4.69139139 0.94933862 -3.89789797 0 0 0 Z " fill="#C65048" transform="translate(378,81)"/>
<path d="M0 0 C3.29471128 4.21780364 5.65017133 8.77143686 8.125 13.5 C8.80755859 14.78197266 8.80755859 14.78197266 9.50390625 16.08984375 C9.93832031 16.91613281 10.37273437 17.74242188 10.8203125 18.59375 C11.21492676 19.34333984 11.60954102 20.09292969 12.01611328 20.86523438 C12.95701967 22.90674443 13.53718989 24.80584522 14 27 C13.34 27 12.68 27 12 27 C12 26.34 12 25.68 12 25 C11.01 24.67 10.02 24.34 9 24 C8.15625 22.109375 8.15625 22.109375 7.5 19.75 C6.39510615 16.10730309 5.08166557 13.20923442 3 10 C2.484375 8.9275 1.96875 7.855 1.4375 6.75 C0.28993042 3.90101081 0.28993042 3.90101081 -2 3 C-12.56 2.67 -23.12 2.34 -34 2 C-34 29.39 -34 56.78 -34 85 C-34.33 85 -34.66 85 -35 85 C-35 57.28 -35 29.56 -35 1 C-23.78 1 -12.56 1 -1 1 C-0.67 0.67 -0.34 0.34 0 0 Z " fill="#DC382C" transform="translate(385,45)"/>
<path d="M0 0 C9.24 0 18.48 0 28 0 C30.25022491 7.87578717 30.25022491 7.87578717 30.15112305 11.12768555 C30.13417892 11.85501389 30.1172348 12.58234222 30.09977722 13.33171082 C30.07071793 14.09236343 30.04165863 14.85301605 30.01171875 15.63671875 C29.98906448 16.43858109 29.96641022 17.24044342 29.94306946 18.06660461 C29.89339991 19.75004844 29.83848518 21.43334496 29.77856445 23.11645508 C29.68741006 25.69003939 29.6128546 28.26370164 29.54101562 30.83789062 C29.49054946 32.47919666 29.43914962 34.1204743 29.38671875 35.76171875 C29.36373215 36.52844406 29.34074554 37.29516937 29.31706238 38.08512878 C29.18837989 41.58419778 28.85444564 44.58221745 28 48 C19.09 48 10.18 48 1 48 C1 47.67 1 47.34 1 47 C9.58 47 18.16 47 27 47 C27 32.15 27 17.3 27 2 C18.09 2 9.18 2 0 2 C0 1.34 0 0.68 0 0 Z " fill="#C53426" transform="translate(726,64)"/>
<path d="M0 0 C5.12621408 3.64530779 7.38324611 6.80107089 9 13 C9.4188294 16.95056598 9.42101286 20.86985665 9.3984375 24.83984375 C9.40274277 26.52213829 9.40274277 26.52213829 9.40713501 28.23841858 C9.40916876 30.60092679 9.40368736 32.96345211 9.39111328 35.32592773 C9.37506581 38.92275031 9.39097863 42.51844668 9.41015625 46.11523438 C9.4081734 48.41927329 9.40432887 50.72331151 9.3984375 53.02734375 C9.40451019 54.09323227 9.41058289 55.15912079 9.4168396 56.25730896 C9.35487018 62.90595456 9.22385282 70.49245356 4.47738647 75.65660095 C2.8125 77.0625 2.8125 77.0625 0 79 C0.66 76.69 1.32 74.38 2 72 C2.99 72 3.98 72 5 72 C6.07447204 65.04009804 6.12890419 58.2211819 6.09765625 51.1875 C6.09553383 49.37330566 6.09553383 49.37330566 6.09336853 47.52246094 C6.08779709 43.68161485 6.07524984 39.8408283 6.0625 36 C6.05748131 33.3867196 6.05291905 30.77343827 6.04882812 28.16015625 C6.03783702 21.77341739 6.02112743 15.38671295 6 9 C5.34 9 4.68 9 4 9 C3.67 8.01 3.34 7.02 3 6 C2.01 5.34 1.02 4.68 0 4 C0 2.68 0 1.36 0 0 Z " fill="#B8342A" transform="translate(772,49)"/>
<path d="M0 0 C8.91012483 -0.02318661 17.82023925 -0.04094732 26.73038769 -0.05181217 C30.86787673 -0.05702717 35.00534511 -0.0640997 39.14282227 -0.07543945 C43.13690201 -0.08631749 47.1309619 -0.09228727 51.12505531 -0.09487724 C52.6476504 -0.09672263 54.17024442 -0.10032618 55.69283104 -0.10573006 C57.82804068 -0.11300573 59.9631686 -0.11398819 62.09838867 -0.11352539 C63.3130632 -0.115746 64.52773773 -0.11796661 65.77922058 -0.12025452 C68.64995538 -0.01306965 71.21233078 0.33577182 74 1 C74 2.32 74 3.64 74 5 C73.15279388 4.67657623 72.30558777 4.35315247 71.43270874 4.01992798 C67.80848479 2.94309691 64.85022204 2.72323668 61.07666016 2.68115234 C60.08048172 2.66608391 60.08048172 2.66608391 59.06417847 2.65071106 C56.88914788 2.62004738 54.71423941 2.60289145 52.5390625 2.5859375 C51.02305055 2.56721225 49.50704888 2.54763784 47.99105835 2.5272522 C44.01603266 2.47606809 40.04097323 2.43636931 36.0657959 2.39910889 C32.0034154 2.35898285 27.94117359 2.30792987 23.87890625 2.2578125 C15.91936581 2.16121584 7.95975635 2.07675947 0 2 C0 1.34 0 0.68 0 0 Z " fill="#FCC2BC" transform="translate(698,43)"/>
<path d="M0 0 C10.56 0 21.12 0 32 0 C32 0.66 32 1.32 32 2 C22.1 2 12.2 2 2 2 C2 25.43 2 48.86 2 73 C1.67 73 1.34 73 1 73 C0.67 48.91 0.34 24.82 0 0 Z " fill="#FDC4BE" transform="translate(233,43)"/>
<path d="M0 0 C8.25 0 16.5 0 25 0 C25 5.94 25 11.88 25 18 C16.75 18 8.5 18 0 18 C0 12.06 0 6.12 0 0 Z M2 1 C1.979375 3.289375 1.95875 5.57875 1.9375 7.9375 C1.92589844 9.22527344 1.91429687 10.51304688 1.90234375 11.83984375 C1.63467451 14.86298403 1.63467451 14.86298403 3 16 C4.4887186 16.08669432 5.981445 16.10703494 7.47265625 16.09765625 C8.82133789 16.09282227 8.82133789 16.09282227 10.19726562 16.08789062 C11.61555664 16.07532227 11.61555664 16.07532227 13.0625 16.0625 C14.01189453 16.05798828 14.96128906 16.05347656 15.93945312 16.04882812 C18.29299531 16.03700128 20.64650532 16.01906521 23 16 C23 11.05 23 6.1 23 1 C16.07 1 9.14 1 2 1 Z " fill="#FED9CE" transform="translate(612,66)"/>
<path d="M0 0 C0.66 0 1.32 0 2 0 C2.33 1.98 2.66 3.96 3 6 C2.34 6 1.68 6 1 6 C0.87625 6.5775 0.7525 7.155 0.625 7.75 C0 10 0 10 -0.9375 11.8125 C-2.37309815 14.76814325 -3.11301874 17.84012926 -4 21 C-4.99 23.475 -4.99 23.475 -6 26 C-1.38 26 3.24 26 8 26 C7.34 24.35 6.68 22.7 6 21 C5.92353835 18.6679198 5.90856701 16.33154122 6 14 C7.62276158 16.43414237 8.61744792 18.31319446 9.625 21 C10.01558594 22.0209375 10.01558594 22.0209375 10.4140625 23.0625 C11 25 11 25 11 28 C4.4 28 -2.2 28 -9 28 C-8.28784357 23.72706144 -7.61459336 20.54731541 -6.15234375 16.6015625 C-5.61577148 15.14169922 -5.61577148 15.14169922 -5.06835938 13.65234375 C-4.69517578 12.65332031 -4.32199219 11.65429688 -3.9375 10.625 C-3.37192383 9.09166016 -3.37192383 9.09166016 -2.79492188 7.52734375 C-1.86799899 5.01643873 -0.93623553 2.50744426 0 0 Z " fill="#FCBFB3" transform="translate(509,67)"/>
<path d="M0 0 C3.27498863 3.70902327 4.62535044 7.91278153 6.25 12.5 C6.55228516 13.33587646 6.85457031 14.17175293 7.16601562 15.03295898 C9.62119747 21.85015516 11.99456326 28.69639013 14.35644531 35.54638672 C16.68957333 42.25908405 19.24643778 48.8715358 21.95507812 55.44165039 C22.69269081 57.27287049 23.35407454 59.13446527 24 61 C23.67 61.66 23.34 62.32 23 63 C20.14155818 60.14155818 20.29210691 57.22308039 19.7578125 53.3125 C19.21532197 50.82892753 19.21532197 50.82892753 16.9296875 49.6875 C16.29289063 49.460625 15.65609375 49.23375 15 49 C15.33 48.01 15.66 47.02 16 46 C15.34 45.01 14.68 44.02 14 43 C13.875 40.3125 13.875 40.3125 14 38 C13.34 38 12.68 38 12 38 C11.67 35.69 11.34 33.38 11 31 C10.34 31 9.68 31 9 31 C9 28.69 9 26.38 9 24 C8.34 24 7.68 24 7 24 C5.68373308 20.38026598 5 17.90432869 5 14 C4.34 14 3.68 14 3 14 C2.49307308 12.4188708 1.99473557 10.83498617 1.5 9.25 C1.2215625 8.36828125 0.943125 7.4865625 0.65625 6.578125 C0 4 0 4 0 0 Z " fill="#C93E38" transform="translate(532,49)"/>
<path d="M0 0 C0.83418961 -0.00622879 1.66837921 -0.01245758 2.52784729 -0.01887512 C3.87325844 -0.0050605 3.87325844 -0.0050605 5.24584961 0.0090332 C6.16909531 0.0085347 7.092341 0.00803619 8.04356384 0.00752258 C9.99455926 0.00986266 11.94555771 0.01958728 13.89648438 0.03613281 C16.89016564 0.05975112 19.88295809 0.05669013 22.87670898 0.05004883 C24.77059452 0.05562464 26.6644763 0.06273392 28.55834961 0.0715332 C29.9067971 0.07016609 29.9067971 0.07016609 31.28248596 0.06877136 C32.11352341 0.07830338 32.94456085 0.08783539 33.80078125 0.09765625 C34.5334169 0.10226364 35.26605255 0.10687103 36.02088928 0.11161804 C37.83569336 0.37231445 37.83569336 0.37231445 39.83569336 2.37231445 C25.31569336 2.37231445 10.79569336 2.37231445 -4.16430664 2.37231445 C-4.49430664 4.02231445 -4.82430664 5.67231445 -5.16430664 7.37231445 C-5.98793557 9.8269987 -6.83387447 12.25613899 -7.72680664 14.68481445 C-7.96077148 15.32999023 -8.19473633 15.97516602 -8.43579102 16.63989258 C-9.00877671 18.21852664 -9.58610128 19.79558471 -10.16430664 21.37231445 C-10.49430664 21.37231445 -10.82430664 21.37231445 -11.16430664 21.37231445 C-8.78876698 -0.00754245 -8.78876698 -0.00754245 0 0 Z " fill="#FDCCC4" transform="translate(492.164306640625,42.627685546875)"/>
<path d="M0 0 C11.88 0 23.76 0 36 0 C36.66 1.98 37.32 3.96 38 6 C37.01 5.67 36.02 5.34 35 5 C35 4.01 35 3.02 35 2 C19.16 2.495 19.16 2.495 3 3 C1.68 5.97 0.36 8.94 -1 12 C-1.99 12.33 -2.98 12.66 -4 13 C-3.38170447 7.92997663 -2.13290367 4.97677524 0 0 Z " fill="#FDEEE5" transform="translate(492,115)"/>
<path d="M0 0 C4.88016592 0.83659987 8.65811642 1.61977689 12.1875 5.25 C14.08166836 8.12391062 15.00239577 10.72215753 16 14 C16.99 15.485 16.99 15.485 18 17 C18.265625 19.99609375 18.265625 19.99609375 18.25 23.4375 C18.25515625 24.57058594 18.2603125 25.70367187 18.265625 26.87109375 C18.01398568 29.83525691 17.54596941 31.50313671 16 34 C15.34 34 14.68 34 14 34 C13.7834375 35.423125 13.7834375 35.423125 13.5625 36.875 C13 40 13 40 12 42 C8.9375 42.625 8.9375 42.625 6 43 C7.1446875 41.7315625 7.1446875 41.7315625 8.3125 40.4375 C13.98946412 33.43806128 14.60842768 27.55510175 14.4140625 18.60546875 C13.66212585 12.05794489 10.72368342 8.34335458 5.875 4.125 C3.95073328 2.7027159 1.99096517 1.32731011 0 0 Z " fill="#FEF0E8" transform="translate(652,45)"/>
<path d="M0 0 C0.66 0.33 1.32 0.66 2 1 C2.16818126 7.63842252 2.32807995 14.27700721 2.48217773 20.91577148 C2.53559999 23.1749322 2.59092952 25.43404863 2.64819336 27.69311523 C2.73009772 30.93724012 2.80517779 34.18146155 2.87890625 37.42578125 C2.90594131 38.43836502 2.93297638 39.45094879 2.96083069 40.49421692 C2.98092697 41.43496567 3.00102325 42.37571442 3.02172852 43.3449707 C3.04171402 44.17325882 3.06169952 45.00154694 3.08229065 45.85493469 C3 48 3 48 2 51 C0.68 51 -0.64 51 -2 51 C-1.67 50.34 -1.34 49.68 -1 49 C-0.88159887 47.42793357 -0.82296967 45.85116731 -0.79467773 44.27490234 C-0.77473251 43.29403656 -0.75478729 42.31317078 -0.73423767 41.30258179 C-0.71752518 40.24108917 -0.70081268 39.17959656 -0.68359375 38.0859375 C-0.66281265 37.00116119 -0.64203156 35.91638489 -0.62062073 34.79873657 C-0.55509366 31.32422379 -0.49622553 27.84963376 -0.4375 24.375 C-0.39431779 22.02342942 -0.3507036 19.67186674 -0.30664062 17.3203125 C-0.19940907 11.5469573 -0.09764856 5.7735248 0 0 Z " fill="#D5463C" transform="translate(412,45)"/>
<path d="M0 0 C1.08078072 0.24114784 1.08078072 0.24114784 2.18339539 0.48716736 C4.86950538 0.97624022 7.33982204 1.15601745 10.06567383 1.20532227 C11.04631302 1.22526749 12.02695221 1.24521271 13.03730774 1.26576233 C14.0833165 1.28247482 15.12932526 1.29918732 16.20703125 1.31640625 C17.28756271 1.33718735 18.36809418 1.35796844 19.48136902 1.37937927 C22.92501611 1.44464036 26.36873795 1.50365075 29.8125 1.5625 C32.15039828 1.60570751 34.48828907 1.64932251 36.82617188 1.69335938 C42.55070278 1.80029772 48.27530765 1.90210727 54 2 C53.67 2.66 53.34 3.32 53 4 C35.84 4 18.68 4 1 4 C0.67 2.68 0.34 1.36 0 0 Z " fill="#EFBEB6" transform="translate(130,130)"/>
<path d="M0 0 C4.12777498 2.90059864 6.07894745 5.34323652 8 10 C9.08088241 18.10661804 8.7940993 25.79370438 4.64453125 32.96875 C1.98209409 36.25727096 -1.20521357 38.21089474 -5 40 C-5 39.01 -5 38.02 -5 37 C-4.01 37 -3.02 37 -2 37 C-2.495 35.515 -2.495 35.515 -3 34 C-1.8553125 33.7525 -1.8553125 33.7525 -0.6875 33.5 C2.49193001 31.72543441 3.3886154 30.05778032 4.5 26.62890625 C5.70745002 20.28036042 6.66809812 12.50214718 3 7 C0.94074861 6.27617533 0.94074861 6.27617533 -1 6 C-0.67 4.02 -0.34 2.04 0 0 Z " fill="#CA3E31" transform="translate(659,50)"/>
<path d="M0 0 C0.66 0 1.32 0 2 0 C2 5.94 2 11.88 2 18 C9.92 18 17.84 18 26 18 C25.67 18.99 25.34 19.98 25 21 C21.77100574 21.0875127 18.54231884 21.14056146 15.3125 21.1875 C13.94448242 21.22520508 13.94448242 21.22520508 12.54882812 21.26367188 C8.73461375 21.30528149 5.54319523 21.16295857 1.875 20.0625 C-0.71426699 17.21430631 -0.51485367 15.0928378 -0.43945312 11.33789062 C-0.39755859 10.50451172 -0.35566406 9.67113281 -0.3125 8.8125 C-0.28994141 7.96751953 -0.26738281 7.12253906 -0.24414062 6.25195312 C-0.18524963 4.16721202 -0.09556798 2.08338196 0 0 Z " fill="#CE382C" transform="translate(610,66)"/>
<path d="M0 0 C2.08432499 3.12648749 3.28558611 6.05730868 4.625 9.5625 C5.07101562 10.71878906 5.51703125 11.87507813 5.9765625 13.06640625 C7 16 7 16 7 18 C-2.9 18 -12.8 18 -23 18 C-23.66 15.03 -24.32 12.06 -25 9 C-24.01 9.495 -24.01 9.495 -23 10 C-22.67 11.98 -22.34 13.96 -22 16 C-13.42 16 -4.84 16 4 16 C4 14.68 4 13.36 4 12 C3.34 12 2.68 12 2 12 C1.01 8.37 0.02 4.74 -1 1 C-0.67 0.67 -0.34 0.34 0 0 Z " fill="#C95C51" transform="translate(557,115)"/>
<path d="M0 0 C0.66 0 1.32 0 2 0 C0.47593168 5.75759144 -3.8380725 9.10443436 -8.78326416 12.06906128 C-11.4497577 13.18887991 -13.43030825 13.24080806 -16.31933594 13.22705078 C-17.38013367 13.22689972 -18.4409314 13.22674866 -19.53387451 13.22659302 C-20.67253967 13.21627045 -21.81120483 13.20594788 -22.984375 13.1953125 C-24.74047089 13.19106766 -24.74047089 13.19106766 -26.53204346 13.18673706 C-30.27146625 13.17554156 -34.01064959 13.15043776 -37.75 13.125 C-40.28515279 13.1149694 -42.82030934 13.10584369 -45.35546875 13.09765625 C-51.57039421 13.07560426 -57.78518 13.04213275 -64 13 C-63.67 12.34 -63.34 11.68 -63 11 C-47.16 11.33 -31.32 11.66 -15 12 C-15 11.34 -15 10.68 -15 10 C-11.49223216 8.39644899 -8.85645121 7.77963136 -5 8 C-4.896875 7.360625 -4.79375 6.72125 -4.6875 6.0625 C-4.460625 5.381875 -4.23375 4.70125 -4 4 C-3.01 3.67 -2.02 3.34 -1 3 C-0.67 2.01 -0.34 1.02 0 0 Z " fill="#BC3325" transform="translate(314,119)"/>
<path d="M0 0 C8.58 0 17.16 0 26 0 C25.67 1.32 25.34 2.64 25 4 C25 3.01 25 2.02 25 1 C21.54133208 1.13850705 18.08316725 1.28704727 14.625 1.4375 C13.14773438 1.49647461 13.14773438 1.49647461 11.640625 1.55664062 C10.22910156 1.61948242 10.22910156 1.61948242 8.7890625 1.68359375 C7.91975098 1.72025146 7.05043945 1.75690918 6.15478516 1.79467773 C3.9516738 1.87401544 3.9516738 1.87401544 2 3 C2.00444122 3.75977142 2.00888245 4.51954285 2.01345825 5.30233765 C2.05349094 12.45375317 2.08396189 19.60511455 2.10362434 26.75661278 C2.11407274 30.4334935 2.12825102 34.11028183 2.15087891 37.78710938 C2.17256991 41.33379655 2.18456067 44.88039472 2.18975449 48.4271431 C2.193457 49.78197252 2.20068689 51.13679694 2.21146011 52.49158859 C2.22592448 54.38545757 2.22681649 56.27941564 2.22705078 58.17333984 C2.231492 59.25255707 2.23593323 60.33177429 2.24050903 61.44369507 C2 64 2 64 0 66 C0 44.22 0 22.44 0 0 Z " fill="#DE392E" transform="translate(290,46)"/>
<path d="M0 0 C2 2 2 2 3.25 4.8125 C5.92649542 9.68754522 9.824998 12.85746856 15 15 C17.42117686 15.3240599 17.42117686 15.3240599 20.04394531 15.31884766 C21.04468079 15.33871735 22.04541626 15.35858704 23.07647705 15.37905884 C24.68604279 15.39638565 24.68604279 15.39638565 26.328125 15.4140625 C27.43226746 15.43342865 28.53640991 15.4527948 29.67401123 15.4727478 C33.19926233 15.53250892 36.72454615 15.57891564 40.25 15.625 C42.64063921 15.66318292 45.03126471 15.70223483 47.421875 15.7421875 C53.28112826 15.83820767 59.14046415 15.92326548 65 16 C65 16.33 65 16.66 65 17 C57.68598391 17.05072668 50.37201324 17.08574486 43.05786133 17.10986328 C40.56988835 17.11991832 38.08192718 17.13356416 35.59399414 17.15087891 C32.01706019 17.17514866 28.44028255 17.18648819 24.86328125 17.1953125 C23.75165115 17.20563507 22.64002106 17.21595764 21.4947052 17.22659302 C20.45400375 17.22674408 19.41330231 17.22689514 18.34106445 17.22705078 C17.4283931 17.231492 16.51572174 17.23593323 15.57539368 17.24050903 C12.73934529 16.97565816 10.58161072 16.17486628 8 15 C8 14.34 8 13.68 8 13 C7.4225 12.731875 6.845 12.46375 6.25 12.1875 C5.5075 11.795625 4.765 11.40375 4 11 C3.2575 10.62875 2.515 10.2575 1.75 9.875 C-0.36836666 7.60532144 -0.25 6.83217179 -0.25 3.8125 C-0.1675 2.554375 -0.085 1.29625 0 0 Z " fill="#EEB3A9" transform="translate(235,116)"/>
<path d="M0 0 C14.52 0 29.04 0 44 0 C44 0.99 44 1.98 44 3 C42.77893555 2.99476318 41.55787109 2.98952637 40.29980469 2.98413086 C35.76742283 2.96602416 31.23504416 2.95454721 26.70263672 2.94506836 C24.74136823 2.94004113 22.78010348 2.93321843 20.81884766 2.92456055 C17.99901403 2.91242455 15.17922998 2.90675556 12.359375 2.90234375 C11.48319519 2.89718246 10.60701538 2.89202118 9.70428467 2.88670349 C8.88373596 2.88662796 8.06318726 2.88655243 7.21777344 2.88647461 C6.49829529 2.884254 5.77881714 2.88203339 5.03753662 2.87974548 C2.91627776 3.00494125 1.04033713 3.42081435 -1 4 C-0.67 2.68 -0.34 1.36 0 0 Z " fill="#C83025" transform="translate(488,45)"/>
<path d="M0 0 C1.65 0 3.3 0 5 0 C5 14.52 5 29.04 5 44 C4.01 44 3.02 44 2 44 C2.33 29.81 2.66 15.62 3 1 C2.01 0.67 1.02 0.34 0 0 Z " fill="#CE3227" transform="translate(144,66)"/>
<path d="M0 0 C2.78633115 4.17949673 4 6.93375326 4 12 C13.9 12 23.8 12 34 12 C33.01 9.03 32.02 6.06 31 3 C32.32 3 33.64 3 35 3 C35.66 5.97 36.32 8.94 37 12 C34.12944617 13.43527692 31.55161607 13.23924618 28.34765625 13.3515625 C27.69171982 13.37471527 27.03578339 13.39786804 26.35997009 13.42172241 C24.97223564 13.46934596 23.58441752 13.51458201 22.1965332 13.55761719 C20.07405066 13.62463528 17.95215185 13.70244489 15.83007812 13.78125 C14.48179248 13.82617516 13.13348555 13.87046698 11.78515625 13.9140625 C9.94256226 13.9752124 9.94256226 13.9752124 8.06274414 14.03759766 C5 14 5 14 2 13 C2 12.34 2 11.68 2 11 C1.34 11 0.68 11 0 11 C-0.84098656 6.98195309 -1.05404945 3.98196457 0 0 Z " fill="#FEEBE5" transform="translate(530,121)"/>
<path d="M0 0 C8.25 0 16.5 0 25 0 C25.33 0.99 25.66 1.98 26 3 C26.66 3 27.32 3 28 3 C28.10414253 8.75098214 28.20116938 14.35450392 27 20 C26.34 20.33 25.68 20.66 25 21 C25 14.73 25 8.46 25 2 C16.75 2 8.5 2 0 2 C0 1.34 0 0.68 0 0 Z " fill="#D43328" transform="translate(612,63)"/>
<path d="M0 0 C0.99 0.99 0.99 0.99 2 2 C-2.38488829 6.79597157 -7.08736915 11.37335264 -13.72192383 12.4359436 C-16.87854075 12.57638741 -19.9973992 12.56264966 -23.15625 12.48828125 C-24.87056213 12.47766914 -24.87056213 12.47766914 -26.61950684 12.46684265 C-30.24702159 12.43899621 -33.87295677 12.37627166 -37.5 12.3125 C-39.96872761 12.28740472 -42.43747957 12.26459372 -44.90625 12.24414062 C-50.93803315 12.18920141 -56.96890369 12.10567166 -63 12 C-63 11.67 -63 11.34 -63 11 C-62.38691986 10.99413376 -61.77383972 10.98826752 -61.1421814 10.98222351 C-54.75024796 10.91819543 -48.35881362 10.83375122 -41.96728516 10.73754883 C-39.58323759 10.70433354 -37.19911203 10.67629108 -34.81494141 10.65356445 C-31.38410261 10.61995682 -27.95397637 10.56763593 -24.5234375 10.51171875 C-23.46071625 10.50532883 -22.397995 10.4989389 -21.30307007 10.49235535 C-14.15795982 10.3510065 -9.63385512 9.45427409 -4.25 4.4375 C-3.5075 3.633125 -2.765 2.82875 -2 2 C-1.34 1.34 -0.68 0.68 0 0 Z " fill="#BA3021" transform="translate(199,120)"/>
<path d="M0 0 C2.53069408 2.53069408 3.68376954 3.98014063 5.1875 7.0625 C5.53167969 7.75472656 5.87585938 8.44695312 6.23046875 9.16015625 C7 11 7 11 7 13 C6.360625 12.814375 5.72125 12.62875 5.0625 12.4375 C4.0415625 12.2209375 4.0415625 12.2209375 3 12 C0.9431054 14.0568946 1.74252924 18.35555998 1.68359375 21.19140625 C1.66281265 22.01124496 1.64203156 22.83108368 1.62062073 23.67576599 C1.55503506 26.30458901 1.49619874 28.93351504 1.4375 31.5625 C1.39432333 33.34050561 1.35070933 35.11850065 1.30664062 36.89648438 C1.19934457 41.26421634 1.09810296 45.63205227 1 50 C0.67 50 0.34 50 0 50 C0 33.5 0 17 0 0 Z " fill="#FEE2DD" transform="translate(375,83)"/>
<path d="M0 0 C0 1.98 0 3.96 0 6 C-0.66 4.68 -1.32 3.36 -2 2 C-14.21 2 -26.42 2 -39 2 C-39 1.34 -39 0.68 -39 0 C-33.92817521 -0.1676542 -28.8561943 -0.32820966 -23.78393555 -0.48217773 C-22.05828803 -0.53556166 -20.33269948 -0.59088821 -18.60717773 -0.64819336 C-16.12757073 -0.7302051 -13.64783593 -0.80523843 -11.16796875 -0.87890625 C-10.39599655 -0.90594131 -9.62402435 -0.93297638 -8.82865906 -0.96083069 C-5.58570577 -1.05128101 -3.10467559 -1.03489186 0 0 Z " fill="#FCC9C3" transform="translate(388,43)"/>
<path d="M0 0 C0.66 0.99 1.32 1.98 2 3 C1.5390625 4.97265625 1.5390625 4.97265625 0.625 7.0625 C-0.65274522 9.9323554 -0.65274522 9.9323554 -1 13 C-2.65 13.66 -4.3 14.32 -6 15 C-6 15.66 -6 16.32 -6 17 C-6.99 17.33 -7.98 17.66 -9 18 C-11.6875 16.0625 -11.6875 16.0625 -14 14 C-12.98679688 13.48953125 -12.98679688 13.48953125 -11.953125 12.96875 C-5.51326396 9.46963475 -2.60852127 6.87701061 0 0 Z " fill="#F7FBF4" transform="translate(202,117)"/>
<path d="M0 0 C1.10176129 3.35216734 0.89303058 5.75121078 0.1875 9.1875 C0.01605469 10.06792969 -0.15539062 10.94835937 -0.33203125 11.85546875 C-0.66267578 12.91701172 -0.66267578 12.91701172 -1 14 C-1.99 14.495 -1.99 14.495 -3 15 C-3.66 17.31 -4.32 19.62 -5 22 C3.91 22 12.82 22 22 22 C22 22.33 22 22.66 22 23 C12.1 23 2.2 23 -8 23 C-6.15070469 17.45211407 -4.28829443 11.93768451 -2.3125 6.4375 C-1.87550781 5.21933594 -1.43851562 4.00117187 -0.98828125 2.74609375 C-0.66214844 1.83988281 -0.33601563 0.93367188 0 0 Z " fill="#CF685B" transform="translate(464,110)"/>
<path d="M0 0 C0.66 0 1.32 0 2 0 C1.32829194 3.8063457 0.27253436 7.35206816 -1 11 C-1.66 11 -2.32 11 -3 11 C-2.67 13.97 -2.34 16.94 -2 20 C-2.66 20.33 -3.32 20.66 -4 21 C-4.33 21.99 -4.66 22.98 -5 24 C-5.66 24 -6.32 24 -7 24 C-7.33 25.32 -7.66 26.64 -8 28 C-8.66 27.67 -9.32 27.34 -10 27 C-8.52284038 22.87427848 -7.04293402 18.74954758 -5.5625 14.625 C-5.14162109 13.449375 -4.72074219 12.27375 -4.28710938 11.0625 C-3.88427734 9.94101563 -3.48144531 8.81953125 -3.06640625 7.6640625 C-2.69459229 6.62717285 -2.32277832 5.5902832 -1.93969727 4.52197266 C-1 2 -1 2 0 0 Z " fill="#CF4038" transform="translate(475,81)"/>
<path d="M0 0 C13.86 0.495 13.86 0.495 28 1 C28 1.66 28 2.32 28 3 C18.43 3 8.86 3 -1 3 C-0.67 2.01 -0.34 1.02 0 0 Z " fill="#FCC7C0" transform="translate(290,42)"/>
<path d="M0 0 C0.33 0 0.66 0 1 0 C1 16.5 1 33 1 50 C-1.8290723 47.1709277 -2.37611108 46.61855575 -3 43 C-2.01 43.33 -1.02 43.66 0 44 C0 29.48 0 14.96 0 0 Z " fill="#FEC9BD" transform="translate(411,45)"/>
<path d="M0 0 C0.99 0 1.98 0 3 0 C3 0.66 3 1.32 3 2 C3.66 2 4.32 2 5 2 C5.33 3.32 5.66 4.64 6 6 C6.66 6 7.32 6 8 6 C8.02719556 8.37507855 8.04693247 10.74983964 8.0625 13.125 C8.07087891 13.79015625 8.07925781 14.4553125 8.08789062 15.140625 C8.10782292 19.20681354 7.78890161 23.0120092 7 27 C6.67 27 6.34 27 6 27 C6 21.06 6 15.12 6 9 C5.34 9 4.68 9 4 9 C2.68 6.03 1.36 3.06 0 0 Z " fill="#FEF3EA" transform="translate(198,51)"/>
<path d="M0 0 C3.01663617 4.52495426 4.59664255 9.5684811 6.47827148 14.65209961 C7.18743678 16.56232972 7.90881782 18.46765262 8.63085938 20.37304688 C9.29891602 22.17032227 9.29891602 22.17032227 9.98046875 24.00390625 C10.39192139 25.10549072 10.80337402 26.2070752 11.22729492 27.34204102 C12 30 12 30 11 32 C8.14155818 29.14155818 8.29210691 26.22308039 7.7578125 22.3125 C7.21532197 19.82892753 7.21532197 19.82892753 4.9296875 18.6875 C4.29289063 18.460625 3.65609375 18.23375 3 18 C3.33 17.01 3.66 16.02 4 15 C3.34 14.01 2.68 13.02 2 12 C1.875 9.3125 1.875 9.3125 2 7 C1.34 7 0.68 7 0 7 C0 4.69 0 2.38 0 0 Z " fill="#CB463C" transform="translate(544,80)"/>
<path d="M0 0 C11.88 0 23.76 0 36 0 C36.66 1.98 37.32 3.96 38 6 C37.01 5.67 36.02 5.34 35 5 C35 4.01 35 3.02 35 2 C23.78 1.67 12.56 1.34 1 1 C0.34 2.65 -0.32 4.3 -1 6 C-1.33 5.34 -1.66 4.68 -2 4 C-1.34 2.68 -0.68 1.36 0 0 Z " fill="#FDD2C7" transform="translate(492,115)"/>
<path d="M0 0 C1.9375 0.8125 1.9375 0.8125 4 2 C4.33 2.99 4.66 3.98 5 5 C5.99 5.33 6.98 5.66 8 6 C8.144375 7.0725 8.28875 8.145 8.4375 9.25 C8.93604202 13.20158956 8.93604202 13.20158956 10 17 C10.99 17.33 11.98 17.66 13 18 C13 19.98 13 21.96 13 24 C10.86774488 21.2763334 9.12558713 18.54989546 7.51953125 15.48828125 C7.07802734 14.64845703 6.63652344 13.80863281 6.18164062 12.94335938 C5.72982422 12.07517578 5.27800781 11.20699219 4.8125 10.3125 C4.34908203 9.43271484 3.88566406 8.55292969 3.40820312 7.64648438 C0 1.13626427 0 1.13626427 0 0 Z " fill="#CC3F32" transform="translate(388,107)"/>
<path d="M0 0 C0.99 0.495 0.99 0.495 2 1 C2 1.99 2 2.98 2 4 C2.66 4 3.32 4 4 4 C4.66 6.97 5.32 9.94 6 13 C6.66 13 7.32 13 8 13 C9.6875 14.4375 9.6875 14.4375 11 17 C10.95795687 20.05338255 10.53265251 22.99660996 10 26 C8.22655784 23.33983676 7.18279443 21.14158531 6.0546875 18.18359375 C5.70019531 17.25482422 5.34570312 16.32605469 4.98046875 15.36914062 C4.61566406 14.40169922 4.25085938 13.43425781 3.875 12.4375 C3.31619141 10.98053711 3.31619141 10.98053711 2.74609375 9.49414062 C0 2.25672505 0 2.25672505 0 0 Z " fill="#FDDDD3" transform="translate(549,92)"/>
<path d="M0 0 C2 2 2 2 2.20254517 3.91091919 C2.18033905 4.68813324 2.15813293 5.46534729 2.13525391 6.26611328 C2.11508209 7.14687531 2.09491028 8.02763733 2.0741272 8.93508911 C2.04193085 9.88721283 2.0097345 10.83933655 1.9765625 11.8203125 C1.95153656 12.79410858 1.92651062 13.76790466 1.90072632 14.77120972 C1.81838269 17.88948644 1.72184869 21.00714329 1.625 24.125 C1.56677513 26.23565155 1.50947155 28.34632872 1.453125 30.45703125 C1.31278279 35.63836592 1.1607799 40.81926146 1 46 C-0.32 45.67 -1.64 45.34 -3 45 C-3 44.34 -3 43.68 -3 43 C-2.34 43 -1.68 43 -1 43 C-1.00523682 41.73293213 -1.01047363 40.46586426 -1.01586914 39.16040039 C-1.03391514 34.4771393 -1.04543053 29.79388129 -1.05493164 25.1105957 C-1.05997278 23.08031702 -1.06680557 21.05004198 -1.07543945 19.01977539 C-1.08751467 16.10822653 -1.09323034 13.1967255 -1.09765625 10.28515625 C-1.10281754 9.3716188 -1.10797882 8.45808136 -1.11329651 7.51686096 C-1.11349168 5.34424573 -1.06211805 3.17172704 -1 1 C-0.67 0.67 -0.34 0.34 0 0 Z " fill="#FEF1E8" transform="translate(410,43)"/>
<path d="M0 0 C4.88016592 0.83659987 8.65811642 1.61977689 12.1875 5.25 C15.7159535 10.60351566 16.28351899 15.58301539 16.125 21.875 C16.11597656 22.56335938 16.10695313 23.25171875 16.09765625 23.9609375 C16.07432513 25.64077838 16.03846326 27.32043746 16 29 C15.67 29 15.34 29 15 29 C14.98582031 28.0821875 14.97164062 27.164375 14.95703125 26.21875 C14.61860462 17.51112422 13.77429632 11.65463977 7.44140625 5.48046875 C5.09042857 3.44608158 2.58527398 1.72351599 0 0 Z " fill="#F9C5BC" transform="translate(652,45)"/>
<path d="M0 0 C2.28242792 2.11003787 3.77549766 4.12803451 5.2265625 6.87109375 C5.6184375 7.61037109 6.0103125 8.34964844 6.4140625 9.11132812 C6.81367188 9.87896484 7.21328125 10.64660156 7.625 11.4375 C8.03234375 12.20126953 8.4396875 12.96503906 8.859375 13.75195312 C10.6514782 17.16110309 12.18340046 20.21437976 13 24 C12.34 24 11.68 24 11 24 C11 23.34 11 22.68 11 22 C10.01 21.67 9.02 21.34 8 21 C7.15625 19.109375 7.15625 19.109375 6.5 16.75 C5.40033792 13.12284236 4.13912344 10.16218248 2 7 C0 4 0 4 0 0 Z " fill="#CB483E" transform="translate(386,48)"/>
<path d="M0 0 C0.66 1.32 1.32 2.64 2 4 C14.21 4 26.42 4 39 4 C39 4.33 39 4.66 39 5 C37.98574951 5.02505615 36.97149902 5.0501123 35.92651367 5.07592773 C32.16368973 5.17009645 28.40104631 5.27029405 24.63842773 5.37231445 C23.00988996 5.41562749 21.38130784 5.45730518 19.75268555 5.49731445 C17.41181065 5.55510503 15.07115824 5.61877398 12.73046875 5.68359375 C11.63813179 5.70866249 11.63813179 5.70866249 10.52372742 5.73423767 C7.43833061 5.82467238 4.94828022 6.01723993 2 7 C0 4 0 4 0 0 Z " fill="#FDE8E2" transform="translate(399,129)"/>
<path d="M0 0 C0.66 0 1.32 0 2 0 C-0.14361587 9.04455467 -3.43329552 17.44683488 -7 26 C-7.99 26 -8.98 26 -10 26 C-8.87548273 23.0280615 -7.77706209 20.66559313 -6 18 C-4.20146824 13.2039153 -2.97331773 8.24470693 -1.68359375 3.29296875 C-1 1 -1 1 0 0 Z " fill="#CA4137" transform="translate(507,68)"/>
<path d="M0 0 C0.66 0 1.32 0 2 0 C2.9618423 2.51954288 3.91954241 5.04053637 4.875 7.5625 C5.14441406 8.26697266 5.41382813 8.97144531 5.69140625 9.69726562 C10.36041998 22.05307026 10.36041998 22.05307026 10 28 C7.93570331 24.17906623 6.49722985 20.12799789 5 16.0625 C4.47967462 14.65736388 3.9588525 13.2524116 3.4375 11.84765625 C3.19257812 11.1839502 2.94765625 10.52024414 2.6953125 9.83642578 C2.10287586 8.27171075 1.46252871 6.72527368 0.8125 5.18359375 C0 3 0 3 0 0 Z " fill="#FBD3C9" transform="translate(539,64)"/>
<path d="M0 0 C1.125 3.75 1.125 3.75 0 6 C-0.62455078 6.02505615 -1.24910156 6.0501123 -1.89257812 6.07592773 C-4.76187123 6.19300381 -7.63092425 6.31521751 -10.5 6.4375 C-11.48226563 6.47681641 -12.46453125 6.51613281 -13.4765625 6.55664062 C-19.0373059 6.79760617 -24.48855309 7.21921169 -30 8 C-30.33 7.01 -30.66 6.02 -31 5 C-21.1 5 -11.2 5 -1 5 C-0.67 3.35 -0.34 1.7 0 0 Z " fill="#FEEBE1" transform="translate(487,128)"/>
<path d="M0 0 C0.66 0 1.32 0 2 0 C0.61363197 5.23739035 -2.68320491 8.02042418 -7 11 C-10.3125 12.4375 -10.3125 12.4375 -13 13 C-13.66 12.67 -14.32 12.34 -15 12 C-15 11.34 -15 10.68 -15 10 C-11.49223216 8.39644899 -8.85645121 7.77963136 -5 8 C-4.896875 7.360625 -4.79375 6.72125 -4.6875 6.0625 C-4.460625 5.381875 -4.23375 4.70125 -4 4 C-3.01 3.67 -2.02 3.34 -1 3 C-0.67 2.01 -0.34 1.02 0 0 Z " fill="#CC3F32" transform="translate(314,119)"/>
<path d="M0 0 C3.40050776 5.10076165 4 6.45714585 4 13 C-1.61 13 -7.22 13 -13 13 C-12.67 12.34 -12.34 11.68 -12 11 C-5.07 11.495 -5.07 11.495 2 12 C1.34 10.35 0.68 8.7 0 7 C-0.07646165 4.6679198 -0.09143299 2.33154122 0 0 Z " fill="#FFE9DE" transform="translate(515,81)"/>
<path d="M0 0 C0.33 0.66 0.66 1.32 1 2 C0.16300831 4.21920683 -0.77117683 6.40209744 -1.75 8.5625 C-4.15739178 13.96625217 -6.24621196 19.34890521 -8 25 C-8.33 25 -8.66 25 -9 25 C-8.35812082 19.86496656 -7.31727753 15.0056546 -6 10 C-5.34 10 -4.68 10 -4 10 C-3.8453125 8.9171875 -3.8453125 8.9171875 -3.6875 7.8125 C-2.94013068 4.75508007 -1.71954811 2.61670365 0 0 Z " fill="#FBCEC4" transform="translate(479,69)"/>
<path d="M0 0 C0.99 0 1.98 0 3 0 C3.10414253 5.75098214 3.20116938 11.35450392 2 17 C1.34 17.33 0.68 17.66 0 18 C0 12.06 0 6.12 0 0 Z " fill="#CA3F36" transform="translate(637,66)"/>
<path d="M0 0 C5.38399367 2.17923553 8.88277004 5.15551802 12 10 C12.875 13.4375 12.875 13.4375 13 16 C12.67 15.34 12.34 14.68 12 14 C11.34 14 10.68 14 10 14 C9.67 12.35 9.34 10.7 9 9 C8.01 9 7.02 9 6 9 C5.7525 8.21625 5.505 7.4325 5.25 6.625 C3.84610901 3.67682892 2.99324263 3.0975223 0 2 C0 1.34 0 0.68 0 0 Z " fill="#C54235" transform="translate(654,92)"/>
<path d="M0 0 C1.98 0.99 1.98 0.99 4 2 C4 3.32 4 4.64 4 6 C5.65 6.33 7.3 6.66 9 7 C9.33 7.99 9.66 8.98 10 10 C10.99 10.66 11.98 11.32 13 12 C12.01 12.495 12.01 12.495 11 13 C6.33945277 10.1819947 3.20547572 7.43109879 0 3 C0 2.01 0 1.02 0 0 Z " fill="#C83F34" transform="translate(237,118)"/>
<path d="M0 0 C3.00048246 3.58211445 4.77698774 7.53012116 6.6875 11.75 C7.00783203 12.44738281 7.32816406 13.14476563 7.65820312 13.86328125 C8.44306261 15.57357208 9.22211648 17.28652507 10 19 C9.34 19.33 8.68 19.66 8 20 C6.46206903 16.92413807 4.92760626 13.84942102 3.4375 10.75 C2.14731757 7.94792702 2.14731757 7.94792702 0 6 C-0.125 2.875 -0.125 2.875 0 0 Z " fill="#CC4C40" transform="translate(399,72)"/>
<path d="M0 0 C0.66 0 1.32 0 2 0 C2.33 1.98 2.66 3.96 3 6 C2.34 6 1.68 6 1 6 C0.87625 6.5775 0.7525 7.155 0.625 7.75 C-0.00648824 10.02335767 -0.88858191 11.9253529 -2 14 C-2.66 14 -3.32 14 -4 14 C-3.00956295 9.16371695 -2.04301154 4.52381127 0 0 Z " fill="#FACFC1" transform="translate(509,67)"/>
<path d="M0 0 C0.66 0.66 1.32 1.32 2 2 C-1.88026891 6.24404412 -6.04254346 9.10917547 -11 12 C-11.66 11.34 -12.32 10.68 -13 10 C-12.113125 9.608125 -11.22625 9.21625 -10.3125 8.8125 C-6.85839048 6.92251554 -4.65677677 4.87817484 -2 2 C-1.34 1.34 -0.68 0.68 0 0 Z " fill="#CB4236" transform="translate(199,120)"/>
<path d="M0 0 C5.88235451 0.29411773 9.85498263 3.01368825 14 7 C15.234375 9.19921875 15.234375 9.19921875 16 11 C14.68 10.34 13.36 9.68 12 9 C12 8.34 12 7.68 12 7 C10.68 7 9.36 7 8 7 C7.34 6.01 6.68 5.02 6 4 C2.44327821 2.7811879 2.44327821 2.7811879 -1 2 C-0.67 1.34 -0.34 0.68 0 0 Z " fill="#CA4337" transform="translate(185,45)"/>
<path d="M0 0 C5.36452173 3.81477101 7.13499245 6.67969662 9 13 C9 13.66 9 14.32 9 15 C8.34 15 7.68 15 7 15 C6.67 13.02 6.34 11.04 6 9 C5.34 9 4.68 9 4 9 C3.67 8.01 3.34 7.02 3 6 C2.01 5.34 1.02 4.68 0 4 C0 2.68 0 1.36 0 0 Z " fill="#C64636" transform="translate(772,49)"/>
<path d="M0 0 C0.33 0 0.66 0 1 0 C1.17015625 0.94101563 1.3403125 1.88203125 1.515625 2.8515625 C3.20837525 12.12285663 3.20837525 12.12285663 8 20 C7.01 19.67 6.02 19.34 5 19 C5 18.34 5 17.68 5 17 C3.68 16.67 2.36 16.34 1 16 C0.67 10.72 0.34 5.44 0 0 Z " fill="#F9CFC6" transform="translate(118,107)"/>
<path d="M0 0 C0.66 0.33 1.32 0.66 2 1 C1.01 2.485 1.01 2.485 0 4 C2.31 4.33 4.62 4.66 7 5 C7 6.65 7 8.3 7 10 C6.45730469 9.65066406 5.91460938 9.30132812 5.35546875 8.94140625 C4.64003906 8.48636719 3.92460938 8.03132813 3.1875 7.5625 C2.47980469 7.11003906 1.77210938 6.65757813 1.04296875 6.19140625 C-1.08134552 4.85913661 -1.08134552 4.85913661 -4 4 C-4 3.34 -4 2.68 -4 2 C-2.125 0.9375 -2.125 0.9375 0 0 Z " fill="#FBCEBD" transform="translate(656,88)"/>
<path d="M0 0 C0.99 0 1.98 0 3 0 C4.25664978 2.90600261 5 4.79604584 5 8 C4.01 8 3.02 8 2 8 C1.34 7.34 0.68 6.68 0 6 C-0.66 6 -1.32 6 -2 6 C-1.34 4.02 -0.68 2.04 0 0 Z " fill="#FCE7DE" transform="translate(510,73)"/>
<path d="M0 0 C10.55808656 -0.18451025 10.55808656 -0.18451025 15 1 C15 2.32 15 3.64 15 5 C14.41992188 4.79503906 13.83984375 4.59007812 13.2421875 4.37890625 C8.8378016 2.85990187 4.64322223 1.5952849 0 1 C0 0.67 0 0.34 0 0 Z " fill="#FDE3DA" transform="translate(757,43)"/>
<path d="M0 0 C1.32 0 2.64 0 4 0 C4.66 2.97 5.32 5.94 6 9 C5.01 9.33 4.02 9.66 3 10 C2.01 6.7 1.02 3.4 0 0 Z " fill="#FCEDE4" transform="translate(561,124)"/>
<path d="M0 0 C2.375 0.625 2.375 0.625 5 2 C6.3125 5.125 6.3125 5.125 7 8 C3.7 6.35 0.4 4.7 -3 3 C-2.01 2.67 -1.02 2.34 0 2 C0 1.34 0 0.68 0 0 Z " fill="#FADAD3" transform="translate(191,43)"/>
<path d="M0 0 C0.66 0 1.32 0 2 0 C2.268125 0.845625 2.53625 1.69125 2.8125 2.5625 C3.67413915 5.05671861 4.5847692 7.31005286 5.6875 9.6875 C7 13 7 13 6 16 C3.69 11.05 1.38 6.1 -1 1 C-0.67 0.67 -0.34 0.34 0 0 Z " fill="#C94134" transform="translate(381,90)"/>
<path d="M0 0 C2.8125 0.5625 2.8125 0.5625 6 2 C8.29306574 6.05108281 9.42351736 9.34130899 9 14 C8.7525 13.46375 8.505 12.9275 8.25 12.375 C5.93026541 7.96750427 3.03262807 3.9424165 0 0 Z " fill="#FCD5C9" transform="translate(772,48)"/>
<path d="M0 0 C1.30861665 4.01609939 0.62632019 6.45257439 -0.8984375 10.29296875 C-2 12 -2 12 -5.1875 13 C-6.115625 13 -7.04375 13 -8 13 C-7.236875 12.154375 -6.47375 11.30875 -5.6875 10.4375 C-2.9508582 7.17996332 -1.50585211 3.96276872 0 0 Z " fill="#FAD2C9" transform="translate(666,75)"/>
<path d="M0 0 C2.18975773 3.28463659 2.99806563 6.20696275 4 10 C2.68 10.33 1.36 10.66 0 11 C-0.84098656 6.98195309 -1.05404945 3.98196457 0 0 Z " fill="#F9D6CA" transform="translate(530,121)"/>
<path d="M0 0 C1.90389849 2.85584773 2.69462177 4.9311762 3.625 8.1875 C3.88539063 9.08855469 4.14578125 9.98960938 4.4140625 10.91796875 C4.60742188 11.60503906 4.80078125 12.29210937 5 13 C4.01 12.67 3.02 12.34 2 12 C1.05078125 9.49609375 1.05078125 9.49609375 0.3125 6.4375 C0.06113281 5.42558594 -0.19023438 4.41367188 -0.44921875 3.37109375 C-0.63097656 2.58863281 -0.81273437 1.80617188 -1 1 C-0.67 0.67 -0.34 0.34 0 0 Z " fill="#CF4E45" transform="translate(557,115)"/>
<path d="M0 0 C1.65 1.32 3.3 2.64 5 4 C4.67 5.32 4.34 6.64 4 8 C1.525 7.01 1.525 7.01 -1 6 C-0.67 4.02 -0.34 2.04 0 0 Z " fill="#D23824" transform="translate(659,50)"/>
<path d="M0 0 C0.33 0.99 0.66 1.98 1 3 C-2.99613521 6.71069698 -5.37082652 8.59791618 -11 9 C-10.484375 8.62875 -9.96875 8.2575 -9.4375 7.875 C-6.18438982 5.37260756 -3.09877473 2.68966683 0 0 Z " fill="#F9CCC0" transform="translate(314,123)"/>
<path d="M0 0 C0.33 0 0.66 0 1 0 C1.45732667 5.71658336 0.52273754 8.48649253 -3 13 C-4 11 -4 11 -3.22265625 8.3984375 C-2.83980469 7.40070312 -2.45695312 6.40296875 -2.0625 5.375 C-1.68222656 4.37210938 -1.30195313 3.36921875 -0.91015625 2.3359375 C-0.60980469 1.56507812 -0.30945313 0.79421875 0 0 Z " fill="#CF554B" transform="translate(486,50)"/>
<path d="M0 0 C0.99 0.33 1.98 0.66 3 1 C3 1.99 3 2.98 3 4 C3.66 4 4.32 4 5 4 C5.66 6.31 6.32 8.62 7 11 C6.01 11.495 6.01 11.495 5 12 C4.16180842 10.37750059 3.3295884 8.75191503 2.5 7.125 C2.0359375 6.22007813 1.571875 5.31515625 1.09375 4.3828125 C0 2 0 2 0 0 Z " fill="#FDE0D4" transform="translate(388,49)"/>
<path d="M0 0 C2.74792483 3.40219265 6 7.48464588 6 12 C5.01 11.67 4.02 11.34 3 11 C3 9.68 3 8.36 3 7 C2.01 6.67 1.02 6.34 0 6 C0 4.02 0 2.04 0 0 Z " fill="#FBD4CC" transform="translate(382,96)"/>
<path d="M0 0 C0.66 0.33 1.32 0.66 2 1 C0.9375 3.5 0.9375 3.5 -1 6 C-4.6875 6.3125 -4.6875 6.3125 -8 6 C-5.33333333 4 -2.66666667 2 0 0 Z " fill="#F9CDBF" transform="translate(196,126)"/>
<path d="M0 0 C1.23593891 3.70781672 0.5678132 4.67510253 -0.9375 8.1875 C-1.31777344 9.08855469 -1.69804687 9.98960938 -2.08984375 10.91796875 C-2.54037109 11.94857422 -2.54037109 11.94857422 -3 13 C-3.66 13 -4.32 13 -5 13 C-4.32116957 9.88452559 -3.25893098 7.14862279 -1.9375 4.25 C-1.57527344 3.45078125 -1.21304687 2.6515625 -0.83984375 1.828125 C-0.56269531 1.22484375 -0.28554688 0.6215625 0 0 Z " fill="#FDDBCF" transform="translate(460,118)"/>
<path d="M0 0 C3.10551666 3.10551666 3.81323934 4.89198233 5 9 C3.68 9 2.36 9 1 9 C0.67 6.03 0.34 3.06 0 0 Z " fill="#FACABD" transform="translate(375,83)"/>
<path d="M0 0 C0.33 0 0.66 0 1 0 C1 1.65 1 3.3 1 5 C1.66 5 2.32 5 3 5 C3 6.98 3 8.96 3 11 C0.9375 9.4375 0.9375 9.4375 -1 7 C-0.75 3.25 -0.75 3.25 0 0 Z " fill="#E6342C" transform="translate(538,68)"/>
<path d="M0 0 C0.66 0.99 1.32 1.98 2 3 C1.01 3.495 1.01 3.495 0 4 C-0.66 3.67 -1.32 3.34 -2 3 C-4.54615009 2.76827173 -7.07396225 2.58105471 -9.625 2.4375 C-10.33140625 2.39431641 -11.0378125 2.35113281 -11.765625 2.30664062 C-13.51018537 2.20055249 -15.25506697 2.09977111 -17 2 C-17 1.67 -17 1.34 -17 1 C-15.85660156 1.01160156 -14.71320313 1.02320313 -13.53515625 1.03515625 C-12.04427246 1.04453288 -10.55338691 1.05363321 -9.0625 1.0625 C-8.30775391 1.07087891 -7.55300781 1.07925781 -6.77539062 1.08789062 C-4.85005687 1.09652441 -2.92464419 1.05224333 -1 1 C-0.67 0.67 -0.34 0.34 0 0 Z " fill="#DD3E38" transform="translate(385,45)"/>
<path d="M0 0 C0.99 0 1.98 0 3 0 C3 0.66 3 1.32 3 2 C3.66 2 4.32 2 5 2 C5.625 3.8125 5.625 3.8125 6 6 C5.01 7.485 5.01 7.485 4 9 C2.68 6.03 1.36 3.06 0 0 Z " fill="#FDDED6" transform="translate(198,51)"/>
<path d="M0 0 C2.64 0 5.28 0 8 0 C8 0.66 8 1.32 8 2 C5.03 2.66 2.06 3.32 -1 4 C-0.67 2.68 -0.34 1.36 0 0 Z " fill="#C5382F" transform="translate(488,45)"/>
<path d="M0 0 C0.66 0.99 1.32 1.98 2 3 C0.625 6.6875 0.625 6.6875 -1 10 C-1.99 9.34 -2.98 8.68 -4 8 C-2.68 5.36 -1.36 2.72 0 0 Z " fill="#FBDBD2" transform="translate(202,117)"/>
<path d="M0 0 C3.03869411 1.51934706 3.64410306 3.98004772 5 7 C5 7.66 5 8.32 5 9 C3.0625 8.4375 3.0625 8.4375 1 7 C0.25 3.375 0.25 3.375 0 0 Z " fill="#FAD7CC" transform="translate(392,116)"/>
<path d="M0 0 C1.32 0.33 2.64 0.66 4 1 C4.33 3.64 4.66 6.28 5 9 C1.9083091 6.47043472 1.09068668 3.77545388 0 0 Z " fill="#D03528" transform="translate(376,82)"/>
<path d="M0 0 C0.66 0 1.32 0 2 0 C1.01 3.3 0.02 6.6 -1 10 C-1.33 10 -1.66 10 -2 10 C-2.25 3.375 -2.25 3.375 0 0 Z " fill="#C4382C" transform="translate(507,68)"/>
<path d="M0 0 C2.64 0.66 5.28 1.32 8 2 C5.64561267 3.42944945 4.51967567 4.08661261 1.75 3.625 C1.1725 3.41875 0.595 3.2125 0 3 C0 2.01 0 1.02 0 0 Z " fill="#FCDAD1" transform="translate(130,130)"/>
<path d="M0 0 C1.99097846 2.98646769 2.94124926 5.59687262 4 9 C2.68 8.34 1.36 7.68 0 7 C0 4.69 0 2.38 0 0 Z " fill="#F8CEC0" transform="translate(515,81)"/>
<path d="M0 0 C0.99 0.33 1.98 0.66 3 1 C3.73046875 3.06640625 3.73046875 3.06640625 4.1875 5.5625 C4.34605469 6.38878906 4.50460937 7.21507813 4.66796875 8.06640625 C4.77753906 8.70449219 4.88710938 9.34257813 5 10 C0 3.40909091 0 3.40909091 0 0 Z " fill="#FEDFD2" transform="translate(398,68)"/>
<path d="M0 0 C2.475 0.99 2.475 0.99 5 2 C4.67 3.65 4.34 5.3 4 7 C0 2.25 0 2.25 0 0 Z " fill="#FDE4D8" transform="translate(394,61)"/>
<path d="M0 0 C2.83374881 3.20336822 3.5205537 5.78087253 4 10 C1.2027092 7.93243723 0.97307727 6.85559629 0.3125 3.3125 C0.209375 2.219375 0.10625 1.12625 0 0 Z " fill="#C64535" transform="translate(532,49)"/>
<path d="M0 0 C3 1 3 1 4 3 C4.039992 4.99960012 4.04346799 7.00047242 4 9 C3.67 7.68 3.34 6.36 3 5 C2.34 5 1.68 5 1 5 C0.67 3.35 0.34 1.7 0 0 Z " fill="#CE3728" transform="translate(534,58)"/>
</svg>
