<?xml version="1.0" encoding="UTF-8"?>
<svg version="1.1" xmlns="http://www.w3.org/2000/svg" width="4500" height="1635">
<path d="M0 0 C27.06 0 54.12 0 82 0 C85.63 5.94 89.26 11.88 93 18 C96.68955929 23.55790584 96.68955929 23.55790584 100.40625 29.09765625 C103.87058832 34.26884741 107.16188577 39.54881166 110.47290039 44.81884766 C113.73584368 50.00854569 117.03466663 55.1722991 120.375 60.3125 C124.6224114 66.85043269 128.82045254 73.41848528 133 80 C137.13955775 86.51787509 141.29504084 93.02411334 145.5 99.5 C150.31735554 106.91901342 155.06613956 114.38059555 159.80859375 121.84765625 C163.3472417 127.41502578 166.9075485 132.967212 170.5 138.5 C175.18834497 145.72265541 179.81669795 152.98243723 184.43505859 160.25 C189.15365844 167.67396479 193.8851993 175.08956116 198.625 182.5 C199.30006592 183.55638672 199.97513184 184.61277344 200.6706543 185.70117188 C201.307854 186.69697266 201.94505371 187.69277344 202.6015625 188.71875 C203.19356445 189.64429688 203.78556641 190.56984375 204.39550781 191.5234375 C205.72130994 193.56983688 207.07769036 195.58616257 208.4609375 197.59375 C210 200 210 200 210 202 C210.66 202 211.32 202 212 202 C212.23460937 201.32453125 212.46921875 200.6490625 212.7109375 199.953125 C214.31023627 196.28927691 216.42297107 193.06913836 218.625 189.75 C219.62445497 188.22445404 220.62310358 186.69837961 221.62109375 185.171875 C222.16362793 184.34365234 222.70616211 183.51542969 223.26513672 182.66210938 C226.43712063 177.79477014 229.55973831 172.89582538 232.6875 168 C234.06637339 165.84372899 235.44528006 163.68747925 236.82421875 161.53125 C237.51563965 160.44972656 238.20706055 159.36820313 238.91943359 158.25390625 C242.93995711 151.96599996 246.96419774 145.68047221 250.98779297 139.39453125 C254.38506942 134.08675506 257.78134417 128.77834256 261.17578125 123.46875 C267.39920759 113.73596615 273.63009586 104.00885484 279.91918945 94.31835938 C284.25783853 87.62282325 288.53167149 80.88636825 292.80908203 74.15161133 C296.34754055 68.58446886 299.90770826 63.03254196 303.5 57.5 C307.59697846 51.1883775 311.65144701 44.85074856 315.6875 38.5 C316.86327431 36.65103726 318.03905572 34.80207902 319.21484375 32.953125 C321.1947307 29.83954648 323.17425567 26.72573956 325.15283203 23.61132812 C326.99091349 20.71872247 328.83184707 17.82794763 330.67446899 14.93823242 C331.73360673 13.27573208 332.79004287 11.6115116 333.84643555 9.94726562 C334.49008057 8.93857422 335.13372559 7.92988281 335.796875 6.890625 C336.36760742 5.99375977 336.93833984 5.09689453 337.52636719 4.17285156 C339 2 339 2 341 0 C367.73 0 394.46 0 422 0 C422 142.23 422 284.46 422 431 C396.92 431 371.84 431 346 431 C345.67 330.35 345.34 229.7 345 126 C335.43 140.52 325.86 155.04 316 170 C301.5 191.5 301.5 191.5 294.25 202.21875 C286.91064634 213.08717985 279.69834529 224.03787039 272.5 235 C259.75404562 254.4093542 246.80083624 273.67304496 233.7895813 292.90524292 C228.2502549 301.09830499 222.76132673 309.32438661 217.29956055 317.56933594 C216.73148682 318.4255957 216.16341309 319.28185547 215.578125 320.1640625 C214.85737793 321.25388428 214.85737793 321.25388428 214.12207031 322.36572266 C212.36699543 324.92196097 212.36699543 324.92196097 209.7175293 325.48535156 C207 325 207 325 204.79223633 322.19433594 C204.01811652 320.88398714 203.26186987 319.56298661 202.51953125 318.234375 C201.64105256 316.74856422 200.75888094 315.26493229 199.87353516 313.78320312 C199.17505463 312.60528198 199.17505463 312.60528198 198.46246338 311.40356445 C196.00894322 307.3711942 193.35561065 303.47866979 190.69921875 299.578125 C190.14319977 298.7579187 189.58718079 297.9377124 189.01431274 297.09265137 C187.8479266 295.3727871 186.68053499 293.65360435 185.51220703 291.93505859 C174.71124708 276.04143302 164.04495981 260.06444282 153.5 244 C143.35034664 228.54166369 133.08026599 213.17126653 122.71166992 197.85900879 C111.76360107 181.68562309 100.98657756 165.40337025 90.27539062 149.07226562 C89.68995483 148.1805365 89.10451904 147.28880737 88.50134277 146.37005615 C87.4154442 144.71554232 86.33078653 143.06021302 85.24768066 141.40386963 C84.75989136 140.66054382 84.27210205 139.91721802 83.76953125 139.15136719 C83.35292236 138.514953 82.93631348 137.87853882 82.50708008 137.22283936 C80.39569421 134.10869056 78.18686751 131.06161452 76 128 C75.67 227.99 75.34 327.98 75 431 C50.25 431 25.5 431 0 431 C0 288.77 0 146.54 0 0 Z " fill="#5B888D" transform="translate(929,575)"/>
<path d="M0 0 C225.88011364 0 225.88011364 0 247.25 5.6875 C248.72073975 6.06986816 248.72073975 6.06986816 250.22119141 6.45996094 C285.02518061 15.87678297 315.55550071 35.2256744 334.19140625 66.62890625 C353.18134659 99.92007706 355.84932905 141.77866445 346.45898438 178.45654297 C338.11792297 208.5359726 317.95702916 234.87858025 291.01049805 250.6796875 C287.71501648 252.53652229 284.37410681 254.29081993 281 256 C280.36562012 256.32339355 279.73124023 256.64678711 279.07763672 256.97998047 C269.98253762 261.55918349 260.7302821 265.00500537 251 268 C252.35516991 270.84082004 253.87784562 273.42139 255.65234375 276.01953125 C256.17578369 276.78668457 256.69922363 277.55383789 257.23852539 278.34423828 C258.07951782 279.56602783 258.07951782 279.56602783 258.9375 280.8125 C259.51943115 281.66054199 260.1013623 282.50858398 260.70092773 283.38232422 C264.67212372 289.1423716 268.74234092 294.81747781 272.90625 300.43920898 C278.40232771 307.86626053 283.6906493 315.43897699 289 323 C295.0735802 331.64209887 301.17344155 340.26162548 307.375 348.8125 C312.58683683 355.99938158 317.69307791 363.25502775 322.76904297 370.53833008 C326.62703098 376.06447832 330.54003619 381.54654003 334.5 387 C339.73058804 394.20413867 344.85947632 401.47466871 349.94970703 408.77856445 C353.96754196 414.54049208 358.02830678 420.2690276 362.15698242 425.95214844 C365 429.89282118 365 429.89282118 365 431 C353.32615357 431.3717809 341.65372809 431.65552284 329.97515392 431.82899475 C324.55104286 431.91228721 319.13099835 432.02508991 313.70922852 432.20703125 C308.46982229 432.38173928 303.23430747 432.47670717 297.9922123 432.51803589 C295.99947118 432.54745588 294.00692853 432.60492138 292.0158596 432.69168091 C276.82653436 433.32682304 276.82653436 433.32682304 272.0891552 429.42697906 C268.69812324 425.61395869 266.23701096 421.38845798 263.95269585 416.84536266 C262.76617654 414.54708622 261.33706354 412.49319439 259.79296875 410.421875 C259.35936035 409.80981201 258.92575195 409.19774902 258.47900391 408.56713867 C257.83970947 407.66765503 257.83970947 407.66765503 257.1875 406.75 C252.81500164 400.57523548 248.46191691 394.38731028 244.125 388.1875 C243.54145752 387.353396 242.95791504 386.51929199 242.35668945 385.65991211 C239.9736953 382.2530646 237.59135497 378.84576013 235.20898438 375.43847656 C228.67149962 366.08951613 222.1241867 356.74799345 215.53857422 347.43286133 C211.07573897 341.1165396 206.6427678 334.77950417 202.2109375 328.44140625 C198.48715588 323.11820301 194.74982839 317.80488028 191 312.5 C189.53677918 310.42687592 188.0738115 308.35357335 186.61083984 306.28027344 C185.4535459 304.64203072 184.29485073 303.00477754 183.13525391 301.36816406 C181.1908737 298.6228717 179.25136189 295.87419152 177.3125 293.125 C176.69955078 292.26197266 176.08660156 291.39894531 175.45507812 290.50976562 C174.88853516 289.70474609 174.32199219 288.89972656 173.73828125 288.0703125 C173.23337158 287.35633301 172.72846191 286.64235352 172.20825195 285.90673828 C171 284 171 284 170 281 C138.98 281 107.96 281 76 281 C76 330.5 76 380 76 431 C50.92 431 25.84 431 0 431 C0 288.77 0 146.54 0 0 Z M76 70 C76 117.19 76 164.38 76 213 C95.92375 213.061875 115.8475 213.12375 136.375 213.1875 C145.76138916 213.22846802 145.76138916 213.22846802 155.33740234 213.27026367 C161.01728575 213.28030583 161.01728575 213.28030583 166.69717407 213.28633118 C169.19889941 213.29089465 171.70061875 213.30135441 174.20230103 213.31672668 C202.53675415 213.48191405 229.57959549 211.35931607 252 192 C253.01707031 191.12601563 253.01707031 191.12601563 254.0546875 190.234375 C266.87594621 178.36099145 272.88439113 162.15248633 274 145 C274.24337935 125.56442063 269.98633026 107.46515964 256.25537109 93.06005859 C239.58597008 76.39065758 215.48047002 69.81026277 192.39303112 69.7511425 C190.69257373 69.76193683 190.69257373 69.76193683 188.95776367 69.77294922 C187.08201015 69.77258761 187.08201015 69.77258761 185.16836262 69.7722187 C181.82918388 69.77345298 178.49026304 69.78324289 175.15113068 69.79743958 C172.0013523 69.80895117 168.85157909 69.80937236 165.70178223 69.81079102 C156.53033578 69.82122609 147.35891595 69.84914859 138.1875 69.875 C107.4046875 69.936875 107.4046875 69.936875 76 70 Z " fill="#5B888D" transform="translate(2079,575)"/>
<path d="M0 0 C195.44372333 0 195.44372333 0 219.5 5.625 C220.59908691 5.87733398 221.69817383 6.12966797 222.83056641 6.38964844 C272.45777046 18.28207716 317.48800954 45.79401373 348 87 C348.93392578 88.24136719 348.93392578 88.24136719 349.88671875 89.5078125 C366.72644104 112.66733733 377.70925554 139.05863558 383.875 166.9375 C384.06602295 167.79875488 384.2570459 168.66000977 384.45385742 169.54736328 C387.55143935 184.53656926 388.3787324 199.42519615 388.3125 214.6875 C388.30976578 216.00169418 388.30976578 216.00169418 388.30697632 217.34243774 C388.26007685 230.75950512 387.7285639 243.82303285 385 257 C384.82839355 257.85432617 384.65678711 258.70865234 384.47998047 259.58886719 C373.99415912 310.50929006 345.92162706 357.74206944 303 388 C302.46713379 388.38784668 301.93426758 388.77569336 301.38525391 389.17529297 C283.43028481 402.21167581 263.01063185 412.01680336 242 419 C240.78111084 419.41088867 240.78111084 419.41088867 239.53759766 419.83007812 C165.77639958 444.17758037 63.49131045 431 0 431 C0 288.77 0 146.54 0 0 Z M76 70 C76 166.03 76 262.06 76 361 C140.60834397 364.3947463 140.60834397 364.3947463 207.75 355.25 C208.6150415 354.99395996 209.48008301 354.73791992 210.37133789 354.47412109 C245.18479447 343.82499701 274.40475562 320.72767557 291.75 288.625 C303.42846143 266.07827513 308.22987973 241.98311315 308.25 216.6875 C308.25067474 215.92711426 308.25134949 215.16672852 308.25204468 214.38330078 C308.23554431 202.6757492 307.71374773 191.4346004 305 180 C304.75056641 178.89760986 304.75056641 178.89760986 304.49609375 177.77294922 C296.56253205 143.51906199 275.56748474 111.75988216 245.6875 92.8125 C191.75817463 61.19206822 141.35261332 70 76 70 Z " fill="#5B888D" transform="translate(3697,575)"/>
<path d="M0 0 C104.94 0 209.88 0 318 0 C318 22.44 318 44.88 318 68 C238.14 68 158.28 68 76 68 C76 104.63 76 141.26 76 179 C146.95 179 217.9 179 291 179 C291 201.77 291 224.54 291 248 C220.05 248 149.1 248 76 248 C76 285.95 76 323.9 76 363 C156.85 363 237.7 363 321 363 C321 385.44 321 407.88 321 431 C215.07 431 109.14 431 0 431 C0 288.77 0 146.54 0 0 Z " fill="#5B878C" transform="translate(1565,575)"/>
<path d="M0 0 C104.94 0 209.88 0 318 0 C318 22.44 318 44.88 318 68 C238.14 68 158.28 68 76 68 C76 104.63 76 141.26 76 179 C146.95 179 217.9 179 291 179 C291 201.77 291 224.54 291 248 C220.05 248 149.1 248 76 248 C76 285.95 76 323.9 76 363 C156.85 363 237.7 363 321 363 C321 385.44 321 407.88 321 431 C215.07 431 109.14 431 0 431 C0 288.77 0 146.54 0 0 Z " fill="#5B878C" transform="translate(415,575)"/>
<path d="M0 0 C23.76 0 47.52 0 72 0 C81.01054342 20.66210819 90.01484777 41.32684133 99 62 C105.15876832 76.17011915 111.32357166 90.33756938 117.5 104.5 C123.61281055 118.51708005 129.71599673 132.53831958 135.8125 146.5625 C136.22932037 147.52133087 136.64614075 148.48016174 137.07559204 149.4680481 C140.47776541 157.29443342 143.87945498 165.121029 147.28112793 172.94763184 C150.24969499 179.77768511 153.21844907 186.60765705 156.1875 193.4375 C156.60456207 194.39689484 157.02162415 195.35628967 157.45132446 196.34475708 C163.47009641 210.18934785 169.49778742 224.0300234 175.53256226 237.86764526 C181.79276657 252.22266437 188.03826981 266.58404815 194.28076172 280.94677734 C200.01277317 294.13456526 205.75171638 307.31929694 211.5 320.5 C218.44600389 336.42764763 225.38144225 352.35987247 232.30371094 368.29785156 C236.2855527 377.46453568 240.27233653 386.62896631 244.27690125 395.78575134 C246.1516147 400.07308137 248.02370331 404.36155522 249.89559937 408.65011597 C250.79469536 410.70792164 251.69509543 412.76515805 252.59683228 414.82180786 C253.84386183 417.66624962 255.08647211 420.51258303 256.328125 423.359375 C256.88904091 424.63399849 256.88904091 424.63399849 257.46128845 425.93437195 C257.79794022 426.70851944 258.13459198 427.48266693 258.48144531 428.28027344 C258.77641907 428.95427185 259.07139282 429.62827026 259.37530518 430.32269287 C260 432 260 432 260 434 C233.27 434 206.54 434 179 434 C171.56590284 416.65377329 164.16815407 399.30495647 156.9375 381.875 C155.2132958 377.72351884 153.4879142 373.57252857 151.76171875 369.421875 C151.34802032 368.4270108 150.9343219 367.43214661 150.50808716 366.40713501 C148.11686289 360.66315025 145.7081676 354.92714098 143.26953125 349.203125 C143.00160263 348.57379059 142.73367401 347.94445618 142.45762634 347.29605103 C141.27531522 344.52164134 140.08811549 341.74945592 138.89428711 338.97998047 C138.50120361 338.06104004 138.10812012 337.14209961 137.703125 336.1953125 C137.36958008 335.42203613 137.03603516 334.64875977 136.69238281 333.85205078 C136 332 136 332 136 330 C69.34 330 2.68 330 -66 330 C-66.99 332.97 -67.98 335.94 -69 339 C-69.70069281 340.79199536 -70.42455454 342.57529438 -71.18212891 344.34399414 C-71.58808289 345.29667175 -71.99403687 346.24934937 -72.41229248 347.230896 C-72.84600159 348.23880188 -73.27971069 349.24670776 -73.7265625 350.28515625 C-74.18734192 351.36404114 -74.64812134 352.44292603 -75.12286377 353.55450439 C-76.62025193 357.05860197 -78.12254951 360.56057039 -79.625 364.0625 C-80.65936755 366.47991185 -81.69338176 368.89747492 -82.72705078 371.31518555 C-84.29489397 374.9821879 -85.86299354 378.64907795 -87.4324646 382.31538391 C-90.72608869 390.01086288 -94.00384474 397.71284777 -97.265625 405.421875 C-97.66401581 406.36280502 -98.06240662 407.30373505 -98.47286987 408.2731781 C-99.97386004 411.81856366 -101.47477293 415.3639741 -102.97149658 418.91116333 C-103.97627702 421.29193813 -104.98391976 423.67148174 -105.9921875 426.05078125 C-106.43271454 427.09833588 -106.43271454 427.09833588 -106.88214111 428.16705322 C-108.88624259 432.88624259 -108.88624259 432.88624259 -110 434 C-112.43396019 434.09498646 -114.83942952 434.12558417 -117.27368164 434.11352539 C-118.41506844 434.11374443 -118.41506844 434.11374443 -119.57951355 434.1139679 C-122.10642298 434.11326862 -124.63325962 434.10547555 -127.16015625 434.09765625 C-128.9075059 434.09579212 -130.65485607 434.0943682 -132.40220642 434.09336853 C-137.01031934 434.08954293 -141.61840095 434.07971229 -146.22650146 434.06866455 C-150.92508521 434.05845134 -155.62367399 434.0538711 -160.32226562 434.04882812 C-169.54819087 434.03809005 -178.77409284 434.02101313 -188 434 C-186.09898857 427.98554905 -183.90422911 422.21027658 -181.33203125 416.453125 C-180.80486259 415.25925926 -180.80486259 415.25925926 -180.26704407 414.04127502 C-179.51237477 412.33311988 -178.75593302 410.62574689 -177.99786377 408.9190979 C-175.95231162 404.31310345 -173.92057985 399.70100938 -171.88671875 395.08984375 C-171.47244629 394.15158249 -171.05817383 393.21332123 -170.63134766 392.24662781 C-166.75176653 383.45418995 -162.93015784 374.63734666 -159.125 365.8125 C-157.81414111 362.7745932 -156.50286202 359.73686793 -155.19140625 356.69921875 C-154.69191971 355.54217438 -154.69191971 355.54217438 -154.18234253 354.36175537 C-149.826147 344.27542271 -145.44428697 334.20023481 -141.0625 324.125 C-140.63825745 323.14947174 -140.21401489 322.17394348 -139.7769165 321.16885376 C-133.68059767 307.15189825 -127.57547327 293.13879177 -121.46551514 279.1277771 C-115.69781023 265.90131866 -109.94008437 252.67054155 -104.1875 239.4375 C-103.77067963 238.47866913 -103.35385925 237.51983826 -102.92440796 236.5319519 C-99.94934005 229.68808322 -96.97463031 222.84405889 -94 216 C-90.60441049 208.187394 -87.20866609 200.37485538 -83.8125 192.5625 C-83.39543793 191.60310516 -82.97837585 190.64371033 -82.54867554 189.65524292 C-76.52888422 175.80830736 -70.49995299 161.96538404 -64.4644165 148.12530518 C-58.69708276 134.89966859 -52.93972488 121.6697146 -47.1875 108.4375 C-46.56226944 106.99925369 -46.56226944 106.99925369 -45.92440796 105.5319519 C-42.94934005 98.68808322 -39.97463031 91.84405889 -37 85 C-33.60441049 77.187394 -30.20866421 69.37485619 -26.8125 61.5625 C-26.19687698 60.14633896 -26.19687698 60.14633896 -25.56881714 58.7015686 C-17.05962125 39.12837859 -8.53145162 19.56350113 0 0 Z M34 93 C30.47789934 101.20778985 26.95717143 109.41616818 23.4375 117.625 C23.16859955 118.25214905 22.8996991 118.8792981 22.62265015 119.52545166 C13.61633099 140.53180589 4.64131667 161.55128011 -4.29931641 182.58569336 C-9.14534464 193.98169042 -14.01291492 205.36794272 -18.91823959 216.73852158 C-19.77011838 218.71371578 -20.62129651 220.68921025 -21.47219849 222.66482544 C-21.88829219 223.6308755 -21.88829219 223.6308755 -22.31279182 224.61644173 C-22.86813314 225.90583104 -23.42344516 227.19523297 -23.97872734 228.48464775 C-25.33606833 231.63540396 -26.69565746 234.78515538 -28.06005859 237.93286133 C-29.56427918 241.40505338 -31.0620517 244.87996184 -32.55859375 248.35546875 C-33.01048569 249.3933403 -33.46237762 250.43121185 -33.92796326 251.50053406 C-34.53874474 252.92375725 -34.53874474 252.92375725 -35.16186523 254.37573242 C-35.6973423 255.61367805 -35.6973423 255.61367805 -36.24363708 256.87663269 C-37.16777811 259.0953339 -37.16777811 259.0953339 -37 262 C10.85 262 58.7 262 108 262 C100.41682061 243.72294983 100.41682061 243.72294983 92.625 225.5390625 C92.17776581 224.51128693 91.73053162 223.48351135 91.26974487 222.42459106 C90.32947899 220.2639788 89.38846984 218.10368984 88.44671631 215.94372559 C85.92081467 210.14937991 83.40184578 204.35202171 80.8828125 198.5546875 C80.37896027 197.39529663 79.87510803 196.23590576 79.35598755 195.04138184 C74.83141678 184.62410483 70.34449863 174.19100225 65.875 163.75 C65.16474055 162.09268048 64.45445409 160.43537254 63.74414062 158.77807617 C60.06851918 150.19715471 56.40796754 141.60999976 52.76296997 133.01602173 C50.82116339 128.44043116 48.87428482 123.86700745 46.92681885 119.29382324 C45.98013439 117.06692594 45.0358956 114.83898728 44.09417725 112.60998535 C42.78747014 109.5173772 41.47275763 106.42828988 40.15625 103.33984375 C39.76442535 102.40665817 39.37260071 101.4734726 38.96890259 100.51200867 C38.60598114 99.66491837 38.24305969 98.81782806 37.86914062 97.94506836 C37.39764587 96.83270058 37.39764587 96.83270058 36.91662598 95.69786072 C36.11058666 93.81587669 36.11058666 93.81587669 34 93 Z " fill="#5B888D" transform="translate(2777,572)"/>
<path d="M0 0 C25.08 0 50.16 0 76 0 C76 119.13 76 238.26 76 361 C150.25 361 224.5 361 301 361 C301 384.1 301 407.2 301 431 C201.67 431 102.34 431 0 431 C0 288.77 0 146.54 0 0 Z " fill="#5B888D" transform="translate(3214,575)"/>
<path d="M0 0 C40.88992736 -1.25173247 79.00867635 19.28608237 109.3125 45.15625 C110.37408416 46.03366134 111.43663186 46.90990783 112.5 47.78515625 C119.39990834 53.51737251 125.90320643 59.56637769 132.25 65.90625 C132.94754395 66.60298828 133.64508789 67.29972656 134.36376953 68.01757812 C140.79056763 74.5136471 146.7053619 81.3992443 152.5625 88.40625 C157.52658824 94.30583822 162.67831571 100.00596322 167.92431641 105.65478516 C169.34701928 107.19358619 170.75889146 108.7416866 172.16796875 110.29296875 C179.10801569 117.92975972 186.10644275 125.41142964 193.953125 132.1328125 C195.74911475 133.67308186 197.52721882 135.23423346 199.296875 136.8046875 C230.72196793 164.53079962 268.83453333 187.04589746 311.96972656 185.30419922 C328.1150647 184.28459992 342.87947812 178.06697658 357.3125 171.15625 C357.3125 171.81625 357.3125 172.47625 357.3125 173.15625 C355.82511765 174.51007149 354.26819449 175.78764886 352.6875 177.03125 C348.19930017 180.62180987 343.78998015 184.27744038 339.4375 188.03125 C338.24622455 189.05614164 337.0548177 190.08088057 335.86328125 191.10546875 C335.27369629 191.61255371 334.68411133 192.11963867 334.07666016 192.64208984 C327.40517077 198.3681592 320.69741685 204.04804274 313.875 209.59375 C309.67558626 213.0130114 305.54383004 216.5014937 301.4375 220.03125 C300.55336426 220.7905481 300.55336426 220.7905481 299.65136719 221.56518555 C297.29878911 223.58659104 294.94674489 225.60858343 292.59912109 227.63574219 C267.41779949 249.357649 243.0116515 259.15489069 209.3125 257.15625 C172.571081 253.16402868 140.33187421 230.94456838 113.3125 207.15625 C112.39855469 206.35445312 111.48460938 205.55265625 110.54296875 204.7265625 C103.81725149 198.68752686 97.40264018 192.34694596 91 185.96875 C90.15171631 185.12513916 89.30343262 184.28152832 88.42944336 183.41235352 C83.51760042 178.48793966 78.81501087 173.45670932 74.3125 168.15625 C73.81097412 167.57109619 73.30944824 166.98594238 72.79272461 166.38305664 C71.33813262 164.68486692 69.88775705 162.98314203 68.4375 161.28125 C64.19974646 156.32441464 59.91568764 151.41854762 55.52734375 146.59375 C53.94613762 144.85358664 52.37712753 143.10230919 50.81640625 141.34375 C46.55650126 136.57161899 42.29838059 132.04431558 37.39453125 127.93359375 C35.91924271 126.6742011 34.48217604 125.3693985 33.07421875 124.03515625 C18.75105174 110.46935732 2.6405678 99.49290761 -14.6875 90.15625 C-15.29722656 89.81658203 -15.90695313 89.47691406 -16.53515625 89.12695312 C-41.44233322 75.25496049 -73.74536132 67.43919117 -101.90332031 74.72998047 C-105.40244201 75.7361887 -108.85430625 76.85112804 -112.296875 78.03515625 C-115.10705808 78.96432969 -117.77602857 79.66174436 -120.6875 80.15625 C-118.01399474 76.61416353 -115.29278783 73.83884025 -111.8125 71.09375 C-107.41019385 67.5637093 -103.08677024 63.96521031 -98.8125 60.28125 C-97.62118898 59.25639971 -96.4297824 58.23166049 -95.23828125 57.20703125 C-94.64869629 56.69994629 -94.05911133 56.19286133 -93.45166016 55.67041016 C-86.78017077 49.9443408 -80.07241685 44.26445726 -73.25 38.71875 C-69.05054987 35.29945897 -64.91964296 31.81009643 -60.8125 28.28125 C-60.22235107 27.77650146 -59.63220215 27.27175293 -59.02416992 26.75170898 C-56.09998706 24.24714696 -53.19648035 21.72462459 -50.328125 19.15625 C-35.62620691 6.11097853 -19.41749796 1.1289243 0 0 Z " fill="#5C888D" transform="translate(2131.6875,95.84375)"/>
<path d="M0 0 C1.7133628 0.94612169 3.44710279 1.85504423 5.18115234 2.76269531 C23.55432312 12.69985327 40.65793704 26.37647113 55.16943359 41.37988281 C56.85013938 43.12559301 56.85013938 43.12559301 59.32568359 44.97363281 C62.08665493 47.23904519 64.23908182 49.7341292 66.55224609 52.44628906 C69.33913568 55.63200913 72.23971841 58.70219913 75.13818359 61.78613281 C78.95931805 65.86517496 82.65384245 69.97340899 86.13818359 74.34863281 C99.58578158 91.06660852 115.28517084 107.79087704 132.22021484 120.98535156 C135.00588278 123.16339301 137.65318226 125.47093725 140.32568359 127.78613281 C169.18332987 151.82794937 205.48972244 169.58097967 243.76318359 166.97363281 C259.18374584 165.30284365 273.00094202 159.91203263 286.76318359 152.97363281 C285.1796668 157.33089143 281.78376134 159.79649637 278.32568359 162.66113281 C277.69533203 163.19222656 277.06498047 163.72332031 276.41552734 164.27050781 C271.85167912 168.10450986 267.23460674 171.87330109 262.60693359 175.62988281 C259.28631874 178.3666533 256.02271577 181.16466232 252.76318359 183.97363281 C247.77377592 188.27335994 242.72097204 192.4784869 237.60693359 196.62988281 C234.28631226 199.36665864 231.02290028 202.16486855 227.76318359 204.97363281 C221.84070442 210.0714426 215.86099191 215.08562967 209.76318359 219.97363281 C209.09158203 220.52664063 208.41998047 221.07964844 207.72802734 221.64941406 C188.19412637 237.17224707 161.27538209 241.27475667 137.06542969 238.68505859 C87.44472215 231.66637108 44.38024363 194.61102193 12.10107422 158.46435547 C10.78793846 157.00121551 9.45539306 155.55557 8.12255859 154.11035156 C4.12409292 149.77459201 0.25706167 145.39472365 -3.42431641 140.78613281 C-9.6102134 133.13573017 -16.42300731 126.06302023 -23.23681641 118.97363281 C-23.78837402 118.39871094 -24.33993164 117.82378906 -24.90820312 117.23144531 C-31.61730068 110.27478725 -38.65856623 103.98359099 -46.23681641 97.97363281 C-47.09662109 97.24660156 -47.95642578 96.51957031 -48.84228516 95.77050781 C-78.29181745 70.88848053 -117.24372106 51.72682224 -156.57666016 54.18457031 C-166.87865388 55.08189044 -176.42231748 57.8404168 -186.23681641 60.97363281 C-187.56598744 61.32319433 -188.8970657 61.66710887 -190.23681641 61.97363281 C-190.23681641 61.31363281 -190.23681641 60.65363281 -190.23681641 59.97363281 C-188.74943405 58.61981132 -187.1925109 57.34223396 -185.61181641 56.09863281 C-181.12361657 52.50807295 -176.71429656 48.85244244 -172.36181641 45.09863281 C-171.17054096 44.07374117 -169.97913411 43.04900224 -168.78759766 42.02441406 C-168.1980127 41.5173291 -167.60842773 41.01024414 -167.00097656 40.48779297 C-160.32948718 34.76172361 -153.62173325 29.08184007 -146.79931641 23.53613281 C-142.59991006 20.11687743 -138.46798187 16.62857333 -134.36181641 13.09863281 C-133.77456787 12.59388428 -133.18731934 12.08913574 -132.58227539 11.5690918 C-131.39285288 10.54644577 -130.2034812 9.52374061 -129.01416016 8.50097656 C-125.06480151 5.1071321 -121.11193388 1.7185362 -117.11572266 -1.62011719 C-115.44193277 -3.01910575 -113.77765429 -4.42995102 -112.13916016 -5.87011719 C-82.45354154 -30.5766193 -29.81941031 -16.51363407 0 0 Z " fill="#5C888D" transform="translate(1906.23681640625,114.0263671875)"/>
<path d="M0 0 C0.68513672 0.33370605 1.37027344 0.66741211 2.07617188 1.01123047 C28.50177776 14.02383943 49.98764501 32.99418571 70.75 53.5625 C72.06303101 54.85583252 72.06303101 54.85583252 73.40258789 56.17529297 C78.6167789 61.3830741 83.39601292 66.77932492 88.00390625 72.52954102 C90.43399693 75.5371349 92.98641426 78.36158265 95.625 81.1875 C98.52192411 84.29756117 101.36711987 87.42138306 104.1328125 90.6484375 C108.46275209 95.61450983 113.09331473 100.2793772 117.75048828 104.93579102 C119.23893237 106.42641615 120.71917277 107.92487017 122.19921875 109.42382812 C128.47234634 115.73370724 135.02223934 121.4645582 142 127 C143.23244538 128.02340816 144.46205504 129.05025098 145.6875 130.08203125 C159.80078432 141.79461304 175.28586832 151.44835685 192 159 C192.61794434 159.28069336 193.23588867 159.56138672 193.87255859 159.85058594 C219.35006923 171.2200506 248.36557186 174.13180039 274.828125 164.28125 C281.03488193 161.82476194 287.05093126 159.02978888 293 156 C291.4479356 160.10392489 288.49657332 162.37839885 285.1875 165.0625 C284.00632935 166.04014586 282.82534499 167.01801684 281.64453125 167.99609375 C281.03947754 168.49351074 280.43442383 168.99092773 279.81103516 169.50341797 C276.97398499 171.84786627 274.17707561 174.23898251 271.375 176.625 C267.46999775 179.93710224 263.53657346 183.20820165 259.5625 186.4375 C254.69870975 190.39508188 249.94118769 194.46542446 245.19165039 198.55834961 C240.80397396 202.33164334 236.34462413 206.00582729 231.84765625 209.6484375 C229.11310834 211.9065964 226.43265513 214.21535972 223.75854492 216.54418945 C200.85202574 236.42885384 176.34552255 243.76330094 146 242 C117.55540257 239.02306137 91.45013346 225.03152621 69 208 C68.38044434 207.5359375 67.76088867 207.071875 67.12255859 206.59375 C58.7852672 200.32798737 51.06815041 193.54737953 43.48876953 186.39160156 C41.25659068 184.305111 38.97149389 182.2794419 36.6875 180.25 C30.38360691 174.58873679 24.49354793 168.68027447 18.97265625 162.25390625 C17.03552587 160.04059095 15.04931618 157.87843882 13.04882812 155.72241211 C9.11431638 151.48093829 5.30160003 147.21017267 1.6875 142.6875 C-4.16020223 135.44052617 -10.55831596 128.71683135 -17 122 C-17.53592773 121.44070801 -18.07185547 120.88141602 -18.62402344 120.30517578 C-25.34469114 113.33348502 -32.37350872 106.98196486 -40 101 C-41.09214363 100.11842219 -42.18324596 99.23555319 -43.2734375 98.3515625 C-73.97937901 73.60179694 -112.19737018 53.80821038 -152.75 57.453125 C-161.45812602 58.44857063 -170.17052313 60.4326607 -178.30859375 63.6953125 C-182 65 -182 65 -185 64 C-161.83851992 44.10265655 -161.83851992 44.10265655 -152.5625 36.5625 C-147.14429421 32.15086945 -141.8472915 27.60676358 -136.55078125 23.05078125 C-128.29879709 15.9534885 -120.01096779 8.89193088 -111.53515625 2.0625 C-109.93409718 0.75994347 -108.35488137 -0.57037226 -106.80859375 -1.9375 C-78.47232011 -26.15118503 -29.97014071 -14.75441634 0 0 Z " fill="#5C888D" transform="translate(2491,111)"/>
<path d="M0 0 C115.13836279 0 115.13836279 0 133.69140625 17.6328125 C147.92594455 32.2286335 155.44490601 50.17502126 155.21484375 70.625 C154.0570997 88.81210658 146.94006746 105.9997974 133.5 118.5 C129.3249428 121.97553262 124.83768726 124.56584517 120 127 C123.22355341 133.7172074 126.76696205 140.08210084 130.75 146.375 C131.89700951 148.2075977 133.04277482 150.04097454 134.1875 151.875 C135.10402344 153.34259766 135.10402344 153.34259766 136.0390625 154.83984375 C141.81030456 164.14051074 147.44921447 173.52339491 153.11474609 182.88867188 C154.76470313 185.61167789 156.42139069 188.33037781 158.08203125 191.046875 C158.90895486 192.40618875 159.73578861 193.76555717 160.5625 195.125 C161.24441406 196.24132813 161.92632813 197.35765625 162.62890625 198.5078125 C164 201 164 201 164 203 C157.70188412 203.22867356 151.40484122 203.3859904 145.10351562 203.49438477 C142.96150721 203.53957687 140.81977541 203.60094654 138.67871094 203.67895508 C135.59500985 203.78847371 132.51498181 203.83923294 129.4296875 203.87890625 C128.47633514 203.92535782 127.52298279 203.97180939 126.54074097 204.01966858 C123.76240127 204.02176597 121.63007354 203.9047402 119 203 C116.32923981 200.32950474 114.71029106 197.34283768 113 194 C112.33355469 192.93507324 111.66710938 191.87014648 110.98046875 190.77294922 C110.38878906 189.79342285 109.79710937 188.81389648 109.1875 187.8046875 C108.51098389 186.68723145 107.83446777 185.56977539 107.13745117 184.41845703 C106.78862885 183.84017151 106.43980652 183.26188599 106.08041382 182.66607666 C104.97646153 180.83597865 103.87002398 179.00740394 102.76293945 177.17919922 C101.24689567 174.67530305 99.73169378 172.1709011 98.21728516 169.66601562 C94.88076833 164.14824479 91.53578233 158.63563975 88.1875 153.125 C87.61966797 152.18769043 87.05183594 151.25038086 86.46679688 150.28466797 C84.24950493 146.63554296 82.03549048 143.00942611 79.61328125 139.4921875 C78 137 78 137 78 135 C65.46 135 52.92 135 40 135 C40 157.44 40 179.88 40 203 C26.8 203 13.6 203 0 203 C0 136.01 0 69.02 0 0 Z M40 35 C40 56.45 40 77.9 40 100 C48.53875 100.103125 57.0775 100.20625 65.875 100.3125 C69.88889893 100.38078003 69.88889893 100.38078003 73.98388672 100.45043945 C76.13247427 100.46505838 78.2810758 100.47779572 80.4296875 100.48828125 C81.52289307 100.51386108 82.61609863 100.53944092 83.74243164 100.5657959 C92.26077413 100.57058471 98.83773122 98.5784522 105.3671875 92.96484375 C112.54468218 83.31427448 115.43484659 72.99650091 114 61 C112.08728401 52.45502618 107.95781935 44.50062245 100.6875 39.3671875 C95.40423492 36.32583425 91.07339453 34.87102678 84.95605469 34.88647461 C83.94140137 34.88659546 82.92674805 34.88671631 81.88134766 34.88684082 C80.82222168 34.89195679 79.7630957 34.89707275 78.671875 34.90234375 C77.69299316 34.90335083 76.71411133 34.90435791 75.70556641 34.90539551 C72.053699 34.91062215 68.40184831 34.92458342 64.75 34.9375 C56.5825 34.958125 48.415 34.97875 40 35 Z " fill="#5C888D" transform="translate(1462,1289)"/>
<path d="M0 0 C46.2 0 92.4 0 140 0 C140 11.55 140 23.1 140 35 C107.33 35 74.66 35 41 35 C41 50.84 41 66.68 41 83 C69.05 83 97.1 83 126 83 C126 93.89 126 104.78 126 116 C97.95 116 69.9 116 41 116 C41 133.16 41 150.32 41 168 C74.33 168 107.66 168 142 168 C142 179.55 142 191.1 142 203 C95.14 203 48.28 203 0 203 C0 136.01 0 69.02 0 0 Z " fill="#5D898E" transform="translate(2930,1289)"/>
<path d="M0 0 C0.33 0.66 0.66 1.32 1 2 C0.09130859 4.19555664 0.09130859 4.19555664 -1.3515625 6.91015625 C-1.87363281 7.90080078 -2.39570313 8.89144531 -2.93359375 9.91210938 C-3.49175781 10.95173828 -4.04992188 11.99136719 -4.625 13.0625 C-5.15996094 14.07505859 -5.69492188 15.08761719 -6.24609375 16.13085938 C-9.4245224 22.12811343 -12.67741825 28.08147635 -16 34 C-19.55331274 32.25652316 -22.91054796 30.27469118 -26.3125 28.25 C-44.03663176 17.98521241 -63.65602612 12.1023385 -84.2265625 15.5390625 C-91.34517745 17.49614395 -96.74816154 20.85845555 -101 27 C-103.01138947 33.0341684 -103.07756502 39.76505033 -100.3125 45.5 C-92.25940497 54.20604868 -81.46489674 57.43514666 -70.25 60.375 C-68.04767466 60.97472052 -65.8458623 61.57632757 -63.64453125 62.1796875 C-61.98671631 62.63166504 -61.98671631 62.63166504 -60.29541016 63.09277344 C-9.37473787 77.11123678 -9.37473787 77.11123678 3.3046875 99.28125 C10.19432363 113.56341542 9.81473775 131.34256427 5.32421875 146.3046875 C0.00410296 161.15079232 -9.92808643 171.12166384 -24 178 C-55.34762886 191.40904822 -92.77466491 187.43203836 -123.96655273 175.58959961 C-133.81857627 171.61859911 -144.76350211 166.79732487 -153 160 C-152.38671052 155.44032601 -150.5252882 151.7463583 -148.40234375 147.73046875 C-148.04862198 147.04946609 -147.69490021 146.36846344 -147.33045959 145.66682434 C-146.20532273 143.50394034 -145.0715661 141.34571318 -143.9375 139.1875 C-143.17064958 137.71709629 -142.40436717 136.24639619 -141.63867188 134.77539062 C-139.76567531 131.18012811 -137.88493779 127.58901531 -136 124 C-135.29512451 124.45818115 -134.59024902 124.9163623 -133.86401367 125.38842773 C-128.45926155 128.87033095 -123.084197 132.22590067 -117.3125 135.0625 C-116.640979 135.39338623 -115.96945801 135.72427246 -115.27758789 136.06518555 C-99.58033943 143.6443644 -84.22240918 148.18980314 -66.6875 148.375 C-65.7804834 148.38901855 -64.8734668 148.40303711 -63.93896484 148.41748047 C-55.40868876 148.35680552 -46.57043395 146.78823943 -40 141 C-36.92681767 136.68794105 -35.28450567 132.33036687 -35.62890625 127.0078125 C-36.69015976 121.26587245 -39.0706042 117.31063771 -43.8125 113.875 C-55.74438327 106.8702128 -69.28799191 103.2528272 -82.5 99.5 C-127.2484854 86.78934072 -127.2484854 86.78934072 -139.4375 68.25 C-147.17294392 54.00626474 -146.71863417 36.94502199 -142.25390625 21.7578125 C-137.0034336 6.02275115 -127.52043133 -4.69263984 -113.0390625 -12.62109375 C-78.82509041 -29.55912191 -29.95744413 -23.92618879 0 0 Z " fill="#5E8A8F" transform="translate(3438,1309)"/>
<path d="M0 0 C-0.61099433 4.41434364 -2.2599125 7.71362048 -4.37890625 11.61328125 C-4.71043198 12.22769577 -5.0419577 12.84211029 -5.38352966 13.47514343 C-6.4370754 15.42431395 -7.49961495 17.36840937 -8.5625 19.3125 C-9.28119973 20.63834639 -9.99930522 21.96451509 -10.71679688 23.29101562 C-12.47100093 26.53110329 -14.2333017 29.76670445 -16 33 C-19.95064319 33 -21.5227062 31.54115276 -24.8125 29.375 C-42.52841588 18.15193244 -63.87130368 11.59165028 -84.84765625 15.765625 C-91.16526012 17.56047976 -96.74446138 19.40877929 -100.3984375 25.2265625 C-102.93069909 31.44579696 -103.72046934 36.43715008 -102 43 C-99.2009348 49.32832133 -94.080745 52.20081089 -88 55 C-78.76602509 58.53326484 -69.12291365 60.97843544 -59.60473633 63.60766602 C-10.1847176 77.26177203 -10.1847176 77.26177203 3.1796875 100.0078125 C9.90968738 113.32044001 9.27865078 130.83194284 5.3125 144.9375 C-0.14783142 160.72712263 -10.25082019 170.78501127 -25 178.1875 C-36.1529016 183.11797896 -48.83139596 185.59082179 -61 186 C-62.02609375 186.03996094 -63.0521875 186.07992188 -64.109375 186.12109375 C-93.34247194 186.69363136 -124.63702529 179.74327892 -149 163 C-150.68407725 161.35092773 -152.3531891 159.68628865 -154 158 C-151.92082654 153.96040844 -149.83946061 149.921957 -147.75610352 145.88452148 C-147.04847632 144.51243283 -146.34143684 143.14004091 -145.63500977 141.76733398 C-144.6163119 139.78808803 -143.59546729 137.80996206 -142.57421875 135.83203125 C-142.1052845 134.91923149 -142.1052845 134.91923149 -141.62687683 133.98799133 C-139.86541068 130.58213542 -138.01065263 127.26495534 -136 124 C-135.40316406 124.40089844 -134.80632813 124.80179688 -134.19140625 125.21484375 C-121.21351702 133.71892867 -108.00903846 140.83082265 -93 145 C-91.91976562 145.31839844 -90.83953125 145.63679688 -89.7265625 145.96484375 C-74.69618592 149.83846812 -56.49188137 150.43329571 -42.5 143.1875 C-38.08418467 139.32366159 -36.44907769 134.90590633 -35.94921875 129.07421875 C-36.08825224 123.39523524 -38.28758327 119.30490797 -42.3125 115.375 C-54.04108685 106.23977224 -70.00202983 103.2021303 -84.04492188 99.32543945 C-104.2362801 93.72311642 -127.6453395 87.05336124 -139.66796875 68.4140625 C-144.15896388 59.85351459 -145.370079 51.79659811 -145.3125 42.25 C-145.30686035 41.27498535 -145.3012207 40.2999707 -145.29541016 39.29541016 C-145.02223273 23.07516255 -139.66697411 9.38780639 -128.09765625 -2.17578125 C-94.1471532 -34.11199608 -35.21668285 -25.03911934 0 0 Z " fill="#5E8A8E" transform="translate(2692,1309)"/>
<path d="M0 0 C13.2 0 26.4 0 40 0 C40.029729 5.07012451 40.029729 5.07012451 40.06005859 10.24267578 C40.12717191 21.4504792 40.20471181 32.65819464 40.28752708 43.86589241 C40.33745244 50.65650349 40.38389591 57.4471037 40.421875 64.23779297 C40.45858406 70.79959318 40.50535017 77.36127843 40.55806351 83.92296982 C40.5764977 86.4177721 40.59164546 88.91260104 40.60334396 91.407444 C40.63621016 125.75628498 40.63621016 125.75628498 56.25390625 155.57421875 C65.87642829 164.9187225 76.96886865 168.26904009 90.12768555 168.24658203 C102.24190376 168.03248254 112.08813981 163.60491748 121.125 155.625 C135.20320405 140.66155391 137.09308359 119.21513292 137.20532227 99.67529297 C137.21522186 98.59118637 137.22512146 97.50707977 137.23532104 96.39012146 C137.26666756 92.84083163 137.29158627 89.29152845 137.31640625 85.7421875 C137.33699902 83.26782909 137.35799607 80.79347402 137.37937927 78.31912231 C137.43436017 71.83209955 137.48387445 65.3450463 137.53222656 58.85797119 C137.58261755 52.22820331 137.63821143 45.59847989 137.69335938 38.96875 C137.80064729 25.97920284 137.90167524 12.9896181 138 0 C151.2 0 164.4 0 178 0 C178.06815987 14.61417448 178.12323634 29.22824773 178.15543652 43.84254646 C178.1707961 50.63076664 178.19167194 57.41887983 178.22631836 64.20703125 C178.2598259 70.77527321 178.27692411 77.34344648 178.28463173 83.91176987 C178.29011453 86.40000008 178.30081806 88.88822523 178.31719017 91.37640762 C178.51112795 122.11257221 175.99745831 153.75293504 155 178 C154.39285156 178.80308594 153.78570313 179.60617187 153.16015625 180.43359375 C140.3161042 195.69316373 119.58105277 202.87339813 100.30761719 204.82128906 C71.98677841 207.01456604 48.05300769 200.51424162 26.0078125 182.359375 C8.90317628 166.75237974 1.04123634 140.35523238 -0.16430283 117.94582367 C-0.41544511 109.5562126 -0.34489301 101.16554132 -0.29296875 92.7734375 C-0.28736143 90.08630637 -0.28294876 87.3991994 -0.28010559 84.71206665 C-0.27086605 78.41208872 -0.24636485 72.11227126 -0.21605712 65.81236327 C-0.18225741 58.62709933 -0.16596357 51.4418268 -0.15097082 44.25650287 C-0.11980565 29.50424271 -0.06489803 14.7521539 0 0 Z " fill="#5D898E" transform="translate(1851,1289)"/>
<path d="M0 0 C1.44052734 0.73669922 1.44052734 0.73669922 2.91015625 1.48828125 C15.30676235 8.19044635 29.20294299 19.74316991 34.2421875 33.35546875 C34.49226563 34.22816406 34.74234375 35.10085938 35 36 C28.59580454 40.73530554 22.11563351 45.34875548 15.5625 49.875 C14.87671875 50.35106689 14.1909375 50.82713379 13.484375 51.31762695 C12.83082031 51.76710693 12.17726563 52.21658691 11.50390625 52.6796875 C10.63487671 53.27885986 10.63487671 53.27885986 9.74829102 53.89013672 C7.88900056 55.0704655 5.98426254 56.04744518 4 57 C3.59910156 56.31035156 3.19820312 55.62070313 2.78515625 54.91015625 C-5.15864296 41.7785698 -14.92275055 32.89126985 -29.9296875 28.8671875 C-45.53794248 25.23181328 -60.92177053 26.93026853 -74.75 35.25 C-90.2936843 45.8428982 -98.25740428 61.94562644 -101.8125 80.125 C-105.12875883 99.22009497 -101.16778473 118.46734216 -91 135 C-88.24335111 138.61934117 -85.25947352 141.83154145 -82 145 C-81.06220703 145.96873047 -81.06220703 145.96873047 -80.10546875 146.95703125 C-70.90272544 155.84978742 -57.96559697 160.40593575 -45.3125 160.3125 C-44.52230469 160.30758545 -43.73210937 160.3026709 -42.91796875 160.29760742 C-28.03533455 160.00219683 -14.60584044 154.5880454 -4 144 C-1.9739374 141.21606813 -0.18620347 138.40299327 1.52734375 135.41796875 C2.86150198 133.22740125 4.16669978 131.75636964 6 130 C9.59446951 132.06032879 13.18733843 134.12341422 16.77880859 136.18896484 C17.99843417 136.88990279 19.21847884 137.5901121 20.43896484 138.28955078 C22.20263073 139.30045003 23.96472597 140.31404159 25.7265625 141.328125 C26.78439941 141.9355957 27.84223633 142.54306641 28.93212891 143.16894531 C32.03242202 145.01935104 35.01372278 146.97261913 38 149 C34.10837956 164.17731972 20.71083596 175.0553044 8 183 C-1.85844193 188.80239725 -11.95418706 192.27305613 -23 195 C-24.47146484 195.37125 -24.47146484 195.37125 -25.97265625 195.75 C-50.63682071 200.86027292 -76.17971071 195.63446712 -97.26367188 182.17724609 C-116.36403739 169.22702639 -129.17818609 151.0065125 -138 130 C-138.40089844 129.05125 -138.80179688 128.1025 -139.21484375 127.125 C-148.61199772 102.1604853 -146.38194834 72.87765507 -135.98632812 48.63623047 C-131.56760186 39.10353798 -126.18172521 30.71239456 -119 23 C-118.12214844 22.05382813 -117.24429687 21.10765625 -116.33984375 20.1328125 C-87.85575048 -9.79919695 -37.05084379 -20.13265028 0 0 Z " fill="#5E8A8F" transform="translate(1196,1297)"/>
<path d="M0 0 C13.2 0 26.4 0 40 0 C40 66.99 40 133.98 40 203 C26.8 203 13.6 203 0 203 C0 136.01 0 69.02 0 0 Z " fill="#5C888D" transform="translate(2270,1289)"/>
<path d="M0 0 C0.66 0.33 1.32 0.66 2 1 C-0.64 3.64 -3.28 6.28 -6 9 C-5.34 9.66 -4.68 10.32 -4 11 C-5.26607607 11.53229326 -6.53810412 12.05044544 -7.8125 12.5625 C-8.52019531 12.85253906 -9.22789062 13.14257812 -9.95703125 13.44140625 C-12 14 -12 14 -15 13 C-14.00097656 12.14535156 -13.00195312 11.29070312 -11.97265625 10.41015625 C-10.66925232 9.29429246 -9.36586791 8.17840586 -8.0625 7.0625 C-7.0734668 6.21655273 -7.0734668 6.21655273 -6.06445312 5.35351562 C-5.43603516 4.81533203 -4.80761719 4.27714844 -4.16015625 3.72265625 C-3.57886963 3.22515869 -2.99758301 2.72766113 -2.39868164 2.21508789 C-1.57708043 1.5013317 -0.76957015 0.76957015 0 0 Z " fill="#9BB6B9" transform="translate(2321,162)"/>
<path d="M0 0 C0.66 0.33 1.32 0.66 2 1 C-2.95 5.95 -7.9 10.9 -13 16 C-13 10.79628205 -8.49504984 7.5790344 -5 4 C-3.37707762 2.6137538 -1.7331451 1.24569804 0 0 Z " fill="#94B0B4" transform="translate(3317,1301)"/>
<path d="M0 0 C0.66 0.33 1.32 0.66 2 1 C1.4225 1.55429688 0.845 2.10859375 0.25 2.6796875 C-0.4925 3.40414062 -1.235 4.12859375 -2 4.875 C-2.7425 5.59429687 -3.485 6.31359375 -4.25 7.0546875 C-6.22293325 8.81170957 -6.22293325 8.81170957 -6 11 C-8.31 11.66 -10.62 12.32 -13 13 C-13 12.34 -13 11.68 -13 11 C-11.25998065 9.44038399 -9.45696803 7.95050425 -7.625 6.5 C-3.68517459 3.39240862 -3.68517459 3.39240862 0 0 Z " fill="#99B4B7" transform="translate(1729,163)"/>
<path d="M0 0 C0.66 0.33 1.32 0.66 2 1 C-4.74157303 9.20224719 -4.74157303 9.20224719 -8 11 C-8.99 10.67 -9.98 10.34 -11 10 C-5.555 5.05 -5.555 5.05 0 0 Z " fill="#A0BABD" transform="translate(2022,165)"/>
<path d="M0 0 C0 0.99 0 1.98 0 3 C-1.75 4.60546875 -1.75 4.60546875 -4 6.1875 C-4.7425 6.71730469 -5.485 7.24710937 -6.25 7.79296875 C-6.8275 8.19128906 -7.405 8.58960938 -8 9 C-8.33 7.68 -8.66 6.36 -9 5 C-6.03 3.35 -3.06 1.7 0 0 Z " fill="#9DB8BB" transform="translate(2192,267)"/>
<path d="M0 0 C0 0.99 0 1.98 0 3 C-1.53125 4.38671875 -1.53125 4.38671875 -3.5 5.6875 C-4.47453125 6.34298828 -4.47453125 6.34298828 -5.46875 7.01171875 C-5.9740625 7.33785156 -6.479375 7.66398437 -7 8 C-7.99 7.01 -8.98 6.02 -10 5 C-6.7 3.35 -3.4 1.7 0 0 Z " fill="#A6BEC1" transform="translate(2783,267)"/>
<path d="M0 0 C0.33 0.66 0.66 1.32 1 2 C-1.31 3.65 -3.62 5.3 -6 7 C-6 6.34 -6 5.68 -6 5 C-6.66 4.67 -7.32 4.34 -8 4 C-5.36 2.68 -2.72 1.36 0 0 Z " fill="#AFC5C7" transform="translate(2488,267)"/>
</svg>
