<?xml version="1.0" encoding="UTF-8"?>
<svg version="1.1" xmlns="http://www.w3.org/2000/svg" width="5680" height="2024">
<path d="M0 0 C1.010625 0.19013672 2.02125 0.38027344 3.0625 0.57617188 C31.72294767 6.15106763 59.94741855 15.8608213 86 29 C86.83724609 29.41459473 87.67449219 29.82918945 88.53710938 30.25634766 C114.59506397 43.20832154 139.22873455 59.92981148 160.56640625 79.75 C162.61004149 81.63946051 164.68804318 83.45341918 166.8125 85.25 C175.97528516 93.24387018 184.47780347 101.97209707 192.0078125 111.515625 C193.83861472 113.79874306 195.75337611 115.92503542 197.75 118.0625 C237.14690501 162.07134429 260.6543593 222.42558816 270 280 C270.2477417 281.46010498 270.2477417 281.46010498 270.50048828 282.94970703 C275.77768016 315.33867686 275.67245885 351.68081985 270 384 C269.82839355 385.0415625 269.65678711 386.083125 269.47998047 387.15625 C259.22897985 448.71721884 232.4702258 507.19877358 191 554 C190.18917969 554.92167969 189.37835937 555.84335938 188.54296875 556.79296875 C176.63026083 570.05980936 164.14438863 583.10719496 150 594 C148.84100936 594.9445638 147.68496445 595.89274893 146.53125 596.84375 C79.68268732 651.73850503 -9.41851435 676.599779 -95.11303711 669.12695312 C-101.09117483 668.52793666 -107.04672038 667.80813353 -113 667 C-114.00063477 666.86609863 -115.00126953 666.73219727 -116.03222656 666.59423828 C-177.35490228 658.02236308 -234.83692727 630.64918348 -282 591 C-283.0506447 590.13655257 -284.10143295 589.27327979 -285.15234375 588.41015625 C-298.09494969 577.66758648 -310.596283 565.88882878 -320.953125 552.6015625 C-322.83616885 550.20822814 -324.8068418 547.91905549 -326.81713867 545.63256836 C-338.45246093 532.30159429 -348.30185108 517.38433444 -357 502 C-357.45584473 501.20432617 -357.91168945 500.40865234 -358.38134766 499.58886719 C-387.29290293 448.92934463 -402.21036984 391.87727411 -402.25 333.5625 C-402.25067474 332.6639328 -402.25134949 331.7653656 -402.25204468 330.83956909 C-402.15785248 251.28941799 -373.94949428 171.86302272 -321 112 C-319.88044922 110.7315625 -319.88044922 110.7315625 -318.73828125 109.4375 C-316.51017454 106.94138045 -314.25805313 104.46905153 -312 102 C-311.01807843 100.91289655 -310.03631673 99.82564868 -309.0546875 98.73828125 C-304.26182718 93.45525919 -299.50971459 88.29420565 -294.0234375 83.71484375 C-291.62389145 81.68125163 -289.35606449 79.52736908 -287.0625 77.375 C-215.99062381 12.68388618 -116.75404224 -13.87127584 0 0 Z " fill="#D40000" transform="translate(1077,680)"/>
<path d="M0 0 C36.96 0 73.92 0 112 0 C118.58601322 15.56694033 125.11623891 31.10287521 131.34561157 46.80786133 C133.49948994 52.23666111 135.66323583 57.66152079 137.828125 63.0859375 C138.26538406 64.1815802 138.70264313 65.2772229 139.15315247 66.40606689 C142.95566012 75.91873741 146.83299153 85.39961496 150.73171997 94.87316895 C176.02438199 156.34687151 200.24721806 218.3024229 222 281.125 C222.41556152 282.32229736 222.83112305 283.51959473 223.25927734 284.75317383 C223.81156006 286.36421997 223.81156006 286.36421997 224.375 288.0078125 C224.69210937 288.93223145 225.00921875 289.85665039 225.3359375 290.80908203 C226 293 226 293 226 295 C227.65 295 229.3 295 231 295 C230.87882812 294.13141357 230.75765625 293.26282715 230.6328125 292.36791992 C228.95338466 279.71811416 227.95678519 267.03466857 227 254.3125 C226.91317963 253.17060211 226.82635925 252.02870422 226.73690796 250.85220337 C225.63392073 236.30466533 224.60297086 221.75559266 223.8125 207.1875 C223.74095703 205.88530518 223.66941406 204.58311035 223.59570312 203.24145508 C222.24557475 176.74190871 221.85307111 150.27800697 221.89860606 123.75006223 C221.90499473 119.37666573 221.90545533 115.003268 221.90663147 110.62986755 C221.90970022 102.40376415 221.91785138 94.17767454 221.92798096 85.95157713 C221.94140979 74.79639289 221.94667813 63.64120469 221.95248318 52.48601437 C221.96179602 34.99066597 221.98174399 17.49534665 222 0 C247.74 0 273.48 0 300 0 C300 126.72 300 253.44 300 384 C265.02 384 230.04 384 194 384 C180.45485681 351.26590397 180.45485681 351.26590397 176.37176514 340.5776062 C170.20894438 324.46335363 163.79926825 308.44885774 157.375 292.4375 C146.77794628 266.01216631 136.3317058 239.53015911 126 213 C125.43249023 211.54303711 125.43249023 211.54303711 124.85351562 210.05664062 C114.3629196 183.11447087 104.05505731 156.10779285 94 129 C93.6574115 128.07747437 93.314823 127.15494873 92.96185303 126.20446777 C90.82806919 120.45748314 88.70093739 114.7081035 86.58258057 108.95541382 C85.90696978 107.12219348 85.22986532 105.28952287 84.5512085 103.45742798 C83.61396888 100.92517895 82.68305737 98.39069487 81.75390625 95.85546875 C81.4734697 95.10123627 81.19303314 94.34700378 80.90409851 93.56991577 C79.81398984 90.57755693 79 88.21149622 79 85 C77.35 85 75.7 85 74 85 C74.0501123 85.76586426 74.10022461 86.53172852 74.15185547 87.32080078 C78.18471488 150.52055443 78.2698632 213.68743346 78.14405429 276.98747647 C78.12121153 288.69109281 78.11058135 300.39471224 78.10064721 312.09834552 C78.08004674 336.06559433 78.04354874 360.03278114 78 384 C52.26 384 26.52 384 0 384 C0 257.28 0 130.56 0 0 Z " fill="#000000" transform="translate(4707,820)"/>
<path d="M0 0 C188.09778614 0 188.09778614 0 206.1875 5.6875 C207.00790771 5.94023682 207.82831543 6.19297363 208.67358398 6.45336914 C216.90926796 9.10610615 224.48097072 12.75151255 232 17 C232.98226562 17.54269531 233.96453125 18.08539062 234.9765625 18.64453125 C257.2284066 31.82249656 272.99650477 54.42186451 279.58778381 79.21055603 C282.49760826 91.31952098 283.64038382 103.02793052 283.52148438 115.46435547 C283.49994265 118.1321023 283.52149187 120.79717466 283.546875 123.46484375 C283.59569018 153.28937784 272.91808558 178.40974531 252.3125 200.0625 C244.02223969 208.17197582 234.29883943 214.71329276 224 220 C226.12133626 226.77683783 228.70964653 233.27338371 231.515625 239.79296875 C231.95918335 240.83158051 232.4027417 241.87019226 232.85974121 242.9402771 C234.31992437 246.35741229 235.78501206 249.7724223 237.25 253.1875 C238.28195912 255.60066607 239.31352796 258.01399908 240.34472656 260.42749023 C242.2188736 264.81333928 244.09415029 269.19870168 245.97101974 273.58338642 C254.54517796 293.61411829 263.07554173 313.66359751 271.6026001 333.7144165 C272.54309961 335.92573029 273.48381817 338.13695093 274.42474365 340.3480835 C277.17537264 346.81213801 279.92235109 353.2777181 282.66345215 359.74581909 C283.50686199 361.73456366 284.35148994 363.72279211 285.1973877 365.71047974 C286.35243205 368.42535505 287.50299569 371.14208427 288.65234375 373.859375 C288.99484665 374.66175095 289.33734955 375.46412689 289.69023132 376.29081726 C292 381.77152351 292 381.77152351 292 384 C262.3 384 232.6 384 202 384 C186.50334246 340.29147874 186.50334246 340.29147874 180.16796875 322.265625 C179.77140076 321.13732773 179.37483276 320.00903046 178.96624756 318.84654236 C177.37075921 314.30636251 175.77556929 309.76607856 174.18157959 305.22537231 C169.97917706 293.255477 165.75916739 281.2927378 161.46484375 269.35546875 C161.10924377 268.3658313 160.7536438 267.37619385 160.38726807 266.35656738 C158.72014403 261.71859868 157.04795252 257.08257262 155.36669922 252.44970703 C154.78206302 250.82720736 154.19758066 249.20465224 153.61328125 247.58203125 C153.21169044 246.48461861 153.21169044 246.48461861 152.80198669 245.36503601 C151.75141074 242.43558059 151 240.1384737 151 237 C127.57 237 104.14 237 80 237 C80 285.51 80 334.02 80 384 C53.6 384 27.2 384 0 384 C0 257.28 0 130.56 0 0 Z M80 72 C80 103.35 80 134.7 80 167 C101.16125 167.0928125 101.16125 167.0928125 122.75 167.1875 C129.39914551 167.22846802 129.39914551 167.22846802 136.18261719 167.27026367 C140.20205341 167.28030511 140.20205341 167.28030511 144.22149658 167.28633118 C145.99349232 167.29089818 147.76547951 167.30136565 149.53741455 167.31672668 C165.29489987 167.44634387 178.15973825 165.89834838 191.75 157.25 C202.49663301 146.50336699 204.38929618 134.09214773 204.5 119.5 C204.40035101 106.37213529 203.42579976 94.95072324 194 85 C193.49855469 84.45859375 192.99710938 83.9171875 192.48046875 83.359375 C179.68574407 71.03161108 161.03406809 71.70619484 144.55078125 71.8046875 C142.89400365 71.80763433 141.23722418 71.80967082 139.58044434 71.81079102 C133.49110085 71.82120424 127.40179742 71.84912658 121.3125 71.875 C107.679375 71.91625 94.04625 71.9575 80 72 Z " fill="#000000" transform="translate(2220,820)"/>
<path d="M0 0 C218.2276705 0 218.2276705 0 254 34.5625 C264.13990448 44.70727163 271.07585638 56.57899026 276 70 C276.56654297 71.5159375 276.56654297 71.5159375 277.14453125 73.0625 C287.82803519 104.43278872 286.66632064 143.23088285 272.03125 173.125 C262.57410318 191.42223778 248.29411632 204.86287091 231.07421875 215.83203125 C230.29413452 216.33271118 229.51405029 216.83339111 228.71032715 217.34924316 C226.80875783 218.56913156 224.90531627 219.78597564 223 221 C223.23707169 221.55660309 223.47414337 222.11320618 223.71839905 222.68667603 C248.97607422 281.9873047 248.97607422 281.9873047 250.41638184 285.36891174 C251.36534178 287.59689447 252.31431638 289.82487095 253.26330566 292.05284119 C255.61549748 297.57520129 257.9674349 303.09766946 260.31884766 308.62036133 C264.84236638 319.24386354 269.36859608 329.86619285 273.90280151 340.48513794 C275.79858343 344.92504382 277.69320782 349.36544336 279.58756828 353.80595589 C280.88649323 356.8504711 282.18631568 359.89459855 283.48730469 362.93823242 C284.91891862 366.287568 286.34837078 369.63781826 287.77734375 372.98828125 C288.20736191 373.99272781 288.63738007 374.99717438 289.08042908 376.03205872 C289.46759598 376.94098373 289.85476288 377.84990875 290.25366211 378.78637695 C290.76249184 379.97768974 290.76249184 379.97768974 291.28160095 381.19306946 C292 383 292 383 292 384 C262.3 384 232.6 384 202 384 C196.37561567 370.50147761 196.37561567 370.50147761 194.68261719 365.61621094 C194.10388351 363.95541252 194.10388351 363.95541252 193.51345825 362.26106262 C193.11198578 361.09725571 192.71051331 359.93344879 192.296875 358.734375 C191.85743969 357.46961894 191.41764077 356.20498917 190.97750854 354.94047546 C190.04659894 352.26405088 189.11779239 349.58691044 188.19073486 346.90914917 C185.99028864 340.55405185 183.77797176 334.2030825 181.56683731 327.85169792 C180.81965738 325.70514919 180.07288207 323.55845998 179.32614136 321.41175842 C174.80046773 308.4056838 170.22512457 295.4174287 165.625 282.4375 C165.29109253 281.49394653 164.95718506 280.55039307 164.61315918 279.57824707 C161.69164114 271.32393196 158.76570574 263.07216459 155.74902344 254.85205078 C155.37748138 253.83828873 155.00593933 252.82452667 154.62313843 251.78004456 C153.90381041 249.82105096 153.18161496 247.86310728 152.45620728 245.90635681 C152.13469696 245.03112869 151.81318665 244.15590057 151.48193359 243.25415039 C151.19530853 242.47938858 150.90868347 241.70462677 150.6133728 240.90638733 C150 239 150 239 150 237 C126.57 237 103.14 237 79 237 C79 285.51 79 334.02 79 384 C52.93 384 26.86 384 0 384 C0 257.28 0 130.56 0 0 Z M79 72 C79 103.35 79 134.7 79 167 C93.086875 167.061875 107.17375 167.12375 121.6875 167.1875 C126.11115967 167.21481201 130.53481934 167.24212402 135.0925293 167.27026367 C139.1092876 167.28030609 139.1092876 167.28030609 143.12605286 167.28633118 C144.89467137 167.29089339 146.66328143 167.3013505 148.43183899 167.31672668 C164.17050554 167.44654502 179.92373676 167.00756865 192.3203125 155.92578125 C203.25198806 144.36886225 204.55255149 130.2241602 204.18359375 114.86328125 C203.60747753 102.74032513 200.95132525 91.75240691 192 83 C177.04148117 72.46692532 162.13702864 71.70047352 144.4296875 71.8046875 C142.75203586 71.80763342 141.07438237 71.80967047 139.39672852 71.81079102 C133.22279071 71.82121473 127.04889243 71.84913717 120.875 71.875 C107.05625 71.91625 93.2375 71.9575 79 72 Z " fill="#000000" transform="translate(3377,820)"/>
<path d="M0 0 C1.84292633 -0.00855011 1.84292633 -0.00855011 3.7230835 -0.01727295 C6.32189074 -0.02669533 8.92070979 -0.03324591 11.51953125 -0.03710938 C15.42991006 -0.04674085 19.33974595 -0.07776102 23.25 -0.109375 C41.22720157 -0.18631382 58.66199167 0.72141159 75.984375 5.890625 C76.84724121 6.14336182 77.71010742 6.39609863 78.59912109 6.65649414 C86.98483523 9.23355593 94.64049933 12.84351631 102.234375 17.203125 C103.72324219 18.05197266 103.72324219 18.05197266 105.2421875 18.91796875 C128.29942187 32.87712061 144.01293152 54.99750892 151.39453125 80.75390625 C155.25643126 96.61463978 156.234375 111.80469437 156.234375 128.203125 C130.164375 128.203125 104.094375 128.203125 77.234375 128.203125 C76.574375 121.603125 75.914375 115.003125 75.234375 108.203125 C72.37556679 97.27839362 67.91113563 87.61070974 58.234375 81.203125 C45.70344267 74.03967672 32.22028854 72.692013 18.10351562 72.81201172 C15.86786455 72.82806404 13.63403361 72.8120806 11.3984375 72.79296875 C-6.5271244 72.76726805 -24.17613109 75.21725057 -37.640625 87.98046875 C-50.53710802 101.57180538 -50.91829746 119.9025313 -50.91088867 137.57275391 C-50.9138861 139.00785407 -50.91728996 140.44295343 -50.92106628 141.87805176 C-50.92985313 145.75443975 -50.9322422 149.63080563 -50.93288207 153.50720263 C-50.93359583 155.93676384 -50.93573633 158.36631953 -50.93837929 160.79587936 C-50.94761657 169.29409895 -50.95171638 177.79230291 -50.95092773 186.29052734 C-50.95032804 194.17537015 -50.96086279 202.06014431 -50.9766714 209.94496977 C-50.98980987 216.74363415 -50.99510897 223.54227628 -50.99447232 230.34095323 C-50.9942191 234.38841507 -50.99697208 238.43581588 -51.00765038 242.48326492 C-51.01743771 246.29679331 -51.01733894 250.11020366 -51.01013374 253.92373657 C-51.00861427 255.96400536 -51.01686052 258.0042744 -51.02557373 260.04452515 C-50.96382313 278.48964309 -48.81677973 297.07203317 -35.765625 311.203125 C-18.04482453 327.19432679 6.92124096 326.01044886 29.234375 325.203125 C43.72993825 324.35718331 58.25896442 319.80801504 68.484375 309.078125 C80.8260841 294.14341035 81.6742838 276.79089692 81.921875 258.328125 C82.0765625 249.35625 82.0765625 249.35625 82.234375 240.203125 C57.154375 240.203125 32.074375 240.203125 6.234375 240.203125 C6.234375 218.423125 6.234375 196.643125 6.234375 174.203125 C55.734375 174.203125 105.234375 174.203125 156.234375 174.203125 C156.234375 254.96355699 156.234375 254.96355699 156.03244591 280.98427725 C156.00252687 284.91700514 155.97566901 288.84975447 155.94836426 292.78250122 C155.8972004 300.09358237 155.84363469 307.40464342 155.7889924 314.71569932 C155.72648558 323.09683432 155.6669817 331.47799003 155.60761738 339.85914779 C155.48633142 356.97383063 155.36124511 374.0884825 155.234375 391.203125 C137.084375 391.203125 118.934375 391.203125 100.234375 391.203125 C97.68632481 381.01092425 95.18741771 370.85391727 92.94189453 360.59887695 C92.47584384 358.47677954 92.00163668 356.35659677 91.52734375 354.23632812 C91.22606861 352.86729609 90.92526872 351.49815937 90.625 350.12890625 C90.35719727 348.91630127 90.08939453 347.70369629 89.81347656 346.4543457 C89.30634932 343.6072068 89.11329894 341.08276275 89.234375 338.203125 C86.84013846 338.13526581 86.84013846 338.13526581 84.234375 339.203125 C82.77076607 341.63944298 81.65479187 343.86245002 80.546875 346.453125 C70.67018261 367.7730258 53.66156577 382.11295932 32.234375 391.203125 C17.54233288 396.53567562 2.51738229 397.59194358 -12.953125 397.515625 C-14.10574326 397.51289078 -14.10574326 397.51289078 -15.28164673 397.51010132 C-26.98089428 397.46342899 -38.36077055 397.04873701 -49.765625 394.203125 C-50.44496094 394.03683594 -51.12429687 393.87054687 -51.82421875 393.69921875 C-77.81886972 387.06542313 -99.85364216 371.30548632 -113.765625 348.203125 C-131.2299053 318.5226085 -131.23777642 285.87684324 -131.16860151 252.48578215 C-131.16089761 247.59050242 -131.16807957 242.69523784 -131.17276001 237.79995728 C-131.17818579 229.58828656 -131.17110911 221.37669735 -131.15673828 213.16503906 C-131.14040705 203.72526887 -131.14571667 194.28569311 -131.1622175 184.8459276 C-131.17591066 176.67961719 -131.1777144 168.51336469 -131.16990149 160.34704649 C-131.16526908 155.49645219 -131.16447605 150.64594872 -131.17451096 145.79536057 C-131.23008391 114.64888366 -130.33066038 86.00937209 -114.765625 58.203125 C-114.21003906 57.20539062 -113.65445313 56.20765625 -113.08203125 55.1796875 C-97.6860786 29.40900417 -70.29095862 12.74526554 -41.765625 5.203125 C-34.82363628 3.59739334 -27.81102502 2.26809596 -20.765625 1.203125 C-19.6111084 1.026604 -18.4565918 0.85008301 -17.26708984 0.66821289 C-11.52830549 -0.03121266 -5.77374643 0.02106879 0 0 Z " fill="#000000" transform="translate(3145.765625,812.796875)"/>
<path d="M0 0 C26.07 0 52.14 0 79 0 C79 48.84 79 97.68 79 148 C124.54 148 170.08 148 217 148 C217 99.16 217 50.32 217 0 C243.4 0 269.8 0 297 0 C297 126.72 297 253.44 297 384 C270.6 384 244.2 384 217 384 C217 331.53 217 279.06 217 225 C171.46 225 125.92 225 79 225 C79 277.47 79 329.94 79 384 C52.93 384 26.86 384 0 384 C0 257.28 0 130.56 0 0 Z " fill="#000000" transform="translate(1492,820)"/>
<path d="M0 0 C82.83 0 165.66 0 251 0 C251 24.09 251 48.18 251 73 C194.57 73 138.14 73 80 73 C80 98.41 80 123.82 80 150 C129.5 150 179 150 230 150 C230 174.42 230 198.84 230 224 C180.5 224 131 224 80 224 C80 252.71 80 281.42 80 311 C138.08 311 196.16 311 256 311 C256 335.09 256 359.18 256 384 C171.52 384 87.04 384 0 384 C0 257.28 0 130.56 0 0 Z " fill="#000000" transform="translate(4389,820)"/>
<path d="M0 0 C26.4 0 52.8 0 80 0 C80.0093457 8.28230713 80.01869141 16.56461426 80.02832031 25.09790039 C80.06106975 51.63741991 80.11338441 78.17686653 80.17792095 104.71632666 C80.18793769 108.84286651 80.19778194 112.96940675 80.20751953 117.09594727 C80.2094609 117.91742229 80.21140228 118.73889731 80.21340248 119.58526551 C80.24437269 132.86383988 80.2613892 146.142397 80.27319422 159.42100067 C80.28563164 173.0592418 80.31319129 186.69739277 80.35461307 200.33557695 C80.37967453 208.74228678 80.39312267 217.14884696 80.39142957 225.55559468 C80.39139968 231.33058068 80.40613822 237.10541492 80.43216428 242.88034172 C80.4467254 246.2058315 80.45288805 249.53075092 80.44580269 252.85630417 C80.09161114 279.46516542 80.09161114 279.46516542 92.8828125 301.95703125 C103.98259017 312.29505947 118.47063366 315.1284304 133.24609375 315.203125 C134.13426285 315.20882507 135.02243195 315.21452515 135.93751526 315.22039795 C137.81599754 315.22981839 139.69449612 315.23637014 141.57299805 315.24023438 C144.3972812 315.24986289 147.22081155 315.28088222 150.04492188 315.3125 C167.35239482 315.41516095 185.22821537 314.18061097 198.546875 301.60546875 C208.67349052 290.41719192 210.14461304 275.26977509 210.15821838 260.83204651 C210.16315636 259.71533929 210.16809434 258.59863208 210.17318195 257.44808525 C210.18852466 253.71091572 210.19690886 249.97376333 210.20532227 246.23657227 C210.21490332 243.55576836 210.22487065 240.87496848 210.23532104 238.19416809 C210.25704145 232.42498548 210.27520207 226.65580054 210.29092598 220.88659859 C210.31366512 212.54536269 210.34180227 204.20415182 210.37124526 195.8629372 C210.41887167 182.32896465 210.46214922 168.79498184 210.50268555 155.26098633 C210.5420657 142.11612144 210.58349794 128.97126566 210.62768555 115.82641602 C210.63177196 114.61048042 210.63177196 114.61048042 210.63594092 113.36998046 C210.64962081 109.30320741 210.663341 105.23643449 210.67708123 101.16966164 C210.79096821 67.44645898 210.89699238 33.72323808 211 0 C237.07 0 263.14 0 290 0 C290.08833222 36.731253 290.16213076 73.46240509 290.20426132 110.19373406 C290.2092636 114.53914972 290.21444094 118.88456515 290.21972656 123.22998047 C290.2207758 124.09500316 290.22182505 124.96002585 290.22290608 125.85126135 C290.24026825 139.82164875 290.27178261 153.7919697 290.30861118 167.76231781 C290.34613762 182.11808777 290.36826047 196.47382315 290.37635398 210.82964015 C290.3818176 219.67399001 290.39901619 228.51815199 290.43166587 237.36244395 C290.45295859 243.44344365 290.45916704 249.52434751 290.45400551 255.6053817 C290.45146641 259.10359818 290.45510391 262.6014885 290.4768219 266.09964561 C290.65556734 299.90314508 284.65718084 330.35411979 260.0625 355.3125 C242.95235858 372.09426766 220.29472691 381.40801859 197.125 386.25 C196.05004272 386.47695557 196.05004272 386.47695557 194.95336914 386.70849609 C178.5995937 389.83815146 161.97662061 390.3770237 145.375 390.3125 C143.9416481 390.31026428 143.9416481 390.31026428 142.4793396 390.3079834 C121.35335673 390.2489692 100.36758053 389.05753443 80 383 C79.31180176 382.79536133 78.62360352 382.59072266 77.91455078 382.37988281 C50.29523268 373.90598976 27.59733637 357.90621143 13.0546875 332.6171875 C2.99780443 313.50475604 -0.1783637 293.30083672 -0.12025452 271.89546204 C-0.12110894 270.72633449 -0.12196337 269.55720695 -0.12284368 268.3526513 C-0.12419656 265.13944186 -0.12110746 261.92627366 -0.11606562 258.71306908 C-0.11171932 255.23606572 -0.11321049 251.75906404 -0.1139679 248.28205872 C-0.11449049 242.26847702 -0.11137135 236.25490624 -0.10573006 230.24132729 C-0.09757918 221.54686113 -0.09499617 212.8524002 -0.09374207 204.15793063 C-0.09155717 190.0493759 -0.08491237 175.94082697 -0.07543945 161.83227539 C-0.06625076 148.13273141 -0.05917706 134.43318902 -0.05493164 120.73364258 C-0.05466892 119.88822579 -0.05440619 119.04280901 -0.05413551 118.17177353 C-0.05283041 113.93027428 -0.05156671 109.68877502 -0.05032361 105.44727576 C-0.03996852 70.29817868 -0.02153967 35.14909235 0 0 Z " fill="#000000" transform="translate(3714,820)"/>
<path d="M0 0 C26.07 0 52.14 0 79 0 C79.01458252 8.16113525 79.02916504 16.32227051 79.04418945 24.73071289 C79.09301105 50.88304463 79.15643787 77.03532154 79.22898628 103.18759758 C79.24025361 107.25405238 79.2513922 111.32050752 79.26245117 115.38696289 C79.26465486 116.19647545 79.26685854 117.00598801 79.269129 117.84003126 C79.30444172 130.9246039 79.3293398 144.00917649 79.35034702 157.09377903 C79.37215719 170.5331269 79.40525685 183.97241327 79.44870156 197.41170877 C79.47512869 205.69555566 79.49288976 213.979326 79.49934604 222.26321291 C79.50462742 227.95407868 79.52093581 233.64484838 79.54566566 239.33566255 C79.55958725 242.6124335 79.56724436 245.88900078 79.56500816 249.16580582 C79.20462524 278.21837626 79.20462524 278.21837626 92.74609375 303.1171875 C106.67159564 314.74992912 124.55640382 315.51452611 141.82470703 315.39111328 C144.49693828 315.37501844 147.16765776 315.39105871 149.83984375 315.41015625 C166.98328514 315.43312506 184.748398 313.85135561 198.0625 301.6875 C213.27952602 284.43898184 210.15497877 257.66264322 210.20532227 236.35986328 C210.2149149 233.77654875 210.22492576 231.19323574 210.23532104 228.60992432 C210.25694876 223.07277271 210.27514238 217.53561865 210.29092598 211.99844742 C210.3137508 203.99287418 210.34187524 195.98732626 210.37124526 187.98177467 C210.41876777 174.98965139 210.46207291 161.99751768 210.50268555 149.00537109 C210.54211895 136.39338369 210.58356364 123.78140551 210.62768555 111.16943359 C210.63177196 110.00106152 210.63177196 110.00106152 210.63594092 108.80908598 C210.64962169 104.90104808 210.6633417 100.99301032 210.67708123 97.08497262 C210.79080466 64.72333328 210.89688243 32.3616753 211 0 C237.07 0 263.14 0 290 0 C290.06626233 35.94986316 290.12160615 71.89966826 290.15319599 107.84957511 C290.15694765 112.10357427 290.16083066 116.3575733 290.16479492 120.61157227 C290.16558185 121.45838896 290.16636878 122.30520565 290.16717956 123.17768345 C290.1801974 136.8499201 290.20383106 150.52211852 290.23145839 164.19433256 C290.25961379 178.24613578 290.27619757 192.29791912 290.28226548 206.34974939 C290.28636102 215.00519835 290.29924797 223.6605392 290.3237494 232.31595484 C290.33973205 238.26893549 290.34437237 244.22186108 290.34050413 250.17486157 C290.33860181 253.59825399 290.3429991 257.02130926 290.35761642 260.44469261 C290.49732821 294.881399 286.11967905 325.1563458 263 352 C262.41605469 352.68707031 261.83210938 353.37414063 261.23046875 354.08203125 C244.54751136 372.11651936 219.37216653 381.46766441 195.9375 386.3125 C194.88042847 386.53341309 194.88042847 386.53341309 193.80200195 386.75878906 C178.43631428 389.65522373 162.81646042 390.33367029 147.21826172 390.26074219 C144.50074986 390.25000296 141.78389865 390.26073209 139.06640625 390.2734375 C123.61108842 390.28631128 108.03653833 389.44872311 92.875 386.25 C92.06063477 386.08081055 91.24626953 385.91162109 90.40722656 385.73730469 C61.15467039 379.36624506 33.56783723 365.05918974 16.7109375 339.58984375 C4.70087328 320.81502937 -0.17876025 300.22431648 -0.12025452 278.02844238 C-0.12110894 276.8373768 -0.12196337 275.64631122 -0.12284368 274.41915274 C-0.12420138 271.13075631 -0.12109371 267.84239973 -0.11606562 264.55400801 C-0.11173369 261.00128656 -0.11320949 257.44856685 -0.1139679 253.89584351 C-0.11449139 247.74633854 -0.11136278 241.59684421 -0.10573006 235.44734192 C-0.09759147 226.55627324 -0.09499742 217.66520968 -0.09374207 208.77413768 C-0.09155525 194.3477946 -0.08490521 179.92145719 -0.07543945 165.49511719 C-0.06625575 151.48404977 -0.0591796 137.47298389 -0.05493164 123.46191406 C-0.05466892 122.59778713 -0.05440619 121.7336602 -0.05413551 120.84334761 C-0.05283044 116.50813203 -0.05156674 112.17291644 -0.05032361 107.83770084 C-0.03996254 71.89179553 -0.02153044 35.9459007 0 0 Z " fill="#000000" transform="translate(1860,820)"/>
<path d="M0 0 C95.04 0 190.08 0 288 0 C288 23.76 288 47.52 288 72 C253.68 72 219.36 72 184 72 C184 174.96 184 277.92 184 384 C157.6 384 131.2 384 104 384 C104 281.04 104 178.08 104 72 C69.68 72 35.36 72 0 72 C0 48.24 0 24.48 0 0 Z " fill="#000000" transform="translate(2530,820)"/>
<path d="M0 0 C95.04 0 190.08 0 288 0 C288 23.76 288 47.52 288 72 C253.68 72 219.36 72 184 72 C184 174.96 184 277.92 184 384 C157.93 384 131.86 384 105 384 C105 281.04 105 178.08 105 72 C70.35 72 35.7 72 0 72 C0 48.24 0 24.48 0 0 Z " fill="#000000" transform="translate(4049,820)"/>
<path d="M0 0 C30.36 0 60.72 0 92 0 C92 46.2 92 92.4 92 140 C137.21 140 182.42 140 229 140 C222.24992172 147.87509132 222.24992172 147.87509132 218.81586075 151.3127737 C218.03531743 152.09654147 217.25477412 152.88030923 216.45057797 153.68782753 C215.18899055 154.94709205 215.18899055 154.94709205 213.9019165 156.23179626 C212.99573601 157.14024231 212.08955553 158.04868836 211.15591502 158.98466307 C208.65582364 161.49083913 206.15265016 163.99391631 203.64892364 166.49646008 C200.94370912 169.20146977 198.24136319 171.90934277 195.53862 174.61682129 C190.25102633 179.91270146 184.96067586 185.20581927 179.66921672 190.49783694 C175.37089517 194.79663417 171.07336535 199.09622129 166.77639008 203.39636421 C154.59466324 215.5868886 142.41085118 227.77532336 130.22434941 239.9610744 C129.56814125 240.6172426 128.9119331 241.27341081 128.23583984 241.94946289 C127.57883161 242.60643024 126.92182337 243.2633976 126.2449058 243.94027305 C115.57601855 254.60875306 104.91213942 265.28222361 94.25049737 275.95794373 C83.30424596 286.91853519 72.35429462 297.87541812 61.40043807 308.82840925 C55.25004813 314.97846662 49.10122066 321.13006796 42.95636749 327.28565788 C37.73016237 332.52093636 32.50055038 337.7527811 27.26639971 342.98011624 C24.59426735 345.64896861 21.92380644 348.31944076 19.25762749 350.99424171 C16.3738351 353.88726441 13.48243732 356.77256045 10.59014893 359.65708923 C9.74016775 360.51221397 8.89018658 361.3673387 8.0144484 362.24837631 C7.24433608 363.01388984 6.47422375 363.77940337 5.68077469 364.56811428 C4.67977419 365.56944083 4.67977419 365.56944083 3.65855145 366.59099621 C2 368 2 368 0 368 C0 246.56 0 125.12 0 0 Z " fill="#FEFDFD" transform="translate(851,831)"/>
<path d="M0 0 C30.36 0 60.72 0 92 0 C92 120.12 92 240.24 92 364 C61.97 364 31.94 364 1 364 C0 363 0 363 -0.1241985 360.54823488 C-0.12381878 359.44590676 -0.12343906 358.34357864 -0.12304783 357.20784664 C-0.12503888 355.941383 -0.12702993 354.67491936 -0.12908131 353.37007803 C-0.12622771 351.94633907 -0.1232821 350.52260029 -0.12025452 349.09886169 C-0.12069009 347.60069592 -0.12156473 346.10253022 -0.12284368 344.60436493 C-0.12509144 340.46784335 -0.12106355 336.33134741 -0.11606562 332.19482911 C-0.11176531 327.741499 -0.11320725 323.28817046 -0.1139679 318.83483887 C-0.1144934 311.11260571 -0.11134386 303.39038098 -0.10573006 295.66814995 C-0.0976186 284.50296584 -0.0950002 273.33778582 -0.09374207 262.17259908 C-0.09155099 244.05980658 -0.08488939 225.94701858 -0.07543945 207.83422852 C-0.06626678 190.23461937 -0.05918524 172.63501144 -0.05493164 155.03540039 C-0.05466892 153.95138372 -0.05440619 152.86736705 -0.05413551 151.75050139 C-0.05283051 146.31255416 -0.0515668 140.87460693 -0.05032361 135.43665969 C-0.03994925 90.29110247 -0.02151002 45.14555356 0 0 Z " fill="#FEFDFD" transform="translate(1082,831)"/>
<path d="M0 0 C26.07 0 52.14 0 79 0 C79 126.72 79 253.44 79 384 C52.93 384 26.86 384 0 384 C0 257.28 0 130.56 0 0 Z " fill="#000000" transform="translate(2869,820)"/>
</svg>
