<?xml version="1.0" encoding="UTF-8"?>
<svg version="1.1" xmlns="http://www.w3.org/2000/svg" width="1572" height="361">
<path d="M0 0 C1.03511719 0.11827148 2.07023437 0.23654297 3.13671875 0.35839844 C62.03520871 7.40684745 120.40852565 28.53211242 170 61 C169.76773039 71.707629 169.05022132 82.13851529 167.125 92.6875 C166.96354492 93.58227051 166.80208984 94.47704102 166.63574219 95.39892578 C165.53622467 101.11107943 163.97986214 106.53169059 162 112 C156.51249871 108.60348083 151.14071742 105.15597682 146 101.25 C138.10722801 95.44253425 129.54602133 90.7631899 121 86 C120.2471875 85.57428711 119.494375 85.14857422 118.71875 84.70996094 C52.14688604 47.23398646 -32.57106728 32.7270857 -106.84106445 52.7277832 C-139.50274126 62.1173782 -169.44484766 78.82980979 -194.48828125 101.7109375 C-196.1799032 103.25260229 -197.88605651 104.77845444 -199.60546875 106.2890625 C-200.45753906 107.03929688 -201.30960937 107.78953125 -202.1875 108.5625 C-202.94417969 109.22378906 -203.70085937 109.88507813 -204.48046875 110.56640625 C-221.01342468 126.5354474 -233.70003486 146.67258537 -243.625 167.25 C-244.05127686 168.13139648 -244.47755371 169.01279297 -244.91674805 169.92089844 C-247.95904887 176.20357787 -247.95904887 176.20357787 -249 183 C-247.89703639 185.79457088 -246.77947972 188.16096352 -245.3125 190.75 C-244.70716431 191.85166504 -244.70716431 191.85166504 -244.08959961 192.97558594 C-237.08222382 205.473727 -228.89415239 217.21023632 -219.9609375 228.3984375 C-218.32727521 230.5658062 -217.08927167 232.5286417 -216 235 C-215.34 235 -214.68 235 -214 235 C-212.58984375 236.43359375 -212.58984375 236.43359375 -210.9375 238.4375 C-203.71499661 246.89601943 -195.77398013 254.17579323 -187 261 C-186.45102051 261.43070801 -185.90204102 261.86141602 -185.33642578 262.30517578 C-175.46565149 269.9972282 -165.11237326 276.26576173 -154 282 C-153.31744141 282.35690918 -152.63488281 282.71381836 -151.93164062 283.08154297 C-99.82028189 310.03613062 -36.45303037 311.37731597 18.80712891 294.12353516 C64.53402179 279.03081282 101.60782691 248.60384661 125.9375 207.1875 C126.39817871 206.41148437 126.85885742 205.63546875 127.33349609 204.8359375 C130.27307382 199.7251426 132.3550395 194.66037711 134 189 C123.82620607 179.92209706 113.17861724 171.79944765 102 164 C101.05519775 163.33121826 101.05519775 163.33121826 100.09130859 162.64892578 C79.97148288 148.43994759 57.40775572 136.71602724 34 129 C34.56267578 130.0209375 34.56267578 130.0209375 35.13671875 131.0625 C48.46464838 156.3083516 50.57905666 184.80123315 42.3125 212.0625 C33.04915243 237.58040085 15.17112297 259.51903141 -9.58837891 271.33886719 C-35.62743578 283.13790171 -64.06992139 284.38104439 -91 274.6875 C-115.69008341 264.35506458 -136.25604072 244.7324028 -146.72265625 220.046875 C-157.26497271 193.90167684 -157.6117789 166.15660098 -147 140 C-135.53430431 113.56013381 -115.18091845 94.15187542 -88.625 83.1875 C-72.84606505 77.49447603 -56.78894489 75.76346683 -40.125 75.75 C-38.9978508 75.74898788 -38.9978508 75.74898788 -37.84793091 75.74795532 C34.28642012 75.85015704 110.37935757 105.16457116 163 155 C164.41024785 156.25723723 165.82667662 157.50758501 167.25 158.75 C167.88421875 159.30558594 168.5184375 159.86117187 169.171875 160.43359375 C170.91996376 161.93142194 172.70382331 163.37304064 174.5 164.8125 C175.325 165.534375 176.15 166.25625 177 167 C177 167.66 177 168.32 177 169 C177.66 169 178.32 169 179 169 C180.5859375 170.609375 180.5859375 170.609375 182.375 172.75 C184.34772146 175.10240844 186.15408794 177.13097475 188.5 179.125 C190 181 190 181 189.83203125 183.5234375 C188.7422008 188.07718916 187.04394701 192.20941161 185.1875 196.5 C184.79224121 197.41418701 184.39698242 198.32837402 183.98974609 199.27026367 C174.91269222 219.80469325 163.40181315 238.77805994 149 256 C148.23945313 256.94488281 147.47890625 257.88976562 146.6953125 258.86328125 C135.60242971 272.49828301 123.04006141 285.394816 109 296 C107.61167969 297.07894531 107.61167969 297.07894531 106.1953125 298.1796875 C50.6588371 340.75274159 -19.74636593 357.95730275 -89.06152344 349.39794922 C-137.04976211 342.89904352 -179.79699633 324.47294026 -218 295 C-218.55365234 294.57702637 -219.10730469 294.15405273 -219.67773438 293.71826172 C-225.96305139 288.90963932 -225.96305139 288.90963932 -228 287 C-228 286.34 -228 285.68 -228 285 C-228.58628174 284.73823975 -229.17256348 284.47647949 -229.77661133 284.20678711 C-232.12431048 282.93252809 -233.68581889 281.57261122 -235.57421875 279.69140625 C-236.23728027 279.03245361 -236.9003418 278.37350098 -237.58349609 277.69458008 C-238.27781738 276.99099365 -238.97213867 276.28740723 -239.6875 275.5625 C-240.40502441 274.83893311 -241.12254883 274.11536621 -241.86181641 273.36987305 C-247.2946936 267.83556739 -252.2687753 262.14969434 -257 256 C-257.77214844 255.04480469 -258.54429687 254.08960938 -259.33984375 253.10546875 C-273.00253265 235.94616752 -284.1724628 216.77909522 -292.5 196.5 C-292.83870117 195.68732666 -293.17740234 194.87465332 -293.52636719 194.03735352 C-297.10933602 184.98432372 -297.78247319 178.1560875 -294.3125 169 C-293.84481201 167.72564087 -293.84481201 167.72564087 -293.36767578 166.42553711 C-282.64501206 138.14674013 -267.24378044 113.0685987 -247.57763672 90.22265625 C-245.55958984 87.87729835 -243.7196652 85.5794978 -242 83 C-241.34 83 -240.68 83 -240 83 C-239.77183594 82.44699219 -239.54367188 81.89398438 -239.30859375 81.32421875 C-234.27310961 72.38059767 -223.87935907 65.25878167 -216 59 C-214.14477021 57.45961285 -212.29060089 55.91794758 -210.4375 54.375 C-205.45378988 50.3108195 -200.36517508 46.54458243 -195 43 C-194.45311523 42.63825684 -193.90623047 42.27651367 -193.34277344 41.90380859 C-174.95694192 29.83904804 -155.69494709 20.41143425 -135 13 C-133.81470703 12.56929199 -133.81470703 12.56929199 -132.60546875 12.12988281 C-90.55146407 -2.92312663 -44.08525128 -5.09221532 0 0 Z M-98.00390625 144.34375 C-107.28961544 156.69795488 -111.35991728 172.3636161 -109.4375 187.6875 C-106.41579007 203.06211216 -99.04101558 216.89169466 -86 226 C-77.97990657 230.82684766 -69.46422109 235.30974076 -60 236 C-59.07058594 236.06832031 -58.14117187 236.13664062 -57.18359375 236.20703125 C-42.06854535 236.73911248 -27.83472417 231.72089795 -16.16015625 222.1015625 C-4.01573191 210.28655293 1.90386744 196.34488227 2.3125 179.625 C2.05348485 164.46499554 -3.02857045 151.30083575 -13.58984375 140.31640625 C-24.93713734 129.41049848 -37.27840446 123.35710799 -53.125 122.625 C-70.97882148 123.02961918 -86.45829595 130.84011223 -98.00390625 144.34375 Z " fill="#006CB5" transform="translate(297,2)"/>
<path d="M0 0 C1.25554687 -0.00128906 2.51109375 -0.00257813 3.8046875 -0.00390625 C4.46178711 -0.00181152 5.11888672 0.0002832 5.79589844 0.00244141 C7.80411335 0.00779016 9.81210459 0.00249559 11.8203125 -0.00390625 C13.70363281 -0.00197266 13.70363281 -0.00197266 15.625 0 C16.78644531 0.00112793 17.94789062 0.00225586 19.14453125 0.00341797 C21.8125 0.1328125 21.8125 0.1328125 22.8125 1.1328125 C22.90900437 2.99309284 22.93437292 4.85708279 22.93275452 6.71986389 C22.93481651 8.53938316 22.93481651 8.53938316 22.93692017 10.3956604 C22.93338056 11.75213647 22.92974575 13.1086123 22.92602539 14.46508789 C22.92574352 15.88393654 22.92590124 17.30278534 22.9264679 18.72163391 C22.92675589 22.58510051 22.9208589 26.44853633 22.91389394 30.31199574 C22.90766067 34.34523823 22.90705662 38.37848135 22.90586853 42.41172791 C22.90275514 50.05446718 22.89454164 57.69719223 22.88451904 65.33992523 C22.87335816 74.03869269 22.86784752 82.73746081 22.86282361 91.43623364 C22.85235903 109.33510298 22.83401345 127.2339528 22.8125 145.1328125 C12.9125 145.1328125 3.0125 145.1328125 -7.1875 145.1328125 C-7.5175 141.5028125 -7.8475 137.8728125 -8.1875 134.1328125 C-8.80625 134.9990625 -9.425 135.8653125 -10.0625 136.7578125 C-14.16006758 141.71492731 -20.13312968 145.11468906 -26.1875 147.1328125 C-38.91277941 147.96124584 -49.01633449 147.1491311 -59.30859375 138.89453125 C-71.7931708 127.18861805 -75.64341057 111.95209035 -76.34765625 95.359375 C-76.82237995 77.81293524 -74.3925409 60.54805788 -62.1875 47.1328125 C-53.85611193 38.66947937 -45.02059178 35.77136177 -33.30957031 35.67529297 C-24.3290908 35.84916652 -17.35372054 38.82942974 -11.02636719 45.25146484 C-10.49275574 45.79120941 -9.95914429 46.33095398 -9.40936279 46.88705444 C-9.00614807 47.2981546 -8.60293335 47.70925476 -8.1875 48.1328125 C-8.17719254 47.54621353 -8.16688507 46.95961456 -8.15626526 46.35523987 C-8.04842806 40.2724338 -7.93381244 34.18978276 -7.81518555 28.10717773 C-7.77176335 25.83442414 -7.73009384 23.56163637 -7.69018555 21.28881836 C-7.63265881 18.02968018 -7.56891448 14.77071519 -7.50390625 11.51171875 C-7.48719376 10.48881241 -7.47048126 9.46590607 -7.45326233 8.41200256 C-7.43331711 7.47110275 -7.41337189 6.53020294 -7.39282227 5.56079102 C-7.37727798 4.72806168 -7.3617337 3.89533234 -7.34571838 3.03736877 C-6.99338379 -1.20386447 -3.51779247 0.00341628 0 0 Z M-39.9375 67.7578125 C-46.39355174 75.63245857 -48.01448877 86.17941191 -47.1875 96.1328125 C-45.57488631 106.02192881 -43.11867729 113.46651727 -35.17578125 119.9296875 C-31.63887875 122.06989569 -28.26291504 122.42287763 -24.1875 122.1328125 C-17.6733013 120.44810594 -13.91005608 116.53341199 -10.1875 111.1328125 C-4.79504529 100.42662505 -4.75055104 87.77862168 -8.28125 76.5 C-10.60092842 70.44084 -14.62848409 65.49661781 -20.1875 62.1328125 C-28.07355217 59.6204419 -34.29214752 61.84082172 -39.9375 67.7578125 Z " fill="#006CB5" transform="translate(1054.1875,184.8671875)"/>
<path d="M0 0 C30.03 0 60.06 0 91 0 C91 8.91 91 17.82 91 27 C70.87 27 50.74 27 30 27 C30 36.57 30 46.14 30 56 C47.49 56 64.98 56 83 56 C83 64.91 83 73.82 83 83 C65.51 83 48.02 83 30 83 C30 93.23 30 103.46 30 114 C50.46 114 70.92 114 92 114 C92 122.58 92 131.16 92 140 C61.64 140 31.28 140 0 140 C0 93.8 0 47.6 0 0 Z " fill="#006CB5" transform="translate(550,190)"/>
<path d="M0 0 C9.57 0 19.14 0 29 0 C29 47.85 29 95.7 29 145 C19.43 145 9.86 145 0 145 C-0.495 139.06 -0.495 139.06 -1 133 C-1.61875 133.86625 -2.2375 134.7325 -2.875 135.625 C-8.2377996 142.07258242 -16.75583209 146.42105463 -25.04296875 147.3359375 C-36.65791174 147.48022251 -45.68877275 144.52232384 -54.5 136.8125 C-70.0193097 119.35327659 -70.30144427 98.30350112 -69 76 C-67.59558744 63.90269634 -62.28344077 52.15667575 -53.34765625 43.7890625 C-43.78978342 36.50535908 -33.84471422 33.9232078 -22 35 C-13.39712381 37.32217497 -7.271277 41.728723 -1 48 C-0.67 32.16 -0.34 16.32 0 0 Z M-34.75 68.125 C-41.32898255 78.48201214 -41.31816683 91.27812947 -39.53125 103.1015625 C-37.71731504 110.0765743 -34.09107726 115.75194381 -28.25 120 C-22.98085882 121.62127421 -17.93738652 122.17696652 -12.71875 120.0859375 C-5.94744779 116.16969928 -2.58913461 110.60620245 -0.5390625 103.171875 C1.10788577 93.4811359 1.79927413 80.8541064 -3 72 C-6.2751771 67.50097753 -9.66153785 63.01720516 -15 61 C-23.29522753 59.8050426 -29.48394563 61.51508606 -34.75 68.125 Z " fill="#006CB5" transform="translate(1274,6)"/>
<path d="M0 0 C9.57 0 19.14 0 29 0 C29.33 16.17 29.66 32.34 30 49 C31.98 46.69 33.96 44.38 36 42 C38.8515625 40.0390625 38.8515625 40.0390625 41.625 38.625 C42.54539062 38.14289062 43.46578125 37.66078125 44.4140625 37.1640625 C52.60484285 33.47697406 62.25296262 34.07402388 70.62890625 36.96875 C81.50012889 41.69692591 89.52323889 50.07547091 93.96875 61.0390625 C100.77367474 80.57744489 101.12568476 105.40815513 92.421875 124.453125 C86.26468274 135.71357571 78.47584842 142.64954473 66.0625 146.3125 C55.35319068 148.53193433 47.00372171 146.51161081 37.6875 141.0625 C34.87374312 138.90310519 32.43360637 136.57675969 30 134 C29.67 137.63 29.34 141.26 29 145 C19.43 145 9.86 145 0 145 C0 97.15 0 49.3 0 0 Z M33.32421875 69.98828125 C27.21393604 79.27086413 27.73595912 92.56231016 29.5390625 103.171875 C31.58669339 110.59734965 34.93941147 116.19254411 41.7265625 120.078125 C46.6186732 122.06186748 51.3813268 122.06186748 56.2734375 120.078125 C63.05824313 116.19388683 66.4227777 110.59692785 68.45703125 103.16796875 C70.28007019 92.53138905 70.48471789 80.57826826 65 71 C61.96881654 66.73102468 58.98463313 62.93224543 54 61 C44.74995751 59.6872877 39.05941174 62.80800026 33.32421875 69.98828125 Z " fill="#006CB5" transform="translate(933,6)"/>
<path d="M0 0 C9.57 0 19.14 0 29 0 C29 47.85 29 95.7 29 145 C19.43 145 9.86 145 0 145 C-0.33 141.37 -0.66 137.74 -1 134 C-1.94875 135.051875 -2.8975 136.10375 -3.875 137.1875 C-10.41230394 143.75143246 -18.43537271 147.10451777 -27.625 147.25 C-38.52971694 147.1175004 -46.81531833 143.55100527 -54.90625 136.2890625 C-67.42555851 123.27557076 -69.47718601 104.94922341 -69.35595703 87.7331543 C-68.97388201 72.5240586 -65.90188549 57.22490432 -55 46 C-45.86438374 37.98531825 -37.20406726 34.3039981 -25.0234375 34.6484375 C-16.967421 35.5851836 -10.17817839 38.85151801 -4 44 C-3.01 45.32 -2.02 46.64 -1 48 C-0.67 32.16 -0.34 16.32 0 0 Z M-35.3125 69.625 C-41.10448132 81.20896264 -41.46425835 93.88694731 -38.05078125 106.23046875 C-35.82138126 112.10647096 -32.18879104 116.49680449 -27 120 C-22.40937391 121.5302087 -17.62459862 121.9413765 -12.99609375 120.28125 C-5.33960234 116.18014877 -2.65941524 109.85100097 0 102 C2.68103722 91.27585111 1.25661072 79.05774943 -4.375 69.5 C-7.21355963 65.38750849 -10.20414356 62.59861881 -15 61 C-24.39438979 59.68178189 -29.22619949 62.71622645 -35.3125 69.625 Z " fill="#006CB5" transform="translate(880,6)"/>
<path d="M0 0 C13.41864375 8.03211891 19.23577685 18.57633306 23.19921875 33.31640625 C27.27785015 54.67020995 25.14641184 77.17711587 12.83203125 95.33203125 C7.44551609 102.33145772 -0.3165518 106.3397613 -8.80078125 108.31640625 C-19.66207591 109.26856868 -29.39606979 108.76539481 -38.23828125 101.81640625 C-40.80078125 99.31640625 -40.80078125 99.31640625 -43.80078125 95.31640625 C-44.13078125 109.17640625 -44.46078125 123.03640625 -44.80078125 137.31640625 C-54.37078125 137.31640625 -63.94078125 137.31640625 -73.80078125 137.31640625 C-73.80078125 91.77640625 -73.80078125 46.23640625 -73.80078125 -0.68359375 C-64.23078125 -0.68359375 -54.66078125 -0.68359375 -44.80078125 -0.68359375 C-44.47078125 2.94640625 -44.14078125 6.57640625 -43.80078125 10.31640625 C-42.89328125 9.28515625 -41.98578125 8.25390625 -41.05078125 7.19140625 C-30.17637728 -3.44471397 -13.95705375 -6.80080548 0 0 Z M-38.80078125 29.31640625 C-45.34794676 40.22834876 -46.21804381 51.92403909 -44.33984375 64.37109375 C-42.52172926 71.23714965 -38.92476662 76.6990131 -33.48828125 81.25390625 C-28.89749105 83.06886982 -24.46213314 84.07815277 -19.6171875 82.69140625 C-13.00506191 79.69157611 -9.38219434 75.14273153 -6.48828125 68.62890625 C-2.98225763 58.1680766 -3.05689812 44.67890005 -7.5390625 34.55078125 C-11.13100046 28.1898261 -14.7644604 24.49126906 -21.80078125 22.31640625 C-28.18881435 21.35820129 -34.44371214 24.84467742 -38.80078125 29.31640625 Z " fill="#006CB5" transform="translate(838.80078125,223.68359375)"/>
<path d="M0 0 C10.06197652 7.77108008 15.83142479 21.11785952 17.7421875 33.43359375 C19.56394474 51.80668205 17.46498188 68.83122459 6.28515625 84.08984375 C-2.08817059 94.27824758 -13.03327458 99.82290894 -25.9375 101.6640625 C-40.61796294 102.65547039 -54.14541301 99.52135649 -65.625 90.0390625 C-77.54352591 78.83649044 -82.67661526 63.65011965 -83.27392578 47.64331055 C-83.58391696 30.23083136 -78.57327385 14.763877 -66.41796875 1.95703125 C-47.28451215 -15.73011682 -20.41470773 -14.07627025 0 0 Z M-48.25 22.2890625 C-55.08794103 32.48076208 -55.29495683 44.87452952 -53.46875 56.69921875 C-51.60936426 63.86006741 -47.82279863 70.16019454 -41.4375 74.1015625 C-35.15261444 76.90731498 -30.89148304 77.03152598 -24.40234375 74.85546875 C-18.41973779 71.96371785 -15.12186487 66.72708399 -12.5 60.7890625 C-9.15362162 50.38776521 -9.4189845 37.87679195 -13.8046875 27.86328125 C-17.21419622 21.24413156 -20.68731918 17.08078944 -27.9375 14.6640625 C-36.35484349 13.65132492 -42.79837042 15.65579893 -48.25 22.2890625 Z " fill="#006CB5" transform="translate(1357.9375,231.3359375)"/>
<path d="M0 0 C7.30909108 5.79210991 10.71131421 13.89063502 12.25 22.875 C12.75713121 29.19633869 12.60060211 35.55117441 12.54296875 41.88671875 C12.53736307 43.70945382 12.53309758 45.53219346 12.53010559 47.35493469 C12.51873325 52.11755177 12.4893329 56.87988783 12.45599365 61.64239502 C12.42512733 66.51611532 12.41156509 71.38988169 12.39648438 76.26367188 C12.36445476 85.80092364 12.31175036 95.33789432 12.25 104.875 C2.68 104.875 -6.89 104.875 -16.75 104.875 C-16.76458252 102.77133057 -16.77916504 100.66766113 -16.79418945 98.50024414 C-16.84469199 91.52320364 -16.91131403 84.54638265 -16.98571491 77.56955814 C-17.03030292 73.34253435 -17.06958397 69.11560436 -17.09643555 64.88842773 C-17.12258472 60.8033612 -17.16306763 56.71865794 -17.21318626 52.63381767 C-17.22977691 51.08108502 -17.24133951 49.52828964 -17.24761391 47.97548103 C-17.28386021 39.82432313 -17.359074 32.42517313 -20.75 24.875 C-24.33191156 22.26014094 -28.65671187 21.74662117 -33.04296875 22.015625 C-37.35234204 22.88881884 -40.0969567 24.40563569 -42.75 27.875 C-45.09399617 31.52785908 -45.02455307 34.74846343 -45.06884766 39.03027344 C-45.07889328 39.74286819 -45.0889389 40.45546295 -45.09928894 41.18965149 C-45.13010465 43.53788469 -45.14715135 45.88600395 -45.1640625 48.234375 C-45.18277547 49.86534606 -45.20234898 51.49630745 -45.2227478 53.1272583 C-45.27406147 57.41467589 -45.31369124 61.70212487 -45.35089111 65.98968506 C-45.39093558 70.36690022 -45.4420259 74.74398491 -45.4921875 79.12109375 C-45.5889378 87.7056466 -45.67232427 96.29025334 -45.75 104.875 C-55.32 104.875 -64.89 104.875 -74.75 104.875 C-75.47906566 91.16574202 -75.90121967 77.53448779 -75.8828125 63.80859375 C-75.88348891 61.98730964 -75.88446171 60.16602562 -75.88571167 58.34474182 C-75.88716645 54.57950965 -75.88510267 50.81430159 -75.88037109 47.04907227 C-75.87460453 42.22637543 -75.87800988 37.40373342 -75.88394356 32.58103848 C-75.88755031 28.84332359 -75.88641126 25.10562184 -75.88381577 21.36790657 C-75.88315041 19.58770809 -75.88396119 17.8075084 -75.88629532 16.02731133 C-75.88883127 13.55650507 -75.88497109 11.0857897 -75.87939453 8.61499023 C-75.88141876 7.88625198 -75.88344299 7.15751373 -75.88552856 6.4066925 C-75.87118172 2.97989806 -75.58957461 0.23329843 -74.75 -3.125 C-65.18 -3.125 -55.61 -3.125 -45.75 -3.125 C-45.42 0.505 -45.09 4.135 -44.75 7.875 C-44.275625 7.17375 -43.80125 6.4725 -43.3125 5.75 C-32.17928 -6.74092976 -14.15892121 -8.97352682 0 0 Z " fill="#006CB5" transform="translate(783.75,46.125)"/>
<path d="M0 0 C6.90186792 5.91588679 10.58872525 15.16065832 12 24 C12.087079 26.52467235 12.12662505 29.0203593 12.11352539 31.54418945 C12.11367142 32.28619095 12.11381744 33.02819244 12.1139679 33.79267883 C12.11327404 36.2329099 12.1055064 38.6730636 12.09765625 41.11328125 C12.0957902 42.81007343 12.09436718 44.50686615 12.09336853 46.20365906 C12.0895581 50.6604665 12.07974043 55.11724113 12.06866455 59.57403564 C12.0584187 64.12552446 12.05386412 68.67701859 12.04882812 73.22851562 C12.03811681 82.15236045 12.02053197 91.07617236 12 100 C2.76 100 -6.48 100 -16 100 C-16.495 95.545 -16.495 95.545 -17 91 C-17.43828125 91.45890625 -17.8765625 91.9178125 -18.328125 92.390625 C-25.4131872 99.24527867 -33.28866115 102.13406538 -43.125 102.4375 C-53.07981154 102.0221754 -60.94463384 99.22268709 -68 92 C-75.51137622 81.63063673 -76.37511226 69.42576947 -74.5703125 57.0546875 C-72.74886993 49.88135196 -68.81374997 43.71936955 -62.75390625 39.3984375 C-48.41336324 31.12783765 -33.56512572 31.91283093 -18 36 C-17.01 36.495 -17.01 36.495 -16 37 C-16.84572247 29.9060294 -17.59114451 24.90570614 -23 20 C-31.06341542 15.42346693 -40.38758924 17.12913924 -49 19 C-51.72662861 19.88733885 -54.33523388 20.93409355 -57 22 C-58.32 22 -59.64 22 -61 22 C-62.17430074 18.7318568 -63.33811256 15.46007485 -64.5 12.1875 C-64.83386719 11.25873047 -65.16773438 10.32996094 -65.51171875 9.37304688 C-65.82753906 8.48037109 -66.14335938 7.58769531 -66.46875 6.66796875 C-66.76201172 5.84578857 -67.05527344 5.0236084 -67.35742188 4.17651367 C-68 2 -68 2 -68 -1 C-47.1374545 -10.66707694 -19.58472894 -14.78489376 0 0 Z M-42.875 55.8125 C-46.37031473 59.41061811 -47.11991307 62.53324812 -47.375 67.4375 C-47.26956998 71.95592932 -46.02398103 74.5560216 -43 78 C-38.32080525 80.93458119 -33.33726209 80.59056842 -28 80 C-23.40408204 78.65857121 -20.65748501 76.77549514 -17.5625 73.125 C-14.7423264 67.48465279 -14.89368312 62.1663789 -15 56 C-24.09760283 51.45119858 -33.93156668 50.17424856 -42.875 55.8125 Z " fill="#006CB5" transform="translate(1174,51)"/>
<path d="M0 0 C11.76348672 12.41701376 11.70035324 28.53242247 11.54296875 44.5859375 C11.53735777 46.29228335 11.5330948 47.99863411 11.53010559 49.70498657 C11.51877481 54.14699177 11.48941242 58.58869203 11.45599365 63.03057861 C11.42503559 67.58284381 11.41154585 72.13515937 11.39648438 76.6875 C11.36452853 85.58348732 11.31186031 94.47917033 11.25 103.375 C1.68 103.375 -7.89 103.375 -17.75 103.375 C-17.79898437 98.63125 -17.84796875 93.8875 -17.8984375 89 C-17.93385019 85.98305243 -17.96982518 82.96613232 -18.0078125 79.94921875 C-18.06796786 75.16752184 -18.12611382 70.38586306 -18.171875 65.60400391 C-18.20892652 61.74594129 -18.25533845 57.88809152 -18.30806351 54.0302124 C-18.32650249 52.56316893 -18.34164858 51.09608002 -18.35334396 49.62896729 C-18.41386435 42.29525544 -18.52665865 35.42099181 -20.75 28.375 C-20.89770844 27.67173584 -21.04541687 26.96847168 -21.19760132 26.24389648 C-21.58044871 24.19405646 -21.58044871 24.19405646 -23.625 23.1875 C-28.06232671 21.49087508 -32.01251318 20.81982576 -36.75 21.375 C-39.56780534 22.76385248 -39.56780534 22.76385248 -41.75 24.375 C-42.41 24.375 -43.07 24.375 -43.75 24.375 C-47.12045653 32.94307777 -47.22384405 41.37707457 -47.26171875 50.4453125 C-47.278596 51.97803151 -47.29675026 53.51073693 -47.31611633 55.04342651 C-47.36329243 59.04471591 -47.39330992 63.04595021 -47.41955566 67.04742432 C-47.44952622 71.14370601 -47.49599914 75.23979842 -47.54101562 79.3359375 C-47.62667953 87.3488802 -47.6926588 95.36180453 -47.75 103.375 C-57.32 103.375 -66.89 103.375 -76.75 103.375 C-76.75 68.065 -76.75 32.755 -76.75 -3.625 C-67.18 -3.625 -57.61 -3.625 -47.75 -3.625 C-47.42 0.005 -47.09 3.635 -46.75 7.375 C-46.20472656 6.77171875 -45.65945313 6.1684375 -45.09765625 5.546875 C-32.24568746 -8.074015 -16.15277396 -9.54482098 0 0 Z " fill="#006CB5" transform="translate(1465.75,226.625)"/>
<path d="M0 0 C0.82999512 0.00757324 1.65999023 0.01514648 2.51513672 0.02294922 C13.73749791 0.32317642 22.97774187 4.42405021 31.3046875 11.95703125 C45.3294643 26.89014851 45.625 47.21060041 45.625 66.4375 C24.835 66.4375 4.045 66.4375 -17.375 66.4375 C-13.48758638 78.43641964 -13.48758638 78.43641964 -4.375 85.4375 C4.09478978 87.97134924 11.93655876 86.57234898 19.625 82.4375 C21.8246245 80.8907521 23.66570178 79.29367726 25.625 77.4375 C28.66216141 78.77270492 30.51710626 80.1563227 32.640625 82.6953125 C33.43339844 83.63310547 33.43339844 83.63310547 34.2421875 84.58984375 C34.78101563 85.24082031 35.31984375 85.89179688 35.875 86.5625 C36.42929687 87.22121094 36.98359375 87.87992187 37.5546875 88.55859375 C38.9174831 90.17985058 40.27205703 91.80801208 41.625 93.4375 C37.29422229 102.53236806 28.09598834 107.00721931 19.03515625 110.41015625 C5.68151796 114.62606261 -8.11816636 113.00206399 -20.6875 107.125 C-32.09586675 100.96521092 -40.31261031 90.2187266 -44.18676758 77.84472656 C-46.14577416 70.49053514 -46.88691963 63.66157141 -46.8125 56.0625 C-46.80492676 54.97050293 -46.79735352 53.87850586 -46.78955078 52.75341797 C-46.4804789 37.57731171 -41.93861358 23.59543005 -31.41796875 12.28515625 C-22.33309659 4.06881871 -12.18461475 -0.15707606 0 0 Z M-12.5625 30.6875 C-16.09224391 36.04297353 -17.32085486 41.11262916 -18.375 47.4375 C-6.495 47.4375 5.385 47.4375 17.625 47.4375 C16.64460226 39.59431805 15.75626433 32.74538196 9.5 27.4375 C1.40676633 21.80742441 -5.86505626 23.79870072 -12.5625 30.6875 Z " fill="#006CB5" transform="translate(921.375,220.5625)"/>
<path d="M0 0 C10.23 0 20.46 0 31 0 C36.75 10.5625 36.75 10.5625 38.53808594 13.84985352 C41.3070327 18.93108583 44.10477967 23.9895823 47 29 C47.40726318 28.21520264 47.40726318 28.21520264 47.82275391 27.41455078 C49.08694235 24.98300762 50.35595141 22.55400991 51.625 20.125 C52.05167969 19.30257812 52.47835937 18.48015625 52.91796875 17.6328125 C53.80098907 15.9458483 54.70475306 14.2696027 55.62744141 12.60400391 C57.0559865 10.0044545 57.0559865 10.0044545 58.13427734 7.15771484 C59.48446925 4.16348762 60.55984595 2.21324174 63 0 C68.16810212 -1.23539984 73.12728898 -0.94758024 78.375 -0.625 C79.79281219 -0.57479189 81.21079477 -0.52917258 82.62890625 -0.48828125 C86.08949952 -0.37853182 89.54366362 -0.20630107 93 0 C91.5791324 3.83708598 89.79367765 7.21923524 87.69140625 10.7265625 C87.03132568 11.83249756 86.37124512 12.93843262 85.69116211 14.07788086 C85.16931839 14.94701614 85.16931839 14.94701614 84.63693237 15.83370972 C83.55361915 17.63980612 82.47624424 19.44931619 81.40063477 21.26000977 C78.10548312 26.80549534 74.79515192 32.34116879 71.4609375 37.86328125 C70.45269684 39.55443231 69.44485357 41.24582038 68.4375 42.9375 C67.96707275 43.70465332 67.49664551 44.47180664 67.01196289 45.26220703 C64.66309998 48.87586139 64.66309998 48.87586139 64.2722168 52.99609375 C65.00437787 55.01205419 65.84878963 56.79042485 66.8984375 58.66015625 C67.4855249 59.71251465 67.4855249 59.71251465 68.08447266 60.78613281 C68.51034668 61.53733398 68.9362207 62.28853516 69.375 63.0625 C69.81763184 63.85108398 70.26026367 64.63966797 70.71630859 65.45214844 C75.30458319 73.59943168 80.00268136 81.68343669 84.70263672 89.76660156 C86.70565944 93.21478596 88.70057555 96.66751674 90.6875 100.125 C91.33074219 101.24132812 91.97398437 102.35765625 92.63671875 103.5078125 C94 106 94 106 94 107 C83.77 107 73.54 107 63 107 C57.25 95.9375 57.25 95.9375 55.46191406 92.49194336 C52.74001972 87.26548352 49.97334756 82.08788843 47 77 C44.14287872 80.40234976 41.88517771 83.78299236 39.80078125 87.703125 C39.23166016 88.7653125 38.66253906 89.8275 38.07617188 90.921875 C37.49416016 92.02015625 36.91214844 93.1184375 36.3125 94.25 C35.14339856 96.44349325 33.9729029 98.63624416 32.80078125 100.828125 C32.28684814 101.7965332 31.77291504 102.76494141 31.2434082 103.76269531 C30 106 30 106 29 107 C26.78144736 107.08783542 24.56011504 107.10694609 22.33984375 107.09765625 C21.34314415 107.09553383 21.34314415 107.09553383 20.3263092 107.09336853 C18.19666101 107.08775518 16.06711661 107.07520054 13.9375 107.0625 C12.49674631 107.05748671 11.05599097 107.05292351 9.61523438 107.04882812 C6.07678898 107.03778145 2.53840461 107.02050792 -1 107 C0.23166585 103.78341811 1.58479778 100.78660774 3.29296875 97.796875 C3.75147217 96.99314453 4.20997559 96.18941406 4.68237305 95.36132812 C5.42741089 94.0687207 5.42741089 94.0687207 6.1875 92.75 C6.70417236 91.84701172 7.22084473 90.94402344 7.75317383 90.01367188 C10.80234045 84.71421939 13.91675278 79.45807771 17.09375 74.234375 C17.7741333 73.11321289 18.4545166 71.99205078 19.15551758 70.83691406 C20.4921467 68.64190663 21.83555786 66.45101224 23.1862793 64.26464844 C23.79898682 63.25950195 24.41169434 62.25435547 25.04296875 61.21875 C25.58977295 60.33123047 26.13657715 59.44371094 26.69995117 58.52929688 C28.04687099 55.90881061 28.76362456 53.9353156 29 51 C28.33405471 48.93223263 28.33405471 48.93223263 27.078125 47.0234375 C26.63500977 46.279729 26.19189453 45.53602051 25.73535156 44.76977539 C25.24518555 43.97949951 24.75501953 43.18922363 24.25 42.375 C23.22875647 40.6734232 22.20793526 38.97159289 21.1875 37.26953125 C20.65898438 36.39893066 20.13046875 35.52833008 19.5859375 34.63134766 C17.08138479 30.47585673 14.66875783 26.26829801 12.25 22.0625 C9.76362816 17.75965505 7.27432403 13.45879231 4.75390625 9.17578125 C4.11324219 8.08652344 3.47257813 6.99726563 2.8125 5.875 C2.26207031 4.94429687 1.71164062 4.01359375 1.14453125 3.0546875 C0 1 0 1 0 0 Z " fill="#006CB5" transform="translate(654,223)"/>
<path d="M0 0 C9.57 0 19.14 0 29 0 C29 37.62 29 75.24 29 114 C47.48 114 65.96 114 85 114 C85 122.91 85 131.82 85 141 C73.93464779 141.02255049 62.86931072 141.04091478 51.80394077 141.05181217 C46.66640434 141.05704113 41.52888437 141.06413901 36.39135742 141.07543945 C31.4376859 141.08626787 26.48403026 141.09227674 21.53034782 141.09487724 C19.63602384 141.09673157 17.74170076 141.10035234 15.8473835 141.10573006 C13.20365614 141.11293989 10.55999529 141.11399097 7.91625977 141.11352539 C7.12504227 141.11712067 6.33382477 141.12071594 5.51863098 141.12442017 C0.11405216 141.11405216 0.11405216 141.11405216 -1 140 C-1.0985732 138.20537232 -1.12632112 136.40682975 -1.12698364 134.60949707 C-1.12980347 133.44000015 -1.13262329 132.27050323 -1.13552856 131.06556702 C-1.13350433 129.77098068 -1.1314801 128.47639435 -1.12939453 127.14257812 C-1.13074855 125.77461195 -1.13252849 124.40664614 -1.13470459 123.03868103 C-1.13927881 119.31357626 -1.13748941 115.58849906 -1.1343255 111.86339378 C-1.13180184 107.97342222 -1.13413946 104.08345309 -1.13571167 100.19348145 C-1.13753335 93.65974502 -1.1351271 87.12601987 -1.13037109 80.59228516 C-1.12492848 73.02772317 -1.12669113 65.46318814 -1.1321975 57.8986268 C-1.13672868 51.41541516 -1.13737915 44.93221165 -1.13475883 38.44899893 C-1.13319608 34.57179415 -1.13300222 30.69460205 -1.13629532 26.81739807 C-1.13917411 23.17312413 -1.1371982 19.52888509 -1.13140106 15.88461494 C-1.12943788 13.90122145 -1.13242731 11.91782502 -1.13552856 9.93443298 C-1.13270874 8.76493607 -1.12988892 7.59543915 -1.12698364 6.39050293 C-1.12660662 5.36768974 -1.12622959 4.34487656 -1.12584114 3.29106903 C-1 1 -1 1 0 0 Z " fill="#006CB5" transform="translate(551,10)"/>
<path d="M0 0 C1.05840556 2.45607284 1.16039938 3.5660348 0.22729492 6.09057617 C-0.18415771 6.81736572 -0.59561035 7.54415527 -1.01953125 8.29296875 C-1.68758789 9.4850293 -1.68758789 9.4850293 -2.36914062 10.70117188 C-2.84544922 11.52166016 -3.32175781 12.34214844 -3.8125 13.1875 C-4.27720703 14.01958984 -4.74191406 14.85167969 -5.22070312 15.70898438 C-8.71273833 21.85636917 -8.71273833 21.85636917 -11 23 C-13.37932402 21.94448823 -15.64243873 20.84098797 -17.9375 19.625 C-23.2546071 16.8555607 -27.35201011 14.85848578 -33.4375 14.875 C-34.85869141 14.87113281 -34.85869141 14.87113281 -36.30859375 14.8671875 C-38.70140459 14.98526525 -40.71336153 15.31887365 -43 16 C-43.103125 17.2375 -43.20625 18.475 -43.3125 19.75 C-43.37050781 20.44609375 -43.42851563 21.1421875 -43.48828125 21.859375 C-42.74397014 25.12243492 -40.65851397 26.06949777 -38 28 C-36.22156378 28.97761122 -34.41180976 29.89995705 -32.578125 30.76953125 C-31.03898437 31.51493164 -31.03898437 31.51493164 -29.46875 32.27539062 C-27.34019427 33.29187931 -25.21000719 34.30495965 -23.078125 35.31445312 C-12.24288162 40.57631819 -2.47338821 46.79017333 2.375 58.25 C4.14359869 68.86159212 3.56756931 79.16756501 -2.625 88.25 C-8.33446157 95.21104305 -16.11115163 99.68030595 -25 101 C-42.83256844 102.47969817 -59.34398756 99.62678431 -73.92578125 88.53515625 C-75 87 -75 87 -74.70996094 85.16088867 C-73.94952029 82.84635628 -72.96533202 80.98004843 -71.71484375 78.890625 C-71.04291992 77.75947266 -71.04291992 77.75947266 -70.35742188 76.60546875 C-69.88884766 75.82816406 -69.42027344 75.05085938 -68.9375 74.25 C-68.46505859 73.45722656 -67.99261719 72.66445313 -67.50585938 71.84765625 C-66.34173427 69.8956889 -65.17300098 67.94664195 -64 66 C-58.74588386 67.96003161 -53.84739357 70.57838804 -48.8828125 73.16601562 C-42.15237502 76.60107853 -35.6471392 78.41434671 -28.125 76.125 C-25.8498468 75.18405876 -25.8498468 75.18405876 -25 73 C-24.58297878 70.0842309 -24.58297878 70.0842309 -25 67 C-27.71065656 63.73255781 -30.41991278 62.11027892 -34.2890625 60.44921875 C-35.82626953 59.77149414 -35.82626953 59.77149414 -37.39453125 59.08007812 C-39.52415278 58.16204901 -41.65434863 57.24535087 -43.78515625 56.33007812 C-55.91680097 50.97610009 -65.15523079 45.26239854 -70.375 32.6875 C-72.13912202 22.27918009 -71.48812793 12.65833662 -65.45703125 3.7109375 C-49.35304442 -15.96761849 -19.54174077 -13.13137205 0 0 Z " fill="#006CB5" transform="translate(1569,231)"/>
<path d="M0 0 C9.57 0 19.14 0 29 0 C29 9.24 29 18.48 29 28 C35.93 28 42.86 28 50 28 C50 35.92 50 43.84 50 52 C43.07 52 36.14 52 29 52 C29.11808467 59.77802075 29.2423215 67.55590937 29.37231445 75.33374023 C29.41568304 77.98084832 29.45735668 80.62798472 29.49731445 83.27514648 C29.55497023 87.075445 29.61867844 90.87560068 29.68359375 94.67578125 C29.70030624 95.86335526 29.71701874 97.05092926 29.73423767 98.27449036 C29.7641555 99.9258625 29.7641555 99.9258625 29.79467773 101.6105957 C29.81799416 103.06620659 29.81799416 103.06620659 29.84178162 104.55122375 C29.90465129 107.13795675 29.90465129 107.13795675 31 110 C32.8538252 110.05479286 34.7081388 110.09314594 36.5625 110.125 C37.59503906 110.14820313 38.62757812 110.17140625 39.69140625 110.1953125 C43.68010465 110.08025187 43.68010465 110.08025187 50 108 C50 115.92 50 123.84 50 132 C38.90575556 136.93077531 26.90904538 139.44735671 14.875 135.8125 C8.39837362 133.14783086 4.68653429 129.19704565 1.76171875 122.96484375 C0.13252548 118.76236059 -0.12227213 115.09241911 -0.11352539 110.57910156 C-0.11344986 109.27805481 -0.11337433 107.97700806 -0.11329651 106.63653564 C-0.10819024 105.22123171 -0.10297425 103.80592816 -0.09765625 102.390625 C-0.09579035 100.93902637 -0.09436726 99.48742712 -0.09336853 98.03582764 C-0.08955688 94.22180431 -0.07973815 90.40781927 -0.06866455 86.59381104 C-0.05842135 82.69926471 -0.05386468 78.80471217 -0.04882812 74.91015625 C-0.03811465 67.27342007 -0.02105449 59.63671541 0 52 C-3.63 52 -7.26 52 -11 52 C-11 44.08 -11 36.16 -11 28 C-7.37 28 -3.74 28 0 28 C0 18.76 0 9.52 0 0 Z " fill="#006CB5" transform="translate(1158,195)"/>
<path d="M0 0 C9.57 0 19.14 0 29 0 C29 47.85 29 95.7 29 145 C19.43 145 9.86 145 0 145 C0 97.15 0 49.3 0 0 Z " fill="#006CB5" transform="translate(1048,6)"/>
<path d="M0 0 C9.9 0 19.8 0 30 0 C30 35.64 30 71.28 30 108 C20.1 108 10.2 108 0 108 C0 72.36 0 36.72 0 0 Z " fill="#006CB5" transform="translate(653,43)"/>
<path d="M0 0 C9.57 0 19.14 0 29 0 C29 35.31 29 70.62 29 107 C19.43 107 9.86 107 0 107 C0 71.69 0 36.38 0 0 Z " fill="#006CB5" transform="translate(1229,223)"/>
<path d="M0 0 C9.57 0 19.14 0 29 0 C29 35.31 29 70.62 29 107 C19.43 107 9.86 107 0 107 C0 71.69 0 36.38 0 0 Z " fill="#006CB5" transform="translate(1101,223)"/>
<path d="M0 0 C9.9 0 19.8 0 30 0 C30 8.91 30 17.82 30 27 C20.1 27 10.2 27 0 27 C0 18.09 0 9.18 0 0 Z " fill="#006CB5" transform="translate(1228,185)"/>
<path d="M0 0 C9.9 0 19.8 0 30 0 C30 8.91 30 17.82 30 27 C20.1 27 10.2 27 0 27 C0 18.09 0 9.18 0 0 Z " fill="#006CB5" transform="translate(1100,185)"/>
<path d="M0 0 C9.9 0 19.8 0 30 0 C30 8.58 30 17.16 30 26 C20.1 26 10.2 26 0 26 C0 17.42 0 8.84 0 0 Z " fill="#006CB5" transform="translate(653,6)"/>
</svg>
