<?xml version="1.0" encoding="UTF-8"?>
<svg version="1.1" xmlns="http://www.w3.org/2000/svg" width="733" height="264">
<path d="M0 0 C241.89 0 483.78 0 733 0 C733 87.12 733 174.24 733 264 C491.11 264 249.22 264 0 264 C0 176.88 0 89.76 0 0 Z " fill="#FEFEFE" transform="translate(0,0)"/>
<path d="M0 0 C8.33163018 5.85719866 13.56830864 12.66871987 15.828125 22.7109375 C17.04025511 33.58300243 15.31337177 42.92766301 9.140625 52.0234375 C3.65834144 58.7623654 -4.68203749 63.81521227 -13.35644531 65.01245117 C-15.61664547 65.14705798 -17.84546831 65.1788417 -20.109375 65.1484375 C-21.29732666 65.13707764 -21.29732666 65.13707764 -22.50927734 65.12548828 C-28.47366569 64.95711383 -33.14708993 64.09200406 -38.171875 60.7109375 C-38.88730469 60.24042969 -39.60273437 59.76992187 -40.33984375 59.28515625 C-48.1984457 53.74548602 -53.38735917 46.27934141 -55.171875 36.7109375 C-56.12247478 24.40746034 -54.81515386 16.23367789 -46.859375 6.3984375 C-35.31169754 -6.00091249 -14.65789156 -8.69982772 0 0 Z " fill="#050505" transform="translate(157.171875,81.2890625)"/>
<path d="M0 0 C5.28 0 10.56 0 16 0 C17.22726406 3.94679889 18.45421572 7.89369236 19.68041992 11.84082031 C20.09626036 13.17909091 20.51227126 14.51730855 20.9284668 15.85546875 C21.92542838 19.06110216 22.91953374 22.26752934 23.90869141 25.47558594 C24.58317894 27.65386381 25.26604672 29.82959065 25.96240234 32.00097656 C26.23648926 32.86948242 26.51057617 33.73798828 26.79296875 34.6328125 C27.02910889 35.3664502 27.26524902 36.10008789 27.50854492 36.85595703 C28.0668346 39.29157547 28.08436683 41.50940386 28 44 C28.66 44 29.32 44 30 44 C30.21527344 42.8759375 30.43054688 41.751875 30.65234375 40.59375 C32.22075837 33.54072074 34.55443803 26.71103491 36.7956543 19.84960938 C37.56915273 17.4796161 38.33479385 15.10718282 39.09960938 12.734375 C39.58808275 11.22901768 40.07699867 9.72380386 40.56640625 8.21875 C40.91017052 7.15327942 40.91017052 7.15327942 41.26087952 6.06628418 C42.88461315 1.11538685 42.88461315 1.11538685 44 0 C46.35313555 -0.07271741 48.70833668 -0.08370868 51.0625 -0.0625 C52.35285156 -0.05347656 53.64320313 -0.04445313 54.97265625 -0.03515625 C55.97167969 -0.02355469 56.97070312 -0.01195313 58 0 C58.18433594 0.70898438 58.36867188 1.41796875 58.55859375 2.1484375 C61.24215255 12.00008001 64.57410651 21.5837941 68.00170898 31.19873047 C68.38786377 32.2920166 68.77401855 33.38530273 69.171875 34.51171875 C69.6992627 35.98838013 69.6992627 35.98838013 70.23730469 37.49487305 C71 40 71 40 71 43 C71.66 43 72.32 43 73 43 C73.12955078 42.17822266 73.12955078 42.17822266 73.26171875 41.33984375 C74.31555678 35.39387686 75.98787077 29.83014495 77.96044922 24.12646484 C80.67493038 16.19044681 82.82066879 8.0959836 85 0 C90.28 0 95.56 0 101 0 C98.78555958 8.45773373 96.17298887 16.71868954 93.375 25 C92.93734367 26.30278998 92.50001187 27.60568903 92.06298828 28.90869141 C91.16308006 31.59093255 90.26173147 34.27268313 89.359375 36.95410156 C87.18393594 43.42306767 85.03088951 49.89949819 82.875 56.375 C82.12248908 58.63284358 81.36989417 60.89065917 80.6171875 63.1484375 C80.08351563 64.74945313 79.54984375 66.35046875 79 68 C74.38 68 69.76 68 65 68 C64.49210937 66.453125 63.98421875 64.90625 63.4609375 63.3125 C57.61503434 44.31697996 57.61503434 44.31697996 50 26 C49.74347656 26.78117187 49.48695313 27.56234375 49.22265625 28.3671875 C46.29332231 37.22423086 43.28515683 46.05367954 40.25 54.875 C39.84918213 56.04659668 39.44836426 57.21819336 39.03540039 58.42529297 C38.65762451 59.51986816 38.27984863 60.61444336 37.890625 61.7421875 C37.38063965 63.22501221 37.38063965 63.22501221 36.86035156 64.73779297 C36 67 36 67 35 68 C32.81360547 68.07258946 30.62499611 68.08373783 28.4375 68.0625 C27.23996094 68.05347656 26.04242188 68.04445313 24.80859375 68.03515625 C23.41833984 68.01775391 23.41833984 68.01775391 22 68 C20.25537489 62.93717395 18.51403263 57.87323346 16.77539062 52.80834961 C16.18671694 51.09484309 15.59723247 49.38161484 15.00683594 47.66870117 C11.53867541 37.60452544 8.15061889 27.52797053 5.04733276 17.34428406 C3.97311601 13.86474544 2.83289234 10.52625574 1.32763672 7.20776367 C0 4 0 4 0 0 Z " fill="#050505" transform="translate(267,78)"/>
<path d="M0 0 C6.435 -0.0825 12.87 -0.165 19.5 -0.25 C22.52317383 -0.30462402 22.52317383 -0.30462402 25.60742188 -0.36035156 C27.22785379 -0.37204801 28.84829758 -0.38223757 30.46875 -0.390625 C31.29149414 -0.41108887 32.11423828 -0.43155273 32.96191406 -0.45263672 C39.8728254 -0.45675526 45.09309237 1.40223177 50.27734375 6.03515625 C50.82519531 6.70417969 51.37304688 7.37320313 51.9375 8.0625 C52.50339844 8.73410156 53.06929687 9.40570313 53.65234375 10.09765625 C57.30296496 15.25085198 56.39990665 21.97958718 56 28 C54.35330491 35.41661094 48.66978862 39.49640536 43 44 C43.74765625 45.07378906 44.4953125 46.14757812 45.265625 47.25390625 C46.26056618 48.69000059 47.25534945 50.12620435 48.25 51.5625 C48.74113281 52.26697266 49.23226562 52.97144531 49.73828125 53.69726562 C52.72866472 58.02335371 55.45861918 62.39525998 58 67 C52.01605624 68.20887753 45.81833733 69.35489612 40 67 C36.32663523 63.30438927 34.05513133 58.77142125 31.58251953 54.22851562 C28.63833593 48.73468402 28.63833593 48.73468402 23.53515625 45.44921875 C19.86864819 45.118128 19.86864819 45.118128 15 46 C15 52.93 15 59.86 15 67 C10.05 67 5.1 67 0 67 C0 44.89 0 22.78 0 0 Z " fill="#040404" transform="translate(194,78)"/>
<path d="M0 0 C14 0 14 0 17.5703125 2.71875 C18.88818359 4.52124023 18.88818359 4.52124023 20.125 6.5 C20.8358374 7.50365601 20.8358374 7.50365601 21.56103516 8.52758789 C22.56046732 9.94101422 23.54190967 11.3673164 24.50585938 12.80517578 C26.50711626 15.74493058 28.65576278 18.55970952 30.81201172 21.38671875 C32.29273534 23.32956136 33.75541643 25.28432664 35.2109375 27.24609375 C38.12857027 31.17304766 41.06468447 35.08624596 44 39 C44.33 26.13 44.66 13.26 45 0 C49.95 0 54.9 0 60 0 C60 22.11 60 44.22 60 67 C46 67 46 67 42.0625 63.4765625 C40.99474923 61.88996098 39.97543205 60.26997064 39 58.625 C37.85224049 56.88585031 36.70109964 55.14892821 35.546875 53.4140625 C34.97130859 52.51977539 34.39574219 51.62548828 33.80273438 50.70410156 C30.85598377 46.28397566 27.55454302 42.15547995 24.25 38 C23.08698639 36.52205587 21.92540803 35.0429806 20.765625 33.5625 C20.27868164 32.94503906 19.79173828 32.32757813 19.29003906 31.69140625 C18.13171731 30.17269824 17.05948947 28.5892342 16 27 C15.67 40.2 15.34 53.4 15 67 C10.05 67 5.1 67 0 67 C0 44.89 0 22.78 0 0 Z " fill="#030303" transform="translate(663,78)"/>
<path d="M0 0 C4.95 0 9.9 0 15 0 C18.21131915 3.39223854 20.28200335 5.97091099 22.61376953 9.84521484 C25.56926946 14.43930473 29.03351245 18.68355639 32.375 23 C33.75932507 24.81134502 35.14221958 26.62378456 36.5234375 28.4375 C37.12075684 29.21996094 37.71807617 30.00242187 38.33349609 30.80859375 C38.88344238 31.53175781 39.43338867 32.25492188 40 33 C40.5667041 33.71285156 41.1334082 34.42570312 41.71728516 35.16015625 C43 37 43 37 43 39 C43.66 39 44.32 39 45 39 C45 26.13 45 13.26 45 0 C49.95 0 54.9 0 60 0 C60 22.11 60 44.22 60 67 C47 67 47 67 43.8515625 64.640625 C42.70751953 63.03735352 42.70751953 63.03735352 41.625 61.25 C40.7404594 59.97204943 39.85498479 58.69474501 38.96875 57.41796875 C38.50339844 56.71591309 38.03804687 56.01385742 37.55859375 55.29052734 C34.58635037 50.92248421 31.322722 46.7665525 28.125 42.5625 C26.87503025 40.89906644 25.62752859 39.23377466 24.3828125 37.56640625 C23.58447998 36.49821655 23.58447998 36.49821655 22.77001953 35.40844727 C20.48196696 32.2951178 18.24571701 29.14400382 16 26 C15.67 39.53 15.34 53.06 15 67 C10.05 67 5.1 67 0 67 C0 44.89 0 22.78 0 0 Z " fill="#050505" transform="translate(19,78)"/>
<path d="M0 0 C0.74548096 0.00418945 1.49096191 0.00837891 2.2590332 0.01269531 C10.61552299 0.18325444 18.18693037 1.81201801 24.6875 7.3125 C25.5859375 9.14453125 25.5859375 9.14453125 25.6875 11.3125 C24.03515625 13.671875 24.03515625 13.671875 21.75 16.0625 C20.99847656 16.86171875 20.24695313 17.6609375 19.47265625 18.484375 C18.88355469 19.08765625 18.29445313 19.6909375 17.6875 20.3125 C15.66495069 19.30349787 13.64673679 18.29114413 11.64453125 17.2421875 C5.46887638 14.20498019 0.2879297 13.04021999 -6.4453125 14.90234375 C-11.34629097 16.92423031 -14.51213927 20.03799661 -17.2421875 24.55078125 C-19.62596883 30.70163307 -19.40643194 37.55608821 -17.57421875 43.84765625 C-15.25651813 48.95041276 -11.96794907 51.79510053 -7.125 54.5625 C0.66037968 56.63860125 7.32528195 55.16239086 14.6875 52.3125 C14.6875 49.0125 14.6875 45.7125 14.6875 42.3125 C9.7375 42.3125 4.7875 42.3125 -0.3125 42.3125 C-0.3125 38.0225 -0.3125 33.7325 -0.3125 29.3125 C9.2575 29.3125 18.8275 29.3125 28.6875 29.3125 C28.89514416 33.48076424 29.07368402 37.63095769 29.18188477 41.80029297 C29.2269723 43.21497491 29.28826961 44.62924131 29.36645508 46.04248047 C29.99923276 57.7798861 29.99923276 57.7798861 26.77368164 61.54858398 C24.45869462 63.10900769 22.26553514 64.25299243 19.6875 65.3125 C19.05054199 65.6314624 18.41358398 65.9504248 17.75732422 66.27905273 C9.03622962 70.47724567 -2.86279156 70.65369765 -12.26171875 68.69921875 C-22.24822416 65.14044837 -28.47329687 58.05539498 -33.21875 48.828125 C-36.53876539 41.19208961 -36.52931004 31.8860274 -34.40625 23.90625 C-30.52100435 14.04370335 -24.79271577 7.21187551 -15.3125 2.3125 C-10.10113454 0.47979492 -5.45606456 -0.041946 0 0 Z " fill="#040404" transform="translate(489.3125,76.6875)"/>
<path d="M0 0 C1.93166016 0.01740234 1.93166016 0.01740234 3.90234375 0.03515625 C5.19269531 0.04417969 6.48304688 0.05320312 7.8125 0.0625 C8.81152344 0.07410156 9.81054688 0.08570312 10.83984375 0.09765625 C17.72347439 15.82463245 24.51666134 31.58769004 31.13961792 47.4263916 C31.81511477 49.04139597 32.49181315 50.65589829 33.16970825 52.26989746 C34.1220917 54.53906622 35.0696235 56.81019577 36.015625 59.08203125 C36.30250183 59.76402588 36.58937866 60.44602051 36.88494873 61.14868164 C38.83984375 65.86818071 38.83984375 65.86818071 38.83984375 68.09765625 C33.55984375 68.09765625 28.27984375 68.09765625 22.83984375 68.09765625 C20.52984375 63.47765625 18.21984375 58.85765625 15.83984375 54.09765625 C6.92984375 53.76765625 -1.98015625 53.43765625 -11.16015625 53.09765625 C-12.15015625 56.06765625 -13.14015625 59.03765625 -14.16015625 62.09765625 C-15.15015625 65.06765625 -15.15015625 65.06765625 -16.16015625 68.09765625 C-21.44015625 68.09765625 -26.72015625 68.09765625 -32.16015625 68.09765625 C-28.20730629 57.31442573 -23.95166852 46.77529495 -19.28515625 36.28515625 C-18.05244321 33.49708196 -16.82288563 30.70762171 -15.59375 27.91796875 C-15.29586075 27.24280716 -14.9979715 26.56764557 -14.6910553 25.87202454 C-11.83584865 19.38869473 -9.08039463 12.86504563 -6.38134766 6.31518555 C-3.81257299 0.11781746 -3.81257299 0.11781746 0 0 Z " fill="#040404" transform="translate(606.16015625,76.90234375)"/>
<path d="M0 0 C16.83 0 33.66 0 51 0 C51 4.29 51 8.58 51 13 C39.12 13 27.24 13 15 13 C15 17.29 15 21.58 15 26 C25.56 26 36.12 26 47 26 C47 30.62 47 35.24 47 40 C36.44 40 25.88 40 15 40 C15 44.62 15 49.24 15 54 C26.88 54 38.76 54 51 54 C51 58.29 51 62.58 51 67 C34.17 67 17.34 67 0 67 C0 44.89 0 22.78 0 0 Z " fill="#040404" transform="translate(386,78)"/>
<path d="M0 0 C5.95674395 3.34712279 9.36390693 8.77922079 11.48828125 15.15234375 C12.53863808 22.48983647 10.51419534 28.03074835 6.48828125 34.15234375 C1.93700649 38.70361851 -2.87750354 40.44967025 -9.26171875 40.65234375 C-15.79369959 40.53167908 -19.79100287 38.59360922 -24.51171875 34.15234375 C-29.4252704 28.63957849 -29.36181245 22.09370223 -29.02734375 14.984375 C-28.3000281 9.57909731 -26.53900618 6.71134194 -22.51171875 3.15234375 C-21.68671875 2.32734375 -20.86171875 1.50234375 -20.01171875 0.65234375 C-13.75794766 -2.02784386 -6.47748339 -2.18602472 0 0 Z " fill="#FBFBFB" transform="translate(146.51171875,91.84765625)"/>
<path d="M0 0 C4.95 0 9.9 0 15 0 C15 22.11 15 44.22 15 67 C10.05 67 5.1 67 0 67 C0 44.89 0 22.78 0 0 Z " fill="#060606" transform="translate(541,78)"/>
<path d="M0 0 C3.34125 -0.0825 6.6825 -0.165 10.125 -0.25 C11.16672363 -0.28641602 12.20844727 -0.32283203 13.28173828 -0.36035156 C19.1996896 -0.43092532 22.49660012 0.06683582 27 4 C29.35242347 7.20785018 29.4684209 10.09649252 29 14 C25.87692308 19.70769231 25.87692308 19.70769231 22 21 C22.5053125 21.77085937 23.010625 22.54171875 23.53125 23.3359375 C24.1809375 24.33882812 24.830625 25.34171875 25.5 26.375 C26.1496875 27.37273437 26.799375 28.37046875 27.46875 29.3984375 C29 32 29 32 29 34 C23.97069764 34.88233375 23.97069764 34.88233375 21 34 C18.91371467 31.56672334 17.38834329 29.08657888 15.8359375 26.28515625 C14.1276444 23.68992383 14.1276444 23.68992383 10.7890625 23.18359375 C9.40847656 23.09271484 9.40847656 23.09271484 8 23 C8 26.63 8 30.26 8 34 C5.36 34 2.72 34 0 34 C0 22.78 0 11.56 0 0 Z " fill="#0C0C0C" transform="translate(60,169)"/>
<path d="M0 0 C7 0 7 0 9.6953125 2.37890625 C10.52698884 3.4231221 11.33662135 4.48522038 12.125 5.5625 C12.93195313 6.59503906 13.73890625 7.62757813 14.5703125 8.69140625 C17.07739915 12.10539724 19.53807247 15.55330146 22 19 C22.33 12.73 22.66 6.46 23 0 C25.31 0 27.62 0 30 0 C30 11.22 30 22.44 30 34 C23 34 23 34 20.55859375 31.65625 C19.85863281 30.6146875 19.15867187 29.573125 18.4375 28.5 C17.73496094 27.4790625 17.03242188 26.458125 16.30859375 25.40625 C15.54675781 24.2821875 14.78492188 23.158125 14 22 C12.02 19.36 10.04 16.72 8 14 C7.67 20.6 7.34 27.2 7 34 C4.69 34 2.38 34 0 34 C0 22.78 0 11.56 0 0 Z " fill="#050505" transform="translate(309,169)"/>
<path d="M0 0 C8.58 0 17.16 0 26 0 C26 2.31 26 4.62 26 7 C20.06 7 14.12 7 8 7 C8 8.98 8 10.96 8 13 C13.28 13 18.56 13 24 13 C24 15.31 24 17.62 24 20 C18.72 20 13.44 20 8 20 C8 22.31 8 24.62 8 27 C13.94 27 19.88 27 26 27 C26 29.31 26 31.62 26 34 C17.42 34 8.84 34 0 34 C0 22.78 0 11.56 0 0 Z " fill="#101010" transform="translate(197,169)"/>
<path d="M0 0 C8.25 0 16.5 0 25 0 C25 2.31 25 4.62 25 7 C19.06 7 13.12 7 7 7 C7 9.31 7 11.62 7 14 C12.28 14 17.56 14 23 14 C23 15.98 23 17.96 23 20 C17.72 20 12.44 20 7 20 C7 22.31 7 24.62 7 27 C13.27 27 19.54 27 26 27 C26 29.31 26 31.62 26 34 C17.42 34 8.84 34 0 34 C0 22.78 0 11.56 0 0 Z " fill="#070707" transform="translate(352,169)"/>
<path d="M0 0 C2.64 0 5.28 0 8 0 C8.01981934 0.68102783 8.03963867 1.36205566 8.06005859 2.0637207 C8.15526983 5.14703917 8.26496466 8.22967649 8.375 11.3125 C8.4059375 12.38435547 8.436875 13.45621094 8.46875 14.56054688 C8.50742188 15.58857422 8.54609375 16.61660156 8.5859375 17.67578125 C8.6173584 18.62364502 8.6487793 19.57150879 8.68115234 20.5480957 C8.8489051 23.2530269 8.8489051 23.2530269 11 26 C12.901994 26.47558206 12.901994 26.47558206 15 26.375 C16.051875 26.38660156 16.051875 26.38660156 17.125 26.3984375 C19.41058594 26.140914 19.41058594 26.140914 21 23 C21.36696181 20.48497823 21.36696181 20.48497823 21.4140625 17.67578125 C21.45273438 16.64775391 21.49140625 15.61972656 21.53125 14.56054688 C21.57765625 12.95276367 21.57765625 12.95276367 21.625 11.3125 C21.66367188 10.22904297 21.70234375 9.14558594 21.7421875 8.02929688 C21.83650509 5.35303533 21.92210005 2.67678157 22 0 C24.64 0 27.28 0 30 0 C30.08776185 3.68734775 30.14064603 7.37442347 30.1875 11.0625 C30.21263672 12.10083984 30.23777344 13.13917969 30.26367188 14.20898438 C30.32153776 20.28490221 30.00868401 24.67033118 27 30 C23.27228883 33.72771117 20.09750439 34.30418509 15 34.5 C9.68552095 34.32197155 6.90142704 33.59341964 3 30 C0.09998873 25.6499831 -0.1277209 21.8402736 -0.09765625 16.69921875 C-0.09443359 15.72275391 -0.09121094 14.74628906 -0.08789062 13.74023438 C-0.07951172 12.73283203 -0.07113281 11.72542969 -0.0625 10.6875 C-0.05798828 9.66076172 -0.05347656 8.63402344 -0.04882812 7.57617188 C-0.03708184 5.05072118 -0.02065565 2.52539095 0 0 Z " fill="#0E0E0E" transform="translate(99,169)"/>
<path d="M0 0 C1.625 0.828125 1.625 0.828125 3.875 2.328125 C3.0625 4.765625 3.0625 4.765625 1.875 7.328125 C-1.83604116 8.56513872 -2.61362758 7.74939479 -6.125 6.328125 C-8.83386941 6.16014238 -8.83386941 6.16014238 -11.125 6.328125 C-11.125 7.648125 -11.125 8.968125 -11.125 10.328125 C-10.47273437 10.48667969 -9.82046875 10.64523438 -9.1484375 10.80859375 C-3.35311492 12.35572264 0.99223156 13.62793163 4.875 18.328125 C5.95288898 22.95967919 5.51638942 26.26651493 3.0625 30.328125 C-1.09694685 34.13104783 -5.72886118 33.64843861 -11.09375 33.62890625 C-15.36060026 33.20552033 -17.69126224 31.82538882 -21.125 29.328125 C-20.375 26.890625 -20.375 26.890625 -19.125 24.328125 C-17.1875 23.390625 -17.1875 23.390625 -15.125 23.328125 C-14.135 23.988125 -13.145 24.648125 -12.125 25.328125 C-9.83851152 25.56919826 -9.83851152 25.56919826 -7.4375 25.453125 C-6.62925781 25.43507812 -5.82101563 25.41703125 -4.98828125 25.3984375 C-4.37339844 25.37523437 -3.75851563 25.35203125 -3.125 25.328125 C-3.125 24.338125 -3.125 23.348125 -3.125 22.328125 C-4.01703125 22.01359375 -4.9090625 21.6990625 -5.828125 21.375 C-6.99859375 20.94703125 -8.1690625 20.5190625 -9.375 20.078125 C-10.53515625 19.66046875 -11.6953125 19.2428125 -12.890625 18.8125 C-16.13386553 17.32405628 -17.94897089 16.13266737 -20.125 13.328125 C-20.73589984 8.51728879 -20.86357492 6.4852257 -18.25 2.390625 C-13.63195757 -2.09159266 -5.96703994 -1.88663763 0 0 Z " fill="#0A0A0A" transform="translate(181.125,169.671875)"/>
<path d="M0 0 C2.58550279 1.05540132 3.91715784 2.09568717 6 4 C5.34 5.65 4.68 7.3 4 9 C0 9 0 9 -2 8 C-3.47668337 7.9047301 -4.95775457 7.87014041 -6.4375 7.875 C-7.21996094 7.87242187 -8.00242187 7.86984375 -8.80859375 7.8671875 C-11.17895347 7.91617452 -11.17895347 7.91617452 -14 9 C-15.73202764 14.19608292 -15.90862644 19.06423062 -13.5625 24.0625 C-10.28763059 26.53862077 -8.20828935 26.52712219 -4.1953125 26.30859375 C-1.56845141 25.93933748 0.64336762 25.21632639 3 24 C4.32 25.65 5.64 27.3 7 29 C1.48714261 33.5400002 -3.10597148 34.74472296 -10.2265625 34.421875 C-15.38432739 33.63731358 -17.96831942 31.17109687 -21.3125 27.375 C-24.95019722 22.25527798 -24.57769859 17.13002394 -24 11 C-18.88604702 0.39328272 -10.82434676 -1.01027236 0 0 Z " fill="#090909" transform="translate(43,169)"/>
<path d="M0 0 C2.84625 -0.061875 5.6925 -0.12375 8.625 -0.1875 C9.51010254 -0.21481201 10.39520508 -0.24212402 11.30712891 -0.27026367 C16.28219813 -0.32233226 19.7215708 0.17623673 24 3 C26.4915904 6.7373856 26.45793285 8.57331583 26 13 C24.20437595 15.75329021 22.94745078 17.52627461 20 19 C18.47851674 19.08372659 16.95344222 19.10730027 15.4296875 19.09765625 C14.53378906 19.09443359 13.63789063 19.09121094 12.71484375 19.08789062 C11.77769531 19.07951172 10.84054688 19.07113281 9.875 19.0625 C8.93011719 19.05798828 7.98523438 19.05347656 7.01171875 19.04882812 C4.6744523 19.03702375 2.33721831 19.01908799 0 19 C0 12.73 0 6.46 0 0 Z " fill="#FAFAFA" transform="translate(209,91)"/>
<path d="M0 0 C2.64 0 5.28 0 8 0 C8 8.91 8 17.82 8 27 C13.61 27 19.22 27 25 27 C25 29.31 25 31.62 25 34 C16.75 34 8.5 34 0 34 C0 22.78 0 11.56 0 0 Z " fill="#0F0F0F" transform="translate(253,169)"/>
<path d="M0 0 C4.89593678 0.48156755 6.589084 1.691096 9.8125 5.375 C10.8730709 8.12232994 11.17224226 10.45138037 10.8125 13.375 C7.94830247 18.80709877 7.94830247 18.80709877 4.8125 20.375 C-2.27708838 20.9561138 -2.27708838 20.9561138 -6.125 18.5 C-9.25930405 15.27071704 -9.57538997 12.9256612 -9.55078125 8.4140625 C-8.94715397 5.025961 -6.7719052 3.45513101 -4.1875 1.375 C-3.1875 0.375 -3.1875 0.375 0 0 Z " fill="#E9E9E9" transform="translate(393.1875,168.625)"/>
<path d="M0 0 C2.64 0 5.28 0 8 0 C8 11.22 8 22.44 8 34 C5.36 34 2.72 34 0 34 C0 22.78 0 11.56 0 0 Z " fill="#0F0F0F" transform="translate(288,169)"/>
<path d="M0 0 C2.64 0 5.28 0 8 0 C8 11.22 8 22.44 8 34 C5.36 34 2.72 34 0 34 C0 22.78 0 11.56 0 0 Z " fill="#0C0C0C" transform="translate(141,169)"/>
<path d="M0 0 C2.59250371 1.29625185 2.70112231 2.29548563 3.7265625 4.96484375 C4.0359375 5.76470703 4.3453125 6.56457031 4.6640625 7.38867188 C4.98117187 8.22978516 5.29828125 9.07089844 5.625 9.9375 C5.94984375 10.77474609 6.2746875 11.61199219 6.609375 12.47460938 C9 18.71735491 9 18.71735491 9 21 C3.39 21 -2.22 21 -8 21 C-5.96907005 13.62451755 -3.31458488 6.89119228 0 0 Z " fill="#EDEDED" transform="translate(609,96)"/>
<path d="M0 0 C1.60379341 -0.05416188 3.20811406 -0.09286638 4.8125 -0.125 C5.70582031 -0.14820313 6.59914063 -0.17140625 7.51953125 -0.1953125 C10 0 10 0 13 2 C13.3125 4.5 13.3125 4.5 13 7 C11 9 11 9 8.3984375 9.1953125 C7.40070313 9.17210937 6.40296875 9.14890625 5.375 9.125 C3.87066406 9.09792969 3.87066406 9.09792969 2.3359375 9.0703125 C1.56507812 9.04710937 0.79421875 9.02390625 0 9 C0 6.03 0 3.06 0 0 Z " fill="#F5F5F5" transform="translate(68,176)"/>
<path d="M0 0 C4.89593678 0.48156755 6.589084 1.691096 9.8125 5.375 C10.8730709 8.12232994 11.17224226 10.45138037 10.8125 13.375 C7.94830247 18.80709877 7.94830247 18.80709877 4.8125 20.375 C-2.27708838 20.9561138 -2.27708838 20.9561138 -6.125 18.5 C-9.25930405 15.27071704 -9.57538997 12.9256612 -9.55078125 8.4140625 C-8.94715397 5.025961 -6.7719052 3.45513101 -4.1875 1.375 C-3.1875 0.375 -3.1875 0.375 0 0 Z M-5.6875 3.875 C-7.80903384 7.41088973 -7.978513 10.35401723 -7.1875 14.375 C-5.85416667 17.04166667 -5.85416667 17.04166667 -3.1875 18.375 C0.86235528 19.17169284 3.78691116 19.01599302 7.3125 16.8125 C9.40561615 13.41118625 9.36397685 11.30427257 8.8125 7.375 C7.49088573 4.30626102 7.49088573 4.30626102 4.8125 2.375 C0.80917231 1.4397964 -2.16440664 1.76114398 -5.6875 3.875 Z " fill="#282828" transform="translate(393.1875,168.625)"/>
<path d="M0 0 C0.33 0 0.66 0 1 0 C1.07347656 1.17369141 1.07347656 1.17369141 1.1484375 2.37109375 C1.22320312 3.38300781 1.29796875 4.39492187 1.375 5.4375 C1.44460938 6.44683594 1.51421875 7.45617187 1.5859375 8.49609375 C1.72257812 9.32238281 1.85921875 10.14867187 2 11 C2.66 11.33 3.32 11.66 4 12 C4 10.35 4 8.7 4 7 C5.32 7.33 6.64 7.66 8 8 C8 9.32 8 10.64 8 12 C8.99 12.33 9.98 12.66 11 13 C10 14 10 14 6.1875 14.3125 C3.21382315 14.25377389 2.12248853 14.07349312 -0.5 12.5 C-2.72864544 8.78559093 -2.41604329 6.29911397 -2 2 C-1.34 1.34 -0.68 0.68 0 0 Z " fill="#F4F4F4" transform="translate(388,173)"/>
<path d="M0 0 C2.64 0 5.28 0 8 0 C8 3.3 8 6.6 8 10 C7.34 10 6.68 10 6 10 C5.67 9.01 5.34 8.02 5 7 C4.01 6.67 3.02 6.34 2 6 C2 7.65 2 9.3 2 11 C1.34 11 0.68 11 0 11 C0 7.37 0 3.74 0 0 Z " fill="#808080" transform="translate(390,174)"/>
<path d="M0 0 C2.05078125 0.03255208 4.1015625 0.06510417 6.15234375 0.09765625 C5.82234375 1.08765625 5.49234375 2.07765625 5.15234375 3.09765625 C2.84234375 3.09765625 0.53234375 3.09765625 -1.84765625 3.09765625 C-1.84765625 6.39765625 -1.84765625 9.69765625 -1.84765625 13.09765625 C-2.17765625 13.09765625 -2.50765625 13.09765625 -2.84765625 13.09765625 C-2.87452178 11.11856227 -2.89399 9.13936654 -2.91015625 7.16015625 C-2.92175781 6.05800781 -2.93335938 4.95585937 -2.9453125 3.8203125 C-2.81361949 0.14871139 -2.81361949 0.14871139 0 0 Z " fill="#C3C3C3" transform="translate(391.84765625,170.90234375)"/>
<path d="M0 0 C2.64 0 5.28 0 8 0 C8 3.3 8 6.6 8 10 C7.34 10 6.68 10 6 10 C5.67 9.01 5.34 8.02 5 7 C4.34 6.34 3.68 5.68 3 5 C3.99 5 4.98 5 6 5 C6 3.68 6 2.36 6 1 C4.35 1 2.7 1 1 1 C0.67 2.32 0.34 3.64 0 5 C0 3.35 0 1.7 0 0 Z " fill="#141414" transform="translate(390,174)"/>
<path d="M0 0 C0.66 1.32 1.32 2.64 2 4 C-1.4021215 9.71070395 -1.4021215 9.71070395 -3.9375 10.9375 C-6.42298166 11.01281763 -8.59335712 10.60166072 -11 10 C-11 9.67 -11 9.34 -11 9 C-9.906875 8.896875 -8.81375 8.79375 -7.6875 8.6875 C-4.15095979 8.27794702 -4.15095979 8.27794702 -2.125 6.75 C-0.70964005 4.54832896 -0.34801553 2.57531492 0 0 Z " fill="#404040" transform="translate(402,178)"/>
</svg>
