<?xml version="1.0" encoding="UTF-8"?>
<svg version="1.1" xmlns="http://www.w3.org/2000/svg" width="1280" height="446">
<path d="M0 0 C0.99128906 0.26683594 1.98257813 0.53367187 3.00390625 0.80859375 C16.71170763 4.91545834 29.02387738 11.88981823 40 21 C40.86109375 21.69738281 41.7221875 22.39476563 42.609375 23.11328125 C61.81641541 39.42733576 74.19112209 64.0929587 77 89 C78.74060164 121.91591353 71.18381968 149.12638173 49.6015625 174.25 C45.42791192 178.6617868 40.86018716 182.37414609 36 186 C35.19949219 186.61488281 34.39898437 187.22976562 33.57421875 187.86328125 C10.84041617 204.64387858 -17.71839359 210.29553898 -45.47265625 206.3125 C-72.40473114 201.70241341 -96.29164026 187.69983999 -112.74169922 165.78320312 C-119.08624482 156.79201936 -128 143.24572824 -128 132 C-118.1 131.34 -108.2 130.68 -98 130 C-97.34 132.64 -96.68 135.28 -96 138 C-90.78986585 157.44642562 -80.53322394 175.68950733 -63.0234375 186.36328125 C-44.75416829 196.25323448 -24.83079488 197.42437025 -5 192 C12.32481317 186.57935293 24.45968774 174.46277542 33.05664062 158.84326172 C46.70466372 132.17592881 46.71016811 99.78073851 41 71 C40.86609863 70.31550781 40.73219727 69.63101563 40.59423828 68.92578125 C37.71790861 54.95204872 31.77042602 40.56845199 22 30 C21.38511719 29.30648437 20.77023437 28.61296875 20.13671875 27.8984375 C9.56794608 16.58836815 -5.42738193 10.24630101 -20.8203125 9.6640625 C-41.07267971 9.37205311 -59.53794609 11.99369571 -74.8828125 26.6640625 C-87.18253112 40.23460076 -93.22049408 56.34665558 -97 74 C-97.72960937 73.86722656 -98.45921875 73.73445313 -99.2109375 73.59765625 C-108.79229716 71.97710529 -118.30224343 71.4135968 -128 71 C-127.48427288 65.4559335 -126.05070549 61.30098168 -123.5 56.375 C-123.14470215 55.68059814 -122.7894043 54.98619629 -122.42333984 54.27075195 C-109.72967577 30.0552745 -89.36179736 11.19985853 -63.4375 2.125 C-60.9677263 1.38458029 -58.48843436 0.675054 -56 0 C-54.89140625 -0.31839844 -53.7828125 -0.63679688 -52.640625 -0.96484375 C-35.90376312 -5.07332681 -16.55356851 -4.72666789 0 0 Z " fill="#233D88" transform="translate(259,20)"/>
<path d="M0 0 C6.28037513 -0.17355425 12.55934315 -0.30030956 18.84155273 -0.38452148 C20.97656581 -0.41963843 23.11141157 -0.46734479 25.24584961 -0.52807617 C28.32187215 -0.61338185 31.39566323 -0.65277572 34.47265625 -0.68359375 C35.42084732 -0.71972275 36.36903839 -0.75585175 37.34596252 -0.79307556 C42.51749238 -0.79611228 45.29572555 -0.2993909 49.04150391 3.41479492 C50.05186852 4.58947525 51.04193507 5.78228817 52 7 C52.92232422 8.01320313 52.92232422 8.01320313 53.86328125 9.046875 C54.34152344 9.60890625 54.81976562 10.1709375 55.3125 10.75 C58.15728251 14.04866916 61.06299293 17.28306639 64 20.5 C67.45575413 24.28934126 70.8652289 28.11083698 74.23046875 31.98046875 C77.77576954 36.02665089 81.39458999 40.00743187 85 44 C89.76786975 49.27985576 94.51512218 54.57291806 99.1875 59.9375 C102.0326929 63.1751333 104.92853836 66.3668629 107.81640625 69.56640625 C109.70848685 71.67511146 111.57905758 73.79919801 113.4375 75.9375 C117.07710456 80.12007587 120.82124723 84.20461759 124.5703125 88.2890625 C127.11742763 91.13102054 129.5568328 94.06819936 132 97 C132.33 69.28 132.66 41.56 133 13 C121.12 11.515 121.12 11.515 109 10 C109 6.7 109 3.4 109 0 C129.13 0 149.26 0 170 0 C170 3.3 170 6.6 170 10 C162.08 10.99 154.16 11.98 146 13 C146 54.25 146 95.5 146 138 C135 138 135 138 130.890625 134.78125 C129.64590937 133.38127385 128.43245215 131.95294774 127.25 130.5 C126.64285156 129.80390625 126.03570313 129.1078125 125.41015625 128.390625 C123.57913844 126.28241686 121.79007737 124.14299515 120 122 C115.75963176 117.07822623 111.42928492 112.25194806 107 107.5 C103.23342743 103.44083301 99.52776613 99.3458471 95.90625 95.15625 C93.31715042 92.22759638 90.65805319 89.36601823 88 86.5 C84.2344644 82.43985037 80.52779974 78.34588598 76.90625 74.15625 C74.31715042 71.22759638 71.65805319 68.36601823 69 65.5 C65.2344644 61.43985037 61.52779974 57.34588598 57.90625 53.15625 C54.84001192 49.68788234 51.68177058 46.30428367 48.52539062 42.91796875 C44.58941923 38.68246415 40.81324757 34.35799723 37 30 C36.67 61.68 36.34 93.36 36 126 C42.93 126.495 42.93 126.495 50 127 C53.34508249 127.60496173 56.68518569 128.24663311 60 129 C60 131.97 60 134.94 60 138 C40.2 138 20.4 138 0 138 C0 135.03 0 132.06 0 129 C7.91011142 126.95428153 14.5186915 126.60580775 23 126 C23 88.71 23 51.42 23 13 C15.41 12.01 7.82 11.02 0 10 C0 6.7 0 3.4 0 0 Z " fill="#243E88" transform="translate(819,86)"/>
<path d="M0 0 C0.74886475 0.00523682 1.49772949 0.01047363 2.26928711 0.01586914 C3.07817383 0.0190918 3.88706055 0.02231445 4.72045898 0.02563477 C5.5705957 0.03401367 6.42073242 0.04239258 7.29663086 0.05102539 C8.15063477 0.05553711 9.00463867 0.06004883 9.88452148 0.06469727 C12.00108749 0.07652166 14.11761771 0.0944577 16.23413086 0.11352539 C20.16976464 7.64411291 23.56660447 15.37515446 26.87799072 23.19497681 C28.5088057 27.04469049 30.15108652 30.88951112 31.79272461 34.73461914 C32.32029358 35.97099373 32.32029358 35.97099373 32.85852051 37.23234558 C37.30986397 47.65141263 41.83582973 58.03805027 46.35913086 68.42602539 C47.21657266 70.39582466 48.07399464 72.36563256 48.93139648 74.33544922 C50.18623194 77.21821803 51.44111452 80.10096626 52.69619751 82.98362732 C56.40479285 91.50243497 60.10334358 100.02557146 63.79663086 108.55102539 C64.31435059 109.74574463 64.83207031 110.94046387 65.36547852 112.17138672 C66.07583252 113.81143677 66.07583252 113.81143677 66.80053711 115.48461914 C67.237771 116.47042969 67.67500488 117.45624023 68.12548828 118.47192383 C69.23413086 121.11352539 69.23413086 121.11352539 69.91503906 123.37231445 C70.49799678 125.52498656 70.49799678 125.52498656 72.23413086 128.11352539 C75.19189962 129.36118417 78.11920218 129.68047132 81.29663086 129.98852539 C82.93358802 130.19234885 84.57031993 130.39799208 86.20678711 130.60571289 C87.29358765 130.71955322 87.29358765 130.71955322 88.40234375 130.83569336 C90.23413086 131.11352539 90.23413086 131.11352539 92.23413086 132.11352539 C92.23413086 135.08352539 92.23413086 138.05352539 92.23413086 141.11352539 C68.80413086 141.11352539 45.37413086 141.11352539 21.23413086 141.11352539 C21.23413086 138.14352539 21.23413086 135.17352539 21.23413086 132.11352539 C29.14424228 130.06780692 35.75282236 129.71933314 44.23413086 129.11352539 C36.80913086 110.79852539 36.80913086 110.79852539 29.23413086 92.11352539 C11.74413086 91.78352539 -5.74586914 91.45352539 -23.76586914 91.11352539 C-24.75586914 94.41352539 -25.74586914 97.71352539 -26.76586914 101.11352539 C-27.6329267 103.49287807 -28.5302652 105.8615343 -29.46508789 108.21508789 C-29.82495537 109.12609756 -29.82495537 109.12609756 -30.1920929 110.05551147 C-30.94200874 111.95140035 -31.69755146 113.84498279 -32.45336914 115.73852539 C-32.97002392 117.04176072 -33.48630257 118.34514524 -34.00219727 119.64868164 C-35.25307839 122.80511065 -36.50771182 125.95999127 -37.76586914 129.11352539 C-36.82340332 129.17338623 -35.8809375 129.23324707 -34.90991211 129.29492188 C-33.04036865 129.41975952 -33.04036865 129.41975952 -31.13305664 129.54711914 C-29.90184082 129.62760498 -28.670625 129.70809082 -27.40209961 129.79101562 C-22.73836259 130.20465847 -18.32812414 131.07664926 -13.76586914 132.11352539 C-13.76586914 135.08352539 -13.76586914 138.05352539 -13.76586914 141.11352539 C-33.23586914 141.11352539 -52.70586914 141.11352539 -72.76586914 141.11352539 C-72.76586914 138.14352539 -72.76586914 135.17352539 -72.76586914 132.11352539 C-71.12618164 131.68040039 -71.12618164 131.68040039 -69.45336914 131.23852539 C-68.7249733 131.04535516 -67.99657745 130.85218493 -67.24610901 130.65316105 C-64.76586914 130.11352539 -64.76586914 130.11352539 -62.06871033 129.88180447 C-56.56215933 129.41587661 -56.56215933 129.41587661 -52.16189575 126.41293526 C-50.87819729 124.03544251 -49.93106205 121.67911421 -49.01977539 119.13525391 C-48.6456955 118.2029747 -48.2716156 117.2706955 -47.88619995 116.31016541 C-46.65789326 113.21907318 -45.49380158 110.10771438 -44.32836914 106.99243164 C-43.47753583 104.81641725 -42.62272924 102.64195267 -41.76416016 100.46897888 C-39.50673804 94.72516707 -37.30256342 88.96233095 -35.10925293 83.19378662 C-32.90788218 77.42931578 -30.65985191 71.68316441 -28.41430664 65.93579102 C-25.40919478 58.23284326 -22.41738233 50.52504429 -19.44677734 42.80872154 C-15.40934517 32.32144568 -11.3192014 21.86015539 -7.07836914 11.45336914 C-6.63871826 10.37164932 -6.19906738 9.2899295 -5.74609375 8.1754303 C-2.45198622 0.15763495 -2.45198622 0.15763495 0 0 Z M1.23413086 28.11352539 C-1.47653498 34.91094776 -4.18190452 41.71046006 -6.88354492 48.51147461 C-7.80386527 50.82641676 -8.72541173 53.14087185 -9.64819336 55.45483398 C-10.97187292 58.77469626 -12.29118007 62.09626655 -13.60961914 65.41821289 C-14.02522095 66.45783173 -14.44082275 67.49745056 -14.86901855 68.568573 C-15.24941284 69.52941803 -15.62980713 70.49026306 -16.02172852 71.48022461 C-16.52802795 72.75263504 -16.52802795 72.75263504 -17.04455566 74.05075073 C-17.87589658 76.06396721 -17.87589658 76.06396721 -17.76586914 78.11352539 C-4.23586914 78.11352539 9.29413086 78.11352539 23.23413086 78.11352539 C20.33733261 70.58184994 17.46953616 63.13123901 14.24584961 55.75024414 C13.89778763 54.9473848 13.54972565 54.14452545 13.19111633 53.31733704 C12.10379374 50.81080261 11.0127982 48.30588809 9.92163086 45.80102539 C9.1733373 44.0778252 8.42528874 42.3545186 7.67749023 40.63110352 C5.86585385 36.45734767 4.05092708 32.28503764 2.23413086 28.11352539 C1.90413086 28.11352539 1.57413086 28.11352539 1.23413086 28.11352539 Z " fill="#233D88" transform="translate(1156.765869140625,82.886474609375)"/>
<path d="M0 0 C6.27 0 12.54 0 19 0 C20.27617188 2.98933594 20.27617188 2.98933594 21.578125 6.0390625 C31.1204348 28.36980887 40.78580813 50.64599569 50.48027039 72.91104126 C54.62448165 82.43064359 58.75330441 91.95688519 62.87426758 101.48657227 C65.01458966 106.43324456 67.16032338 111.37686739 69.34375 116.3046875 C69.68365967 117.07312988 70.02356934 117.84157227 70.3737793 118.63330078 C71.22094283 120.5435499 72.07306315 122.45159891 72.92578125 124.359375 C74 127 74 127 74 129 C75.16015625 129.07347656 75.16015625 129.07347656 76.34375 129.1484375 C82.46001367 129.58747623 88.10692791 130.30007536 94 132 C94 134.97 94 137.94 94 141 C70.57 141 47.14 141 23 141 C23 138.03 23 135.06 23 132 C25.70827004 131.52047335 28.41661344 131.04136769 31.125 130.5625 C31.88554688 130.42779297 32.64609375 130.29308594 33.4296875 130.15429688 C34.17734375 130.02216797 34.925 129.89003906 35.6953125 129.75390625 C36.7164917 129.57323608 36.7164917 129.57323608 37.75830078 129.38891602 C40.50336126 128.91267104 43.25147774 128.45579374 46 128 C45.57589844 126.95021973 45.15179687 125.90043945 44.71484375 124.81884766 C43.14593573 120.93271119 41.58155568 117.0447656 40.01855469 113.15625 C39.34075811 111.47183128 38.66172583 109.78790926 37.98144531 108.10449219 C37.00522669 105.68813764 36.03343024 103.27004601 35.0625 100.8515625 C34.75626709 100.0963028 34.45003418 99.34104309 34.13452148 98.56289673 C32 93.22774341 32 93.22774341 32 91 C14.18 91 -3.64 91 -22 91 C-22.33 92.65 -22.66 94.3 -23 96 C-23.85897112 98.42215167 -24.74717869 100.80942789 -25.6875 103.19921875 C-25.95006592 103.87547806 -26.21263184 104.55173737 -26.4831543 105.24848938 C-27.3182976 107.3963309 -28.1591825 109.54187437 -29 111.6875 C-29.56545694 113.14113887 -30.13056478 114.59491358 -30.6953125 116.04882812 C-31.23406129 117.43241386 -31.77311323 118.8158816 -32.3125 120.19921875 C-32.56668701 120.85129807 -32.82087402 121.50337738 -33.08276367 122.17521667 C-33.99030784 124.48999819 -34.8874242 126.77484839 -36 129 C-34.65808594 129.07347656 -34.65808594 129.07347656 -33.2890625 129.1484375 C-26.01219173 129.59839326 -19.10964307 130.38417203 -12 132 C-12 134.97 -12 137.94 -12 141 C-31.47 141 -50.94 141 -71 141 C-71 138.03 -71 135.06 -71 132 C-64.35751464 130.08389845 -57.88940671 129.43632909 -51 129 C-50.87015717 128.26891022 -50.74031433 127.53782043 -50.60653687 126.78457642 C-50.03950505 124.18136545 -49.28744814 121.91381362 -48.29541016 119.44677734 C-47.94119492 118.55983688 -47.58697968 117.67289642 -47.22203064 116.75907898 C-46.63646141 115.31212395 -46.63646141 115.31212395 -46.0390625 113.8359375 C-45.62503677 112.80302078 -45.21101105 111.77010406 -44.78443909 110.70588684 C-43.40215156 107.26055764 -42.01363084 103.81777693 -40.625 100.375 C-39.65501636 97.9614804 -38.68537804 95.54782199 -37.71606445 93.1340332 C-35.34212839 87.22473791 -32.96323525 81.31744952 -30.58278179 75.41077709 C-28.49606375 70.23249817 -26.41176373 65.05325024 -24.32861328 59.87353516 C-20.92009996 51.39842869 -17.51011247 42.92391697 -14.09844208 34.45008087 C-13.48964609 32.9379648 -12.88088671 31.42583399 -12.27216339 29.91368866 C-10.52842373 25.58220236 -8.78377696 21.25108364 -7.03770256 16.92053795 C-6.50356863 15.59546938 -5.96971646 14.2702872 -5.43615913 12.94498634 C-4.70587039 11.13121844 -3.9744268 9.31791564 -3.24291992 7.50463867 C-2.83184494 6.48472336 -2.42076996 5.46480804 -1.99723816 4.41398621 C-1.38063615 2.92139516 -0.72222241 1.44444482 0 0 Z M3 29 C0.28926043 35.65493674 -2.41610058 42.31204088 -5.11767578 48.97070312 C-6.03797723 51.23716081 -6.9595236 53.5031134 -7.88232422 55.76855469 C-9.20605341 59.01887147 -10.52534199 62.27095932 -11.84375 65.5234375 C-12.46715271 67.05005508 -12.46715271 67.05005508 -13.10314941 68.60751343 C-13.4835437 69.54833771 -13.86393799 70.48916199 -14.25585938 71.45849609 C-14.59339233 72.28900482 -14.93092529 73.11951355 -15.27868652 73.97518921 C-16.11185996 75.95576161 -16.11185996 75.95576161 -16 78 C-2.47 78 11.06 78 25 78 C22.75002002 71.09994728 22.75002002 71.09994728 20.13061523 64.4140625 C19.79694443 63.63716064 19.46327362 62.86025879 19.11949158 62.05981445 C18.76939529 61.25632568 18.41929901 60.45283691 18.05859375 59.625 C17.69024918 58.77446045 17.3219046 57.9239209 16.94239807 57.04760742 C16.17037337 55.26866737 15.39633746 53.49059889 14.62036133 51.71337891 C13.42998242 48.98275534 12.25089542 46.24743072 11.07226562 43.51171875 C10.31838686 41.77835057 9.56385333 40.04526698 8.80859375 38.3125 C8.45647324 37.49281738 8.10435272 36.67313477 7.74156189 35.82861328 C6.20779101 31.70079789 6.20779101 31.70079789 3 29 Z " fill="#233D88" transform="translate(714,83)"/>
<path d="M0 0 C8.55521207 -0.04679618 17.1103687 -0.08210511 25.66567802 -0.10362434 C29.64028388 -0.11396394 33.61480078 -0.12793805 37.58935547 -0.15087891 C85.45352601 -0.41959286 85.45352601 -0.41959286 98.875 7.75 C105.89636564 15.18438714 106.45552032 24.13858713 106.27734375 33.87890625 C105.87170983 42.67974968 102.22850452 50.77149548 96 57 C92.44810863 59.84641225 88.78225449 62.46952369 85 65 C90.67400363 77.0155371 99.77351762 87.92111751 107.41552734 98.74462891 C108.74520173 100.63731488 110.05899828 102.53902278 111.36328125 104.44921875 C117.21123686 112.85199264 123.84499132 119.32510195 133 124 C132.01 126.31 131.02 128.62 130 131 C111.6198472 129.15371778 98.36839956 123.09009825 86.21875 108.82421875 C83.2682352 105.06854586 80.43429753 101.23707632 77.625 97.375 C76.77591064 96.21810669 76.77591064 96.21810669 75.90966797 95.0378418 C72.76615231 90.68851365 69.96562209 86.36029864 67.56884766 81.5546875 C65.70766855 78.4786773 63.28552684 75.77528259 61 73 C55.39 73 49.78 73 44 73 C44 87.19 44 101.38 44 116 C50.27 116.66 56.54 117.32 63 118 C64.98 118.495 64.98 118.495 67 119 C67 121.97 67 124.94 67 128 C44.89 128 22.78 128 0 128 C0 125.03 0 122.06 0 119 C3.10373361 118.4971772 6.20793299 117.99762735 9.3125 117.5 C10.19357422 117.35691406 11.07464844 117.21382813 11.98242188 117.06640625 C12.82998047 116.93105469 13.67753906 116.79570312 14.55078125 116.65625 C15.72120972 116.46772461 15.72120972 116.46772461 16.9152832 116.27539062 C19 116 19 116 22 116 C22 81.68 22 47.36 22 12 C15.73 11.34 9.46 10.68 3 10 C2.01 9.67 1.02 9.34 0 9 C0 6.03 0 3.06 0 0 Z M44 10 C44 27.82 44 45.64 44 64 C62.93107843 65.59481519 62.93107843 65.59481519 79.25390625 57.81640625 C79.68574219 57.07261719 80.11757813 56.32882812 80.5625 55.5625 C81.01753906 54.82128906 81.47257812 54.08007812 81.94140625 53.31640625 C85.81167755 44.84751001 85.26188584 32.493818 82.25 23.8125 C79.08068969 16.4614608 75.37286818 12.93762716 68 10 C65.26890256 9.21115066 62.83559499 8.87195233 59.99609375 8.8671875 C59.25552734 8.86589844 58.51496094 8.86460937 57.75195312 8.86328125 C56.98818359 8.86714844 56.22441406 8.87101562 55.4375 8.875 C54.66986328 8.87113281 53.90222656 8.86726563 53.11132812 8.86328125 C49.82072861 8.869019 47.14241093 8.95252969 44 10 Z " fill="#233D88" transform="translate(383,279)"/>
<path d="M0 0 C21.45 0 42.9 0 65 0 C65 2.97 65 5.94 65 9 C62.25071558 9.50423557 59.50068857 10.00353426 56.75 10.5 C55.97269531 10.64308594 55.19539062 10.78617187 54.39453125 10.93359375 C53.64042969 11.06894531 52.88632812 11.20429688 52.109375 11.34375 C51.41811523 11.46943359 50.72685547 11.59511719 50.01464844 11.72460938 C48 12 48 12 44 12 C44.03823397 21.94563889 44.09785033 31.89090651 44.18390274 41.83625317 C44.22321788 46.45554603 44.25548393 51.07465281 44.27099609 55.6940918 C44.28626877 60.16177488 44.32089911 64.62894583 44.36830902 69.09639931 C44.38301438 70.79096305 44.3910347 72.48559995 44.39188385 74.18022728 C44.40521337 87.45722516 44.96682735 100.20739414 54.86328125 110.1953125 C58.03734215 112.87614639 61.08224467 114.63631978 65 116 C65.6290625 116.22300781 66.258125 116.44601562 66.90625 116.67578125 C79.34077801 120.19092667 94.86653638 119.21622581 106.22265625 113.0546875 C114.95594887 107.87229408 118.0751676 100.88694645 120.6458168 91.31795406 C122.5897876 83.4428078 122.60501257 75.63506359 122.609375 67.56640625 C122.62440137 65.95115032 122.64113761 64.33590949 122.65948486 62.72068787 C122.70267173 58.5237853 122.72304761 54.32708969 122.73822021 50.13000488 C122.7579695 45.82548014 122.79991764 41.52117338 122.83984375 37.21679688 C122.91461674 28.81125578 122.96522579 20.40580144 123 12 C121.73542969 11.86722656 120.47085938 11.73445313 119.16796875 11.59765625 C117.50779375 11.41944537 115.84763852 11.24105037 114.1875 11.0625 C113.35412109 10.97548828 112.52074219 10.88847656 111.66210938 10.79882812 C110.45844727 10.66831055 110.45844727 10.66831055 109.23046875 10.53515625 C108.49207764 10.456604 107.75368652 10.37805176 106.99291992 10.29711914 C105 10 105 10 102 9 C102 6.03 102 3.06 102 0 C121.14 0 140.28 0 160 0 C160 2.97 160 5.94 160 9 C157.39643759 9.50333542 154.79223349 10.00279378 152.1875 10.5 C151.44951172 10.64308594 150.71152344 10.78617187 149.95117188 10.93359375 C146.92205609 11.50926281 144.090804 12 141 12 C141.00444122 12.77657455 141.00888245 13.55314911 141.01345825 14.35325623 C141.05389646 21.75017368 141.08416516 29.14703591 141.10362434 36.54403591 C141.11396547 40.34491716 141.12794252 44.14570544 141.15087891 47.9465332 C141.46292387 101.12884844 141.46292387 101.12884844 127 116 C118.82082073 123.65248969 109.041946 128.27344117 98 130 C97.35289062 130.11085938 96.70578125 130.22171875 96.0390625 130.3359375 C75.79160124 133.20626726 51.79425606 131.53737866 35 119 C27.65881528 112.60513988 23.51272661 103.55195582 22 94 C21.91234103 91.29247137 21.87347779 88.61186299 21.88647461 85.9050293 C21.88632858 85.10450638 21.88618256 84.30398346 21.8860321 83.47920227 C21.88672645 80.8441798 21.89449644 78.20922881 21.90234375 75.57421875 C21.90420963 73.74290506 21.90563273 71.91159086 21.90663147 70.08027649 C21.91044328 65.26836765 21.92026215 60.45648916 21.93133545 55.64459229 C21.94157831 50.73116466 21.94613525 45.81773211 21.95117188 40.90429688 C21.96188563 31.26951794 21.97894599 21.6347615 22 12 C21.24631638 11.93402115 20.49263275 11.8680423 19.71611023 11.80006409 C18.72657852 11.71208054 17.73704681 11.62409698 16.7175293 11.53344727 C15.24669136 11.40354149 15.24669136 11.40354149 13.74613953 11.27101135 C10.73203796 10.97355533 7.78504212 10.51656665 4.8125 9.9375 C3.89082031 9.76089844 2.96914063 9.58429688 2.01953125 9.40234375 C1.35308594 9.26957031 0.68664062 9.13679688 0 9 C0 6.03 0 3.06 0 0 Z " fill="#243D88" transform="translate(514,279)"/>
<path d="M0 0 C35.31 0 70.62 0 107 0 C107.99 15.84 107.99 15.84 109 32 C106.36 32 103.72 32 101 32 C99.35 26.06 97.7 20.12 96 14 C71.745 13.505 71.745 13.505 47 13 C47 27.85 47 42.7 47 58 C61.52 58 76.04 58 91 58 C91 62.29 91 66.58 91 71 C76.48 71 61.96 71 47 71 C47 88.82 47 106.64 47 125 C73.73 124.505 73.73 124.505 101 124 C102.65 118.06 104.3 112.12 106 106 C108.64 106 111.28 106 114 106 C113.7393926 110.39694371 113.47275519 114.79346678 113.20043945 119.18969727 C113.10859593 120.68634025 113.01842231 122.18308667 112.92993164 123.67993164 C112.80269731 125.82727761 112.66952801 127.97418411 112.53515625 130.12109375 C112.456604 131.4145874 112.37805176 132.70808105 112.29711914 134.04077148 C112 137 112 137 111 138 C109.55786001 138.09558036 108.11105921 138.12188394 106.66575623 138.12025452 C105.73041046 138.12162918 104.7950647 138.12300385 103.83137512 138.12442017 C102.79703842 138.12082489 101.76270172 138.11722961 100.69702148 138.11352539 C99.61422913 138.11367142 98.53143677 138.11381744 97.41583252 138.1139679 C93.81756626 138.11326823 90.21935103 138.10547333 86.62109375 138.09765625 C84.13387582 138.09579226 81.64665752 138.09436827 79.15943909 138.09336853 C73.26978809 138.0899335 67.3801561 138.08204277 61.49051291 138.07201904 C54.12974626 138.05976246 46.76897736 138.05437791 39.40820312 138.04882812 C26.27212602 138.03808815 13.13606417 138.02120089 0 138 C-0.02689216 136.52093108 -0.04634621 135.04172517 -0.0625 133.5625 C-0.07990234 132.32693359 -0.07990234 132.32693359 -0.09765625 131.06640625 C0 129 0 129 1 128 C11.395 126.515 11.395 126.515 22 125 C22 88.04 22 51.08 22 13 C15.4 12.01 8.8 11.02 2 10 C1.34 9.67 0.68 9.34 0 9 C0 6.03 0 3.06 0 0 Z " fill="#233D87" transform="translate(517,86)"/>
<path d="M0 0 C1.01545898 0.18675293 2.03091797 0.37350586 3.07714844 0.56591797 C19.65737754 3.65737754 19.65737754 3.65737754 21 5 C21.16003488 7.66426685 21.25942889 10.30560428 21.31640625 12.97265625 C21.33718735 13.77029892 21.35796844 14.56794159 21.37937927 15.38975525 C21.44496158 17.94724611 21.50379967 20.5048428 21.5625 23.0625 C21.60567699 24.79232882 21.64929101 26.52214679 21.69335938 28.25195312 C21.80065172 32.5011926 21.90189426 36.7505389 22 41 C18.7 41 15.4 41 12 41 C11.93683594 40.07058594 11.87367188 39.14117187 11.80859375 38.18359375 C10.92142636 28.66418955 10.92142636 28.66418955 5.171875 21.51171875 C4.09679687 20.76341797 4.09679687 20.76341797 3 20 C2.18015625 19.40832031 1.3603125 18.81664063 0.515625 18.20703125 C-15.89080508 7.08764439 -33.2603513 3.93155058 -52.6640625 7.25 C-65.67582522 10.17536117 -76.0127547 15.7873926 -83.4296875 27.05078125 C-91.87244382 42.90720171 -93.37456914 62.13837338 -89.09765625 79.46484375 C-83.73367527 96.74029851 -74.81054379 111.85723712 -58.8125 121.1875 C-43.8359771 128.92399111 -28.14950964 131.06468508 -12 126 C0.50859259 121.30694988 9.66605701 112.70921996 18.703125 103.13671875 C21 101 21 101 23.625 101 C26.07434222 102.03130199 27.2078939 103.09394495 29 105 C26.75311737 108.87681548 24.50194289 112.75112205 22.25 116.625 C21.61578125 117.71941406 20.9815625 118.81382812 20.328125 119.94140625 C19.09777031 122.05607837 17.85552886 124.16388833 16.6003418 126.26391602 C15.03759541 128.8464151 15.03759541 128.8464151 14.03442383 131.03100586 C12.73376967 133.59124089 11.44172869 134.84193183 8.74853516 135.80566406 C5.90160777 136.45818126 3.08049884 136.91274705 0.1875 137.3125 C-1.27139648 137.54549805 -1.27139648 137.54549805 -2.75976562 137.78320312 C-5.50346526 138.21602778 -8.24929073 138.6145052 -11 139 C-12.12760742 139.176521 -13.25521484 139.35304199 -14.41699219 139.53491211 C-40.59826485 142.93333978 -69.3037893 140.04096889 -91 124 C-91.70382812 123.49082031 -92.40765625 122.98164063 -93.1328125 122.45703125 C-105.4740087 112.65666956 -112.53695627 97.29378319 -115 82 C-115.11085938 81.33226562 -115.22171875 80.66453125 -115.3359375 79.9765625 C-118.01903521 60.46971697 -115.43694297 39.54922016 -103.76953125 23.21484375 C-90.86423306 7.06185462 -73.07045889 -1.14457031 -52.7578125 -3.71484375 C-34.75596022 -5.08088867 -17.70875892 -3.27437665 0 0 Z " fill="#233D88" transform="translate(472,87)"/>
<path d="M0 0 C32.34 0 64.68 0 98 0 C101.00291788 9.00875363 100.13836506 19.60654963 100 29 C97.69 29.33 95.38 29.66 93 30 C92.32873871 27.5636811 91.66283646 25.12611117 91 22.6875 C90.80921875 21.99720703 90.6184375 21.30691406 90.421875 20.59570312 C89.62283816 17.64212051 89 15.07440781 89 12 C73.82 12 58.64 12 43 12 C43 25.86 43 39.72 43 54 C56.53 54 70.06 54 84 54 C84 57.96 84 61.92 84 66 C70.47 66 56.94 66 43 66 C43 82.5 43 99 43 116 C59.5 116 76 116 93 116 C94.32 110.39 95.64 104.78 97 99 C98 98 98 98 101.5625 97.9375 C102.696875 97.958125 103.83125 97.97875 105 98 C104.85852385 101.12521271 104.71098753 104.25011319 104.5625 107.375 C104.52318359 108.24511719 104.48386719 109.11523438 104.44335938 110.01171875 C104.40146484 110.88183594 104.35957031 111.75195312 104.31640625 112.6484375 C104.27974854 113.43395996 104.24309082 114.21948242 104.20532227 115.02880859 C103.9059604 119.36083469 103.43208071 123.67919292 103 128 C69.01 128 35.02 128 0 128 C0 125.03 0 122.06 0 119 C2.74928442 118.49576443 5.49931143 117.99646574 8.25 117.5 C9.02730469 117.35691406 9.80460938 117.21382813 10.60546875 117.06640625 C11.35957031 116.93105469 12.11367188 116.79570312 12.890625 116.65625 C13.92751465 116.46772461 13.92751465 116.46772461 14.98535156 116.27539062 C17 116 17 116 21 116 C21 81.68 21 47.36 21 12 C14.07 11.01 7.14 10.02 0 9 C0 6.03 0 3.06 0 0 Z " fill="#233D88" transform="translate(889,279)"/>
<path d="M0 0 C19.15692938 -0.52846702 38.16951508 4.25431649 56.765625 8.125 C57.095625 19.345 57.425625 30.565 57.765625 42.125 C54.795625 42.125 51.825625 42.125 48.765625 42.125 C48.73726563 41.29097656 48.70890625 40.45695312 48.6796875 39.59765625 C48.13343931 33.15340397 47.3175905 28.79218704 42.515625 24.25 C28.39290502 13.17974111 12.46977626 8.63088743 -5.234375 10.125 C-17.86965248 11.80883347 -29.80021215 15.87686835 -37.85546875 26.203125 C-47.14887214 40.20116901 -48.67461042 58.89093547 -45.57421875 75.15234375 C-44.67581599 78.60983315 -43.58003979 81.8169074 -42.234375 85.125 C-41.76 86.29289062 -41.285625 87.46078125 -40.796875 88.6640625 C-34.0102566 103.64030215 -23.00331479 114.64144442 -7.484375 120.5 C6.71633268 124.74367849 20.09606657 123.67022747 33.328125 117.125 C40.43443934 113.07655425 46.00101303 107.87265723 51.765625 102.125 C52.24515625 101.64708008 52.7246875 101.16916016 53.21875 100.67675781 C54.40310265 99.49490028 55.58466061 98.31024324 56.765625 97.125 C59.703125 97.9375 59.703125 97.9375 62.765625 99.125 C63.095625 100.115 63.425625 101.105 63.765625 102.125 C62.49447325 104.56561137 61.18328493 106.81633012 59.703125 109.125 C56.75520468 113.78609187 54.19591764 118.32196115 51.953125 123.375 C50.35537693 126.27843466 49.3980265 127.78513797 46.46875 129.359375 C43.23523867 130.25452786 40.09629322 130.70352655 36.765625 131.125 C35.12418693 131.39483938 33.48361296 131.66996672 31.84375 131.94921875 C6.20520248 136.16461326 -21.53536141 135.32521939 -44 120.73828125 C-57.52714276 110.97130579 -65.74828381 97.35644421 -68.83959961 80.93334961 C-71.68049292 60.72382843 -69.5463199 40.96877331 -57.75 23.98828125 C-46.21604733 9.45664287 -28.02918843 3.12220286 -10.25390625 0.72265625 C-6.8382235 0.370971 -3.42715733 0.19172908 0 0 Z " fill="#233D88" transform="translate(297.234375,275.875)"/>
<path d="M0 0 C3.91875 0.825 7.8375 1.65 11.875 2.5 C12.205 12.4 12.535 22.3 12.875 32.5 C10.565 32.5 8.255 32.5 5.875 32.5 C5.65585938 31.7265625 5.43671875 30.953125 5.2109375 30.15625 C2.70365324 21.92094235 -0.07372342 14.71352439 -7.6875 10.0625 C-14.72261633 6.86471985 -22.83493513 6.23054452 -30.3125 8.5 C-35.07336795 10.51272466 -38.22150587 14.3257012 -41.125 18.5 C-42.9520828 23.98124839 -43.2382125 30.36323767 -41.2890625 35.85546875 C-36.27874855 44.54785906 -27.36182121 48.61922334 -18.5 52.4375 C-16.54488733 53.3070539 -14.59045917 54.1781485 -12.63671875 55.05078125 C-11.6936084 55.46924316 -10.75049805 55.88770508 -9.77880859 56.31884766 C14.41971096 67.08908111 14.41971096 67.08908111 19.875 80.5 C22.72186619 89.04059857 21.63369039 99.95189834 18.12890625 108.109375 C11.70424817 120.35825583 1.87126811 126.439728 -11.125 130.5 C-28.39617607 134.58227798 -48.48324327 130.32087837 -64.125 122.5 C-64.51864574 120.10962545 -64.7848465 117.81115351 -64.9765625 115.40234375 C-65.04032074 114.69348526 -65.10407898 113.98462677 -65.16976929 113.25428772 C-65.37203191 110.98270247 -65.56114463 108.7102354 -65.75 106.4375 C-65.88455424 104.90031489 -66.01995982 103.36320404 -66.15625 101.82617188 C-66.48906358 98.05157317 -66.81008564 94.27613245 -67.125 90.5 C-64.485 90.17 -61.845 89.84 -59.125 89.5 C-58.89425781 90.40621094 -58.66351562 91.31242187 -58.42578125 92.24609375 C-55.74327489 102.26573212 -53.28716478 111.24975963 -44.2734375 117.28125 C-35.50784879 122.25372942 -25.77238781 123.02455503 -15.95703125 120.7734375 C-10.58195738 118.98900002 -6.6850476 117.06131098 -3.125 112.5 C-2.25875 111.4171875 -2.25875 111.4171875 -1.375 110.3125 C1.00752813 104.9518117 1.65827449 99.05571057 0 93.375 C-4.1247841 84.56764447 -13.13390274 80.05775784 -21.6875 76.5 C-23.63100427 75.64895074 -25.57370765 74.79607032 -27.515625 73.94140625 C-28.9397168 73.32289795 -28.9397168 73.32289795 -30.39257812 72.69189453 C-55.96242379 61.53821453 -55.96242379 61.53821453 -61.46875 47.54296875 C-64.76758685 37.27337546 -63.82216364 26.70472915 -58.90625 17.125 C-53.38123817 8.03942499 -45.25681858 2.45202328 -35.125 -0.5 C-22.85644222 -3.34370545 -12.23166377 -2.62976713 0 0 Z " fill="#233D88" transform="translate(1087.125,278.5)"/>
<path d="M0 0 C1.15177734 0.23847656 2.30355469 0.47695313 3.49023438 0.72265625 C6.30774239 1.30720148 9.12329171 1.89980583 11.9375 2.5 C13.12898936 23.03191489 13.12898936 23.03191489 12.9375 32.5 C10.6275 32.5 8.3175 32.5 5.9375 32.5 C5.57398438 31.30503906 5.57398438 31.30503906 5.203125 30.0859375 C2.39437182 21.2059563 -0.10830997 14.19937506 -8.7734375 9.58984375 C-15.58596804 6.60067219 -23.19062491 6.37447914 -30.3125 8.5 C-35.02893971 10.52272054 -38.17996163 14.3558289 -41.0625 18.5 C-43.00282359 24.32097077 -43.07553049 31.058086 -40.625 36.75 C-34.42226621 47.11592461 -22.11433644 50.8097894 -11.59863281 55.38574219 C13.99835826 66.63185956 13.99835826 66.63185956 19.9375 79.5 C23.0641297 88.83705856 21.87047547 101.11681363 17.59375 109.7890625 C10.97290698 120.62600839 2.08391058 126.70595951 -9.9140625 130.37109375 C-28.7168448 134.39233775 -46.88698815 130.0038644 -64.0625 122.5 C-65.0525 111.94 -66.0425 101.38 -67.0625 90.5 C-64.4225 90.17 -61.7825 89.84 -59.0625 89.5 C-58.62550781 91.07587891 -58.62550781 91.07587891 -58.1796875 92.68359375 C-54.14113796 106.94054595 -54.14113796 106.94054595 -44.125 117.4375 C-35.39894303 122.18526083 -25.5545633 123.04915164 -15.88671875 120.7421875 C-8.98972389 118.37163717 -4.08489443 115.95428777 -0.75 109.25 C1.84985564 102.71839547 1.78301693 97.85942413 -0.875 91.4375 C-6.96202311 80.60456948 -21.25854262 76.57655506 -32.12304688 72.0390625 C-43.59349421 67.12036813 -55.53417247 60.73084445 -60.9375 48.8125 C-64.29963768 38.9128724 -63.83552354 29.26126924 -60.0625 19.5 C-55.68394923 10.700797 -48.87167634 4.76256623 -39.75 1.1875 C-25.95392753 -3.30828306 -14.01452867 -2.99213826 0 0 Z " fill="#233D88" transform="translate(849.0625,278.5)"/>
<path d="M0 0 C1.27685165 0.00222061 2.55370331 0.00444122 3.86924744 0.00672913 C4.57165054 0.0065831 5.27405365 0.00643707 5.9977417 0.00628662 C8.32985983 0.00698579 10.66189904 0.01477835 12.9940033 0.02259827 C14.60683142 0.02446243 16.21966012 0.02588634 17.83248901 0.02688599 C22.08550062 0.03071129 26.33847828 0.04054167 30.59147644 0.05158997 C34.92812135 0.06180383 39.26477171 0.06638355 43.60142517 0.07142639 C52.11641474 0.08216393 60.63137667 0.09924049 69.14634705 0.12025452 C69.14634705 3.42025452 69.14634705 6.72025452 69.14634705 10.12025452 C61.22634705 11.11025452 53.30634705 12.10025452 45.14634705 13.12025452 C45.14634705 50.41025452 45.14634705 87.70025452 45.14634705 126.12025452 C52.07634705 126.61525452 52.07634705 126.61525452 59.14634705 127.12025452 C62.49142954 127.72521624 65.83153274 128.36688763 69.14634705 129.12025452 C69.14634705 132.09025452 69.14634705 135.06025452 69.14634705 138.12025452 C45.38634705 138.12025452 21.62634705 138.12025452 -2.85365295 138.12025452 C-2.85365295 135.15025452 -2.85365295 132.18025452 -2.85365295 129.12025452 C5.34343221 127.25728062 12.53934799 126.73504016 21.14634705 126.12025452 C21.14634705 88.83025452 21.14634705 51.54025452 21.14634705 13.12025452 C9.26634705 11.63525452 9.26634705 11.63525452 -2.85365295 10.12025452 C-3.85365295 9.12025452 -3.85365295 9.12025452 -3.98646545 7.30775452 C-3.98388733 6.58587952 -3.9813092 5.86400452 -3.97865295 5.12025452 C-3.98123108 4.39837952 -3.9838092 3.67650452 -3.98646545 2.93275452 C-3.76220687 -0.12771558 -3.10237603 0.13073584 0 0 Z " fill="#233D88" transform="translate(1002.8536529541016,85.87974548339844)"/>
<path d="M0 0 C22.11 0 44.22 0 67 0 C67 2.97 67 5.94 67 9 C64.08397391 9.50400451 61.16727908 10.00334666 58.25 10.5 C57.425 10.64308594 56.6 10.78617187 55.75 10.93359375 C54.55117188 11.13662109 54.55117188 11.13662109 53.328125 11.34375 C52.5949707 11.46943359 51.86181641 11.59511719 51.10644531 11.72460938 C49 12 49 12 45 12 C45 46.32 45 80.64 45 116 C50.94 116.66 56.88 117.32 63 118 C64.98 118.495 64.98 118.495 67 119 C67 121.97 67 124.94 67 128 C45.22 128 23.44 128 1 128 C1 125.03 1 122.06 1 119 C3.91602609 118.49599549 6.83272092 117.99665334 9.75 117.5 C10.575 117.35691406 11.4 117.21382813 12.25 117.06640625 C13.04921875 116.93105469 13.8484375 116.79570312 14.671875 116.65625 C15.77160645 116.46772461 15.77160645 116.46772461 16.89355469 116.27539062 C19 116 19 116 23 116 C23 81.68 23 47.36 23 12 C17.555 11.505 17.555 11.505 12 11 C9.76612885 10.67683173 7.53528064 10.32975541 5.3125 9.9375 C3.79076172 9.67259766 3.79076172 9.67259766 2.23828125 9.40234375 C1.49964844 9.26957031 0.76101563 9.13679688 0 9 C0 6.03 0 3.06 0 0 Z " fill="#233D87" transform="translate(691,279)"/>
<path d="M0 0 C1.99441631 1.91185877 3.42204507 3.71468597 5 6 C3.96166016 5.80083984 3.96166016 5.80083984 2.90234375 5.59765625 C-20.9824689 1.28643183 -43.79976153 3.88728271 -67.10546875 10.078125 C-91.18925588 16.47017045 -118.21585991 18.19959554 -141.015625 6.4453125 C-143.41117642 5.0374007 -145.72119341 3.58865374 -148 2 C-149.12341797 1.23042969 -149.12341797 1.23042969 -150.26953125 0.4453125 C-150.84058594 -0.03164062 -151.41164063 -0.50859375 -152 -1 C-152 -1.66 -152 -2.32 -152 -3 C-144.56425011 -2.10258191 -144.56425011 -2.10258191 -141.22290039 -1.49511719 C-118.62485505 1.97650132 -95.93795919 -2.55059215 -74.15893555 -8.27294922 C-50.17013998 -14.43285578 -21.13497595 -14.49255494 0 0 Z " fill="#1489CA" transform="translate(237,131)"/>
<path d="M0 0 C2.07128551 1.6005388 4.02862739 3.27430896 6 5 C2.78904677 6.04052759 0.75986365 5.90217316 -2.4921875 5.0859375 C-26.17191488 -0.04827761 -51.58452553 6.11220959 -74.54125977 11.98095703 C-96.74911749 17.61411602 -122.35268613 16.92341708 -142.6953125 5.484375 C-146.57353387 3.0152823 -149.36390431 0.80678415 -152 -3 C-151.00355469 -2.85820313 -150.00710937 -2.71640625 -148.98046875 -2.5703125 C-148.33770996 -2.47911133 -147.69495117 -2.38791016 -147.03271484 -2.29394531 C-145.12036502 -2.01740566 -143.21046041 -1.72410477 -141.30078125 -1.4296875 C-116.0265639 2.22403342 -91.70962462 -3.3201027 -67.25976562 -9.4909668 C-44.60079002 -14.59511158 -19.91787004 -12.12720948 0 0 Z " fill="#1489CA" transform="translate(184,109)"/>
</svg>
